ISO-10303-21;
HEADER;
FILE_DESCRIPTION (( 'STEP AP214' ),
    '1' );
FILE_NAME ('Axle_support_block.STEP',
    '2026-03-08T17:23:33',
    ( '' ),
    ( '' ),
    'SwSTEP 2.0',
    'SolidWorks 2025',
    '' );
FILE_SCHEMA (( 'AUTOMOTIVE_DESIGN' ));
ENDSEC;

DATA;
#1 = FACE_BOUND ( 'NONE', #295, .T. ) ;
#2 = EDGE_CURVE ( 'NONE', #172, #151, #556, .T. ) ;
#3 = LINE ( 'NONE', #134, #218 ) ;
#4 = CARTESIAN_POINT ( 'NONE',  ( 59.67275076541224621, 25.77443371895918744, -8.766934058847740019 ) ) ;
#5 = CARTESIAN_POINT ( 'NONE',  ( 5.000000000000000000, 46.00000000000000000, -5.000000000000000000 ) ) ;
#6 = DIRECTION ( 'NONE',  ( -0.000000000000000000, 1.000000000000000000, -0.000000000000000000 ) ) ;
#7 = CARTESIAN_POINT ( 'NONE',  ( 61.69941808717942422, 29.82776836249297148, -6.608002382449633672 ) ) ;
#8 = DIRECTION ( 'NONE',  ( 1.000000000000000000, 0.000000000000000000, 0.000000000000000000 ) ) ;
#9 = CIRCLE ( 'NONE', #567, 2.750000000000002665 ) ;
#10 = CIRCLE ( 'NONE', #118, 2.749999999999998224 ) ;
#11 = AXIS2_PLACEMENT_3D ( 'NONE', #469, #600, #719 ) ;
#12 = CARTESIAN_POINT ( 'NONE',  ( 54.99999999998638600, 23.50000000000342126, -4.836293484656523312 ) ) ;
#13 = CARTESIAN_POINT ( 'NONE',  ( 105.0000000000000000, 0.000000000000000000, -10.00000000000000000 ) ) ;
#14 = PRESENTATION_LAYER_ASSIGNMENT (  '', '', ( #760 ) ) ;
#15 = CARTESIAN_POINT ( 'NONE',  ( 61.62136782913380983, 29.67166784640391342, -6.762247726915997070 ) ) ;
#16 = CYLINDRICAL_SURFACE ( 'NONE', #196, 2.749999999999998224 ) ;
#17 = EDGE_CURVE ( 'NONE', #154, #620, #646, .T. ) ;
#18 = CARTESIAN_POINT ( 'NONE',  ( 77.49999999999997158, 46.00000000000000000, -7.928932188134525383 ) ) ;
#19 = DIRECTION ( 'NONE',  ( 0.000000000000000000, 0.000000000000000000, 1.000000000000000000 ) ) ;
#20 = DIRECTION ( 'NONE',  ( 0.000000000000000000, 0.000000000000000000, -1.000000000000000000 ) ) ;
#21 = ORIENTED_EDGE ( 'NONE', *, *, #560, .T. ) ;
#22 = CARTESIAN_POINT ( 'NONE',  ( 55.00000000000468958, 22.38501938435759087, -1.469372153230051214 ) ) ;
#23 = DIRECTION ( 'NONE',  ( 0.000000000000000000, 0.000000000000000000, -1.000000000000000000 ) ) ;
#24 = EDGE_CURVE ( 'NONE', #256, #486, #10, .T. ) ;
#25 = LINE ( 'NONE', #402, #103 ) ;
#26 = CARTESIAN_POINT ( 'NONE',  ( 51.45632959894711433, 23.51627299023994766, -0.6608420049620161718 ) ) ;
#27 =( BOUNDED_CURVE ( )  B_SPLINE_CURVE ( 3, ( #502, #691, #57, #127 ),
 .UNSPECIFIED., .F., .T. ) 
 B_SPLINE_CURVE_WITH_KNOTS ( ( 4, 4 ),
 ( 4.712388980384689674, 6.283185307179586232 ),
 .UNSPECIFIED. ) 
 CURVE ( )  GEOMETRIC_REPRESENTATION_ITEM ( )  RATIONAL_B_SPLINE_CURVE ( ( 1.000000000000000000, 0.8047378541243649375, 0.8047378541243649375, 1.000000000000000000 ) ) 
 REPRESENTATION_ITEM ( '' )  );
#28 = ORIENTED_EDGE ( 'NONE', *, *, #225, .F. ) ;
#29 = CIRCLE ( 'NONE', #110, 2.750000000000008438 ) ;
#30 = EDGE_CURVE ( 'NONE', #611, #308, #599, .T. ) ;
#31 = PLANE ( 'NONE',  #802 ) ;
#32 = VECTOR ( 'NONE', #42, 1000.000000000000000 ) ;
#33 = CARTESIAN_POINT ( 'NONE',  ( 54.99999999999999289, 24.51317270141351656, -3.343407381883437335 ) ) ;
#34 = ORIENTED_EDGE ( 'NONE', *, *, #592, .T. ) ;
#35 = CARTESIAN_POINT ( 'NONE',  ( 5.000000000000000000, 46.00000000000000000, -5.000000000000000000 ) ) ;
#36 = CARTESIAN_POINT ( 'NONE',  ( 47.92893218813453871, 30.57106781186548616, -2.071067811865475949 ) ) ;
#37 = VECTOR ( 'NONE', #674, 1000.000000000000000 ) ;
#38 = CARTESIAN_POINT ( 'NONE',  ( 25.00000000000000000, 46.00000000000000000, -7.749999999999998224 ) ) ;
#39 = CARTESIAN_POINT ( 'NONE',  ( 59.31327918281780143, 25.05549055376932088, -1.024461872011813712 ) ) ;
#40 = EDGE_CURVE ( 'NONE', #251, #611, #789, .T. ) ;
#41 = ORIENTED_EDGE ( 'NONE', *, *, #319, .T. ) ;
#42 = DIRECTION ( 'NONE',  ( -0.000000000000000000, -1.000000000000000000, -0.000000000000000000 ) ) ;
#43 = ORIENTED_EDGE ( 'NONE', *, *, #263, .F. ) ;
#44 = EDGE_LOOP ( 'NONE', ( #48, #168, #330, #805 ) ) ;
#45 = DIRECTION ( 'NONE',  ( 0.000000000000000000, 0.000000000000000000, 1.000000000000000000 ) ) ;
#46 = CARTESIAN_POINT ( 'NONE',  ( 0.000000000000000000, 0.000000000000000000, 0.000000000000000000 ) ) ;
#47 = VECTOR ( 'NONE', #407, 1000.000000000000000 ) ;
#48 = ORIENTED_EDGE ( 'NONE', *, *, #385, .F. ) ;
#49 = ADVANCED_FACE ( 'NONE', ( #344 ), #603, .T. ) ;
#50 = VECTOR ( 'NONE', #692, 1000.000000000000000 ) ;
#51 = ORIENTED_EDGE ( 'NONE', *, *, #24, .F. ) ;
#52 = DIRECTION ( 'NONE',  ( -0.000000000000000000, 1.000000000000000000, -0.000000000000000000 ) ) ;
#53 = DIRECTION ( 'NONE',  ( 0.000000000000000000, 0.000000000000000000, -1.000000000000000000 ) ) ;
#54 = ORIENTED_EDGE ( 'NONE', *, *, #191, .T. ) ;
#55 =( BOUNDED_SURFACE ( )  B_SPLINE_SURFACE ( 3, 2, ( 
 ( #652, #77, #327 ),
 ( #133, #522, #575 ),
 ( #774, #517, #323 ),
 ( #387, #765, #198 ),
 ( #201, #447, #703 ),
 ( #209, #71, #770 ),
 ( #138, #460, #579 ),
 ( #265, #644, #525 ),
 ( #166, #792, #655 ),
 ( #408, #336, #148 ),
 ( #161, #224, #290 ),
 ( #280, #782, #590 ),
 ( #529, #94, #606 ),
 ( #673, #601, #212 ),
 ( #669, #474, #331 ),
 ( #795, #33, #342 ),
 ( #39, #82, #778 ),
 ( #98, #539, #26 ),
 ( #665, #22, #596 ),
 ( #787, #462, #727 ),
 ( #399, #712, #216 ),
 ( #282, #88, #287 ),
 ( #466, #721, #102 ),
 ( #716, #411, #228 ) ),
 .UNSPECIFIED., .F., .F., .T. ) 
 B_SPLINE_SURFACE_WITH_KNOTS ( ( 4, 2, 2, 2, 2, 2, 2, 2, 2, 2, 2, 4 ),
 ( 3, 3 ),
 ( 6.283185307179586232, 6.381360077604266934, 6.479534848028948524, 6.577709618453630114, 6.675884388878310816, 6.774059159302991517, 6.872233929727672219, 7.068583470577034511, 7.264933011426396803, 7.461282552275758206, 7.657632093125120498, 7.853981633974482790 ),
 ( 0.000000000000000000, 1.000000000000000000 ),
 .UNSPECIFIED. ) 
 GEOMETRIC_REPRESENTATION_ITEM ( )  RATIONAL_B_SPLINE_SURFACE ( (
 ( 1.000000000000000000, 0.7071067811865476838, 1.000000000000000000),
 ( 1.000000000000000000, 0.7071044369480055103, 1.000000000000000000),
 ( 1.000000000000000000, 0.7082489452437776833, 1.000000000000000000),
 ( 1.000000000000000000, 0.7127418075751030813, 1.000000000000000000),
 ( 1.000000000000000000, 0.7160917254019428801, 1.000000000000000000),
 ( 1.000000000000000000, 0.7247831711413735833, 1.000000000000000000),
 ( 1.000000000000000000, 0.7301234195095261947, 1.000000000000000000),
 ( 1.000000000000000000, 0.7424696633539848989, 1.000000000000000000),
 ( 1.000000000000000000, 0.7494742688693266652, 1.000000000000000000),
 ( 1.000000000000000000, 0.7647559708278769408, 1.000000000000000000),
 ( 1.000000000000000000, 0.7730318702337416470, 1.000000000000000000),
 ( 1.000000000000000000, 0.7904353558315803108, 1.000000000000000000),
 ( 1.000000000000000000, 0.7995620738889162027, 1.000000000000000000),
 ( 1.000000000000000000, 0.8275942695871796317, 1.000000000000000000),
 ( 1.000000000000000000, 0.8471316604411228690, 1.000000000000000000),
 ( 1.000000000000000000, 0.8849191471277529919, 1.000000000000000000),
 ( 1.000000000000000000, 0.9031650994186536385, 1.000000000000000000),
 ( 1.000000000000000000, 0.9360421842677417725, 1.000000000000000000),
 ( 1.000000000000000000, 0.9506740354005170923, 1.000000000000000000),
 ( 1.000000000000000000, 0.9747108043617953577, 1.000000000000000000),
 ( 1.000000000000000000, 0.9841171504879826504, 1.000000000000000000),
 ( 1.000000000000000000, 0.9967613244597577360, 1.000000000000000000),
 ( 1.000000000000000000, 1.000009746411443690, 1.000000000000000000),
 ( 1.000000000000000000, 1.000000000000000000, 1.000000000000000000) ) ) 
 REPRESENTATION_ITEM ( '' )  SURFACE ( )  );
#56 = ORIENTED_EDGE ( 'NONE', *, *, #67, .T. ) ;
#57 = CARTESIAN_POINT ( 'NONE',  ( 62.07106781186546129, 30.57106781186549682, -7.928932188134525383 ) ) ;
#58 = CARTESIAN_POINT ( 'NONE',  ( 5.000000000000000000, 46.00000000000000000, 0.000000000000000000 ) ) ;
#59 = VECTOR ( 'NONE', #351, 1000.000000000000000 ) ;
#60 = ORIENTED_EDGE ( 'NONE', *, *, #690, .F. ) ;
#61 = CARTESIAN_POINT ( 'NONE',  ( 58.53553390593273775, 19.96446609406728001, -5.000000000000000000 ) ) ;
#62 = CARTESIAN_POINT ( 'NONE',  ( 53.16659537580963502, 20.09574143651534328, -9.840083243453674910 ) ) ;
#63 = ORIENTED_EDGE ( 'NONE', *, *, #429, .T. ) ;
#64 = CYLINDRICAL_SURFACE ( 'NONE', #413, 2.750000000000002665 ) ;
#65 = CARTESIAN_POINT ( 'NONE',  ( 55.00000000000959233, 20.04788209745354166, -9.523442458419868473 ) ) ;
#66 = DIRECTION ( 'NONE',  ( 0.000000000000000000, 1.000000000000000000, 0.000000000000000000 ) ) ;
#67 = EDGE_CURVE ( 'NONE', #625, #308, #604, .T. ) ;
#68 = EDGE_CURVE ( 'NONE', #172, #818, #334, .T. ) ;
#69 = DIRECTION ( 'NONE',  ( 0.000000000000000000, 0.000000000000000000, -1.000000000000000000 ) ) ;
#70 = CARTESIAN_POINT ( 'NONE',  ( 55.00000000000001421, 23.04502237510916984, -8.098734034180026242 ) ) ;
#71 = CARTESIAN_POINT ( 'NONE',  ( 54.99999999999827338, 23.98475490406579880, -5.923442267058480759 ) ) ;
#72 = CARTESIAN_POINT ( 'NONE',  ( 61.89005529627359437, 30.20904278068208271, -6.135932226198519857 ) ) ;
#73 = CARTESIAN_POINT ( 'NONE',  ( 25.00000000000000000, 46.00000000000000000, -5.000000000000000000 ) ) ;
#74 = FILL_AREA_STYLE_COLOUR ( '', #95 ) ;
#75 = EDGE_CURVE ( 'NONE', #744, #625, #569, .T. ) ;
#76 = CARTESIAN_POINT ( 'NONE',  ( 47.98566249362436054, 30.45760720088702556, -5.652922421646797702 ) ) ;
#77 = CARTESIAN_POINT ( 'NONE',  ( 55.00000000000000711, 23.50000000000001776, -5.000000000000000000 ) ) ;
#78 = CARTESIAN_POINT ( 'NONE',  ( 84.57106781186544708, 46.00000000000000000, -10.00000000000000000 ) ) ;
#79 = DIRECTION ( 'NONE',  ( 0.000000000000000000, -1.000000000000000000, 0.000000000000000000 ) ) ;
#80 = CARTESIAN_POINT ( 'NONE',  ( 0.000000000000000000, 46.00000000000000000, -5.000000000000000000 ) ) ;
#81 = ORIENTED_EDGE ( 'NONE', *, *, #255, .T. ) ;
#82 = CARTESIAN_POINT ( 'NONE',  ( 55.00000000000000711, 24.11197415151008272, -2.835488002918149508 ) ) ;
#83 = SURFACE_STYLE_USAGE ( .BOTH. , #788 ) ;
#84 = EDGE_CURVE ( 'NONE', #800, #757, #155, .T. ) ;
#85 = AXIS2_PLACEMENT_3D ( 'NONE', #640, #457, #637 ) ;
#86 = ORIENTED_EDGE ( 'NONE', *, *, #202, .T. ) ;
#87 = DIRECTION ( 'NONE',  ( 0.000000000000000000, 0.000000000000000000, -1.000000000000000000 ) ) ;
#88 = CARTESIAN_POINT ( 'NONE',  ( 55.00000000000475353, 18.28569558857345712, -0.09853334035715655137 ) ) ;
#89 = AXIS2_PLACEMENT_3D ( 'NONE', #659, #785, #729 ) ;
#90 = DIRECTION ( 'NONE',  ( 0.000000000000000000, 0.000000000000000000, -1.000000000000000000 ) ) ;
#91 = VECTOR ( 'NONE', #635, 1000.000000000000114 ) ;
#92 = EDGE_LOOP ( 'NONE', ( #397, #483, #563, #540 ) ) ;
#93 = CARTESIAN_POINT ( 'NONE',  ( 84.57106781186546129, 46.00000000000000000, 0.000000000000000000 ) ) ;
#94 = CARTESIAN_POINT ( 'NONE',  ( 55.00000000000000000, 25.06311308057182430, -5.347797821115541694 ) ) ;
#95 = COLOUR_RGB ( '',0.7921568627450980005, 0.8196078431372548767, 0.9333333333333333481 ) ;
#96 = DIRECTION ( 'NONE',  ( -0.7071067811865474617, -0.7071067811865474617, -0.000000000000000000 ) ) ;
#97 = CARTESIAN_POINT ( 'NONE',  ( 80.42893218813451028, 46.00000000000000000, -5.380361143677898820E-16 ) ) ;
#98 = CARTESIAN_POINT ( 'NONE',  ( 58.54367040105324804, 23.51627299024181994, -0.6608420049627435899 ) ) ;
#99 = FACE_BOUND ( 'NONE', #105, .T. ) ;
#100 = CARTESIAN_POINT ( 'NONE',  ( 25.00000000000000000, 46.00000000000000000, -5.000000000000000000 ) ) ;
#101 = EDGE_CURVE ( 'NONE', #625, #154, #229, .T. ) ;
#102 = CARTESIAN_POINT ( 'NONE',  ( 54.53719444415962414, 17.35454329982012567, -1.413587610960850920E-15 ) ) ;
#103 = VECTOR ( 'NONE', #794, 1000.000000000000000 ) ;
#104 = LINE ( 'NONE', #533, #449 ) ;
#105 = EDGE_LOOP ( 'NONE', ( #294, #432 ) ) ;
#106 = CARTESIAN_POINT ( 'NONE',  ( 25.00000000000000000, 46.00000000000000000, -5.000000000000000000 ) ) ;
#107 = DIRECTION ( 'NONE',  ( 0.000000000000000000, -1.000000000000000000, 0.000000000000000000 ) ) ;
#108 = EDGE_LOOP ( 'NONE', ( #738, #302, #745, #422 ) ) ;
#109 = EDGE_LOOP ( 'NONE', ( #527, #630, #801, #163 ) ) ;
#110 = AXIS2_PLACEMENT_3D ( 'NONE', #758, #130, #69 ) ;
#111 = DIRECTION ( 'NONE',  ( 1.000000000000000000, 0.000000000000000000, 0.000000000000000000 ) ) ;
#112 =( NAMED_UNIT ( * ) PLANE_ANGLE_UNIT ( ) SI_UNIT ( $, .RADIAN. ) );
#113 = ADVANCED_FACE ( 'NONE', ( #480 ), #291, .T. ) ;
#114 = ORIENTED_EDGE ( 'NONE', *, *, #131, .T. ) ;
#115 = ORIENTED_EDGE ( 'NONE', *, *, #385, .T. ) ;
#116 = VERTEX_POINT ( 'NONE', #220 ) ;
#117 = CARTESIAN_POINT ( 'NONE',  ( 5.000000000000000000, 46.00000000000000000, -10.00000000000000000 ) ) ;
#118 = AXIS2_PLACEMENT_3D ( 'NONE', #100, #666, #338 ) ;
#119 = CARTESIAN_POINT ( 'NONE',  ( 50.32724923458760458, 25.77443371896111302, -8.766934058846480582 ) ) ;
#120 = EDGE_CURVE ( 'NONE', #256, #718, #346, .T. ) ;
#121 = VERTEX_POINT ( 'NONE', #223 ) ;
#122 = VERTEX_POINT ( 'NONE', #668 ) ;
#123 = CARTESIAN_POINT ( 'NONE',  ( 25.00000000000000000, 0.000000000000000000, -5.000000000000000000 ) ) ;
#124 = CARTESIAN_POINT ( 'NONE',  ( 61.12704378796080817, 28.68301976405586018, -7.501287713475949026 ) ) ;
#125 = AXIS2_PLACEMENT_3D ( 'NONE', #106, #683, #169 ) ;
#126 = ORIENTED_EDGE ( 'NONE', *, *, #68, .F. ) ;
#127 = CARTESIAN_POINT ( 'NONE',  ( 62.07106781186546840, 30.57106781186549327, -5.000000000000000000 ) ) ;
#128 = CARTESIAN_POINT ( 'NONE',  ( 54.53719444415365558, 17.35454329981519095, -10.00000000000000000 ) ) ;
#129 = EDGE_LOOP ( 'NONE', ( #549, #593, #819 ) ) ;
#130 = DIRECTION ( 'NONE',  ( 0.000000000000000000, 1.000000000000000000, -0.000000000000000000 ) ) ;
#131 = EDGE_CURVE ( 'NONE', #744, #620, #104, .T. ) ;
#132 = CARTESIAN_POINT ( 'NONE',  ( 55.00000000000000000, 17.35453602942548912, -9.999999999998797406 ) ) ;
#133 = CARTESIAN_POINT ( 'NONE',  ( 62.07106781186165279, 30.57106781186165989, -4.836375266514510329 ) ) ;
#134 = CARTESIAN_POINT ( 'NONE',  ( 0.000000000000000000, 0.000000000000000000, 0.000000000000000000 ) ) ;
#135 = CARTESIAN_POINT ( 'NONE',  ( 55.00000000000456879, 20.88786634032172884, -9.239430607184575095 ) ) ;
#136 = CARTESIAN_POINT ( 'NONE',  ( 25.42893218813452449, 46.00000000000000000, 0.000000000000000000 ) ) ;
#137 = CARTESIAN_POINT ( 'NONE',  ( 55.00000000000000711, 24.11448261980717689, -4.018047059419804334 ) ) ;
#138 = CARTESIAN_POINT ( 'NONE',  ( 61.83376192456407239, 30.09645603726314178, -3.705155609905077974 ) ) ;
#139 = CYLINDRICAL_SURFACE ( 'NONE', #613, 2.750000000000008438 ) ;
#140 = VECTOR ( 'NONE', #489, 1000.000000000000000 ) ;
#141 = EDGE_CURVE ( 'NONE', #313, #251, #643, .T. ) ;
#142 = CARTESIAN_POINT ( 'NONE',  ( 55.00000000000000711, 23.75925748979154761, -4.259761771435389477 ) ) ;
#143 =( BOUNDED_CURVE ( )  B_SPLINE_CURVE ( 3, ( #379, #697, #585, #709 ),
 .UNSPECIFIED., .F., .T. ) 
 B_SPLINE_CURVE_WITH_KNOTS ( ( 4, 4 ),
 ( 0.000000000000000000, 1.570796326794896558 ),
 .UNSPECIFIED. ) 
 CURVE ( )  GEOMETRIC_REPRESENTATION_ITEM ( )  RATIONAL_B_SPLINE_CURVE ( ( 1.000000000000000000, 0.8047378541243649375, 0.8047378541243649375, 1.000000000000000000 ) ) 
 REPRESENTATION_ITEM ( '' )  );
#144 = CARTESIAN_POINT ( 'NONE',  ( 105.0000000000000000, 46.00000000000000000, -10.00000000000000000 ) ) ;
#145 = AXIS2_PLACEMENT_3D ( 'NONE', #732, #289, #671 ) ;
#146 = FACE_OUTER_BOUND ( 'NONE', #373, .T. ) ;
#147 = DIRECTION ( 'NONE',  ( -0.000000000000000000, -1.000000000000000000, -0.000000000000000000 ) ) ;
#148 = CARTESIAN_POINT ( 'NONE',  ( 48.55573818037228762, 29.31745582739037914, -2.935413403264966359 ) ) ;
#149 = FACE_BOUND ( 'NONE', #307, .T. ) ;
#150 = AXIS2_PLACEMENT_3D ( 'NONE', #717, #273, #653 ) ;
#151 = VERTEX_POINT ( 'NONE', #227 ) ;
#152 = CARTESIAN_POINT ( 'NONE',  ( 57.75000000000000711, 10.25000000000000355, -45.00000000000000000 ) ) ;
#153 = FILL_AREA_STYLE ('',( #74 ) ) ;
#154 = VERTEX_POINT ( 'NONE', #541 ) ;
#155 = LINE ( 'NONE', #796, #47 ) ;
#156 = LINE ( 'NONE', #152, #59 ) ;
#157 = APPLICATION_PROTOCOL_DEFINITION ( 'draft international standard', 'automotive_design', 1998, #511 ) ;
#158 = CIRCLE ( 'NONE', #266, 5.000000000000000000 ) ;
#159 = EDGE_LOOP ( 'NONE', ( #626, #333, #406, #589 ) ) ;
#160 = DIRECTION ( 'NONE',  ( 0.7071067811865477948, -0.7071067811865473507, 0.000000000000000000 ) ) ;
#161 = CARTESIAN_POINT ( 'NONE',  ( 61.34520634190627675, 29.11934487194720589, -2.787320345216253159 ) ) ;
#162 = CARTESIAN_POINT ( 'NONE',  ( 25.42893218813452449, 46.00000000000000000, 0.000000000000000000 ) ) ;
#163 = ORIENTED_EDGE ( 'NONE', *, *, #319, .F. ) ;
#164 = EDGE_CURVE ( 'NONE', #486, #121, #25, .T. ) ;
#165 = CARTESIAN_POINT ( 'NONE',  ( 55.00000000000000711, 10.25000000000000355, -10.00000000000000178 ) ) ;
#166 = CARTESIAN_POINT ( 'NONE',  ( 61.62136782913575672, 29.67166784640563648, -3.237752273083629007 ) ) ;
#167 = DIRECTION ( 'NONE',  ( -0.000000000000000000, -1.000000000000000000, -0.000000000000000000 ) ) ;
#168 = ORIENTED_EDGE ( 'NONE', *, *, #393, .T. ) ;
#169 = DIRECTION ( 'NONE',  ( 0.000000000000000000, 0.000000000000000000, -1.000000000000000000 ) ) ;
#170 = APPLICATION_CONTEXT ( 'automotive_design' ) ;
#171 =( BOUNDED_SURFACE ( )  B_SPLINE_SURFACE ( 3, 2, ( 
 ( #562, #628, #756 ),
 ( #315, #132, #128 ),
 ( #378, #747, #574 ),
 ( #446, #65, #62 ),
 ( #699, #135, #312 ),
 ( #571, #180, #816 ),
 ( #566, #70, #509 ),
 ( #322, #821, #317 ),
 ( #4, #684, #119 ),
 ( #253, #623, #497 ),
 ( #752, #260, #185 ),
 ( #434, #688, #372 ),
 ( #124, #705, #773 ),
 ( #514, #642, #769 ),
 ( #264, #516, #648 ),
 ( #15, #200, #521 ),
 ( #7, #204, #386 ),
 ( #456, #137, #271 ),
 ( #72, #451, #324 ),
 ( #326, #142, #702 ),
 ( #459, #389, #76 ),
 ( #767, #584, #708 ),
 ( #581, #12, #208 ),
 ( #578, #268, #461 ) ),
 .UNSPECIFIED., .F., .F., .T. ) 
 B_SPLINE_SURFACE_WITH_KNOTS ( ( 4, 2, 2, 2, 2, 2, 2, 2, 2, 2, 2, 4 ),
 ( 3, 3 ),
 ( 4.712388980384689674, 4.908738521234051966, 5.105088062083414258, 5.301437602932775661, 5.497787143782137953, 5.694136684631500245, 5.792311455056180947, 5.890486225480861648, 5.988660995905542350, 6.086835766330223940, 6.185010536754905530, 6.283185307179586232 ),
 ( 0.000000000000000000, 1.000000000000000000 ),
 .UNSPECIFIED. ) 
 GEOMETRIC_REPRESENTATION_ITEM ( )  RATIONAL_B_SPLINE_SURFACE ( (
 ( 1.000000000000000000, 1.000000000000000000, 1.000000000000000000),
 ( 1.000000000000000000, 1.000009746411386402, 1.000000000000000000),
 ( 1.000000000000000000, 0.9967613244598342304, 1.000000000000000000),
 ( 1.000000000000000000, 0.9841171504879066001, 1.000000000000000000),
 ( 1.000000000000000000, 0.9747108043617216389, 1.000000000000000000),
 ( 1.000000000000000000, 0.9506740354005918103, 1.000000000000000000),
 ( 1.000000000000000000, 0.9360421842679546023, 1.000000000000000000),
 ( 1.000000000000000000, 0.9031650994184412529, 1.000000000000000000),
 ( 1.000000000000000000, 0.8849191471277546572, 1.000000000000000000),
 ( 1.000000000000000000, 0.8471316604411245343, 1.000000000000000000),
 ( 1.000000000000000000, 0.8275942695871798538, 1.000000000000000000),
 ( 1.000000000000000000, 0.7995620738889164247, 1.000000000000000000),
 ( 1.000000000000000000, 0.7904353558316126183, 1.000000000000000000),
 ( 1.000000000000000000, 0.7730318702337137804, 1.000000000000000000),
 ( 1.000000000000000000, 0.7647559708279358937, 1.000000000000000000),
 ( 1.000000000000000000, 0.7494742688692690447, 1.000000000000000000),
 ( 1.000000000000000000, 0.7424696633538998558, 1.000000000000000000),
 ( 1.000000000000000000, 0.7301234195096114599, 1.000000000000000000),
 ( 1.000000000000000000, 0.7247831711413742495, 1.000000000000000000),
 ( 1.000000000000000000, 0.7160917254019435463, 1.000000000000000000),
 ( 1.000000000000000000, 0.7127418075751029702, 1.000000000000000000),
 ( 1.000000000000000000, 0.7082489452437775723, 1.000000000000000000),
 ( 1.000000000000000000, 0.7071044369480060654, 1.000000000000000000),
 ( 1.000000000000000000, 0.7071067811865476838, 1.000000000000000000) ) ) 
 REPRESENTATION_ITEM ( '' )  SURFACE ( )  );
#172 = VERTEX_POINT ( 'NONE', #281 ) ;
#173 = CARTESIAN_POINT ( 'NONE',  ( 55.00000000000000711, 10.25000000000000355, -45.00000000000000000 ) ) ;
#174 = EDGE_CURVE ( 'NONE', #495, #297, #779, .T. ) ;
#175 = CARTESIAN_POINT ( 'NONE',  ( 0.000000000000000000, 46.00000000000000000, 0.000000000000000000 ) ) ;
#176 = EDGE_LOOP ( 'NONE', ( #797, #43, #234 ) ) ;
#177 = ORIENTED_EDGE ( 'NONE', *, *, #202, .F. ) ;
#178 = EDGE_LOOP ( 'NONE', ( #784, #115, #685, #244, #421, #617, #464 ) ) ;
#179 = CYLINDRICAL_SURFACE ( 'NONE', #249, 5.000000000000000000 ) ;
#180 = CARTESIAN_POINT ( 'NONE',  ( 54.99999999999531752, 22.38501938435516792, -8.530627846764122779 ) ) ;
#181 = ORIENTED_EDGE ( 'NONE', *, *, #286, .F. ) ;
#182 = ORIENTED_EDGE ( 'NONE', *, *, #777, .T. ) ;
#183 = CLOSED_SHELL ( 'NONE', ( #528, #498, #491, #815, #647, #740, #632, #215, #235, #753, #479, #345, #49, #419, #267, #465, #518, #113, #458, #328, #676 ) ) ;
#184 = FACE_OUTER_BOUND ( 'NONE', #92, .T. ) ;
#185 = CARTESIAN_POINT ( 'NONE',  ( 49.37774006163726881, 27.67345206486078624, -8.049948959287569039 ) ) ;
#186 = ORIENTED_EDGE ( 'NONE', *, *, #67, .F. ) ;
#187 = CARTESIAN_POINT ( 'NONE',  ( 52.25000000000000711, 10.25000000000000355, -10.00000000000000178 ) ) ;
#188 = DIRECTION ( 'NONE',  ( 0.000000000000000000, -1.000000000000000000, 0.000000000000000000 ) ) ;
#189 = ADVANCED_BREP_SHAPE_REPRESENTATION ( 'Axle_support_block', ( #761, #293 ), #598 ) ;
#190 = EDGE_LOOP ( 'NONE', ( #51, #654 ) ) ;
#191 = EDGE_CURVE ( 'NONE', #440, #370, #277, .T. ) ;
#192 = DIRECTION ( 'NONE',  ( -0.7071067811865475727, 0.7071067811865475727, 0.000000000000000000 ) ) ;
#193 = CARTESIAN_POINT ( 'NONE',  ( 62.07106781186546840, 30.57106781186549327, -5.000000000000000000 ) ) ;
#194 = DIRECTION ( 'NONE',  ( 0.000000000000000000, 1.000000000000000000, 0.000000000000000000 ) ) ;
#195 = DIRECTION ( 'NONE',  ( -0.000000000000000000, 1.000000000000000000, -0.000000000000000000 ) ) ;
#196 = AXIS2_PLACEMENT_3D ( 'NONE', #73, #700, #318 ) ;
#197 = CARTESIAN_POINT ( 'NONE',  ( 55.00000000000000000, 16.42893218813453871, 0.000000000000000000 ) ) ;
#198 = CARTESIAN_POINT ( 'NONE',  ( 47.98566249362306735, 30.45760720088828322, -4.347077578352936733 ) ) ;
#199 = CARTESIAN_POINT ( 'NONE',  ( 55.00000000000000000, 23.50000000000001776, -5.000000000000000000 ) ) ;
#200 = CARTESIAN_POINT ( 'NONE',  ( 54.99999999999816680, 24.51067883316050100, -4.002818327928887143 ) ) ;
#201 = CARTESIAN_POINT ( 'NONE',  ( 61.98034315694744123, 30.38961850202951354, -4.185029006037328081 ) ) ;
#202 = EDGE_CURVE ( 'NONE', #240, #122, #363, .T. ) ;
#203 = PRODUCT_DEFINITION_FORMATION_WITH_SPECIFIED_SOURCE ( 'ANY', '', #332, .NOT_KNOWN. ) ;
#204 = CARTESIAN_POINT ( 'NONE',  ( 54.99999999999999289, 24.37785387970223638, -3.981805291121213841 ) ) ;
#205 = CARTESIAN_POINT ( 'NONE',  ( 105.0000000000000000, 0.000000000000000000, -5.000000000000000000 ) ) ;
#206 = AXIS2_PLACEMENT_3D ( 'NONE', #618, #45, #300 ) ;
#207 = CIRCLE ( 'NONE', #426, 2.749999999999998224 ) ;
#208 = CARTESIAN_POINT ( 'NONE',  ( 47.92893218812729117, 30.57106781187271949, -5.163624733485374207 ) ) ;
#209 = CARTESIAN_POINT ( 'NONE',  ( 61.89005529627405622, 30.20904278068251259, -3.864067773801398875 ) ) ;
#210 = DIRECTION ( 'NONE',  ( 0.000000000000000000, -1.000000000000000000, 0.000000000000000000 ) ) ;
#211 = VECTOR ( 'NONE', #409, 1000.000000000000000 ) ;
#212 = CARTESIAN_POINT ( 'NONE',  ( 49.37774006163608220, 27.67345206486349696, -1.950051040714045891 ) ) ;
#213 = LINE ( 'NONE', #524, #454 ) ;
#214 = ORIENTED_EDGE ( 'NONE', *, *, #786, .T. ) ;
#215 = ADVANCED_FACE ( 'NONE', ( #664, #410 ), #31, .F. ) ;
#216 = CARTESIAN_POINT ( 'NONE',  ( 53.16659537580511596, 20.09574143651562395, -0.1599167565457270124 ) ) ;
#217 = FACE_BOUND ( 'NONE', #552, .T. ) ;
#218 = VECTOR ( 'NONE', #382, 1000.000000000000000 ) ;
#219 = CARTESIAN_POINT ( 'NONE',  ( 5.000000000000000000, 0.000000000000000000, -5.000000000000000000 ) ) ;
#220 = CARTESIAN_POINT ( 'NONE',  ( 84.99999999999998579, 0.000000000000000000, -7.750000000000008882 ) ) ;
#221 = CYLINDRICAL_SURFACE ( 'NONE', #817, 5.000000000000000000 ) ;
#222 = VERTEX_POINT ( 'NONE', #452 ) ;
#223 = CARTESIAN_POINT ( 'NONE',  ( 25.00000000000000000, 0.000000000000000000, -2.250000000000001776 ) ) ;
#224 = CARTESIAN_POINT ( 'NONE',  ( 55.00000000000000000, 24.85335861093517806, -5.776721739764117736 ) ) ;
#225 = EDGE_CURVE ( 'NONE', #222, #116, #360, .T. ) ;
#226 = CARTESIAN_POINT ( 'NONE',  ( 105.0000000000000000, 46.00000000000000000, -5.000000000000000000 ) ) ;
#227 = CARTESIAN_POINT ( 'NONE',  ( 25.42893218813452094, 46.00000000000000000, -10.00000000000000000 ) ) ;
#228 = CARTESIAN_POINT ( 'NONE',  ( 55.00000000000002132, 16.42893218813451384, -1.734723475976807094E-15 ) ) ;
#229 = LINE ( 'NONE', #477, #380 ) ;
#230 = ORIENTED_EDGE ( 'NONE', *, *, #174, .T. ) ;
#231 = AXIS2_PLACEMENT_3D ( 'NONE', #622, #687, #631 ) ;
#232 = CARTESIAN_POINT ( 'NONE',  ( 84.99999999999998579, 46.00000000000000000, -7.750000000000008882 ) ) ;
#233 =( NAMED_UNIT ( * ) SI_UNIT ( $, .STERADIAN. ) SOLID_ANGLE_UNIT ( ) );
#234 = ORIENTED_EDGE ( 'NONE', *, *, #763, .T. ) ;
#235 = ADVANCED_FACE ( 'NONE', ( #759 ), #16, .F. ) ;
#236 = EDGE_LOOP ( 'NONE', ( #239, #349, #86, #488 ) ) ;
#237 = CARTESIAN_POINT ( 'NONE',  ( 42.28553390593271644, 3.714466094067281343, -10.00000000000000000 ) ) ;
#238 = CARTESIAN_POINT ( 'NONE',  ( 29.57106781186547195, 46.00000000000000000, 5.380361143677898820E-16 ) ) ;
#239 = ORIENTED_EDGE ( 'NONE', *, *, #191, .F. ) ;
#240 = VERTEX_POINT ( 'NONE', #390 ) ;
#241 = ORIENTED_EDGE ( 'NONE', *, *, #17, .T. ) ;
#242 = CARTESIAN_POINT ( 'NONE',  ( 5.000000000000000000, 46.00000000000000000, -10.00000000000000000 ) ) ;
#243 = FACE_BOUND ( 'NONE', #190, .T. ) ;
#244 = ORIENTED_EDGE ( 'NONE', *, *, #704, .T. ) ;
#245 = ORIENTED_EDGE ( 'NONE', *, *, #24, .T. ) ;
#246 = ORIENTED_EDGE ( 'NONE', *, *, #580, .T. ) ;
#247 = DIRECTION ( 'NONE',  ( 0.7071067811865474617, 0.7071067811865474617, -0.000000000000000000 ) ) ;
#248 = CARTESIAN_POINT ( 'NONE',  ( 105.0000000000000000, 46.00000000000000000, 0.000000000000000000 ) ) ;
#249 = AXIS2_PLACEMENT_3D ( 'NONE', #547, #561, #798 ) ;
#250 = ORIENTED_EDGE ( 'NONE', *, *, #40, .T. ) ;
#251 = VERTEX_POINT ( 'NONE', #443 ) ;
#252 = DIRECTION ( 'NONE',  ( -0.7071067811865475727, 0.7071067811865473507, 0.000000000000000000 ) ) ;
#253 = CARTESIAN_POINT ( 'NONE',  ( 60.32724923458772537, 27.08343065730984733, -8.304133753017753250 ) ) ;
#254 = VECTOR ( 'NONE', #96, 1000.000000000000114 ) ;
#255 = EDGE_CURVE ( 'NONE', #278, #739, #348, .T. ) ;
#256 = VERTEX_POINT ( 'NONE', #649 ) ;
#257 = DIRECTION ( 'NONE',  ( 0.000000000000000000, 1.000000000000000000, -0.000000000000000000 ) ) ;
#258 = FACE_OUTER_BOUND ( 'NONE', #749, .T. ) ;
#259 = CARTESIAN_POINT ( 'NONE',  ( 55.00000000000000000, 16.42893218813453871, 0.000000000000000000 ) ) ;
#260 = CARTESIAN_POINT ( 'NONE',  ( 55.00000000000000000, 25.11765483937639232, -5.211286009554582321 ) ) ;
#261 = CARTESIAN_POINT ( 'NONE',  ( 25.00000000000000000, 46.00000000000000000, -5.000000000000000000 ) ) ;
#262 = DIRECTION ( 'NONE',  ( 0.000000000000000000, 0.000000000000000000, -1.000000000000000000 ) ) ;
#263 = EDGE_CURVE ( 'NONE', #818, #728, #143, .T. ) ;
#264 = CARTESIAN_POINT ( 'NONE',  ( 61.44426181962995770, 29.31745582739269196, -7.064586596734914181 ) ) ;
#265 = CARTESIAN_POINT ( 'NONE',  ( 61.69941808717945975, 29.82776836249294661, -3.391997617550271293 ) ) ;
#266 = AXIS2_PLACEMENT_3D ( 'NONE', #508, #195, #23 ) ;
#267 = ADVANCED_FACE ( 'NONE', ( #146 ), #325, .T. ) ;
#268 = CARTESIAN_POINT ( 'NONE',  ( 55.00000000000000711, 23.50000000000001421, -5.000000000000008882 ) ) ;
#269 = DIRECTION ( 'NONE',  ( 0.000000000000000000, 0.000000000000000000, 1.000000000000000000 ) ) ;
#270 = DIRECTION ( 'NONE',  ( 0.000000000000000000, 0.000000000000000000, 1.000000000000000000 ) ) ;
#271 = CARTESIAN_POINT ( 'NONE',  ( 48.16623807543547287, 30.09645603726355745, -6.294844390095061470 ) ) ;
#272 = CARTESIAN_POINT ( 'NONE',  ( 84.99999999999998579, 46.00000000000000000, -2.249999999999991562 ) ) ;
#273 = DIRECTION ( 'NONE',  ( 0.000000000000000000, -1.000000000000000000, 0.000000000000000000 ) ) ;
#274 = AXIS2_PLACEMENT_3D ( 'NONE', #173, #428, #111 ) ;
#275 = DIRECTION ( 'NONE',  ( 1.000000000000000000, 0.000000000000000000, -0.000000000000000000 ) ) ;
#276 = CARTESIAN_POINT ( 'NONE',  ( 52.25000000000000711, 10.25000000000000355, -45.00000000000000000 ) ) ;
#277 = CIRCLE ( 'NONE', #500, 2.750000000000002665 ) ;
#278 = VERTEX_POINT ( 'NONE', #13 ) ;
#279 = VECTOR ( 'NONE', #210, 1000.000000000000000 ) ;
#280 = CARTESIAN_POINT ( 'NONE',  ( 61.12704378796047422, 28.68301976405533082, -2.498712286523808057 ) ) ;
#281 = CARTESIAN_POINT ( 'NONE',  ( 32.50000000000000000, 46.00000000000000000, -5.000000000000000000 ) ) ;
#282 = CARTESIAN_POINT ( 'NONE',  ( 55.92558916863919194, 18.28011052541009462, -0.03223043942100384945 ) ) ;
#283 = FACE_OUTER_BOUND ( 'NONE', #748, .T. ) ;
#284 = ORIENTED_EDGE ( 'NONE', *, *, #799, .T. ) ;
#285 = CARTESIAN_POINT ( 'NONE',  ( 0.000000000000000000, 46.00000000000000000, -10.00000000000000000 ) ) ;
#286 = EDGE_CURVE ( 'NONE', #370, #440, #9, .T. ) ;
#287 = CARTESIAN_POINT ( 'NONE',  ( 54.07441083136546212, 18.28011052541233994, -0.03223043942197004880 ) ) ;
#288 = ORIENTED_EDGE ( 'NONE', *, *, #553, .F. ) ;
#289 = DIRECTION ( 'NONE',  ( 0.7071067811865477948, -0.7071067811865473507, 0.000000000000000000 ) ) ;
#290 = CARTESIAN_POINT ( 'NONE',  ( 48.65479365809454748, 29.11934487194612231, -2.787320345215879236 ) ) ;
#291 = CYLINDRICAL_SURFACE ( 'NONE', #145, 5.000000000000000000 ) ;
#292 = LINE ( 'NONE', #820, #523 ) ;
#293 = AXIS2_PLACEMENT_3D ( 'NONE', #46, #347, #471 ) ;
#294 = ORIENTED_EDGE ( 'NONE', *, *, #174, .F. ) ;
#295 = EDGE_LOOP ( 'NONE', ( #675, #177 ) ) ;
#296 = FACE_OUTER_BOUND ( 'NONE', #559, .T. ) ;
#297 = VERTEX_POINT ( 'NONE', #272 ) ;
#298 = EDGE_LOOP ( 'NONE', ( #81, #34, #288, #241, #781, #361 ) ) ;
#299 = ORIENTED_EDGE ( 'NONE', *, *, #786, .F. ) ;
#300 = DIRECTION ( 'NONE',  ( 1.000000000000000000, 0.000000000000000000, 0.000000000000000000 ) ) ;
#301 = APPLICATION_PROTOCOL_DEFINITION ( 'draft international standard', 'automotive_design', 1998, #170 ) ;
#302 = ORIENTED_EDGE ( 'NONE', *, *, #667, .T. ) ;
#303 = ORIENTED_EDGE ( 'NONE', *, *, #17, .F. ) ;
#304 = FACE_OUTER_BOUND ( 'NONE', #44, .T. ) ;
#305 = CARTESIAN_POINT ( 'NONE',  ( 0.000000000000000000, 46.00000000000000000, 0.000000000000000000 ) ) ;
#306 =( GEOMETRIC_REPRESENTATION_CONTEXT ( 3 ) GLOBAL_UNCERTAINTY_ASSIGNED_CONTEXT ( ( #750 ) ) GLOBAL_UNIT_ASSIGNED_CONTEXT ( ( #775, #591, #586 ) ) REPRESENTATION_CONTEXT ( 'NONE', 'WORKASPACE' ) );
#307 = EDGE_LOOP ( 'NONE', ( #401, #41 ) ) ;
#308 = VERTEX_POINT ( 'NONE', #136 ) ;
#309 = AXIS2_PLACEMENT_3D ( 'NONE', #61, #762, #192 ) ;
#310 = DIRECTION ( 'NONE',  ( -0.000000000000000000, -1.000000000000000000, -0.000000000000000000 ) ) ;
#311 = EDGE_CURVE ( 'NONE', #486, #256, #430, .T. ) ;
#312 = CARTESIAN_POINT ( 'NONE',  ( 52.72159122950215959, 20.98574972912646430, -9.744630522899157654 ) ) ;
#313 = VERTEX_POINT ( 'NONE', #706 ) ;
#314 = CARTESIAN_POINT ( 'NONE',  ( 5.000000000000000000, 0.000000000000000000, -10.00000000000000000 ) ) ;
#315 = CARTESIAN_POINT ( 'NONE',  ( 55.46280555584104377, 17.35454329982144728, -10.00000000000000000 ) ) ;
#316 = DIRECTION ( 'NONE',  ( 0.000000000000000000, 0.000000000000000000, -1.000000000000000000 ) ) ;
#317 = CARTESIAN_POINT ( 'NONE',  ( 50.68672081717812716, 25.05549055377186463, -8.975538127988913928 ) ) ;
#318 = DIRECTION ( 'NONE',  ( 0.000000000000000000, 0.000000000000000000, -1.000000000000000000 ) ) ;
#319 = EDGE_CURVE ( 'NONE', #121, #718, #672, .T. ) ;
#320 = LINE ( 'NONE', #823, #693 ) ;
#321 = CIRCLE ( 'NONE', #535, 5.000000000000000000 ) ;
#322 = CARTESIAN_POINT ( 'NONE',  ( 59.31327918282149625, 25.05549055377446521, -8.975538127987507053 ) ) ;
#323 = CARTESIAN_POINT ( 'NONE',  ( 47.94030013111313338, 30.54833192590843183, -4.672751018351494423 ) ) ;
#324 = CARTESIAN_POINT ( 'NONE',  ( 48.10994470372641274, 30.20904278068207560, -6.135932226198520745 ) ) ;
#325 = CYLINDRICAL_SURFACE ( 'NONE', #776, 5.000000000000000000 ) ;
#326 = CARTESIAN_POINT ( 'NONE',  ( 61.98034315694787466, 30.38961850202992920, -5.814970993962774060 ) ) ;
#327 = CARTESIAN_POINT ( 'NONE',  ( 47.92893218813453871, 30.57106781186548616, -5.000000000000000000 ) ) ;
#328 = ADVANCED_FACE ( 'NONE', ( #768 ), #55, .F. ) ;
#329 = CARTESIAN_POINT ( 'NONE',  ( 84.99999999999998579, 46.00000000000000000, -5.000000000000000000 ) ) ;
#330 = ORIENTED_EDGE ( 'NONE', *, *, #605, .T. ) ;
#331 = CARTESIAN_POINT ( 'NONE',  ( 49.67275076541189094, 27.08343065730952404, -1.695866246981740932 ) ) ;
#332 = PRODUCT ( 'Axle_support_block', 'Axle_support_block', '', ( #607 ) ) ;
#333 = ORIENTED_EDGE ( 'NONE', *, *, #263, .T. ) ;
#334 = LINE ( 'NONE', #417, #448 ) ;
#335 = CIRCLE ( 'NONE', #624, 5.000000000000000000 ) ;
#336 = CARTESIAN_POINT ( 'NONE',  ( 54.99999999999819522, 24.74841208469183940, -5.875527541660392927 ) ) ;
#337 = CARTESIAN_POINT ( 'NONE',  ( 77.49999999999998579, 46.00000000000000711, -5.000000000000000000 ) ) ;
#338 = DIRECTION ( 'NONE',  ( 0.000000000000000000, 0.000000000000000000, 1.000000000000000000 ) ) ;
#339 = EDGE_CURVE ( 'NONE', #611, #818, #651, .T. ) ;
#340 = DIRECTION ( 'NONE',  ( 1.000000000000000000, 0.000000000000000000, 0.000000000000000000 ) ) ;
#341 = AXIS2_PLACEMENT_3D ( 'NONE', #404, #661, #90 ) ;
#342 = CARTESIAN_POINT ( 'NONE',  ( 50.32724923458810196, 25.77443371895959956, -1.233065941152795331 ) ) ;
#343 = DIRECTION ( 'NONE',  ( 0.000000000000000000, -0.000000000000000000, -1.000000000000000000 ) ) ;
#344 = FACE_OUTER_BOUND ( 'NONE', #677, .T. ) ;
#345 = ADVANCED_FACE ( 'NONE', ( #730 ), #221, .T. ) ;
#346 = LINE ( 'NONE', #38, #608 ) ;
#347 = DIRECTION ( 'NONE',  ( 0.000000000000000000, 0.000000000000000000, 1.000000000000000000 ) ) ;
#348 = CIRCLE ( 'NONE', #734, 5.000000000000000000 ) ;
#349 = ORIENTED_EDGE ( 'NONE', *, *, #690, .T. ) ;
#350 = DIRECTION ( 'NONE',  ( 0.000000000000000000, -1.000000000000000000, 0.000000000000000000 ) ) ;
#351 = DIRECTION ( 'NONE',  ( -0.000000000000000000, -0.000000000000000000, 1.000000000000000000 ) ) ;
#352 = CARTESIAN_POINT ( 'NONE',  ( 77.49999999999998579, 46.00000000000000711, -5.000000000000000000 ) ) ;
#353 = ORIENTED_EDGE ( 'NONE', *, *, #799, .F. ) ;
#354 = CARTESIAN_POINT ( 'NONE',  ( 84.99999999999998579, 46.00000000000000000, -7.750000000000008882 ) ) ;
#355 = EDGE_CURVE ( 'NONE', #370, #122, #156, .T. ) ;
#356 = AXIS2_PLACEMENT_3D ( 'NONE', #803, #678, #359 ) ;
#357 = ORIENTED_EDGE ( 'NONE', *, *, #572, .T. ) ;
#358 = ORIENTED_EDGE ( 'NONE', *, *, #75, .T. ) ;
#359 = DIRECTION ( 'NONE',  ( 0.000000000000000000, 0.000000000000000000, -1.000000000000000000 ) ) ;
#360 = CIRCLE ( 'NONE', #85, 2.750000000000008438 ) ;
#361 = ORIENTED_EDGE ( 'NONE', *, *, #711, .F. ) ;
#362 = ORIENTED_EDGE ( 'NONE', *, *, #101, .T. ) ;
#363 = CIRCLE ( 'NONE', #11, 2.750000000000002665 ) ;
#364 = VERTEX_POINT ( 'NONE', #660 ) ;
#365 = PRODUCT_DEFINITION_CONTEXT ( 'detailed design', #511, 'design' ) ;
#366 = CARTESIAN_POINT ( 'NONE',  ( 57.75000000000000711, 10.25000000000000355, -10.00000000000000178 ) ) ;
#367 = CARTESIAN_POINT ( 'NONE',  ( 0.000000000000000000, 0.000000000000000000, -5.000000000000000000 ) ) ;
#368 = VERTEX_POINT ( 'NONE', #610 ) ;
#369 = EDGE_CURVE ( 'NONE', #297, #222, #433, .T. ) ;
#370 = VERTEX_POINT ( 'NONE', #366 ) ;
#371 = DIRECTION ( 'NONE',  ( 0.000000000000000000, 1.000000000000000000, 0.000000000000000000 ) ) ;
#372 = CARTESIAN_POINT ( 'NONE',  ( 48.99206295103618203, 28.44480628606178030, -7.641802268003240250 ) ) ;
#373 = EDGE_LOOP ( 'NONE', ( #554, #114, #303, #813 ) ) ;
#374 = CYLINDRICAL_SURFACE ( 'NONE', #231, 5.000000000000000000 ) ;
#375 = PLANE ( 'NONE',  #450 ) ;
#376 = VERTEX_POINT ( 'NONE', #755 ) ;
#377 = LINE ( 'NONE', #199, #91 ) ;
#378 = CARTESIAN_POINT ( 'NONE',  ( 55.92558916863432472, 18.28011052541014436, -9.967769560578307875 ) ) ;
#379 = CARTESIAN_POINT ( 'NONE',  ( 47.92893218813453160, 30.57106781186547906, -5.000000000000000000 ) ) ;
#380 = VECTOR ( 'NONE', #350, 1000.000000000000000 ) ;
#381 = EDGE_CURVE ( 'NONE', #546, #427, #496, .T. ) ;
#382 = DIRECTION ( 'NONE',  ( 1.000000000000000000, 0.000000000000000000, 0.000000000000000000 ) ) ;
#383 = CARTESIAN_POINT ( 'NONE',  ( 5.000000000000000000, 0.000000000000000000, -5.000000000000000000 ) ) ;
#384 = CARTESIAN_POINT ( 'NONE',  ( 25.00000000000000000, 0.000000000000000000, -5.000000000000000000 ) ) ;
#385 = EDGE_CURVE ( 'NONE', #728, #757, #814, .T. ) ;
#386 = CARTESIAN_POINT ( 'NONE',  ( 48.30058191282103053, 29.82776836249253094, -6.608002382449607914 ) ) ;
#387 = CARTESIAN_POINT ( 'NONE',  ( 62.01433750637738029, 30.45760720088872020, -4.347077578352997129 ) ) ;
#388 = CARTESIAN_POINT ( 'NONE',  ( 25.00000000000000000, 0.000000000000000000, -7.749999999999998224 ) ) ;
#389 = CARTESIAN_POINT ( 'NONE',  ( 55.00000000000170530, 23.66471185235556263, -4.384663639991241979 ) ) ;
#390 = CARTESIAN_POINT ( 'NONE',  ( 52.25000000000000711, 10.25000000000000355, 0.000000000000000000 ) ) ;
#391 = CARTESIAN_POINT ( 'NONE',  ( 0.000000000000000000, 0.000000000000000000, -10.00000000000000000 ) ) ;
#392 = AXIS2_PLACEMENT_3D ( 'NONE', #35, #545, #415 ) ;
#393 = EDGE_CURVE ( 'NONE', #728, #364, #27, .T. ) ;
#394 = PRODUCT_RELATED_PRODUCT_CATEGORY ( 'part', '', ( #332 ) ) ;
#395 = DIRECTION ( 'NONE',  ( 0.000000000000000000, 0.000000000000000000, -1.000000000000000000 ) ) ;
#396 = CARTESIAN_POINT ( 'NONE',  ( 110.0000000000000000, 0.000000000000000000, -5.000000000000000000 ) ) ;
#397 = ORIENTED_EDGE ( 'NONE', *, *, #131, .F. ) ;
#398 = VECTOR ( 'NONE', #771, 1000.000000000000000 ) ;
#399 = CARTESIAN_POINT ( 'NONE',  ( 56.83340462419026551, 20.09574143651787281, -0.1599167565466967089 ) ) ;
#400 = PLANE ( 'NONE',  #150 ) ;
#401 = ORIENTED_EDGE ( 'NONE', *, *, #445, .T. ) ;
#402 = CARTESIAN_POINT ( 'NONE',  ( 25.00000000000000000, 46.00000000000000000, -2.250000000000001776 ) ) ;
#403 = DIRECTION ( 'NONE',  ( 0.000000000000000000, 0.000000000000000000, -1.000000000000000000 ) ) ;
#404 = CARTESIAN_POINT ( 'NONE',  ( 105.0000000000000000, 46.00000000000000000, -5.000000000000000000 ) ) ;
#405 = EDGE_CURVE ( 'NONE', #495, #116, #751, .T. ) ;
#406 = ORIENTED_EDGE ( 'NONE', *, *, #723, .F. ) ;
#407 = DIRECTION ( 'NONE',  ( -1.000000000000000000, -0.000000000000000000, -0.000000000000000000 ) ) ;
#408 = CARTESIAN_POINT ( 'NONE',  ( 61.44426181962803213, 29.31745582739099021, -2.935413403265488608 ) ) ;
#409 = DIRECTION ( 'NONE',  ( -0.7071067811865477948, 0.7071067811865473507, -0.000000000000000000 ) ) ;
#410 = FACE_OUTER_BOUND ( 'NONE', #178, .T. ) ;
#411 = CARTESIAN_POINT ( 'NONE',  ( 55.00000000000000711, 16.42893218813451384, -1.734723475976807094E-15 ) ) ;
#412 = CARTESIAN_POINT ( 'NONE',  ( 32.50000000000000000, 46.00000000000000000, -5.000000000000000000 ) ) ;
#413 = AXIS2_PLACEMENT_3D ( 'NONE', #570, #444, #698 ) ;
#414 = ORIENTED_EDGE ( 'NONE', *, *, #532, .F. ) ;
#415 = DIRECTION ( 'NONE',  ( 0.000000000000000000, 0.000000000000000000, -1.000000000000000000 ) ) ;
#416 = CARTESIAN_POINT ( 'NONE',  ( 105.0000000000000000, 46.00000000000000000, -5.000000000000000000 ) ) ;
#417 = CARTESIAN_POINT ( 'NONE',  ( 32.50000000000000000, 46.00000000000000000, -5.000000000000000000 ) ) ;
#418 = ORIENTED_EDGE ( 'NONE', *, *, #120, .F. ) ;
#419 = ADVANCED_FACE ( 'NONE', ( #184 ), #374, .T. ) ;
#420 = CYLINDRICAL_SURFACE ( 'NONE', #274, 2.750000000000002665 ) ;
#421 = ORIENTED_EDGE ( 'NONE', *, *, #711, .T. ) ;
#422 = ORIENTED_EDGE ( 'NONE', *, *, #141, .F. ) ;
#423 = FACE_OUTER_BOUND ( 'NONE', #621, .T. ) ;
#424 = FACE_OUTER_BOUND ( 'NONE', #558, .T. ) ;
#425 = ORIENTED_EDGE ( 'NONE', *, *, #532, .T. ) ;
#426 = AXIS2_PLACEMENT_3D ( 'NONE', #123, #371, #746 ) ;
#427 = VERTEX_POINT ( 'NONE', #117 ) ;
#428 = DIRECTION ( 'NONE',  ( -0.000000000000000000, -0.000000000000000000, 1.000000000000000000 ) ) ;
#429 = EDGE_CURVE ( 'NONE', #739, #557, #292, .T. ) ;
#430 = CIRCLE ( 'NONE', #790, 2.749999999999998224 ) ;
#431 = ORIENTED_EDGE ( 'NONE', *, *, #445, .F. ) ;
#432 = ORIENTED_EDGE ( 'NONE', *, *, #560, .F. ) ;
#433 = LINE ( 'NONE', #612, #32 ) ;
#434 = CARTESIAN_POINT ( 'NONE',  ( 61.00793704896348402, 28.44480628606115147, -7.641802268003554666 ) ) ;
#435 = EDGE_LOOP ( 'NONE', ( #299, #250, #481, #186, #362, #501, #694 ) ) ;
#436 = ORIENTED_EDGE ( 'NONE', *, *, #615, .T. ) ;
#437 = CARTESIAN_POINT ( 'NONE',  ( 42.28553390593272354, 3.714466094067274238, -5.000000000000000000 ) ) ;
#438 = DIRECTION ( 'NONE',  ( 0.000000000000000000, 0.000000000000000000, -1.000000000000000000 ) ) ;
#439 = AXIS2_PLACEMENT_3D ( 'NONE', #657, #270, #783 ) ;
#440 = VERTEX_POINT ( 'NONE', #187 ) ;
#441 = DIRECTION ( 'NONE',  ( -1.000000000000000000, -0.000000000000000000, -0.000000000000000000 ) ) ;
#442 = CARTESIAN_POINT ( 'NONE',  ( 59.14213562373095101, 24.71320343559643007, -3.963535188777953965E-16 ) ) ;
#443 = CARTESIAN_POINT ( 'NONE',  ( 84.57106781186546129, 46.00000000000000000, 0.000000000000000000 ) ) ;
#444 = DIRECTION ( 'NONE',  ( -0.000000000000000000, -0.000000000000000000, 1.000000000000000000 ) ) ;
#445 = EDGE_CURVE ( 'NONE', #718, #121, #207, .T. ) ;
#446 = CARTESIAN_POINT ( 'NONE',  ( 56.83340462419509009, 20.09574143651778400, -9.840083243453999984 ) ) ;
#447 = CARTESIAN_POINT ( 'NONE',  ( 55.00000000000175504, 23.75925748978978547, -5.740238228564170875 ) ) ;
#448 = VECTOR ( 'NONE', #160, 1000.000000000000000 ) ;
#449 = VECTOR ( 'NONE', #473, 1000.000000000000000 ) ;
#450 = AXIS2_PLACEMENT_3D ( 'NONE', #305, #188, #633 ) ;
#451 = CARTESIAN_POINT ( 'NONE',  ( 55.00000000000000711, 23.98475490406409349, -4.076557732941948231 ) ) ;
#452 = CARTESIAN_POINT ( 'NONE',  ( 84.99999999999998579, 0.000000000000000000, -2.249999999999991562 ) ) ;
#453 = CARTESIAN_POINT ( 'NONE',  ( 80.42893218813448186, 46.00000000000000000, -10.00000000000000000 ) ) ;
#454 = VECTOR ( 'NONE', #645, 1000.000000000000000 ) ;
#455 =( BOUNDED_CURVE ( )  B_SPLINE_CURVE ( 3, ( #193, #503, #442, #197 ),
 .UNSPECIFIED., .F., .T. ) 
 B_SPLINE_CURVE_WITH_KNOTS ( ( 4, 4 ),
 ( 0.000000000000000000, 1.570796326794896780 ),
 .UNSPECIFIED. ) 
 CURVE ( )  GEOMETRIC_REPRESENTATION_ITEM ( )  RATIONAL_B_SPLINE_CURVE ( ( 1.000000000000000000, 0.8047378541243649375, 0.8047378541243649375, 1.000000000000000000 ) ) 
 REPRESENTATION_ITEM ( '' )  );
#456 = CARTESIAN_POINT ( 'NONE',  ( 61.83376192456407949, 30.09645603726312402, -6.294844390095029496 ) ) ;
#457 = DIRECTION ( 'NONE',  ( 0.000000000000000000, 1.000000000000000000, -0.000000000000000000 ) ) ;
#458 = ADVANCED_FACE ( 'NONE', ( #304 ), #627, .T. ) ;
#459 = CARTESIAN_POINT ( 'NONE',  ( 62.01433750637694686, 30.45760720088830098, -5.652922421647068596 ) ) ;
#460 = CARTESIAN_POINT ( 'NONE',  ( 54.99999999999821654, 24.11448261980357088, -5.981952940581535927 ) ) ;
#461 = CARTESIAN_POINT ( 'NONE',  ( 47.92893218813453160, 30.57106781186548261, -4.999999999999991118 ) ) ;
#462 = CARTESIAN_POINT ( 'NONE',  ( 54.99999999999543121, 20.88786634031952616, -0.7605693928211896271 ) ) ;
#463 = CARTESIAN_POINT ( 'NONE',  ( 54.99999999999999289, 16.42893218813454226, -10.00000000000000000 ) ) ;
#464 = ORIENTED_EDGE ( 'NONE', *, *, #572, .F. ) ;
#465 = ADVANCED_FACE ( 'NONE', ( #565 ), #179, .T. ) ;
#466 = CARTESIAN_POINT ( 'NONE',  ( 55.46280555584421279, 17.35454329981815036, -1.132593729081645259E-15 ) ) ;
#467 = FACE_OUTER_BOUND ( 'NONE', #298, .T. ) ;
#468 = CARTESIAN_POINT ( 'NONE',  ( 29.57106781186547195, 46.00000000000000000, -10.00000000000000000 ) ) ;
#469 = CARTESIAN_POINT ( 'NONE',  ( 55.00000000000000711, 10.25000000000000355, 0.000000000000000000 ) ) ;
#470 = CARTESIAN_POINT ( 'NONE',  ( 55.00000000000000000, 16.42893218813453871, 0.000000000000000000 ) ) ;
#471 = DIRECTION ( 'NONE',  ( 1.000000000000000000, 0.000000000000000000, 0.000000000000000000 ) ) ;
#472 = DIRECTION ( 'NONE',  ( 0.000000000000000000, 0.000000000000000000, -1.000000000000000000 ) ) ;
#473 = DIRECTION ( 'NONE',  ( -0.000000000000000000, -1.000000000000000000, 0.000000000000000000 ) ) ;
#474 = CARTESIAN_POINT ( 'NONE',  ( 54.99999999999999289, 25.02246947342899119, -4.320895496624602039 ) ) ;
#475 = ORIENTED_EDGE ( 'NONE', *, *, #405, .F. ) ;
#476 = AXIS2_PLACEMENT_3D ( 'NONE', #175, #107, #343 ) ;
#477 = CARTESIAN_POINT ( 'NONE',  ( 5.000000000000000000, 46.00000000000000000, 0.000000000000000000 ) ) ;
#478 = CARTESIAN_POINT ( 'NONE',  ( 47.92893218813453160, 30.57106781186547906, -5.000000000000000000 ) ) ;
#479 = ADVANCED_FACE ( 'NONE', ( #741 ), #420, .F. ) ;
#480 = FACE_OUTER_BOUND ( 'NONE', #159, .T. ) ;
#481 = ORIENTED_EDGE ( 'NONE', *, *, #30, .T. ) ;
#482 = CARTESIAN_POINT ( 'NONE',  ( 25.00000000000000000, 46.00000000000000000, -2.250000000000001776 ) ) ;
#483 = ORIENTED_EDGE ( 'NONE', *, *, #580, .F. ) ;
#484 = ORIENTED_EDGE ( 'NONE', *, *, #164, .T. ) ;
#485 = DIRECTION ( 'NONE',  ( 0.7071067811865475727, 0.7071067811865475727, -0.000000000000000000 ) ) ;
#486 = VERTEX_POINT ( 'NONE', #482 ) ;
#487 = ORIENTED_EDGE ( 'NONE', *, *, #507, .T. ) ;
#488 = ORIENTED_EDGE ( 'NONE', *, *, #355, .F. ) ;
#489 = DIRECTION ( 'NONE',  ( -0.000000000000000000, 1.000000000000000000, -0.000000000000000000 ) ) ;
#490 = CIRCLE ( 'NONE', #341, 5.000000000000000000 ) ;
#491 = ADVANCED_FACE ( 'NONE', ( #423 ), #735, .F. ) ;
#492 = DIRECTION ( 'NONE',  ( -1.000000000000000000, 0.000000000000000000, -0.000000000000000000 ) ) ;
#493 = ORIENTED_EDGE ( 'NONE', *, *, #701, .T. ) ;
#494 = AXIS2_PLACEMENT_3D ( 'NONE', #437, #485, #252 ) ;
#495 = VERTEX_POINT ( 'NONE', #354 ) ;
#496 = LINE ( 'NONE', #242, #140 ) ;
#497 = CARTESIAN_POINT ( 'NONE',  ( 49.67275076541243095, 27.08343065730790755, -8.304133753019012687 ) ) ;
#498 = ADVANCED_FACE ( 'NONE', ( #296 ), #550, .F. ) ;
#499 = ORIENTED_EDGE ( 'NONE', *, *, #429, .F. ) ;
#500 = AXIS2_PLACEMENT_3D ( 'NONE', #165, #538, #340 ) ;
#501 = ORIENTED_EDGE ( 'NONE', *, *, #553, .T. ) ;
#502 = CARTESIAN_POINT ( 'NONE',  ( 54.99999999999999289, 16.42893218813454226, -10.00000000000000000 ) ) ;
#503 = CARTESIAN_POINT ( 'NONE',  ( 62.07106781186548261, 30.57106781186549682, -2.071067811865475505 ) ) ;
#504 = ORIENTED_EDGE ( 'NONE', *, *, #286, .T. ) ;
#505 = CARTESIAN_POINT ( 'NONE',  ( 105.0000000000000000, 0.000000000000000000, -5.000000000000000000 ) ) ;
#506 = PLANE ( 'NONE',  #663 ) ;
#507 = EDGE_CURVE ( 'NONE', #122, #240, #583, .T. ) ;
#508 = CARTESIAN_POINT ( 'NONE',  ( 105.0000000000000000, 46.00000000000000000, -5.000000000000000000 ) ) ;
#509 = CARTESIAN_POINT ( 'NONE',  ( 51.45632959895085889, 23.51627299023924778, -9.339157995036538651 ) ) ;
#510 = DIRECTION ( 'NONE',  ( 0.000000000000000000, 0.000000000000000000, 1.000000000000000000 ) ) ;
#511 = APPLICATION_CONTEXT ( 'automotive_design' ) ;
#512 =( BOUNDED_CURVE ( )  B_SPLINE_CURVE ( 3, ( #588, #453, #18, #337 ),
 .UNSPECIFIED., .F., .T. ) 
 B_SPLINE_CURVE_WITH_KNOTS ( ( 4, 4 ),
 ( 1.570796326794896558, 3.141592653589793116 ),
 .UNSPECIFIED. ) 
 CURVE ( )  GEOMETRIC_REPRESENTATION_ITEM ( )  RATIONAL_B_SPLINE_CURVE ( ( 1.000000000000000000, 0.8047378541243649375, 0.8047378541243649375, 1.000000000000000000 ) ) 
 REPRESENTATION_ITEM ( '' )  );
#513 = DIRECTION ( 'NONE',  ( 0.000000000000000000, -1.000000000000000000, 0.000000000000000000 ) ) ;
#514 = CARTESIAN_POINT ( 'NONE',  ( 61.34520634190587174, 29.11934487194658772, -7.212679654784058592 ) ) ;
#515 = DIRECTION ( 'NONE',  ( 0.000000000000000000, -1.000000000000000000, 0.000000000000000000 ) ) ;
#516 = CARTESIAN_POINT ( 'NONE',  ( 55.00000000000181899, 24.74841208469274889, -4.124472458340963321 ) ) ;
#517 = CARTESIAN_POINT ( 'NONE',  ( 54.99999999999999289, 23.53463392069792448, -5.326613167235898061 ) ) ;
#518 = ADVANCED_FACE ( 'NONE', ( #555 ), #809, .T. ) ;
#519 = CARTESIAN_POINT ( 'NONE',  ( 0.000000000000000000, 46.00000000000000000, 0.000000000000000000 ) ) ;
#520 = AXIS2_PLACEMENT_3D ( 'NONE', #638, #257, #262 ) ;
#521 = CARTESIAN_POINT ( 'NONE',  ( 48.37863217086294298, 29.67166784640702915, -6.762247726916225332 ) ) ;
#522 = CARTESIAN_POINT ( 'NONE',  ( 55.00000000000171951, 23.49999999999575451, -5.163706515343132963 ) ) ;
#523 = VECTOR ( 'NONE', #52, 1000.000000000000000 ) ;
#524 = CARTESIAN_POINT ( 'NONE',  ( 12.71446609406725514, 58.71446609406726225, -10.00000000000000000 ) ) ;
#525 = CARTESIAN_POINT ( 'NONE',  ( 48.30058191282233793, 29.82776836249117025, -3.391997617550268185 ) ) ;
#526 = LINE ( 'NONE', #780, #279 ) ;
#527 = ORIENTED_EDGE ( 'NONE', *, *, #164, .F. ) ;
#528 = ADVANCED_FACE ( 'NONE', ( #695 ), #64, .F. ) ;
#529 = CARTESIAN_POINT ( 'NONE',  ( 61.00793704896265979, 28.44480628606003236, -2.358197731996153124 ) ) ;
#530 = LINE ( 'NONE', #391, #811 ) ;
#531 = CARTESIAN_POINT ( 'NONE',  ( 32.50000000000000000, 46.00000000000000000, -5.000000000000000000 ) ) ;
#532 = EDGE_CURVE ( 'NONE', #116, #222, #29, .T. ) ;
#533 = CARTESIAN_POINT ( 'NONE',  ( 0.000000000000000000, 46.00000000000000000, -5.000000000000000000 ) ) ;
#534 = CARTESIAN_POINT ( 'NONE',  ( 50.85786437626906320, 24.71320343559643007, -1.196687361609017114E-15 ) ) ;
#535 = AXIS2_PLACEMENT_3D ( 'NONE', #577, #6, #316 ) ;
#536 = SURFACE_STYLE_FILL_AREA ( #153 ) ;
#537 = CARTESIAN_POINT ( 'NONE',  ( 12.71446609406725514, 58.71446609406726225, 0.000000000000000000 ) ) ;
#538 = DIRECTION ( 'NONE',  ( 0.000000000000000000, 0.000000000000000000, 1.000000000000000000 ) ) ;
#539 = CARTESIAN_POINT ( 'NONE',  ( 55.00000000000000000, 23.04502237510687834, -1.901265965825860604 ) ) ;
#540 = ORIENTED_EDGE ( 'NONE', *, *, #641, .F. ) ;
#541 = CARTESIAN_POINT ( 'NONE',  ( 5.000000000000000000, 0.000000000000000000, 0.000000000000000000 ) ) ;
#542 = DIRECTION ( 'NONE',  ( 0.000000000000000000, -1.000000000000000000, 0.000000000000000000 ) ) ;
#543 = SHAPE_DEFINITION_REPRESENTATION ( #736, #189 ) ;
#544 = PRODUCT_DEFINITION ( 'UNKNOWN', '', #203, #365 ) ;
#545 = DIRECTION ( 'NONE',  ( -0.000000000000000000, 1.000000000000000000, -0.000000000000000000 ) ) ;
#546 = VERTEX_POINT ( 'NONE', #314 ) ;
#547 = CARTESIAN_POINT ( 'NONE',  ( 28.96446609406726580, 42.46446609406726225, -5.000000000000000000 ) ) ;
#548 = VECTOR ( 'NONE', #310, 1000.000000000000000 ) ;
#549 = ORIENTED_EDGE ( 'NONE', *, *, #339, .F. ) ;
#550 = CYLINDRICAL_SURFACE ( 'NONE', #356, 2.750000000000008438 ) ;
#551 = EDGE_LOOP ( 'NONE', ( #504, #54 ) ) ;
#552 = EDGE_LOOP ( 'NONE', ( #425, #634 ) ) ;
#553 = EDGE_CURVE ( 'NONE', #154, #376, #3, .T. ) ;
#554 = ORIENTED_EDGE ( 'NONE', *, *, #75, .F. ) ;
#555 = FACE_OUTER_BOUND ( 'NONE', #108, .T. ) ;
#556 =( BOUNDED_CURVE ( )  B_SPLINE_CURVE ( 3, ( #531, #793, #468, #670 ),
 .UNSPECIFIED., .F., .T. ) 
 B_SPLINE_CURVE_WITH_KNOTS ( ( 4, 4 ),
 ( 0.000000000000000000, 1.570796326794896558 ),
 .UNSPECIFIED. ) 
 CURVE ( )  GEOMETRIC_REPRESENTATION_ITEM ( )  RATIONAL_B_SPLINE_CURVE ( ( 1.000000000000000000, 0.8047378541243649375, 0.8047378541243649375, 1.000000000000000000 ) ) 
 REPRESENTATION_ITEM ( '' )  );
#557 = VERTEX_POINT ( 'NONE', #573 ) ;
#558 = EDGE_LOOP ( 'NONE', ( #812, #493, #616, #214, #436, #182 ) ) ;
#559 = EDGE_LOOP ( 'NONE', ( #230, #808, #414, #475 ) ) ;
#560 = EDGE_CURVE ( 'NONE', #297, #495, #614, .T. ) ;
#561 = DIRECTION ( 'NONE',  ( 0.7071067811865477948, -0.7071067811865473507, 0.000000000000000000 ) ) ;
#562 = CARTESIAN_POINT ( 'NONE',  ( 55.00000000000000000, 16.42893218813454581, -10.00000000000000000 ) ) ;
#563 = ORIENTED_EDGE ( 'NONE', *, *, #381, .F. ) ;
#564 = ORIENTED_EDGE ( 'NONE', *, *, #2, .T. ) ;
#565 = FACE_OUTER_BOUND ( 'NONE', #714, .T. ) ;
#566 = CARTESIAN_POINT ( 'NONE',  ( 58.54367040104953190, 23.51627299023666140, -9.339157995037945525 ) ) ;
#567 = AXIS2_PLACEMENT_3D ( 'NONE', #587, #19, #8 ) ;
#568 = ORIENTED_EDGE ( 'NONE', *, *, #405, .T. ) ;
#569 = CIRCLE ( 'NONE', #392, 5.000000000000000000 ) ;
#570 = CARTESIAN_POINT ( 'NONE',  ( 55.00000000000000711, 10.25000000000000355, -45.00000000000000000 ) ) ;
#571 = CARTESIAN_POINT ( 'NONE',  ( 58.13355223096428404, 22.69603665006866322, -9.494164802213138188 ) ) ;
#572 = EDGE_CURVE ( 'NONE', #151, #427, #320, .T. ) ;
#573 = CARTESIAN_POINT ( 'NONE',  ( 110.0000000000000000, 46.00000000000000000, -5.000000000000000000 ) ) ;
#574 = CARTESIAN_POINT ( 'NONE',  ( 54.07441083136095017, 18.28011052541257087, -9.967769560578631172 ) ) ;
#575 = CARTESIAN_POINT ( 'NONE',  ( 47.92893218813879486, 30.57106781186122646, -4.836375266514466809 ) ) ;
#576 = AXIS2_PLACEMENT_3D ( 'NONE', #384, #194, #269 ) ;
#577 = CARTESIAN_POINT ( 'NONE',  ( 5.000000000000000000, 46.00000000000000000, -5.000000000000000000 ) ) ;
#578 = CARTESIAN_POINT ( 'NONE',  ( 62.07106781186547551, 30.57106781186548972, -4.999999999999991118 ) ) ;
#579 = CARTESIAN_POINT ( 'NONE',  ( 48.16623807543417257, 30.09645603726491103, -3.705155609905075309 ) ) ;
#580 = EDGE_CURVE ( 'NONE', #427, #744, #321, .T. ) ;
#581 = CARTESIAN_POINT ( 'NONE',  ( 62.07106781186718081, 30.57106781186719147, -5.163624733485574048 ) ) ;
#582 = DIRECTION ( 'NONE',  ( 0.000000000000000000, 0.000000000000000000, -1.000000000000000000 ) ) ;
#583 = CIRCLE ( 'NONE', #206, 2.750000000000002665 ) ;
#584 = CARTESIAN_POINT ( 'NONE',  ( 54.99999999999828049, 23.53463392069793159, -4.673386832764523824 ) ) ;
#585 = CARTESIAN_POINT ( 'NONE',  ( 50.85786437626904899, 24.71320343559644428, -9.999999999999998224 ) ) ;
#586 =( NAMED_UNIT ( * ) SI_UNIT ( $, .STERADIAN. ) SOLID_ANGLE_UNIT ( ) );
#587 = CARTESIAN_POINT ( 'NONE',  ( 55.00000000000000711, 10.25000000000000355, -10.00000000000000178 ) ) ;
#588 = CARTESIAN_POINT ( 'NONE',  ( 84.57106781186544708, 46.00000000000000000, -10.00000000000000000 ) ) ;
#589 = ORIENTED_EDGE ( 'NONE', *, *, #2, .F. ) ;
#590 = CARTESIAN_POINT ( 'NONE',  ( 48.87295621203873708, 28.68301976405640730, -2.498712286524174875 ) ) ;
#591 =( NAMED_UNIT ( * ) PLANE_ANGLE_UNIT ( ) SI_UNIT ( $, .RADIAN. ) );
#592 = EDGE_CURVE ( 'NONE', #739, #376, #807, .T. ) ;
#593 = ORIENTED_EDGE ( 'NONE', *, *, #667, .F. ) ;
#594 = AXIS2_PLACEMENT_3D ( 'NONE', #505, #513, #766 ) ;
#595 = CARTESIAN_POINT ( 'NONE',  ( 77.49999999999998579, 46.00000000000000000, -2.071067811865475949 ) ) ;
#596 = CARTESIAN_POINT ( 'NONE',  ( 51.86644776903600018, 22.69603665006897941, -0.5058351977870390037 ) ) ;
#597 = DIRECTION ( 'NONE',  ( -1.000000000000000000, -0.000000000000000000, -0.000000000000000000 ) ) ;
#598 =( GEOMETRIC_REPRESENTATION_CONTEXT ( 3 ) GLOBAL_UNCERTAINTY_ASSIGNED_CONTEXT ( ( #772 ) ) GLOBAL_UNIT_ASSIGNED_CONTEXT ( ( #679, #112, #233 ) ) REPRESENTATION_CONTEXT ( 'NONE', 'WORKASPACE' ) );
#599 = LINE ( 'NONE', #537, #211 ) ;
#600 = DIRECTION ( 'NONE',  ( 0.000000000000000000, 0.000000000000000000, 1.000000000000000000 ) ) ;
#601 = CARTESIAN_POINT ( 'NONE',  ( 55.00000000000000711, 25.11765483937639232, -4.788713990446852087 ) ) ;
#602 = VECTOR ( 'NONE', #247, 1000.000000000000114 ) ;
#603 = CYLINDRICAL_SURFACE ( 'NONE', #737, 5.000000000000000000 ) ;
#604 = LINE ( 'NONE', #791, #37 ) ;
#605 = EDGE_CURVE ( 'NONE', #364, #313, #377, .T. ) ;
#606 = CARTESIAN_POINT ( 'NONE',  ( 48.99206295103677888, 28.44480628606042671, -2.358197731995960833 ) ) ;
#607 = PRODUCT_CONTEXT ( 'NONE', #170, 'mechanical' ) ;
#608 = VECTOR ( 'NONE', #167, 1000.000000000000000 ) ;
#609 = DIRECTION ( 'NONE',  ( 0.000000000000000000, -1.000000000000000000, 0.000000000000000000 ) ) ;
#610 = CARTESIAN_POINT ( 'NONE',  ( 105.0000000000000000, 46.00000000000000000, 0.000000000000000000 ) ) ;
#611 = VERTEX_POINT ( 'NONE', #259 ) ;
#612 = CARTESIAN_POINT ( 'NONE',  ( 84.99999999999998579, 46.00000000000000000, -2.249999999999991562 ) ) ;
#613 = AXIS2_PLACEMENT_3D ( 'NONE', #329, #147, #20 ) ;
#614 = CIRCLE ( 'NONE', #520, 2.750000000000008438 ) ;
#615 = EDGE_CURVE ( 'NONE', #368, #557, #158, .T. ) ;
#616 = ORIENTED_EDGE ( 'NONE', *, *, #141, .T. ) ;
#617 = ORIENTED_EDGE ( 'NONE', *, *, #381, .T. ) ;
#618 = CARTESIAN_POINT ( 'NONE',  ( 55.00000000000000711, 10.25000000000000355, 0.000000000000000000 ) ) ;
#619 = CARTESIAN_POINT ( 'NONE',  ( 32.50000000000000000, 46.00000000000000000, -2.071067811865475061 ) ) ;
#620 = VERTEX_POINT ( 'NONE', #367 ) ;
#621 = EDGE_LOOP ( 'NONE', ( #245, #484, #431, #418 ) ) ;
#622 = CARTESIAN_POINT ( 'NONE',  ( 5.000000000000000000, 46.00000000000000000, -5.000000000000000000 ) ) ;
#623 = CARTESIAN_POINT ( 'NONE',  ( 55.00000000000000711, 25.02246947342471373, -5.679104503372239598 ) ) ;
#624 = AXIS2_PLACEMENT_3D ( 'NONE', #383, #639, #438 ) ;
#625 = VERTEX_POINT ( 'NONE', #58 ) ;
#626 = ORIENTED_EDGE ( 'NONE', *, *, #68, .T. ) ;
#627 = CYLINDRICAL_SURFACE ( 'NONE', #494, 5.000000000000001776 ) ;
#628 = CARTESIAN_POINT ( 'NONE',  ( 55.00000000000000000, 16.42893218813454226, -10.00000000000000000 ) ) ;
#629 = ORIENTED_EDGE ( 'NONE', *, *, #355, .T. ) ;
#630 = ORIENTED_EDGE ( 'NONE', *, *, #311, .T. ) ;
#631 = DIRECTION ( 'NONE',  ( 0.000000000000000000, 0.000000000000000000, -1.000000000000000000 ) ) ;
#632 = ADVANCED_FACE ( 'NONE', ( #1, #810 ), #506, .F. ) ;
#633 = DIRECTION ( 'NONE',  ( 0.000000000000000000, -0.000000000000000000, -1.000000000000000000 ) ) ;
#634 = ORIENTED_EDGE ( 'NONE', *, *, #225, .T. ) ;
#635 = DIRECTION ( 'NONE',  ( 0.7071067811865474617, 0.7071067811865474617, 0.000000000000000000 ) ) ;
#636 = LINE ( 'NONE', #248, #50 ) ;
#637 = DIRECTION ( 'NONE',  ( 0.000000000000000000, 0.000000000000000000, -1.000000000000000000 ) ) ;
#638 = CARTESIAN_POINT ( 'NONE',  ( 84.99999999999998579, 46.00000000000000000, -5.000000000000000000 ) ) ;
#639 = DIRECTION ( 'NONE',  ( 0.000000000000000000, -1.000000000000000000, 0.000000000000000000 ) ) ;
#640 = CARTESIAN_POINT ( 'NONE',  ( 84.99999999999998579, 0.000000000000000000, -5.000000000000000000 ) ) ;
#641 = EDGE_CURVE ( 'NONE', #620, #546, #335, .T. ) ;
#642 = CARTESIAN_POINT ( 'NONE',  ( 55.00000000000001421, 24.85335861093615861, -4.223278260235918680 ) ) ;
#643 =( BOUNDED_CURVE ( )  B_SPLINE_CURVE ( 3, ( #352, #595, #97, #93 ),
 .UNSPECIFIED., .F., .T. ) 
 B_SPLINE_CURVE_WITH_KNOTS ( ( 4, 4 ),
 ( 3.141592653589793116, 4.712388980384689674 ),
 .UNSPECIFIED. ) 
 CURVE ( )  GEOMETRIC_REPRESENTATION_ITEM ( )  RATIONAL_B_SPLINE_CURVE ( ( 1.000000000000000000, 0.8047378541243649375, 0.8047378541243649375, 1.000000000000000000 ) ) 
 REPRESENTATION_ITEM ( '' )  );
#644 = CARTESIAN_POINT ( 'NONE',  ( 55.00000000000176925, 24.37785387970573225, -6.018194708877467214 ) ) ;
#645 = DIRECTION ( 'NONE',  ( 0.7071067811865477948, -0.7071067811865473507, 0.000000000000000000 ) ) ;
#646 = CIRCLE ( 'NONE', #720, 5.000000000000000000 ) ;
#647 = ADVANCED_FACE ( 'NONE', ( #258, #243 ), #375, .F. ) ;
#648 = CARTESIAN_POINT ( 'NONE',  ( 48.55573818037331790, 29.31745582738955491, -7.064586596734687696 ) ) ;
#649 = CARTESIAN_POINT ( 'NONE',  ( 25.00000000000000000, 46.00000000000000000, -7.749999999999998224 ) ) ;
#650 = PRESENTATION_STYLE_ASSIGNMENT (( #83 ) ) ;
#651 =( BOUNDED_CURVE ( )  B_SPLINE_CURVE ( 3, ( #470, #534, #36, #478 ),
 .UNSPECIFIED., .F., .T. ) 
 B_SPLINE_CURVE_WITH_KNOTS ( ( 4, 4 ),
 ( 4.712388980384689674, 6.283185307179586232 ),
 .UNSPECIFIED. ) 
 CURVE ( )  GEOMETRIC_REPRESENTATION_ITEM ( )  RATIONAL_B_SPLINE_CURVE ( ( 1.000000000000000000, 0.8047378541243649375, 0.8047378541243649375, 1.000000000000000000 ) ) 
 REPRESENTATION_ITEM ( '' )  );
#652 = CARTESIAN_POINT ( 'NONE',  ( 62.07106781186548261, 30.57106781186548972, -5.000000000000000000 ) ) ;
#653 = DIRECTION ( 'NONE',  ( 0.000000000000000000, -0.000000000000000000, -1.000000000000000000 ) ) ;
#654 = ORIENTED_EDGE ( 'NONE', *, *, #311, .F. ) ;
#655 = CARTESIAN_POINT ( 'NONE',  ( 48.37863217086395196, 29.67166784640623689, -3.237752273084146815 ) ) ;
#656 = EDGE_CURVE ( 'NONE', #376, #368, #636, .T. ) ;
#657 = CARTESIAN_POINT ( 'NONE',  ( 55.00000000000000000, 37.64213562373096522, -5.000000000000000000 ) ) ;
#658 = ORIENTED_EDGE ( 'NONE', *, *, #656, .F. ) ;
#659 = CARTESIAN_POINT ( 'NONE',  ( 84.99999999999998579, 46.00000000000000000, -5.000000000000000000 ) ) ;
#660 = CARTESIAN_POINT ( 'NONE',  ( 62.07106781186546840, 30.57106781186549327, -5.000000000000000000 ) ) ;
#661 = DIRECTION ( 'NONE',  ( -0.000000000000000000, 1.000000000000000000, -0.000000000000000000 ) ) ;
#662 = DIRECTION ( 'NONE',  ( 0.000000000000000000, -1.000000000000000000, 0.000000000000000000 ) ) ;
#663 = AXIS2_PLACEMENT_3D ( 'NONE', #764, #53, #492 ) ;
#664 = FACE_BOUND ( 'NONE', #551, .T. ) ;
#665 = CARTESIAN_POINT ( 'NONE',  ( 58.13355223096814228, 22.69603665006717819, -0.5058351977853029480 ) ) ;
#666 = DIRECTION ( 'NONE',  ( 0.000000000000000000, 1.000000000000000000, 0.000000000000000000 ) ) ;
#667 = EDGE_CURVE ( 'NONE', #364, #611, #455, .T. ) ;
#668 = CARTESIAN_POINT ( 'NONE',  ( 57.75000000000000711, 10.25000000000000355, 0.000000000000000000 ) ) ;
#669 = CARTESIAN_POINT ( 'NONE',  ( 60.32724923458883381, 27.08343065731090604, -1.695866246982221659 ) ) ;
#670 = CARTESIAN_POINT ( 'NONE',  ( 25.42893218813452094, 46.00000000000000000, -10.00000000000000000 ) ) ;
#671 = DIRECTION ( 'NONE',  ( 0.7071067811865471286, 0.7071067811865477948, 0.000000000000000000 ) ) ;
#672 = CIRCLE ( 'NONE', #576, 2.749999999999998224 ) ;
#673 = CARTESIAN_POINT ( 'NONE',  ( 60.62225993836508309, 27.67345206486429632, -1.950051040713677297 ) ) ;
#674 = DIRECTION ( 'NONE',  ( 1.000000000000000000, 0.000000000000000000, 0.000000000000000000 ) ) ;
#675 = ORIENTED_EDGE ( 'NONE', *, *, #507, .F. ) ;
#676 = ADVANCED_FACE ( 'NONE', ( #696 ), #171, .F. ) ;
#677 = EDGE_LOOP ( 'NONE', ( #680, #658, #681, #63 ) ) ;
#678 = DIRECTION ( 'NONE',  ( -0.000000000000000000, -1.000000000000000000, -0.000000000000000000 ) ) ;
#679 =( LENGTH_UNIT ( ) NAMED_UNIT ( * ) SI_UNIT ( .MILLI., .METRE. ) );
#680 = ORIENTED_EDGE ( 'NONE', *, *, #615, .F. ) ;
#681 = ORIENTED_EDGE ( 'NONE', *, *, #592, .F. ) ;
#682 = EDGE_LOOP ( 'NONE', ( #60, #181, #629, #487 ) ) ;
#683 = DIRECTION ( 'NONE',  ( -0.000000000000000000, -1.000000000000000000, -0.000000000000000000 ) ) ;
#684 = CARTESIAN_POINT ( 'NONE',  ( 55.00000000000000000, 24.51317270141758087, -6.656592618119664628 ) ) ;
#685 = ORIENTED_EDGE ( 'NONE', *, *, #84, .F. ) ;
#686 = ORIENTED_EDGE ( 'NONE', *, *, #777, .F. ) ;
#687 = DIRECTION ( 'NONE',  ( -0.000000000000000000, -1.000000000000000000, 0.000000000000000000 ) ) ;
#688 = CARTESIAN_POINT ( 'NONE',  ( 55.00000000000000711, 25.06311308057183140, -4.652202178883724670 ) ) ;
#689 = EDGE_LOOP ( 'NONE', ( #733, #686, #499, #806 ) ) ;
#690 = EDGE_CURVE ( 'NONE', #440, #240, #710, .T. ) ;
#691 = CARTESIAN_POINT ( 'NONE',  ( 59.14213562373094391, 24.71320343559644428, -9.999999999999998224 ) ) ;
#692 = DIRECTION ( 'NONE',  ( -0.000000000000000000, 1.000000000000000000, -0.000000000000000000 ) ) ;
#693 = VECTOR ( 'NONE', #441, 1000.000000000000000 ) ;
#694 = ORIENTED_EDGE ( 'NONE', *, *, #656, .T. ) ;
#695 = FACE_OUTER_BOUND ( 'NONE', #236, .T. ) ;
#696 = FACE_OUTER_BOUND ( 'NONE', #176, .T. ) ;
#697 = CARTESIAN_POINT ( 'NONE',  ( 47.92893218813451028, 30.57106781186549682, -7.928932188134525383 ) ) ;
#698 = DIRECTION ( 'NONE',  ( 1.000000000000000000, 0.000000000000000000, 0.000000000000000000 ) ) ;
#699 = CARTESIAN_POINT ( 'NONE',  ( 57.27840877049766988, 20.98574972912432912, -9.744630522899734970 ) ) ;
#700 = DIRECTION ( 'NONE',  ( -0.000000000000000000, -1.000000000000000000, -0.000000000000000000 ) ) ;
#701 = EDGE_CURVE ( 'NONE', #757, #313, #512, .T. ) ;
#702 = CARTESIAN_POINT ( 'NONE',  ( 48.01965684305213244, 30.38961850202992210, -5.814970993962774948 ) ) ;
#703 = CARTESIAN_POINT ( 'NONE',  ( 48.01965684305258009, 30.38961850202950998, -4.185029006037326305 ) ) ;
#704 = EDGE_CURVE ( 'NONE', #800, #278, #526, .T. ) ;
#705 = CARTESIAN_POINT ( 'NONE',  ( 55.00000000000000711, 25.01025061481177403, -4.488054329310614321 ) ) ;
#706 = CARTESIAN_POINT ( 'NONE',  ( 77.49999999999998579, 46.00000000000000711, -5.000000000000000000 ) ) ;
#707 = LINE ( 'NONE', #519, #398 ) ;
#708 = CARTESIAN_POINT ( 'NONE',  ( 47.94030013111181887, 30.54833192590970015, -5.327248981648782689 ) ) ;
#709 = CARTESIAN_POINT ( 'NONE',  ( 54.99999999999999289, 16.42893218813454226, -10.00000000000000000 ) ) ;
#710 = LINE ( 'NONE', #276, #725 ) ;
#711 = EDGE_CURVE ( 'NONE', #278, #546, #530, .T. ) ;
#712 = CARTESIAN_POINT ( 'NONE',  ( 54.99999999999520384, 20.04788209745828809, -0.4765575415597305686 ) ) ;
#713 = DIRECTION ( 'NONE',  ( -0.000000000000000000, -0.000000000000000000, 1.000000000000000000 ) ) ;
#714 = EDGE_LOOP ( 'NONE', ( #754, #742, #126, #353 ) ) ;
#715 = CIRCLE ( 'NONE', #439, 10.00000000000000178 ) ;
#716 = CARTESIAN_POINT ( 'NONE',  ( 54.99999999999999289, 16.42893218813451739, -1.734723475976807094E-15 ) ) ;
#717 = CARTESIAN_POINT ( 'NONE',  ( 0.000000000000000000, 0.000000000000000000, 0.000000000000000000 ) ) ;
#718 = VERTEX_POINT ( 'NONE', #388 ) ;
#719 = DIRECTION ( 'NONE',  ( 1.000000000000000000, 0.000000000000000000, 0.000000000000000000 ) ) ;
#720 = AXIS2_PLACEMENT_3D ( 'NONE', #219, #662, #472 ) ;
#721 = CARTESIAN_POINT ( 'NONE',  ( 55.00000000000000711, 17.35453602942908446, 1.204076561863485296E-11 ) ) ;
#722 = PLANE ( 'NONE',  #476 ) ;
#723 = EDGE_CURVE ( 'NONE', #151, #728, #213, .T. ) ;
#724 = CARTESIAN_POINT ( 'NONE',  ( 42.28553390593272354, 3.714466094067274238, 0.000000000000000000 ) ) ;
#725 = VECTOR ( 'NONE', #713, 1000.000000000000000 ) ;
#726 = DIRECTION ( 'NONE',  ( 0.000000000000000000, 0.000000000000000000, 1.000000000000000000 ) ) ;
#727 = CARTESIAN_POINT ( 'NONE',  ( 52.72159122950202459, 20.98574972912406267, -0.2553694771001011610 ) ) ;
#728 = VERTEX_POINT ( 'NONE', #463 ) ;
#729 = DIRECTION ( 'NONE',  ( 0.000000000000000000, 0.000000000000000000, -1.000000000000000000 ) ) ;
#730 = FACE_OUTER_BOUND ( 'NONE', #689, .T. ) ;
#731 =( BOUNDED_CURVE ( )  B_SPLINE_CURVE ( 3, ( #162, #238, #619, #412 ),
 .UNSPECIFIED., .F., .F. ) 
 B_SPLINE_CURVE_WITH_KNOTS ( ( 4, 4 ),
 ( 4.712388980384689674, 6.283185307179586232 ),
 .UNSPECIFIED. ) 
 CURVE ( )  GEOMETRIC_REPRESENTATION_ITEM ( )  RATIONAL_B_SPLINE_CURVE ( ( 1.000000000000000000, 0.8047378541243649375, 0.8047378541243649375, 1.000000000000000000 ) ) 
 REPRESENTATION_ITEM ( '' )  );
#732 = CARTESIAN_POINT ( 'NONE',  ( 12.71446609406725514, 58.71446609406726225, -5.000000000000000000 ) ) ;
#733 = ORIENTED_EDGE ( 'NONE', *, *, #704, .F. ) ;
#734 = AXIS2_PLACEMENT_3D ( 'NONE', #205, #79, #582 ) ;
#735 = CYLINDRICAL_SURFACE ( 'NONE', #125, 2.749999999999998224 ) ;
#736 = PRODUCT_DEFINITION_SHAPE ( 'NONE', 'NONE',  #544 ) ;
#737 = AXIS2_PLACEMENT_3D ( 'NONE', #226, #609, #87 ) ;
#738 = ORIENTED_EDGE ( 'NONE', *, *, #605, .F. ) ;
#739 = VERTEX_POINT ( 'NONE', #396 ) ;
#740 = ADVANCED_FACE ( 'NONE', ( #149, #467, #217 ), #400, .T. ) ;
#741 = FACE_OUTER_BOUND ( 'NONE', #682, .T. ) ;
#742 = ORIENTED_EDGE ( 'NONE', *, *, #339, .T. ) ;
#743 = MECHANICAL_DESIGN_GEOMETRIC_PRESENTATION_REPRESENTATION (  '', ( #760 ), #306 ) ;
#744 = VERTEX_POINT ( 'NONE', #80 ) ;
#745 = ORIENTED_EDGE ( 'NONE', *, *, #40, .F. ) ;
#746 = DIRECTION ( 'NONE',  ( 0.000000000000000000, 0.000000000000000000, 1.000000000000000000 ) ) ;
#747 = CARTESIAN_POINT ( 'NONE',  ( 54.99999999999051425, 18.28569558857823907, -9.901466659662998993 ) ) ;
#748 = EDGE_LOOP ( 'NONE', ( #822, #21, #568, #28 ) ) ;
#749 = EDGE_LOOP ( 'NONE', ( #284, #564, #357, #246, #358, #56 ) ) ;
#750 = UNCERTAINTY_MEASURE_WITH_UNIT (LENGTH_MEASURE( 1.000000000000000082E-05 ), #775, 'distance_accuracy_value', 'NONE');
#751 = LINE ( 'NONE', #232, #548 ) ;
#752 = CARTESIAN_POINT ( 'NONE',  ( 60.62225993836341331, 27.67345206486206521, -8.049948959286929551 ) ) ;
#753 = ADVANCED_FACE ( 'NONE', ( #283 ), #139, .F. ) ;
#754 = ORIENTED_EDGE ( 'NONE', *, *, #30, .F. ) ;
#755 = CARTESIAN_POINT ( 'NONE',  ( 105.0000000000000000, 0.000000000000000000, 0.000000000000000000 ) ) ;
#756 = CARTESIAN_POINT ( 'NONE',  ( 55.00000000000000000, 16.42893218813454226, -10.00000000000000000 ) ) ;
#757 = VERTEX_POINT ( 'NONE', #78 ) ;
#758 = CARTESIAN_POINT ( 'NONE',  ( 84.99999999999998579, 0.000000000000000000, -5.000000000000000000 ) ) ;
#759 = FACE_OUTER_BOUND ( 'NONE', #109, .T. ) ;
#760 = STYLED_ITEM ( 'NONE', ( #650 ), #761 ) ;
#761 = MANIFOLD_SOLID_BREP ( 'Fillet3', #183 ) ;
#762 = DIRECTION ( 'NONE',  ( 0.7071067811865475727, 0.7071067811865475727, 0.000000000000000000 ) ) ;
#763 = EDGE_CURVE ( 'NONE', #818, #364, #715, .T. ) ;
#764 = CARTESIAN_POINT ( 'NONE',  ( 0.000000000000000000, 46.00000000000000000, 0.000000000000000000 ) ) ;
#765 = CARTESIAN_POINT ( 'NONE',  ( 55.00000000000000711, 23.66471185235554842, -5.615336360008326366 ) ) ;
#766 = DIRECTION ( 'NONE',  ( 0.000000000000000000, 0.000000000000000000, -1.000000000000000000 ) ) ;
#767 = CARTESIAN_POINT ( 'NONE',  ( 62.05969986888688084, 30.54833192590844959, -5.327248981648510906 ) ) ;
#768 = FACE_OUTER_BOUND ( 'NONE', #129, .T. ) ;
#769 = CARTESIAN_POINT ( 'NONE',  ( 48.65479365809341061, 29.11934487194773169, -7.212679654783507921 ) ) ;
#770 = CARTESIAN_POINT ( 'NONE',  ( 48.10994470372596510, 30.20904278068250903, -3.864067773801397099 ) ) ;
#771 = DIRECTION ( 'NONE',  ( 1.000000000000000000, 0.000000000000000000, 0.000000000000000000 ) ) ;
#772 = UNCERTAINTY_MEASURE_WITH_UNIT (LENGTH_MEASURE( 1.000000000000000082E-05 ), #679, 'distance_accuracy_value', 'NONE');
#773 = CARTESIAN_POINT ( 'NONE',  ( 48.87295621203993079, 28.68301976405470199, -7.501287713476505914 ) ) ;
#774 = CARTESIAN_POINT ( 'NONE',  ( 62.05969986888646872, 30.54833192590800195, -4.672751018351435803 ) ) ;
#775 =( LENGTH_UNIT ( ) NAMED_UNIT ( * ) SI_UNIT ( .MILLI., .METRE. ) );
#776 = AXIS2_PLACEMENT_3D ( 'NONE', #5, #515, #395 ) ;
#777 = EDGE_CURVE ( 'NONE', #557, #800, #490, .T. ) ;
#778 = CARTESIAN_POINT ( 'NONE',  ( 50.68672081718187883, 25.05549055377118961, -1.024461872012534025 ) ) ;
#779 = CIRCLE ( 'NONE', #89, 2.750000000000008438 ) ;
#780 = CARTESIAN_POINT ( 'NONE',  ( 105.0000000000000000, 46.00000000000000000, -10.00000000000000000 ) ) ;
#781 = ORIENTED_EDGE ( 'NONE', *, *, #641, .T. ) ;
#782 = CARTESIAN_POINT ( 'NONE',  ( 55.00000000000000000, 25.01025061481268708, -5.511945670689420318 ) ) ;
#783 = DIRECTION ( 'NONE',  ( 1.000000000000000000, 0.000000000000000000, 0.000000000000000000 ) ) ;
#784 = ORIENTED_EDGE ( 'NONE', *, *, #723, .T. ) ;
#785 = DIRECTION ( 'NONE',  ( 0.000000000000000000, 1.000000000000000000, -0.000000000000000000 ) ) ;
#786 = EDGE_CURVE ( 'NONE', #251, #368, #707, .T. ) ;
#787 = CARTESIAN_POINT ( 'NONE',  ( 57.27840877049386137, 20.98574972912587810, -0.2553694771018441001 ) ) ;
#788 = SURFACE_SIDE_STYLE ('',( #536 ) ) ;
#789 = LINE ( 'NONE', #724, #254 ) ;
#790 = AXIS2_PLACEMENT_3D ( 'NONE', #261, #66, #510 ) ;
#791 = CARTESIAN_POINT ( 'NONE',  ( 0.000000000000000000, 46.00000000000000000, 0.000000000000000000 ) ) ;
#792 = CARTESIAN_POINT ( 'NONE',  ( 55.00000000000185452, 24.51067883316140694, -5.997181672069732628 ) ) ;
#793 = CARTESIAN_POINT ( 'NONE',  ( 32.50000000000000000, 46.00000000000000000, -7.928932188134525383 ) ) ;
#794 = DIRECTION ( 'NONE',  ( -0.000000000000000000, -1.000000000000000000, -0.000000000000000000 ) ) ;
#795 = CARTESIAN_POINT ( 'NONE',  ( 59.67275076541120171, 25.77443371895822466, -1.233065941152323264 ) ) ;
#796 = CARTESIAN_POINT ( 'NONE',  ( 0.000000000000000000, 46.00000000000000000, -10.00000000000000000 ) ) ;
#797 = ORIENTED_EDGE ( 'NONE', *, *, #393, .F. ) ;
#798 = DIRECTION ( 'NONE',  ( 0.7071067811865471286, 0.7071067811865477948, 0.000000000000000000 ) ) ;
#799 = EDGE_CURVE ( 'NONE', #308, #172, #731, .T. ) ;
#800 = VERTEX_POINT ( 'NONE', #144 ) ;
#801 = ORIENTED_EDGE ( 'NONE', *, *, #120, .T. ) ;
#802 = AXIS2_PLACEMENT_3D ( 'NONE', #285, #726, #275 ) ;
#803 = CARTESIAN_POINT ( 'NONE',  ( 84.99999999999998579, 46.00000000000000000, -5.000000000000000000 ) ) ;
#804 = CARTESIAN_POINT ( 'NONE',  ( 47.92893218813453160, 30.57106781186547906, -5.000000000000000000 ) ) ;
#805 = ORIENTED_EDGE ( 'NONE', *, *, #701, .F. ) ;
#806 = ORIENTED_EDGE ( 'NONE', *, *, #255, .F. ) ;
#807 = CIRCLE ( 'NONE', #594, 5.000000000000000000 ) ;
#808 = ORIENTED_EDGE ( 'NONE', *, *, #369, .T. ) ;
#809 = CYLINDRICAL_SURFACE ( 'NONE', #309, 5.000000000000001776 ) ;
#810 = FACE_OUTER_BOUND ( 'NONE', #435, .T. ) ;
#811 = VECTOR ( 'NONE', #597, 1000.000000000000000 ) ;
#812 = ORIENTED_EDGE ( 'NONE', *, *, #84, .T. ) ;
#813 = ORIENTED_EDGE ( 'NONE', *, *, #101, .F. ) ;
#814 = LINE ( 'NONE', #237, #602 ) ;
#815 = ADVANCED_FACE ( 'NONE', ( #99, #424 ), #722, .F. ) ;
#816 = CARTESIAN_POINT ( 'NONE',  ( 51.86644776903589360, 22.69603665006650672, -9.494164802213720833 ) ) ;
#817 = AXIS2_PLACEMENT_3D ( 'NONE', #416, #542, #403 ) ;
#818 = VERTEX_POINT ( 'NONE', #804 ) ;
#819 = ORIENTED_EDGE ( 'NONE', *, *, #763, .F. ) ;
#820 = CARTESIAN_POINT ( 'NONE',  ( 110.0000000000000000, 46.00000000000000000, -5.000000000000000000 ) ) ;
#821 = CARTESIAN_POINT ( 'NONE',  ( 55.00000000000000711, 24.11197415150794754, -7.164511997075542205 ) ) ;
#822 = ORIENTED_EDGE ( 'NONE', *, *, #369, .F. ) ;
#823 = CARTESIAN_POINT ( 'NONE',  ( 0.000000000000000000, 46.00000000000000000, -10.00000000000000000 ) ) ;
ENDSEC;
END-ISO-10303-21;
