ISO-10303-21;
HEADER;
FILE_DESCRIPTION (( 'STEP AP214' ),
    '1' );
FILE_NAME ('Part2.STEP',
    '2026-03-18T20:31:03',
    ( '' ),
    ( '' ),
    'SwSTEP 2.0',
    'SolidWorks 2025',
    '' );
FILE_SCHEMA (( 'AUTOMOTIVE_DESIGN' ));
ENDSEC;

DATA;
#1 = CARTESIAN_POINT ( 'NONE',  ( 15.00000000000000355, 15.00000000000000178, 2.000000000000000000 ) ) ;
#2 = ORIENTED_EDGE ( 'NONE', *, *, #37, .T. ) ;
#3 = EDGE_CURVE ( 'NONE', #459, #799, #647, .T. ) ;
#4 = DIRECTION ( 'NONE',  ( -1.000000000000000000, -1.294569758191647155E-16, 0.000000000000000000 ) ) ;
#5 = FACE_OUTER_BOUND ( 'NONE', #316, .T. ) ;
#6 = CARTESIAN_POINT ( 'NONE',  ( 11.62499999999999822, 11.75000000000000355, 0.000000000000000000 ) ) ;
#7 = EDGE_LOOP ( 'NONE', ( #764, #1004 ) ) ;
#8 = EDGE_CURVE ( 'NONE', #771, #46, #717, .T. ) ;
#9 = AXIS2_PLACEMENT_3D ( 'NONE', #776, #1008, #456 ) ;
#10 = CARTESIAN_POINT ( 'NONE',  ( -6.299999999999998934, -13.20000000000000284, 0.000000000000000000 ) ) ;
#11 = VECTOR ( 'NONE', #199, 1000.000000000000000 ) ;
#12 = CARTESIAN_POINT ( 'NONE',  ( 13.75000000000000355, -13.74999999999999822, -3.000000000000000000 ) ) ;
#13 = VECTOR ( 'NONE', #442, 1000.000000000000000 ) ;
#14 = CARTESIAN_POINT ( 'NONE',  ( -15.00000000000000000, 14.99999999999999467, 2.000000000000000000 ) ) ;
#15 = ORIENTED_EDGE ( 'NONE', *, *, #234, .T. ) ;
#16 = FACE_BOUND ( 'NONE', #665, .T. ) ;
#17 = DIRECTION ( 'NONE',  ( 0.000000000000000000, 0.000000000000000000, 1.000000000000000000 ) ) ;
#18 = ORIENTED_EDGE ( 'NONE', *, *, #553, .F. ) ;
#19 = LINE ( 'NONE', #350, #804 ) ;
#20 = LINE ( 'NONE', #175, #437 ) ;
#21 = EDGE_CURVE ( 'NONE', #1001, #493, #474, .T. ) ;
#22 = ORIENTED_EDGE ( 'NONE', *, *, #220, .F. ) ;
#23 = LINE ( 'NONE', #662, #983 ) ;
#24 = VECTOR ( 'NONE', #479, 1000.000000000000000 ) ;
#25 = LINE ( 'NONE', #575, #352 ) ;
#26 = VECTOR ( 'NONE', #796, 1000.000000000000000 ) ;
#27 = EDGE_CURVE ( 'NONE', #131, #183, #959, .T. ) ;
#28 = ORIENTED_EDGE ( 'NONE', *, *, #701, .T. ) ;
#29 = CARTESIAN_POINT ( 'NONE',  ( -11.62500000000000178, -11.75000000000000178, 2.000000000000000000 ) ) ;
#30 = DIRECTION ( 'NONE',  ( 1.000000000000000000, 0.000000000000000000, 0.000000000000000000 ) ) ;
#31 = ORIENTED_EDGE ( 'NONE', *, *, #255, .F. ) ;
#32 = DIRECTION ( 'NONE',  ( 1.000000000000000000, 4.956352788505164254E-16, 0.000000000000000000 ) ) ;
#33 = EDGE_CURVE ( 'NONE', #405, #697, #946, .T. ) ;
#34 = CARTESIAN_POINT ( 'NONE',  ( -11.62500000000000178, -11.75000000000000178, 0.000000000000000000 ) ) ;
#35 = ORIENTED_EDGE ( 'NONE', *, *, #114, .F. ) ;
#36 = DIRECTION ( 'NONE',  ( 0.000000000000000000, 0.000000000000000000, 1.000000000000000000 ) ) ;
#37 = EDGE_CURVE ( 'NONE', #137, #451, #152, .T. ) ;
#38 = DIRECTION ( 'NONE',  ( 1.294569758191647155E-16, -1.000000000000000000, 0.000000000000000000 ) ) ;
#39 = VECTOR ( 'NONE', #660, 1000.000000000000000 ) ;
#40 = VECTOR ( 'NONE', #931, 1000.000000000000000 ) ;
#41 = ORIENTED_EDGE ( 'NONE', *, *, #278, .F. ) ;
#42 = DIRECTION ( 'NONE',  ( 0.000000000000000000, -1.000000000000000000, 0.000000000000000000 ) ) ;
#43 = DIRECTION ( 'NONE',  ( 0.000000000000000000, 0.000000000000000000, 1.000000000000000000 ) ) ;
#44 = EDGE_LOOP ( 'NONE', ( #838, #939 ) ) ;
#45 = CARTESIAN_POINT ( 'NONE',  ( 11.62499999999999645, -11.74999999999999822, 2.000000000000000000 ) ) ;
#46 = VERTEX_POINT ( 'NONE', #85 ) ;
#47 = DIRECTION ( 'NONE',  ( -1.000000000000000000, 0.000000000000000000, 0.000000000000000000 ) ) ;
#48 = CARTESIAN_POINT ( 'NONE',  ( 10.37499999999999822, 11.75000000000000355, 2.000000000000000000 ) ) ;
#49 = EDGE_CURVE ( 'NONE', #147, #493, #228, .T. ) ;
#50 = EDGE_LOOP ( 'NONE', ( #123, #733, #924, #104 ) ) ;
#51 = DIRECTION ( 'NONE',  ( 1.000000000000000000, 0.000000000000000000, 0.000000000000000000 ) ) ;
#52 = EDGE_LOOP ( 'NONE', ( #674, #87, #157, #240 ) ) ;
#53 = DIRECTION ( 'NONE',  ( -4.956352788505164254E-16, 1.000000000000000000, 0.000000000000000000 ) ) ;
#54 = CARTESIAN_POINT ( 'NONE',  ( -13.75000000000000000, 13.74999999999999467, 0.000000000000000000 ) ) ;
#55 = VERTEX_POINT ( 'NONE', #80 ) ;
#56 = CIRCLE ( 'NONE', #108, 1.249999999999999334 ) ;
#57 = DIRECTION ( 'NONE',  ( 0.000000000000000000, -1.000000000000000000, 0.000000000000000000 ) ) ;
#58 = ORIENTED_EDGE ( 'NONE', *, *, #617, .T. ) ;
#59 = DIRECTION ( 'NONE',  ( -1.294569758191647155E-16, 1.000000000000000000, 0.000000000000000000 ) ) ;
#60 = DIRECTION ( 'NONE',  ( 1.000000000000000000, 2.523234146875355505E-16, 0.000000000000000000 ) ) ;
#61 = ORIENTED_EDGE ( 'NONE', *, *, #79, .F. ) ;
#62 = FACE_OUTER_BOUND ( 'NONE', #52, .T. ) ;
#63 = ORIENTED_EDGE ( 'NONE', *, *, #753, .T. ) ;
#64 = EDGE_CURVE ( 'NONE', #799, #1006, #723, .T. ) ;
#65 = LINE ( 'NONE', #370, #274 ) ;
#66 = PLANE ( 'NONE',  #686 ) ;
#67 = ORIENTED_EDGE ( 'NONE', *, *, #314, .F. ) ;
#68 = ORIENTED_EDGE ( 'NONE', *, *, #625, .T. ) ;
#69 = PLANE ( 'NONE',  #475 ) ;
#70 = DIRECTION ( 'NONE',  ( -0.000000000000000000, -0.000000000000000000, -1.000000000000000000 ) ) ;
#71 = CARTESIAN_POINT ( 'NONE',  ( -13.75000000000000000, 13.74999999999999467, -3.000000000000000000 ) ) ;
#72 = VECTOR ( 'NONE', #133, 1000.000000000000000 ) ;
#73 = DIRECTION ( 'NONE',  ( 1.000000000000000000, 2.312964634635742957E-16, -0.000000000000000000 ) ) ;
#74 = VECTOR ( 'NONE', #53, 1000.000000000000000 ) ;
#75 = ORIENTED_EDGE ( 'NONE', *, *, #553, .T. ) ;
#76 = AXIS2_PLACEMENT_3D ( 'NONE', #81, #245, #631 ) ;
#77 = FACE_OUTER_BOUND ( 'NONE', #111, .T. ) ;
#78 = PLANE ( 'NONE',  #120 ) ;
#79 = EDGE_CURVE ( 'NONE', #608, #658, #331, .T. ) ;
#80 = CARTESIAN_POINT ( 'NONE',  ( -6.299999999999998934, -13.20000000000000284, 2.000000000000000000 ) ) ;
#81 = CARTESIAN_POINT ( 'NONE',  ( 0.000000000000000000, 0.000000000000000000, 0.000000000000000000 ) ) ;
#82 = VERTEX_POINT ( 'NONE', #942 ) ;
#83 = CARTESIAN_POINT ( 'NONE',  ( 13.40000000000000746, -9.700000000000001066, 0.000000000000000000 ) ) ;
#84 = DIRECTION ( 'NONE',  ( 1.000000000000000000, 0.000000000000000000, 0.000000000000000000 ) ) ;
#85 = CARTESIAN_POINT ( 'NONE',  ( 6.299999999999998046, 9.500000000000000000, 2.000000000000000000 ) ) ;
#86 = ADVANCED_FACE ( 'NONE', ( #398 ), #937, .T. ) ;
#87 = ORIENTED_EDGE ( 'NONE', *, *, #413, .F. ) ;
#88 = LINE ( 'NONE', #862, #506 ) ;
#89 = CARTESIAN_POINT ( 'NONE',  ( -11.62500000000000178, -11.75000000000000178, 0.000000000000000000 ) ) ;
#90 = DIRECTION ( 'NONE',  ( -0.000000000000000000, -0.000000000000000000, -1.000000000000000000 ) ) ;
#91 = ORIENTED_EDGE ( 'NONE', *, *, #220, .T. ) ;
#92 = VECTOR ( 'NONE', #789, 1000.000000000000000 ) ;
#93 = LINE ( 'NONE', #705, #539 ) ;
#94 = AXIS2_PLACEMENT_3D ( 'NONE', #889, #970, #977 ) ;
#95 = DIRECTION ( 'NONE',  ( -0.000000000000000000, 0.000000000000000000, 1.000000000000000000 ) ) ;
#96 = ORIENTED_EDGE ( 'NONE', *, *, #1021, .F. ) ;
#97 = PLANE ( 'NONE',  #603 ) ;
#98 = EDGE_CURVE ( 'NONE', #1006, #483, #546, .T. ) ;
#99 = CARTESIAN_POINT ( 'NONE',  ( 11.62499999999999822, 11.75000000000000355, 2.000000000000000000 ) ) ;
#100 = VERTEX_POINT ( 'NONE', #71 ) ;
#101 = CARTESIAN_POINT ( 'NONE',  ( 13.75000000000000355, 13.75000000000000178, -3.000000000000000000 ) ) ;
#102 = CARTESIAN_POINT ( 'NONE',  ( 11.62499999999999822, 11.75000000000000355, 2.000000000000000000 ) ) ;
#103 = ADVANCED_FACE ( 'NONE', ( #392 ), #403, .F. ) ;
#104 = ORIENTED_EDGE ( 'NONE', *, *, #562, .F. ) ;
#105 = DIRECTION ( 'NONE',  ( 1.000000000000000000, 0.000000000000000000, 0.000000000000000000 ) ) ;
#106 = VECTOR ( 'NONE', #642, 1000.000000000000000 ) ;
#107 = DIRECTION ( 'NONE',  ( 1.000000000000000000, 0.000000000000000000, 0.000000000000000000 ) ) ;
#108 = AXIS2_PLACEMENT_3D ( 'NONE', #512, #341, #105 ) ;
#109 = VECTOR ( 'NONE', #501, 1000.000000000000000 ) ;
#110 = EDGE_CURVE ( 'NONE', #627, #183, #372, .T. ) ;
#111 = EDGE_LOOP ( 'NONE', ( #275, #338, #441, #179 ) ) ;
#112 = CARTESIAN_POINT ( 'NONE',  ( -13.75000000000000000, -13.75000000000000533, -3.000000000000000000 ) ) ;
#113 = ORIENTED_EDGE ( 'NONE', *, *, #916, .F. ) ;
#114 = EDGE_CURVE ( 'NONE', #265, #82, #294, .T. ) ;
#115 = DIRECTION ( 'NONE',  ( -0.000000000000000000, -1.000000000000000000, -0.000000000000000000 ) ) ;
#116 = CARTESIAN_POINT ( 'NONE',  ( 1.817329355785226630E-15, -13.20000000000000284, 0.000000000000000000 ) ) ;
#117 = EDGE_LOOP ( 'NONE', ( #35, #844, #612, #806 ) ) ;
#118 = PLANE ( 'NONE',  #673 ) ;
#119 = CARTESIAN_POINT ( 'NONE',  ( 15.00000000000000355, 15.00000000000000178, 2.000000000000000000 ) ) ;
#120 = AXIS2_PLACEMENT_3D ( 'NONE', #567, #485, #396 ) ;
#121 = CIRCLE ( 'NONE', #831, 1.249999999999999334 ) ;
#122 = AXIS2_PLACEMENT_3D ( 'NONE', #693, #144, #613 ) ;
#123 = ORIENTED_EDGE ( 'NONE', *, *, #182, .T. ) ;
#124 = CARTESIAN_POINT ( 'NONE',  ( -13.75000000000000000, -13.75000000000000533, 0.000000000000000000 ) ) ;
#125 = ADVANCED_BREP_SHAPE_REPRESENTATION ( 'Part2', ( #357, #76 ), #458 ) ;
#126 = CARTESIAN_POINT ( 'NONE',  ( 15.00000000000000355, -14.99999999999999822, 2.000000000000000000 ) ) ;
#127 = EDGE_CURVE ( 'NONE', #100, #279, #450, .T. ) ;
#128 = CARTESIAN_POINT ( 'NONE',  ( -10.37500000000000178, -11.75000000000000178, 2.000000000000000000 ) ) ;
#129 = ORIENTED_EDGE ( 'NONE', *, *, #591, .T. ) ;
#130 = CARTESIAN_POINT ( 'NONE',  ( 12.87499999999999645, -11.74999999999999822, 2.000000000000000000 ) ) ;
#131 = VERTEX_POINT ( 'NONE', #611 ) ;
#132 = CARTESIAN_POINT ( 'NONE',  ( -11.62500000000000178, 11.74999999999999822, 0.000000000000000000 ) ) ;
#133 = DIRECTION ( 'NONE',  ( 0.000000000000000000, 0.000000000000000000, 1.000000000000000000 ) ) ;
#134 = EDGE_CURVE ( 'NONE', #576, #798, #621, .T. ) ;
#135 = EDGE_LOOP ( 'NONE', ( #382, #533, #363, #15 ) ) ;
#136 = CARTESIAN_POINT ( 'NONE',  ( 13.40000000000000746, -9.700000000000001066, 2.000000000000000000 ) ) ;
#137 = VERTEX_POINT ( 'NONE', #529 ) ;
#138 = FACE_BOUND ( 'NONE', #252, .T. ) ;
#139 = DIRECTION ( 'NONE',  ( -2.312964634635742957E-16, 1.000000000000000000, 0.000000000000000000 ) ) ;
#140 = VECTOR ( 'NONE', #550, 1000.000000000000000 ) ;
#141 = ORIENTED_EDGE ( 'NONE', *, *, #445, .T. ) ;
#142 = CIRCLE ( 'NONE', #982, 1.249999999999999334 ) ;
#143 = EDGE_CURVE ( 'NONE', #976, #960, #305, .T. ) ;
#144 = DIRECTION ( 'NONE',  ( -0.000000000000000000, -0.000000000000000000, -1.000000000000000000 ) ) ;
#145 = ORIENTED_EDGE ( 'NONE', *, *, #134, .F. ) ;
#146 = FACE_OUTER_BOUND ( 'NONE', #984, .T. ) ;
#147 = VERTEX_POINT ( 'NONE', #770 ) ;
#148 = EDGE_CURVE ( 'NONE', #265, #661, #835, .T. ) ;
#149 = EDGE_LOOP ( 'NONE', ( #912, #202, #167, #58 ) ) ;
#150 = DIRECTION ( 'NONE',  ( 0.000000000000000000, 0.000000000000000000, 1.000000000000000000 ) ) ;
#151 = FACE_BOUND ( 'NONE', #7, .T. ) ;
#152 = LINE ( 'NONE', #953, #92 ) ;
#153 = VERTEX_POINT ( 'NONE', #707 ) ;
#154 = CARTESIAN_POINT ( 'NONE',  ( -13.39999999999999325, -9.700000000000004619, 0.000000000000000000 ) ) ;
#155 = EDGE_CURVE ( 'NONE', #160, #955, #212, .T. ) ;
#156 = CARTESIAN_POINT ( 'NONE',  ( -10.37500000000000178, -11.75000000000000178, 2.000000000000000000 ) ) ;
#157 = ORIENTED_EDGE ( 'NONE', *, *, #27, .F. ) ;
#158 =( GEOMETRIC_REPRESENTATION_CONTEXT ( 3 ) GLOBAL_UNCERTAINTY_ASSIGNED_CONTEXT ( ( #980 ) ) GLOBAL_UNIT_ASSIGNED_CONTEXT ( ( #885, #582, #439 ) ) REPRESENTATION_CONTEXT ( 'NONE', 'WORKASPACE' ) );
#159 = AXIS2_PLACEMENT_3D ( 'NONE', #253, #961, #552 ) ;
#160 = VERTEX_POINT ( 'NONE', #379 ) ;
#161 = FACE_OUTER_BOUND ( 'NONE', #525, .T. ) ;
#162 = ORIENTED_EDGE ( 'NONE', *, *, #37, .F. ) ;
#163 = EDGE_LOOP ( 'NONE', ( #926, #530, #551, #369 ) ) ;
#164 = DIRECTION ( 'NONE',  ( 0.000000000000000000, 1.000000000000000000, 0.000000000000000000 ) ) ;
#165 = LINE ( 'NONE', #323, #640 ) ;
#166 = ORIENTED_EDGE ( 'NONE', *, *, #367, .T. ) ;
#167 = ORIENTED_EDGE ( 'NONE', *, *, #547, .T. ) ;
#168 = CARTESIAN_POINT ( 'NONE',  ( 6.300000000000002487, -9.700000000000002842, 2.000000000000000000 ) ) ;
#169 = LINE ( 'NONE', #650, #351 ) ;
#170 = ORIENTED_EDGE ( 'NONE', *, *, #1014, .F. ) ;
#171 = ADVANCED_FACE ( 'NONE', ( #846, #928, #463, #365, #151, #468 ), #66, .T. ) ;
#172 = VECTOR ( 'NONE', #384, 1000.000000000000000 ) ;
#173 = VECTOR ( 'NONE', #645, 1000.000000000000000 ) ;
#174 = CARTESIAN_POINT ( 'NONE',  ( -13.75000000000000000, -13.75000000000000533, 0.000000000000000000 ) ) ;
#175 = CARTESIAN_POINT ( 'NONE',  ( -12.87500000000000178, -11.75000000000000178, 2.000000000000000000 ) ) ;
#176 = EDGE_LOOP ( 'NONE', ( #745, #374, #162, #113 ) ) ;
#177 = EDGE_CURVE ( 'NONE', #46, #451, #682, .T. ) ;
#178 = CYLINDRICAL_SURFACE ( 'NONE', #805, 1.249999999999999334 ) ;
#179 = ORIENTED_EDGE ( 'NONE', *, *, #406, .F. ) ;
#180 = DIRECTION ( 'NONE',  ( 1.000000000000000000, 0.000000000000000000, 0.000000000000000000 ) ) ;
#181 = DIRECTION ( 'NONE',  ( -0.000000000000000000, -1.000000000000000000, -0.000000000000000000 ) ) ;
#182 = EDGE_CURVE ( 'NONE', #836, #618, #1020, .T. ) ;
#183 = VERTEX_POINT ( 'NONE', #624 ) ;
#184 = DIRECTION ( 'NONE',  ( -1.000000000000000000, 0.000000000000000000, 0.000000000000000000 ) ) ;
#185 = VECTOR ( 'NONE', #1025, 1000.000000000000000 ) ;
#186 = LINE ( 'NONE', #676, #424 ) ;
#187 = CIRCLE ( 'NONE', #899, 1.249999999999999334 ) ;
#188 = PRODUCT_DEFINITION_FORMATION_WITH_SPECIFIED_SOURCE ( 'ANY', '', #555, .NOT_KNOWN. ) ;
#189 = EDGE_CURVE ( 'NONE', #540, #46, #936, .T. ) ;
#190 = EDGE_LOOP ( 'NONE', ( #68, #718, #216, #321 ) ) ;
#191 = DIRECTION ( 'NONE',  ( -4.956352788505164254E-16, 1.000000000000000000, 0.000000000000000000 ) ) ;
#192 = DIRECTION ( 'NONE',  ( 1.000000000000000000, -0.000000000000000000, 0.000000000000000000 ) ) ;
#193 = ORIENTED_EDGE ( 'NONE', *, *, #950, .T. ) ;
#194 = CARTESIAN_POINT ( 'NONE',  ( 6.300000000000000711, -9.700000000000002842, -1.000000000000000000 ) ) ;
#195 = DIRECTION ( 'NONE',  ( 0.000000000000000000, 0.000000000000000000, 1.000000000000000000 ) ) ;
#196 = ORIENTED_EDGE ( 'NONE', *, *, #487, .T. ) ;
#197 = FACE_OUTER_BOUND ( 'NONE', #795, .T. ) ;
#198 = EDGE_CURVE ( 'NONE', #496, #1001, #858, .T. ) ;
#199 = DIRECTION ( 'NONE',  ( -0.000000000000000000, -0.000000000000000000, 1.000000000000000000 ) ) ;
#200 = AXIS2_PLACEMENT_3D ( 'NONE', #402, #549, #809 ) ;
#201 = AXIS2_PLACEMENT_3D ( 'NONE', #649, #407, #566 ) ;
#202 = ORIENTED_EDGE ( 'NONE', *, *, #732, .F. ) ;
#203 = CARTESIAN_POINT ( 'NONE',  ( 13.75000000000000355, 13.75000000000000178, 0.000000000000000000 ) ) ;
#204 = VERTEX_POINT ( 'NONE', #312 ) ;
#205 = EDGE_CURVE ( 'NONE', #286, #882, #231, .T. ) ;
#206 = FACE_OUTER_BOUND ( 'NONE', #749, .T. ) ;
#207 = DIRECTION ( 'NONE',  ( -0.000000000000000000, -0.000000000000000000, -1.000000000000000000 ) ) ;
#208 = ORIENTED_EDGE ( 'NONE', *, *, #189, .F. ) ;
#209 = DIRECTION ( 'NONE',  ( 0.000000000000000000, 0.000000000000000000, 1.000000000000000000 ) ) ;
#210 = VERTEX_POINT ( 'NONE', #757 ) ;
#211 = CARTESIAN_POINT ( 'NONE',  ( -6.299999999999998934, -13.20000000000000284, -1.000000000000000000 ) ) ;
#212 = LINE ( 'NONE', #54, #325 ) ;
#213 = ADVANCED_FACE ( 'NONE', ( #996 ), #288, .F. ) ;
#214 = ORIENTED_EDGE ( 'NONE', *, *, #389, .T. ) ;
#215 = CARTESIAN_POINT ( 'NONE',  ( -13.39999999999999325, 9.499999999999994671, 2.000000000000000000 ) ) ;
#216 = ORIENTED_EDGE ( 'NONE', *, *, #867, .T. ) ;
#217 = DIRECTION ( 'NONE',  ( -0.000000000000000000, -1.000000000000000000, -0.000000000000000000 ) ) ;
#218 = DIRECTION ( 'NONE',  ( 0.000000000000000000, 1.000000000000000000, 0.000000000000000000 ) ) ;
#219 = CIRCLE ( 'NONE', #200, 1.249999999999999334 ) ;
#220 = EDGE_CURVE ( 'NONE', #955, #960, #561, .T. ) ;
#221 = VECTOR ( 'NONE', #90, 1000.000000000000000 ) ;
#222 = ORIENTED_EDGE ( 'NONE', *, *, #480, .T. ) ;
#223 = CIRCLE ( 'NONE', #354, 1.249999999999999334 ) ;
#224 = DIRECTION ( 'NONE',  ( 1.000000000000000000, 1.376764663473656217E-16, 0.000000000000000000 ) ) ;
#225 = ORIENTED_EDGE ( 'NONE', *, *, #950, .F. ) ;
#226 = DIRECTION ( 'NONE',  ( 1.000000000000000000, 0.000000000000000000, 0.000000000000000000 ) ) ;
#227 = CARTESIAN_POINT ( 'NONE',  ( -6.299999999999998046, -9.700000000000002842, 2.000000000000000000 ) ) ;
#228 = LINE ( 'NONE', #563, #829 ) ;
#229 = ORIENTED_EDGE ( 'NONE', *, *, #617, .F. ) ;
#230 = DIRECTION ( 'NONE',  ( -0.000000000000000000, 0.000000000000000000, 1.000000000000000000 ) ) ;
#231 = LINE ( 'NONE', #128, #748 ) ;
#232 = EDGE_LOOP ( 'NONE', ( #222, #915, #900, #237 ) ) ;
#233 = ORIENTED_EDGE ( 'NONE', *, *, #205, .T. ) ;
#234 = EDGE_CURVE ( 'NONE', #738, #714, #165, .T. ) ;
#235 = FACE_OUTER_BOUND ( 'NONE', #865, .T. ) ;
#236 = FACE_OUTER_BOUND ( 'NONE', #678, .T. ) ;
#237 = ORIENTED_EDGE ( 'NONE', *, *, #198, .F. ) ;
#238 = VECTOR ( 'NONE', #636, 1000.000000000000000 ) ;
#239 = VECTOR ( 'NONE', #744, 1000.000000000000000 ) ;
#240 = ORIENTED_EDGE ( 'NONE', *, *, #472, .F. ) ;
#241 = VECTOR ( 'NONE', #224, 1000.000000000000000 ) ;
#242 = CARTESIAN_POINT ( 'NONE',  ( -11.62500000000000178, -11.75000000000000178, 2.000000000000000000 ) ) ;
#243 = CARTESIAN_POINT ( 'NONE',  ( -13.39999999999999325, -9.700000000000004619, 2.000000000000000000 ) ) ;
#244 = EDGE_LOOP ( 'NONE', ( #614, #842, #380, #565 ) ) ;
#245 = DIRECTION ( 'NONE',  ( 0.000000000000000000, 0.000000000000000000, 1.000000000000000000 ) ) ;
#246 = ORIENTED_EDGE ( 'NONE', *, *, #329, .F. ) ;
#247 = DIRECTION ( 'NONE',  ( -1.000000000000000000, 0.000000000000000000, -0.000000000000000000 ) ) ;
#248 = FILL_AREA_STYLE ('',( #957 ) ) ;
#249 = EDGE_CURVE ( 'NONE', #637, #882, #669, .T. ) ;
#250 = CARTESIAN_POINT ( 'NONE',  ( 13.40000000000000746, -9.700000000000001066, 0.000000000000000000 ) ) ;
#251 = CARTESIAN_POINT ( 'NONE',  ( 15.00000000000000355, -14.99999999999999822, 2.000000000000000000 ) ) ;
#252 = EDGE_LOOP ( 'NONE', ( #28, #453, #214, #825, #754, #782, #781, #968, #417, #295, #141, #1009 ) ) ;
#253 = CARTESIAN_POINT ( 'NONE',  ( -6.299999999999998046, 12.99999999999999822, -1.000000000000000000 ) ) ;
#254 = SURFACE_SIDE_STYLE ('',( #334 ) ) ;
#255 = EDGE_CURVE ( 'NONE', #798, #576, #219, .T. ) ;
#256 = ORIENTED_EDGE ( 'NONE', *, *, #867, .F. ) ;
#257 = VECTOR ( 'NONE', #469, 1000.000000000000000 ) ;
#258 = AXIS2_PLACEMENT_3D ( 'NONE', #516, #578, #826 ) ;
#259 = PLANE ( 'NONE',  #94 ) ;
#260 = DIRECTION ( 'NONE',  ( -1.000000000000000000, -2.523234146875355505E-16, 0.000000000000000000 ) ) ;
#261 = ORIENTED_EDGE ( 'NONE', *, *, #177, .F. ) ;
#262 = CARTESIAN_POINT ( 'NONE',  ( -15.00000000000000000, 14.99999999999999467, 2.000000000000000000 ) ) ;
#263 = ADVANCED_FACE ( 'NONE', ( #236 ), #78, .F. ) ;
#264 = LINE ( 'NONE', #116, #505 ) ;
#265 = VERTEX_POINT ( 'NONE', #797 ) ;
#266 = DIRECTION ( 'NONE',  ( 1.000000000000000000, 1.294569758191647155E-16, 0.000000000000000000 ) ) ;
#267 = PRODUCT_DEFINITION ( 'UNKNOWN', '', #188, #528 ) ;
#268 = DIRECTION ( 'NONE',  ( 1.000000000000000000, 0.000000000000000000, 0.000000000000000000 ) ) ;
#269 = UNCERTAINTY_MEASURE_WITH_UNIT (LENGTH_MEASURE( 1.000000000000000082E-05 ), #482, 'distance_accuracy_value', 'NONE');
#270 = VERTEX_POINT ( 'NONE', #716 ) ;
#271 = CARTESIAN_POINT ( 'NONE',  ( 13.40000000000000746, 9.499999999999998224, 2.000000000000000000 ) ) ;
#272 = VECTOR ( 'NONE', #630, 1000.000000000000000 ) ;
#273 = LINE ( 'NONE', #346, #768 ) ;
#274 = VECTOR ( 'NONE', #388, 1000.000000000000000 ) ;
#275 = ORIENTED_EDGE ( 'NONE', *, *, #205, .F. ) ;
#276 = DIRECTION ( 'NONE',  ( 1.000000000000000000, 0.000000000000000000, 0.000000000000000000 ) ) ;
#277 = DIRECTION ( 'NONE',  ( -1.000000000000000000, -1.294569758191647155E-16, 0.000000000000000000 ) ) ;
#278 = EDGE_CURVE ( 'NONE', #470, #459, #408, .T. ) ;
#279 = VERTEX_POINT ( 'NONE', #654 ) ;
#280 = LINE ( 'NONE', #1005, #690 ) ;
#281 = PRODUCT_DEFINITION_SHAPE ( 'NONE', 'NONE',  #267 ) ;
#282 = LINE ( 'NONE', #622, #967 ) ;
#283 = EDGE_LOOP ( 'NONE', ( #648, #347 ) ) ;
#284 = ADVANCED_FACE ( 'NONE', ( #5 ), #720, .T. ) ;
#285 = DIRECTION ( 'NONE',  ( 0.000000000000000000, 0.000000000000000000, -1.000000000000000000 ) ) ;
#286 = VERTEX_POINT ( 'NONE', #156 ) ;
#287 = CARTESIAN_POINT ( 'NONE',  ( 10.37499999999999645, -11.74999999999999822, 2.000000000000000000 ) ) ;
#288 = CYLINDRICAL_SURFACE ( 'NONE', #390, 1.249999999999999334 ) ;
#289 = VECTOR ( 'NONE', #362, 1000.000000000000000 ) ;
#290 = ORIENTED_EDGE ( 'NONE', *, *, #110, .F. ) ;
#291 = CARTESIAN_POINT ( 'NONE',  ( -6.299999999999998046, 12.99999999999999822, 2.000000000000000000 ) ) ;
#292 = ORIENTED_EDGE ( 'NONE', *, *, #1014, .T. ) ;
#293 = DIRECTION ( 'NONE',  ( 0.000000000000000000, 0.000000000000000000, 1.000000000000000000 ) ) ;
#294 = LINE ( 'NONE', #227, #72 ) ;
#295 = ORIENTED_EDGE ( 'NONE', *, *, #938, .T. ) ;
#296 = FACE_OUTER_BOUND ( 'NONE', #972, .T. ) ;
#297 = ORIENTED_EDGE ( 'NONE', *, *, #875, .T. ) ;
#298 = CARTESIAN_POINT ( 'NONE',  ( 0.000000000000000000, 0.000000000000000000, 0.000000000000000000 ) ) ;
#299 = EDGE_CURVE ( 'NONE', #976, #738, #880, .T. ) ;
#300 = CARTESIAN_POINT ( 'NONE',  ( 0.000000000000000000, 0.000000000000000000, 2.000000000000000000 ) ) ;
#301 = ORIENTED_EDGE ( 'NONE', *, *, #445, .F. ) ;
#302 = FACE_OUTER_BOUND ( 'NONE', #511, .T. ) ;
#303 = ORIENTED_EDGE ( 'NONE', *, *, #189, .T. ) ;
#304 = DIRECTION ( 'NONE',  ( 1.000000000000000000, 0.000000000000000000, -0.000000000000000000 ) ) ;
#305 = LINE ( 'NONE', #538, #655 ) ;
#306 = VECTOR ( 'NONE', #863, 1000.000000000000000 ) ;
#307 = VECTOR ( 'NONE', #896, 1000.000000000000000 ) ;
#308 = ORIENTED_EDGE ( 'NONE', *, *, #573, .F. ) ;
#309 = PRODUCT_CONTEXT ( 'NONE', #586, 'mechanical' ) ;
#310 = ORIENTED_EDGE ( 'NONE', *, *, #355, .T. ) ;
#311 = PLANE ( 'NONE',  #736 ) ;
#312 = CARTESIAN_POINT ( 'NONE',  ( -12.87500000000000178, -11.75000000000000178, 2.000000000000000000 ) ) ;
#313 = ORIENTED_EDGE ( 'NONE', *, *, #498, .T. ) ;
#314 = EDGE_CURVE ( 'NONE', #204, #637, #20, .T. ) ;
#315 = APPLICATION_PROTOCOL_DEFINITION ( 'draft international standard', 'automotive_design', 1998, #586 ) ;
#316 = EDGE_LOOP ( 'NONE', ( #22, #477, #356, #1023 ) ) ;
#317 = CARTESIAN_POINT ( 'NONE',  ( -12.87500000000000178, -11.75000000000000178, 0.000000000000000000 ) ) ;
#318 = FACE_OUTER_BOUND ( 'NONE', #163, .T. ) ;
#319 = ORIENTED_EDGE ( 'NONE', *, *, #577, .F. ) ;
#320 = ADVANCED_FACE ( 'NONE', ( #330 ), #415, .T. ) ;
#321 = ORIENTED_EDGE ( 'NONE', *, *, #938, .F. ) ;
#322 = PLANE ( 'NONE',  #201 ) ;
#323 = CARTESIAN_POINT ( 'NONE',  ( -13.75000000000000000, -13.75000000000000533, -3.000000000000000000 ) ) ;
#324 = DIRECTION ( 'NONE',  ( 1.000000000000000000, 0.000000000000000000, 0.000000000000000000 ) ) ;
#325 = VECTOR ( 'NONE', #60, 1000.000000000000000 ) ;
#326 = VECTOR ( 'NONE', #517, 1000.000000000000000 ) ;
#327 = VERTEX_POINT ( 'NONE', #490 ) ;
#328 = LINE ( 'NONE', #548, #173 ) ;
#329 = EDGE_CURVE ( 'NONE', #738, #100, #169, .T. ) ;
#330 = FACE_OUTER_BOUND ( 'NONE', #725, .T. ) ;
#331 = LINE ( 'NONE', #250, #272 ) ;
#332 = ORIENTED_EDGE ( 'NONE', *, *, #727, .F. ) ;
#333 = LINE ( 'NONE', #808, #521 ) ;
#334 = SURFACE_STYLE_FILL_AREA ( #248 ) ;
#335 = ADVANCED_FACE ( 'NONE', ( #318 ), #728, .F. ) ;
#336 = ORIENTED_EDGE ( 'NONE', *, *, #155, .F. ) ;
#337 = LINE ( 'NONE', #653, #109 ) ;
#338 = ORIENTED_EDGE ( 'NONE', *, *, #758, .T. ) ;
#339 = VECTOR ( 'NONE', #1003, 1000.000000000000000 ) ;
#340 = AXIS2_PLACEMENT_3D ( 'NONE', #668, #353, #30 ) ;
#341 = DIRECTION ( 'NONE',  ( 0.000000000000000000, 0.000000000000000000, 1.000000000000000000 ) ) ;
#342 = VECTOR ( 'NONE', #73, 1000.000000000000000 ) ;
#343 = CARTESIAN_POINT ( 'NONE',  ( 12.87499999999999645, -11.74999999999999822, 2.000000000000000000 ) ) ;
#344 = ORIENTED_EDGE ( 'NONE', *, *, #773, .T. ) ;
#345 = PLANE ( 'NONE',  #886 ) ;
#346 = CARTESIAN_POINT ( 'NONE',  ( -13.39999999999999325, -9.700000000000004619, 2.000000000000000000 ) ) ;
#347 = ORIENTED_EDGE ( 'NONE', *, *, #255, .T. ) ;
#348 = DIRECTION ( 'NONE',  ( -0.000000000000000000, -0.000000000000000000, -1.000000000000000000 ) ) ;
#349 = ORIENTED_EDGE ( 'NONE', *, *, #969, .T. ) ;
#350 = CARTESIAN_POINT ( 'NONE',  ( -13.39999999999999325, -9.700000000000004619, 0.000000000000000000 ) ) ;
#351 = VECTOR ( 'NONE', #711, 1000.000000000000000 ) ;
#352 = VECTOR ( 'NONE', #890, 1000.000000000000000 ) ;
#353 = DIRECTION ( 'NONE',  ( 0.000000000000000000, 0.000000000000000000, 1.000000000000000000 ) ) ;
#354 = AXIS2_PLACEMENT_3D ( 'NONE', #29, #36, #276 ) ;
#355 = EDGE_CURVE ( 'NONE', #405, #652, #898, .T. ) ;
#356 = ORIENTED_EDGE ( 'NONE', *, *, #861, .T. ) ;
#357 = MANIFOLD_SOLID_BREP ( 'Boss-Extrude3', #965 ) ;
#358 = DIRECTION ( 'NONE',  ( -0.000000000000000000, -0.000000000000000000, -1.000000000000000000 ) ) ;
#359 = CARTESIAN_POINT ( 'NONE',  ( 15.00000000000000355, -14.99999999999999822, 2.000000000000000000 ) ) ;
#360 = EDGE_CURVE ( 'NONE', #960, #714, #186, .T. ) ;
#361 = ORIENTED_EDGE ( 'NONE', *, *, #127, .T. ) ;
#362 = DIRECTION ( 'NONE',  ( 0.000000000000000000, 1.000000000000000000, 0.000000000000000000 ) ) ;
#363 = ORIENTED_EDGE ( 'NONE', *, *, #299, .T. ) ;
#364 = CARTESIAN_POINT ( 'NONE',  ( 12.87499999999999822, 11.75000000000000355, 0.000000000000000000 ) ) ;
#365 = FACE_OUTER_BOUND ( 'NONE', #543, .T. ) ;
#366 = ORIENTED_EDGE ( 'NONE', *, *, #793, .F. ) ;
#367 = EDGE_CURVE ( 'NONE', #697, #602, #911, .T. ) ;
#368 = CARTESIAN_POINT ( 'NONE',  ( 10.37499999999999822, 11.75000000000000355, 0.000000000000000000 ) ) ;
#369 = ORIENTED_EDGE ( 'NONE', *, *, #833, .F. ) ;
#370 = CARTESIAN_POINT ( 'NONE',  ( 13.40000000000000746, 9.499999999999998224, 0.000000000000000000 ) ) ;
#371 = VECTOR ( 'NONE', #696, 1000.000000000000000 ) ;
#372 = LINE ( 'NONE', #941, #671 ) ;
#373 = VECTOR ( 'NONE', #985, 1000.000000000000000 ) ;
#374 = ORIENTED_EDGE ( 'NONE', *, *, #177, .T. ) ;
#375 = FACE_OUTER_BOUND ( 'NONE', #149, .T. ) ;
#376 = ADVANCED_FACE ( 'NONE', ( #579 ), #971, .T. ) ;
#377 = EDGE_LOOP ( 'NONE', ( #419, #233, #850, #67 ) ) ;
#378 = DIRECTION ( 'NONE',  ( -1.000000000000000000, -1.294569758191647155E-16, 0.000000000000000000 ) ) ;
#379 = CARTESIAN_POINT ( 'NONE',  ( -13.75000000000000000, 13.74999999999999467, 0.000000000000000000 ) ) ;
#380 = ORIENTED_EDGE ( 'NONE', *, *, #510, .F. ) ;
#381 = CARTESIAN_POINT ( 'NONE',  ( 13.75000000000000355, -13.74999999999999822, 0.000000000000000000 ) ) ;
#382 = ORIENTED_EDGE ( 'NONE', *, *, #360, .F. ) ;
#383 = FACE_BOUND ( 'NONE', #790, .T. ) ;
#384 = DIRECTION ( 'NONE',  ( -0.000000000000000000, -0.000000000000000000, 1.000000000000000000 ) ) ;
#385 = ORIENTED_EDGE ( 'NONE', *, *, #433, .T. ) ;
#386 = APPLICATION_PROTOCOL_DEFINITION ( 'draft international standard', 'automotive_design', 1998, #416 ) ;
#387 = ORIENTED_EDGE ( 'NONE', *, *, #249, .T. ) ;
#388 = DIRECTION ( 'NONE',  ( -1.000000000000000000, -1.294569758191647155E-16, 0.000000000000000000 ) ) ;
#389 = EDGE_CURVE ( 'NONE', #661, #836, #264, .T. ) ;
#390 = AXIS2_PLACEMENT_3D ( 'NONE', #918, #207, #840 ) ;
#391 = AXIS2_PLACEMENT_3D ( 'NONE', #975, #192, #434 ) ;
#392 = FACE_OUTER_BOUND ( 'NONE', #1018, .T. ) ;
#393 = VECTOR ( 'NONE', #871, 1000.000000000000000 ) ;
#394 = ORIENTED_EDGE ( 'NONE', *, *, #27, .T. ) ;
#395 = LINE ( 'NONE', #883, #999 ) ;
#396 = DIRECTION ( 'NONE',  ( 1.000000000000000000, 1.376764663473656217E-16, 0.000000000000000000 ) ) ;
#397 = EDGE_CURVE ( 'NONE', #620, #608, #499, .T. ) ;
#398 = FACE_OUTER_BOUND ( 'NONE', #135, .T. ) ;
#399 = LINE ( 'NONE', #251, #342 ) ;
#400 = ORIENTED_EDGE ( 'NONE', *, *, #472, .T. ) ;
#401 = DIRECTION ( 'NONE',  ( 0.000000000000000000, 0.000000000000000000, -1.000000000000000000 ) ) ;
#402 = CARTESIAN_POINT ( 'NONE',  ( 11.62499999999999645, -11.74999999999999822, 0.000000000000000000 ) ) ;
#403 = PLANE ( 'NONE',  #849 ) ;
#404 = CARTESIAN_POINT ( 'NONE',  ( -13.39999999999999325, 9.499999999999994671, 0.000000000000000000 ) ) ;
#405 = VERTEX_POINT ( 'NONE', #824 ) ;
#406 = EDGE_CURVE ( 'NONE', #882, #637, #187, .T. ) ;
#407 = DIRECTION ( 'NONE',  ( 1.000000000000000000, -0.000000000000000000, 0.000000000000000000 ) ) ;
#408 = LINE ( 'NONE', #731, #185 ) ;
#409 = DIRECTION ( 'NONE',  ( -0.000000000000000000, -0.000000000000000000, -1.000000000000000000 ) ) ;
#410 = VECTOR ( 'NONE', #218, 1000.000000000000000 ) ;
#411 = CIRCLE ( 'NONE', #750, 1.249999999999999334 ) ;
#412 = EDGE_LOOP ( 'NONE', ( #387, #704 ) ) ;
#413 = EDGE_CURVE ( 'NONE', #183, #1006, #509, .T. ) ;
#414 = CARTESIAN_POINT ( 'NONE',  ( -10.37500000000000178, 11.74999999999999822, 2.000000000000000000 ) ) ;
#415 = PLANE ( 'NONE',  #1016 ) ;
#416 = APPLICATION_CONTEXT ( 'automotive_design' ) ;
#417 = ORIENTED_EDGE ( 'NONE', *, *, #807, .T. ) ;
#418 = CARTESIAN_POINT ( 'NONE',  ( 11.62499999999999822, 11.75000000000000355, 0.000000000000000000 ) ) ;
#419 = ORIENTED_EDGE ( 'NONE', *, *, #793, .T. ) ;
#420 = DIRECTION ( 'NONE',  ( 0.000000000000000000, -1.000000000000000000, 0.000000000000000000 ) ) ;
#421 = CARTESIAN_POINT ( 'NONE',  ( 15.00000000000000355, 15.00000000000000178, -3.000000000000000000 ) ) ;
#422 = EDGE_CURVE ( 'NONE', #559, #994, #851, .T. ) ;
#423 = ORIENTED_EDGE ( 'NONE', *, *, #98, .T. ) ;
#424 = VECTOR ( 'NONE', #260, 1000.000000000000000 ) ;
#425 = AXIS2_PLACEMENT_3D ( 'NONE', #242, #784, #560 ) ;
#426 = DIRECTION ( 'NONE',  ( -0.000000000000000000, -0.000000000000000000, -1.000000000000000000 ) ) ;
#427 = EDGE_CURVE ( 'NONE', #270, #210, #273, .T. ) ;
#428 = VERTEX_POINT ( 'NONE', #740 ) ;
#429 = FACE_OUTER_BOUND ( 'NONE', #518, .T. ) ;
#430 = DIRECTION ( 'NONE',  ( 1.000000000000000000, 0.000000000000000000, 0.000000000000000000 ) ) ;
#431 = EDGE_LOOP ( 'NONE', ( #699, #814, #423, #709 ) ) ;
#432 = FACE_OUTER_BOUND ( 'NONE', #504, .T. ) ;
#433 = EDGE_CURVE ( 'NONE', #994, #559, #932, .T. ) ;
#434 = DIRECTION ( 'NONE',  ( 0.000000000000000000, 0.000000000000000000, -1.000000000000000000 ) ) ;
#435 = ORIENTED_EDGE ( 'NONE', *, *, #841, .T. ) ;
#436 = PLANE ( 'NONE',  #952 ) ;
#437 = VECTOR ( 'NONE', #951, 1000.000000000000000 ) ;
#438 = ADVANCED_FACE ( 'NONE', ( #590 ), #664, .F. ) ;
#439 =( NAMED_UNIT ( * ) SI_UNIT ( $, .STERADIAN. ) SOLID_ANGLE_UNIT ( ) );
#440 = CIRCLE ( 'NONE', #787, 1.249999999999999334 ) ;
#441 = ORIENTED_EDGE ( 'NONE', *, *, #314, .T. ) ;
#442 = DIRECTION ( 'NONE',  ( -0.000000000000000000, -0.000000000000000000, 1.000000000000000000 ) ) ;
#443 = CARTESIAN_POINT ( 'NONE',  ( 11.62499999999999822, 11.75000000000000355, 2.000000000000000000 ) ) ;
#444 = DIRECTION ( 'NONE',  ( -0.000000000000000000, -0.000000000000000000, -1.000000000000000000 ) ) ;
#445 = EDGE_CURVE ( 'NONE', #670, #1015, #594, .T. ) ;
#446 = ORIENTED_EDGE ( 'NONE', *, *, #841, .F. ) ;
#447 = FACE_OUTER_BOUND ( 'NONE', #377, .T. ) ;
#448 = ORIENTED_EDGE ( 'NONE', *, *, #182, .F. ) ;
#449 = DIRECTION ( 'NONE',  ( 0.000000000000000000, 1.000000000000000000, 0.000000000000000000 ) ) ;
#450 = LINE ( 'NONE', #763, #371 ) ;
#451 = VERTEX_POINT ( 'NONE', #828 ) ;
#452 = CARTESIAN_POINT ( 'NONE',  ( -11.62500000000000178, 11.74999999999999822, 2.000000000000000000 ) ) ;
#453 = ORIENTED_EDGE ( 'NONE', *, *, #148, .T. ) ;
#454 = FACE_OUTER_BOUND ( 'NONE', #117, .T. ) ;
#455 = AXIS2_PLACEMENT_3D ( 'NONE', #869, #17, #646 ) ;
#456 = DIRECTION ( 'NONE',  ( 1.000000000000000000, 0.000000000000000000, 0.000000000000000000 ) ) ;
#457 = VECTOR ( 'NONE', #990, 1000.000000000000000 ) ;
#458 =( GEOMETRIC_REPRESENTATION_CONTEXT ( 3 ) GLOBAL_UNCERTAINTY_ASSIGNED_CONTEXT ( ( #269 ) ) GLOBAL_UNIT_ASSIGNED_CONTEXT ( ( #482, #877, #564 ) ) REPRESENTATION_CONTEXT ( 'NONE', 'WORKASPACE' ) );
#459 = VERTEX_POINT ( 'NONE', #119 ) ;
#460 = LINE ( 'NONE', #772, #241 ) ;
#461 = ORIENTED_EDGE ( 'NONE', *, *, #861, .F. ) ;
#462 = CARTESIAN_POINT ( 'NONE',  ( 13.40000000000000746, 9.499999999999998224, 2.000000000000000000 ) ) ;
#463 = FACE_BOUND ( 'NONE', #44, .T. ) ;
#464 = ORIENTED_EDGE ( 'NONE', *, *, #64, .F. ) ;
#465 = ORIENTED_EDGE ( 'NONE', *, *, #33, .T. ) ;
#466 = EDGE_CURVE ( 'NONE', #618, #620, #812, .T. ) ;
#467 = DIRECTION ( 'NONE',  ( 1.000000000000000000, 0.000000000000000000, 0.000000000000000000 ) ) ;
#468 = FACE_BOUND ( 'NONE', #523, .T. ) ;
#469 = DIRECTION ( 'NONE',  ( 1.000000000000000000, 2.312964634635742957E-16, 0.000000000000000000 ) ) ;
#470 = VERTEX_POINT ( 'NONE', #359 ) ;
#471 = DIRECTION ( 'NONE',  ( -1.294569758191647155E-16, 1.000000000000000000, 0.000000000000000000 ) ) ;
#472 = EDGE_CURVE ( 'NONE', #799, #131, #25, .T. ) ;
#473 = DIRECTION ( 'NONE',  ( 1.000000000000000000, 0.000000000000000000, 0.000000000000000000 ) ) ;
#474 = CIRCLE ( 'NONE', #884, 1.249999999999999334 ) ;
#475 = AXIS2_PLACEMENT_3D ( 'NONE', #839, #47, #293 ) ;
#476 = ORIENTED_EDGE ( 'NONE', *, *, #487, .F. ) ;
#477 = ORIENTED_EDGE ( 'NONE', *, *, #875, .F. ) ;
#478 = FACE_OUTER_BOUND ( 'NONE', #431, .T. ) ;
#479 = DIRECTION ( 'NONE',  ( -1.000000000000000000, -2.523234146875355505E-16, 0.000000000000000000 ) ) ;
#480 = EDGE_CURVE ( 'NONE', #496, #147, #913, .T. ) ;
#481 = CARTESIAN_POINT ( 'NONE',  ( 13.75000000000000355, -13.74999999999999822, -3.000000000000000000 ) ) ;
#482 =( LENGTH_UNIT ( ) NAMED_UNIT ( * ) SI_UNIT ( .MILLI., .METRE. ) );
#483 = VERTEX_POINT ( 'NONE', #421 ) ;
#484 = LINE ( 'NONE', #719, #722 ) ;
#485 = DIRECTION ( 'NONE',  ( 1.376764663473656217E-16, -1.000000000000000000, 0.000000000000000000 ) ) ;
#486 = DIRECTION ( 'NONE',  ( 0.000000000000000000, 0.000000000000000000, 1.000000000000000000 ) ) ;
#487 = EDGE_CURVE ( 'NONE', #994, #798, #735, .T. ) ;
#488 = ORIENTED_EDGE ( 'NONE', *, *, #422, .T. ) ;
#489 = CARTESIAN_POINT ( 'NONE',  ( 6.300000000000002487, -13.20000000000000107, 2.000000000000000000 ) ) ;
#490 = CARTESIAN_POINT ( 'NONE',  ( -6.299999999999998046, 12.99999999999999822, 2.000000000000000000 ) ) ;
#491 = VECTOR ( 'NONE', #605, 1000.000000000000000 ) ;
#492 = AXIS2_PLACEMENT_3D ( 'NONE', #597, #59, #378 ) ;
#493 = VERTEX_POINT ( 'NONE', #364 ) ;
#494 = PLANE ( 'NONE',  #1017 ) ;
#495 = CARTESIAN_POINT ( 'NONE',  ( -11.62500000000000178, 11.74999999999999822, 0.000000000000000000 ) ) ;
#496 = VERTEX_POINT ( 'NONE', #756 ) ;
#497 = LINE ( 'NONE', #823, #307 ) ;
#498 = EDGE_CURVE ( 'NONE', #778, #270, #700, .T. ) ;
#499 = LINE ( 'NONE', #502, #785 ) ;
#500 = EDGE_LOOP ( 'NONE', ( #310, #584, #692, #774 ) ) ;
#501 = DIRECTION ( 'NONE',  ( -0.000000000000000000, -0.000000000000000000, 1.000000000000000000 ) ) ;
#502 = CARTESIAN_POINT ( 'NONE',  ( 6.300000000000000711, -9.700000000000002842, 2.000000000000000000 ) ) ;
#503 = ADVANCED_FACE ( 'NONE', ( #206 ), #935, .F. ) ;
#504 = EDGE_LOOP ( 'NONE', ( #830, #767, #465, #18 ) ) ;
#505 = VECTOR ( 'NONE', #747, 1000.000000000000000 ) ;
#506 = VECTOR ( 'NONE', #873, 1000.000000000000000 ) ;
#507 = DIRECTION ( 'NONE',  ( 0.000000000000000000, 0.000000000000000000, 1.000000000000000000 ) ) ;
#508 = AXIS2_PLACEMENT_3D ( 'NONE', #698, #534, #285 ) ;
#509 = LINE ( 'NONE', #816, #326 ) ;
#510 = EDGE_CURVE ( 'NONE', #661, #55, #526, .T. ) ;
#511 = EDGE_LOOP ( 'NONE', ( #488, #196, #145, #895 ) ) ;
#512 = CARTESIAN_POINT ( 'NONE',  ( -11.62500000000000178, -11.75000000000000178, 2.000000000000000000 ) ) ;
#513 = DIRECTION ( 'NONE',  ( 1.000000000000000000, 0.000000000000000000, 0.000000000000000000 ) ) ;
#514 = EDGE_LOOP ( 'NONE', ( #819, #598 ) ) ;
#515 = ADVANCED_FACE ( 'NONE', ( #681 ), #69, .F. ) ;
#516 = CARTESIAN_POINT ( 'NONE',  ( -11.62500000000000178, 11.74999999999999822, 2.000000000000000000 ) ) ;
#517 = DIRECTION ( 'NONE',  ( 0.000000000000000000, 1.000000000000000000, 0.000000000000000000 ) ) ;
#518 = EDGE_LOOP ( 'NONE', ( #336, #446, #361, #297 ) ) ;
#519 = CYLINDRICAL_SURFACE ( 'NONE', #643, 1.249999999999999334 ) ;
#520 = AXIS2_PLACEMENT_3D ( 'NONE', #962, #639, #95 ) ;
#521 = VECTOR ( 'NONE', #801, 1000.000000000000000 ) ;
#522 = CARTESIAN_POINT ( 'NONE',  ( 15.00000000000000355, 15.00000000000000178, -3.000000000000000000 ) ) ;
#523 = EDGE_LOOP ( 'NONE', ( #366, #761 ) ) ;
#524 = DIRECTION ( 'NONE',  ( -0.000000000000000000, -0.000000000000000000, -1.000000000000000000 ) ) ;
#525 = EDGE_LOOP ( 'NONE', ( #2, #292, #947, #810 ) ) ;
#526 = LINE ( 'NONE', #211, #11 ) ;
#527 = PRODUCT_RELATED_PRODUCT_CATEGORY ( 'part', '', ( #555 ) ) ;
#528 = PRODUCT_DEFINITION_CONTEXT ( 'detailed design', #416, 'design' ) ;
#529 = CARTESIAN_POINT ( 'NONE',  ( 6.299999999999998046, 13.00000000000000000, 0.000000000000000000 ) ) ;
#530 = ORIENTED_EDGE ( 'NONE', *, *, #600, .T. ) ;
#531 = LINE ( 'NONE', #215, #724 ) ;
#532 = CARTESIAN_POINT ( 'NONE',  ( 6.300000000000000711, -9.700000000000002842, 0.000000000000000000 ) ) ;
#533 = ORIENTED_EDGE ( 'NONE', *, *, #143, .F. ) ;
#534 = DIRECTION ( 'NONE',  ( 1.000000000000000000, 0.000000000000000000, 0.000000000000000000 ) ) ;
#535 = ORIENTED_EDGE ( 'NONE', *, *, #155, .T. ) ;
#536 = DIRECTION ( 'NONE',  ( 0.000000000000000000, 0.000000000000000000, 1.000000000000000000 ) ) ;
#537 = PRESENTATION_LAYER_ASSIGNMENT (  '', '', ( #585 ) ) ;
#538 = CARTESIAN_POINT ( 'NONE',  ( 13.75000000000000355, -13.74999999999999822, -3.000000000000000000 ) ) ;
#539 = VECTOR ( 'NONE', #1019, 1000.000000000000000 ) ;
#540 = VERTEX_POINT ( 'NONE', #775 ) ;
#541 = EDGE_CURVE ( 'NONE', #327, #778, #615, .T. ) ;
#542 = DIRECTION ( 'NONE',  ( 1.000000000000000000, 2.312964634635742957E-16, 0.000000000000000000 ) ) ;
#543 = EDGE_LOOP ( 'NONE', ( #400, #891, #741, #595 ) ) ;
#544 = LINE ( 'NONE', #522, #818 ) ;
#545 = CARTESIAN_POINT ( 'NONE',  ( 13.40000000000000746, 9.499999999999998224, 2.000000000000000000 ) ) ;
#546 = LINE ( 'NONE', #859, #257 ) ;
#547 = EDGE_CURVE ( 'NONE', #153, #540, #604, .T. ) ;
#548 = CARTESIAN_POINT ( 'NONE',  ( 13.40000000000000746, -9.700000000000001066, 2.000000000000000000 ) ) ;
#549 = DIRECTION ( 'NONE',  ( 0.000000000000000000, 0.000000000000000000, 1.000000000000000000 ) ) ;
#550 = DIRECTION ( 'NONE',  ( -1.000000000000000000, -2.312964634635742957E-16, 0.000000000000000000 ) ) ;
#551 = ORIENTED_EDGE ( 'NONE', *, *, #198, .T. ) ;
#552 = DIRECTION ( 'NONE',  ( -1.000000000000000000, -1.376764663473656710E-16, 0.000000000000000000 ) ) ;
#553 = EDGE_CURVE ( 'NONE', #602, #697, #411, .T. ) ;
#554 = DIRECTION ( 'NONE',  ( -0.000000000000000000, -0.000000000000000000, -1.000000000000000000 ) ) ;
#555 = PRODUCT ( 'Part2', 'Part2', '', ( #309 ) ) ;
#556 = AXIS2_PLACEMENT_3D ( 'NONE', #894, #38, #906 ) ;
#557 = VECTOR ( 'NONE', #739, 1000.000000000000000 ) ;
#558 = DIRECTION ( 'NONE',  ( -2.523234146875355505E-16, 1.000000000000000000, 0.000000000000000000 ) ) ;
#559 = VERTEX_POINT ( 'NONE', #287 ) ;
#560 = DIRECTION ( 'NONE',  ( -1.000000000000000000, 0.000000000000000000, 0.000000000000000000 ) ) ;
#561 = LINE ( 'NONE', #792, #306 ) ;
#562 = EDGE_CURVE ( 'NONE', #836, #608, #762, .T. ) ;
#563 = CARTESIAN_POINT ( 'NONE',  ( 12.87499999999999822, 11.75000000000000355, 2.000000000000000000 ) ) ;
#564 =( NAMED_UNIT ( * ) SI_UNIT ( $, .STERADIAN. ) SOLID_ANGLE_UNIT ( ) );
#565 = ORIENTED_EDGE ( 'NONE', *, *, #148, .F. ) ;
#566 = DIRECTION ( 'NONE',  ( 0.000000000000000000, 0.000000000000000000, -1.000000000000000000 ) ) ;
#567 = CARTESIAN_POINT ( 'NONE',  ( -6.299999999999998934, -13.20000000000000284, -1.000000000000000000 ) ) ;
#568 = ORIENTED_EDGE ( 'NONE', *, *, #943, .T. ) ;
#569 = CARTESIAN_POINT ( 'NONE',  ( -12.87500000000000178, 11.74999999999999822, 0.000000000000000000 ) ) ;
#570 = SURFACE_STYLE_USAGE ( .BOTH. , #254 ) ;
#571 = AXIS2_PLACEMENT_3D ( 'NONE', #271, #905, #266 ) ;
#572 = ORIENTED_EDGE ( 'NONE', *, *, #422, .F. ) ;
#573 = EDGE_CURVE ( 'NONE', #428, #771, #65, .T. ) ;
#574 = CARTESIAN_POINT ( 'NONE',  ( 15.00000000000000355, -14.99999999999999822, 2.000000000000000000 ) ) ;
#575 = CARTESIAN_POINT ( 'NONE',  ( -15.00000000000000000, -15.00000000000000533, 2.000000000000000000 ) ) ;
#576 = VERTEX_POINT ( 'NONE', #852 ) ;
#577 = EDGE_CURVE ( 'NONE', #483, #627, #544, .T. ) ;
#578 = DIRECTION ( 'NONE',  ( -0.000000000000000000, -0.000000000000000000, -1.000000000000000000 ) ) ;
#579 = FACE_OUTER_BOUND ( 'NONE', #904, .T. ) ;
#580 = ORIENTED_EDGE ( 'NONE', *, *, #732, .T. ) ;
#581 = CARTESIAN_POINT ( 'NONE',  ( 12.87499999999999645, -11.74999999999999822, 0.000000000000000000 ) ) ;
#582 =( NAMED_UNIT ( * ) PLANE_ANGLE_UNIT ( ) SI_UNIT ( $, .RADIAN. ) );
#583 = ADVANCED_FACE ( 'NONE', ( #146, #138, #610, #1002, #1012, #383 ), #922, .F. ) ;
#584 = ORIENTED_EDGE ( 'NONE', *, *, #651, .T. ) ;
#585 = STYLED_ITEM ( 'NONE', ( #635 ), #357 ) ;
#586 = APPLICATION_CONTEXT ( 'automotive_design' ) ;
#587 = VECTOR ( 'NONE', #449, 1000.000000000000000 ) ;
#588 = CARTESIAN_POINT ( 'NONE',  ( -11.62500000000000178, 11.74999999999999822, 2.000000000000000000 ) ) ;
#589 = VECTOR ( 'NONE', #42, 1000.000000000000000 ) ;
#590 = FACE_OUTER_BOUND ( 'NONE', #176, .T. ) ;
#591 = EDGE_CURVE ( 'NONE', #210, #626, #282, .T. ) ;
#592 = ORIENTED_EDGE ( 'NONE', *, *, #742, .T. ) ;
#593 = LINE ( 'NONE', #964, #373 ) ;
#594 = LINE ( 'NONE', #897, #706 ) ;
#595 = ORIENTED_EDGE ( 'NONE', *, *, #3, .T. ) ;
#596 = DIRECTION ( 'NONE',  ( -0.000000000000000000, -0.000000000000000000, -1.000000000000000000 ) ) ;
#597 = CARTESIAN_POINT ( 'NONE',  ( 13.40000000000000746, -9.700000000000001066, 2.000000000000000000 ) ) ;
#598 = ORIENTED_EDGE ( 'NONE', *, *, #833, .T. ) ;
#599 = CARTESIAN_POINT ( 'NONE',  ( -10.37500000000000178, -11.75000000000000178, 0.000000000000000000 ) ) ;
#600 = EDGE_CURVE ( 'NONE', #147, #496, #142, .T. ) ;
#601 = VECTOR ( 'NONE', #70, 1000.000000000000000 ) ;
#602 = VERTEX_POINT ( 'NONE', #779 ) ;
#603 = AXIS2_PLACEMENT_3D ( 'NONE', #945, #471, #4 ) ;
#604 = LINE ( 'NONE', #695, #587 ) ;
#605 = DIRECTION ( 'NONE',  ( -1.000000000000000000, -1.294569758191647155E-16, 0.000000000000000000 ) ) ;
#606 = ORIENTED_EDGE ( 'NONE', *, *, #329, .T. ) ;
#607 = LINE ( 'NONE', #993, #853 ) ;
#608 = VERTEX_POINT ( 'NONE', #532 ) ;
#609 = ADVANCED_FACE ( 'NONE', ( #454 ), #769, .T. ) ;
#610 = FACE_BOUND ( 'NONE', #412, .T. ) ;
#611 = CARTESIAN_POINT ( 'NONE',  ( -15.00000000000000000, -15.00000000000000533, 2.000000000000000000 ) ) ;
#612 = ORIENTED_EDGE ( 'NONE', *, *, #591, .F. ) ;
#613 = DIRECTION ( 'NONE',  ( -1.000000000000000000, 0.000000000000000000, 0.000000000000000000 ) ) ;
#614 = ORIENTED_EDGE ( 'NONE', *, *, #114, .T. ) ;
#615 = LINE ( 'NONE', #995, #657 ) ;
#616 = CARTESIAN_POINT ( 'NONE',  ( 6.299999999999998046, 9.500000000000000000, 2.000000000000000000 ) ) ;
#617 = EDGE_CURVE ( 'NONE', #540, #428, #910, .T. ) ;
#618 = VERTEX_POINT ( 'NONE', #489 ) ;
#619 = DIRECTION ( 'NONE',  ( -1.000000000000000000, 0.000000000000000000, 0.000000000000000000 ) ) ;
#620 = VERTEX_POINT ( 'NONE', #168 ) ;
#621 = CIRCLE ( 'NONE', #9, 1.249999999999999334 ) ;
#622 = CARTESIAN_POINT ( 'NONE',  ( -13.39999999999999325, -9.700000000000004619, 2.000000000000000000 ) ) ;
#623 = AXIS2_PLACEMENT_3D ( 'NONE', #986, #978, #107 ) ;
#624 = CARTESIAN_POINT ( 'NONE',  ( -15.00000000000000000, -15.00000000000000533, -3.000000000000000000 ) ) ;
#625 = EDGE_CURVE ( 'NONE', #683, #327, #333, .T. ) ;
#626 = VERTEX_POINT ( 'NONE', #154 ) ;
#627 = VERTEX_POINT ( 'NONE', #948 ) ;
#628 = CYLINDRICAL_SURFACE ( 'NONE', #425, 1.249999999999999334 ) ;
#629 = DIRECTION ( 'NONE',  ( -0.000000000000000000, -0.000000000000000000, 1.000000000000000000 ) ) ;
#630 = DIRECTION ( 'NONE',  ( 1.000000000000000000, 1.294569758191647155E-16, -0.000000000000000000 ) ) ;
#631 = DIRECTION ( 'NONE',  ( 1.000000000000000000, 0.000000000000000000, 0.000000000000000000 ) ) ;
#632 = ORIENTED_EDGE ( 'NONE', *, *, #360, .T. ) ;
#633 = ADVANCED_FACE ( 'NONE', ( #235 ), #97, .T. ) ;
#634 = DIRECTION ( 'NONE',  ( -1.000000000000000000, 0.000000000000000000, 0.000000000000000000 ) ) ;
#635 = PRESENTATION_STYLE_ASSIGNMENT (( #570 ) ) ;
#636 = DIRECTION ( 'NONE',  ( 0.000000000000000000, 0.000000000000000000, 1.000000000000000000 ) ) ;
#637 = VERTEX_POINT ( 'NONE', #317 ) ;
#638 = PLANE ( 'NONE',  #159 ) ;
#639 = DIRECTION ( 'NONE',  ( -1.000000000000000000, 0.000000000000000000, -0.000000000000000000 ) ) ;
#640 = VECTOR ( 'NONE', #803, 1000.000000000000000 ) ;
#641 = VECTOR ( 'NONE', #426, 1000.000000000000000 ) ;
#642 = DIRECTION ( 'NONE',  ( -0.000000000000000000, -0.000000000000000000, -1.000000000000000000 ) ) ;
#643 = AXIS2_PLACEMENT_3D ( 'NONE', #45, #524, #837 ) ;
#644 = ORIENTED_EDGE ( 'NONE', *, *, #427, .T. ) ;
#645 = DIRECTION ( 'NONE',  ( -0.000000000000000000, -0.000000000000000000, -1.000000000000000000 ) ) ;
#646 = DIRECTION ( 'NONE',  ( 1.000000000000000000, 0.000000000000000000, 0.000000000000000000 ) ) ;
#647 = LINE ( 'NONE', #1, #140 ) ;
#648 = ORIENTED_EDGE ( 'NONE', *, *, #134, .T. ) ;
#649 = CARTESIAN_POINT ( 'NONE',  ( -13.75000000000000000, -13.75000000000000533, -3.000000000000000000 ) ) ;
#650 = CARTESIAN_POINT ( 'NONE',  ( -13.75000000000000000, -13.75000000000000533, -3.000000000000000000 ) ) ;
#651 = EDGE_CURVE ( 'NONE', #652, #602, #93, .T. ) ;
#652 = VERTEX_POINT ( 'NONE', #414 ) ;
#653 = CARTESIAN_POINT ( 'NONE',  ( -13.75000000000000000, 13.74999999999999467, -3.000000000000000000 ) ) ;
#654 = CARTESIAN_POINT ( 'NONE',  ( 13.75000000000000355, 13.75000000000000178, -3.000000000000000000 ) ) ;
#655 = VECTOR ( 'NONE', #629, 1000.000000000000000 ) ;
#656 = ADVANCED_FACE ( 'NONE', ( #940 ), #494, .F. ) ;
#657 = VECTOR ( 'NONE', #217, 1000.000000000000000 ) ;
#658 = VERTEX_POINT ( 'NONE', #83 ) ;
#659 = DIRECTION ( 'NONE',  ( 0.000000000000000000, 0.000000000000000000, -1.000000000000000000 ) ) ;
#660 = DIRECTION ( 'NONE',  ( -0.000000000000000000, -0.000000000000000000, -1.000000000000000000 ) ) ;
#661 = VERTEX_POINT ( 'NONE', #10 ) ;
#662 = CARTESIAN_POINT ( 'NONE',  ( -6.299999999999998046, 9.499999999999996447, 2.000000000000000000 ) ) ;
#663 = ADVANCED_FACE ( 'NONE', ( #726 ), #322, .T. ) ;
#664 = PLANE ( 'NONE',  #391 ) ;
#665 = EDGE_LOOP ( 'NONE', ( #246, #907, #461, #729 ) ) ;
#666 = CARTESIAN_POINT ( 'NONE',  ( 10.37499999999999645, -11.74999999999999822, 2.000000000000000000 ) ) ;
#667 = ADVANCED_FACE ( 'NONE', ( #161 ), #638, .F. ) ;
#668 = CARTESIAN_POINT ( 'NONE',  ( 11.62499999999999645, -11.74999999999999822, 2.000000000000000000 ) ) ;
#669 = CIRCLE ( 'NONE', #981, 1.249999999999999334 ) ;
#670 = VERTEX_POINT ( 'NONE', #715 ) ;
#671 = VECTOR ( 'NONE', #923, 1000.000000000000000 ) ;
#672 = FACE_OUTER_BOUND ( 'NONE', #50, .T. ) ;
#673 = AXIS2_PLACEMENT_3D ( 'NONE', #136, #619, #914 ) ;
#674 = ORIENTED_EDGE ( 'NONE', *, *, #64, .T. ) ;
#675 = CYLINDRICAL_SURFACE ( 'NONE', #934, 1.249999999999999334 ) ;
#676 = CARTESIAN_POINT ( 'NONE',  ( 13.75000000000000355, -13.74999999999999822, 0.000000000000000000 ) ) ;
#677 = ADVANCED_FACE ( 'NONE', ( #478, #16 ), #311, .T. ) ;
#678 = EDGE_LOOP ( 'NONE', ( #777, #847, #448, #855 ) ) ;
#679 = DIRECTION ( 'NONE',  ( 2.312964634635742957E-16, -1.000000000000000000, 0.000000000000000000 ) ) ;
#680 = ORIENTED_EDGE ( 'NONE', *, *, #773, .F. ) ;
#681 = FACE_OUTER_BOUND ( 'NONE', #190, .T. ) ;
#682 = LINE ( 'NONE', #616, #410 ) ;
#683 = VERTEX_POINT ( 'NONE', #956 ) ;
#684 = ADVANCED_FACE ( 'NONE', ( #77 ), #628, .F. ) ;
#685 = CARTESIAN_POINT ( 'NONE',  ( -15.00000000000000000, 14.99999999999999467, -3.000000000000000000 ) ) ;
#686 = AXIS2_PLACEMENT_3D ( 'NONE', #300, #702, #1013 ) ;
#687 = ORIENTED_EDGE ( 'NONE', *, *, #466, .F. ) ;
#688 = AXIS2_PLACEMENT_3D ( 'NONE', #126, #927, #845 ) ;
#689 = DIRECTION ( 'NONE',  ( 0.000000000000000000, -0.000000000000000000, 1.000000000000000000 ) ) ;
#690 = VECTOR ( 'NONE', #57, 1000.000000000000000 ) ;
#691 = DIRECTION ( 'NONE',  ( -1.000000000000000000, -2.312964634635742957E-16, 0.000000000000000000 ) ) ;
#692 = ORIENTED_EDGE ( 'NONE', *, *, #367, .F. ) ;
#693 = CARTESIAN_POINT ( 'NONE',  ( -11.62500000000000178, -11.75000000000000178, 2.000000000000000000 ) ) ;
#694 = ORIENTED_EDGE ( 'NONE', *, *, #433, .F. ) ;
#695 = CARTESIAN_POINT ( 'NONE',  ( 13.40000000000000746, -9.700000000000001066, 2.000000000000000000 ) ) ;
#696 = DIRECTION ( 'NONE',  ( 1.000000000000000000, 2.523234146875355505E-16, 0.000000000000000000 ) ) ;
#697 = VERTEX_POINT ( 'NONE', #569 ) ;
#698 = CARTESIAN_POINT ( 'NONE',  ( -15.00000000000000000, -15.00000000000000533, 2.000000000000000000 ) ) ;
#699 = ORIENTED_EDGE ( 'NONE', *, *, #110, .T. ) ;
#700 = LINE ( 'NONE', #462, #457 ) ;
#701 = EDGE_CURVE ( 'NONE', #626, #265, #88, .T. ) ;
#702 = DIRECTION ( 'NONE',  ( 0.000000000000000000, -0.000000000000000000, 1.000000000000000000 ) ) ;
#703 = ORIENTED_EDGE ( 'NONE', *, *, #541, .F. ) ;
#704 = ORIENTED_EDGE ( 'NONE', *, *, #406, .T. ) ;
#705 = CARTESIAN_POINT ( 'NONE',  ( -10.37500000000000178, 11.74999999999999822, 2.000000000000000000 ) ) ;
#706 = VECTOR ( 'NONE', #277, 1000.000000000000000 ) ;
#707 = CARTESIAN_POINT ( 'NONE',  ( 13.40000000000000746, -9.700000000000001066, 2.000000000000000000 ) ) ;
#708 = CARTESIAN_POINT ( 'NONE',  ( -15.00000000000000000, -15.00000000000000533, 2.000000000000000000 ) ) ;
#709 = ORIENTED_EDGE ( 'NONE', *, *, #577, .T. ) ;
#710 = FACE_OUTER_BOUND ( 'NONE', #878, .T. ) ;
#711 = DIRECTION ( 'NONE',  ( 0.000000000000000000, 1.000000000000000000, 0.000000000000000000 ) ) ;
#712 = CARTESIAN_POINT ( 'NONE',  ( 6.299999999999998046, 9.499999999999996447, 2.000000000000000000 ) ) ;
#713 = EDGE_CURVE ( 'NONE', #658, #428, #395, .T. ) ;
#714 = VERTEX_POINT ( 'NONE', #174 ) ;
#715 = CARTESIAN_POINT ( 'NONE',  ( -6.299999999999998046, 9.499999999999996447, 0.000000000000000000 ) ) ;
#716 = CARTESIAN_POINT ( 'NONE',  ( -13.39999999999999325, 9.499999999999994671, 2.000000000000000000 ) ) ;
#717 = LINE ( 'NONE', #712, #238 ) ;
#718 = ORIENTED_EDGE ( 'NONE', *, *, #541, .T. ) ;
#719 = CARTESIAN_POINT ( 'NONE',  ( 13.40000000000000746, -9.700000000000001066, 2.000000000000000000 ) ) ;
#720 = PLANE ( 'NONE',  #520 ) ;
#721 = VECTOR ( 'NONE', #870, 1000.000000000000000 ) ;
#722 = VECTOR ( 'NONE', #1024, 1000.000000000000000 ) ;
#723 = LINE ( 'NONE', #14, #721 ) ;
#724 = VECTOR ( 'NONE', #358, 1000.000000000000000 ) ;
#725 = EDGE_LOOP ( 'NONE', ( #856, #1011, #644, #129 ) ) ;
#726 = FACE_OUTER_BOUND ( 'NONE', #963, .T. ) ;
#727 = EDGE_CURVE ( 'NONE', #210, #82, #484, .T. ) ;
#728 = CYLINDRICAL_SURFACE ( 'NONE', #783, 1.249999999999999334 ) ;
#729 = ORIENTED_EDGE ( 'NONE', *, *, #127, .F. ) ;
#730 = CARTESIAN_POINT ( 'NONE',  ( 6.300000000000002487, -13.20000000000000107, 0.000000000000000000 ) ) ;
#731 = CARTESIAN_POINT ( 'NONE',  ( 15.00000000000000355, -14.99999999999999822, 2.000000000000000000 ) ) ;
#732 = EDGE_CURVE ( 'NONE', #153, #658, #328, .T. ) ;
#733 = ORIENTED_EDGE ( 'NONE', *, *, #466, .T. ) ;
#734 = LINE ( 'NONE', #666, #557 ) ;
#735 = LINE ( 'NONE', #343, #39 ) ;
#736 = AXIS2_PLACEMENT_3D ( 'NONE', #791, #401, #634 ) ;
#737 = ADVANCED_FACE ( 'NONE', ( #710 ), #879, .T. ) ;
#738 = VERTEX_POINT ( 'NONE', #112 ) ;
#739 = DIRECTION ( 'NONE',  ( -0.000000000000000000, -0.000000000000000000, -1.000000000000000000 ) ) ;
#740 = CARTESIAN_POINT ( 'NONE',  ( 13.40000000000000746, 9.499999999999998224, 0.000000000000000000 ) ) ;
#741 = ORIENTED_EDGE ( 'NONE', *, *, #278, .T. ) ;
#742 = EDGE_CURVE ( 'NONE', #459, #483, #593, .T. ) ;
#743 = CARTESIAN_POINT ( 'NONE',  ( -6.299999999999998046, 9.499999999999996447, 2.000000000000000000 ) ) ;
#744 = DIRECTION ( 'NONE',  ( -4.956352788505164254E-16, 1.000000000000000000, -0.000000000000000000 ) ) ;
#745 = ORIENTED_EDGE ( 'NONE', *, *, #8, .T. ) ;
#746 = CYLINDRICAL_SURFACE ( 'NONE', #258, 1.249999999999999334 ) ;
#747 = DIRECTION ( 'NONE',  ( 1.000000000000000000, 1.376764663473656217E-16, 0.000000000000000000 ) ) ;
#748 = VECTOR ( 'NONE', #444, 1000.000000000000000 ) ;
#749 = EDGE_LOOP ( 'NONE', ( #344, #319, #998, #41 ) ) ;
#750 = AXIS2_PLACEMENT_3D ( 'NONE', #132, #536, #226 ) ;
#751 = LINE ( 'NONE', #1010, #40 ) ;
#752 = CARTESIAN_POINT ( 'NONE',  ( 6.300000000000000711, -9.700000000000002842, 2.000000000000000000 ) ) ;
#753 = EDGE_CURVE ( 'NONE', #559, #576, #734, .T. ) ;
#754 = ORIENTED_EDGE ( 'NONE', *, *, #79, .T. ) ;
#755 = PLANE ( 'NONE',  #508 ) ;
#756 = CARTESIAN_POINT ( 'NONE',  ( 10.37499999999999822, 11.75000000000000355, 2.000000000000000000 ) ) ;
#757 = CARTESIAN_POINT ( 'NONE',  ( -13.39999999999999325, -9.700000000000004619, 2.000000000000000000 ) ) ;
#758 = EDGE_CURVE ( 'NONE', #286, #204, #56, .T. ) ;
#759 = ORIENTED_EDGE ( 'NONE', *, *, #397, .F. ) ;
#760 = CYLINDRICAL_SURFACE ( 'NONE', #122, 1.249999999999999334 ) ;
#761 = ORIENTED_EDGE ( 'NONE', *, *, #758, .F. ) ;
#762 = LINE ( 'NONE', #917, #74 ) ;
#763 = CARTESIAN_POINT ( 'NONE',  ( -13.75000000000000000, 13.74999999999999467, -3.000000000000000000 ) ) ;
#764 = ORIENTED_EDGE ( 'NONE', *, *, #480, .F. ) ;
#765 = ADVANCED_FACE ( 'NONE', ( #429 ), #259, .T. ) ;
#766 = CARTESIAN_POINT ( 'NONE',  ( 13.75000000000000355, -13.74999999999999822, -3.000000000000000000 ) ) ;
#767 = ORIENTED_EDGE ( 'NONE', *, *, #958, .T. ) ;
#768 = VECTOR ( 'NONE', #181, 1000.000000000000000 ) ;
#769 = PLANE ( 'NONE',  #492 ) ;
#770 = CARTESIAN_POINT ( 'NONE',  ( 12.87499999999999822, 11.75000000000000355, 2.000000000000000000 ) ) ;
#771 = VERTEX_POINT ( 'NONE', #901 ) ;
#772 = CARTESIAN_POINT ( 'NONE',  ( -6.299999999999998934, -13.20000000000000284, 2.000000000000000000 ) ) ;
#773 = EDGE_CURVE ( 'NONE', #470, #627, #820, .T. ) ;
#774 = ORIENTED_EDGE ( 'NONE', *, *, #33, .F. ) ;
#775 = CARTESIAN_POINT ( 'NONE',  ( 13.40000000000000746, 9.499999999999998224, 2.000000000000000000 ) ) ;
#776 = CARTESIAN_POINT ( 'NONE',  ( 11.62499999999999645, -11.74999999999999822, 0.000000000000000000 ) ) ;
#777 = ORIENTED_EDGE ( 'NONE', *, *, #510, .T. ) ;
#778 = VERTEX_POINT ( 'NONE', #743 ) ;
#779 = CARTESIAN_POINT ( 'NONE',  ( -10.37500000000000178, 11.74999999999999822, 0.000000000000000000 ) ) ;
#780 = CARTESIAN_POINT ( 'NONE',  ( 6.300000000000002487, -13.20000000000000107, -1.000000000000000000 ) ) ;
#781 = ORIENTED_EDGE ( 'NONE', *, *, #573, .T. ) ;
#782 = ORIENTED_EDGE ( 'NONE', *, *, #713, .T. ) ;
#783 = AXIS2_PLACEMENT_3D ( 'NONE', #99, #554, #966 ) ;
#784 = DIRECTION ( 'NONE',  ( -0.000000000000000000, -0.000000000000000000, -1.000000000000000000 ) ) ;
#785 = VECTOR ( 'NONE', #902, 1000.000000000000000 ) ;
#786 = DIRECTION ( 'NONE',  ( 0.000000000000000000, 0.000000000000000000, 1.000000000000000000 ) ) ;
#787 = AXIS2_PLACEMENT_3D ( 'NONE', #452, #209, #51 ) ;
#788 = ADVANCED_FACE ( 'NONE', ( #892 ), #178, .F. ) ;
#789 = DIRECTION ( 'NONE',  ( -0.000000000000000000, -0.000000000000000000, 1.000000000000000000 ) ) ;
#790 = EDGE_LOOP ( 'NONE', ( #166, #75 ) ) ;
#791 = CARTESIAN_POINT ( 'NONE',  ( 0.000000000000000000, 0.000000000000000000, -3.000000000000000000 ) ) ;
#792 = CARTESIAN_POINT ( 'NONE',  ( 13.75000000000000355, 13.75000000000000178, 0.000000000000000000 ) ) ;
#793 = EDGE_CURVE ( 'NONE', #204, #286, #223, .T. ) ;
#794 = DIRECTION ( 'NONE',  ( -1.000000000000000000, -2.523234146875355505E-16, 0.000000000000000000 ) ) ;
#795 = EDGE_LOOP ( 'NONE', ( #476, #385, #63, #31 ) ) ;
#796 = DIRECTION ( 'NONE',  ( -0.000000000000000000, -0.000000000000000000, -1.000000000000000000 ) ) ;
#797 = CARTESIAN_POINT ( 'NONE',  ( -6.299999999999998934, -9.700000000000004619, 0.000000000000000000 ) ) ;
#798 = VERTEX_POINT ( 'NONE', #581 ) ;
#799 = VERTEX_POINT ( 'NONE', #262 ) ;
#800 = EDGE_CURVE ( 'NONE', #1015, #626, #19, .T. ) ;
#801 = DIRECTION ( 'NONE',  ( -0.000000000000000000, -0.000000000000000000, 1.000000000000000000 ) ) ;
#802 = COLOUR_RGB ( '',0.7921568627450980005, 0.8196078431372548767, 0.9333333333333333481 ) ;
#803 = DIRECTION ( 'NONE',  ( -0.000000000000000000, -0.000000000000000000, 1.000000000000000000 ) ) ;
#804 = VECTOR ( 'NONE', #115, 1000.000000000000000 ) ;
#805 = AXIS2_PLACEMENT_3D ( 'NONE', #588, #348, #184 ) ;
#806 = ORIENTED_EDGE ( 'NONE', *, *, #727, .T. ) ;
#807 = EDGE_CURVE ( 'NONE', #137, #683, #497, .T. ) ;
#808 = CARTESIAN_POINT ( 'NONE',  ( -6.299999999999998046, 12.99999999999999822, -1.000000000000000000 ) ) ;
#809 = DIRECTION ( 'NONE',  ( 1.000000000000000000, 0.000000000000000000, 0.000000000000000000 ) ) ;
#810 = ORIENTED_EDGE ( 'NONE', *, *, #807, .F. ) ;
#811 = LINE ( 'NONE', #101, #887 ) ;
#812 = LINE ( 'NONE', #752, #239 ) ;
#813 = ADVANCED_FACE ( 'NONE', ( #672 ), #345, .F. ) ;
#814 = ORIENTED_EDGE ( 'NONE', *, *, #413, .T. ) ;
#815 = LINE ( 'NONE', #974, #13 ) ;
#816 = CARTESIAN_POINT ( 'NONE',  ( -15.00000000000000000, -15.00000000000000533, -3.000000000000000000 ) ) ;
#817 = AXIS2_PLACEMENT_3D ( 'NONE', #481, #558, #794 ) ;
#818 = VECTOR ( 'NONE', #1007, 1000.000000000000000 ) ;
#819 = ORIENTED_EDGE ( 'NONE', *, *, #21, .T. ) ;
#820 = LINE ( 'NONE', #574, #641 ) ;
#821 = DIRECTION ( 'NONE',  ( 0.000000000000000000, 0.000000000000000000, 1.000000000000000000 ) ) ;
#822 = ORIENTED_EDGE ( 'NONE', *, *, #943, .F. ) ;
#823 = CARTESIAN_POINT ( 'NONE',  ( -1.789794062515753452E-15, 12.99999999999999822, 0.000000000000000000 ) ) ;
#824 = CARTESIAN_POINT ( 'NONE',  ( -12.87500000000000178, 11.74999999999999822, 2.000000000000000000 ) ) ;
#825 = ORIENTED_EDGE ( 'NONE', *, *, #562, .T. ) ;
#826 = DIRECTION ( 'NONE',  ( -1.000000000000000000, 0.000000000000000000, 0.000000000000000000 ) ) ;
#827 = ADVANCED_FACE ( 'NONE', ( #432 ), #746, .F. ) ;
#828 = CARTESIAN_POINT ( 'NONE',  ( 6.299999999999998046, 13.00000000000000000, 2.000000000000000000 ) ) ;
#829 = VECTOR ( 'NONE', #409, 1000.000000000000000 ) ;
#830 = ORIENTED_EDGE ( 'NONE', *, *, #651, .F. ) ;
#831 = AXIS2_PLACEMENT_3D ( 'NONE', #418, #507, #180 ) ;
#832 = DIRECTION ( 'NONE',  ( 1.000000000000000000, 1.294569758191647155E-16, -0.000000000000000000 ) ) ;
#833 = EDGE_CURVE ( 'NONE', #493, #1001, #121, .T. ) ;
#834 = CARTESIAN_POINT ( 'NONE',  ( 13.40000000000000746, 9.499999999999998224, 2.000000000000000000 ) ) ;
#835 = LINE ( 'NONE', #854, #339 ) ;
#836 = VERTEX_POINT ( 'NONE', #730 ) ;
#837 = DIRECTION ( 'NONE',  ( -1.000000000000000000, 0.000000000000000000, 0.000000000000000000 ) ) ;
#838 = ORIENTED_EDGE ( 'NONE', *, *, #355, .F. ) ;
#839 = CARTESIAN_POINT ( 'NONE',  ( -6.299999999999998046, 9.499999999999996447, -1.000000000000000000 ) ) ;
#840 = DIRECTION ( 'NONE',  ( -1.000000000000000000, 0.000000000000000000, 0.000000000000000000 ) ) ;
#841 = EDGE_CURVE ( 'NONE', #100, #160, #337, .T. ) ;
#842 = ORIENTED_EDGE ( 'NONE', *, *, #881, .T. ) ;
#843 = LINE ( 'NONE', #124, #289 ) ;
#844 = ORIENTED_EDGE ( 'NONE', *, *, #701, .F. ) ;
#845 = DIRECTION ( 'NONE',  ( 0.000000000000000000, 0.000000000000000000, 1.000000000000000000 ) ) ;
#846 = FACE_BOUND ( 'NONE', #929, .T. ) ;
#847 = ORIENTED_EDGE ( 'NONE', *, *, #979, .T. ) ;
#848 = LINE ( 'NONE', #925, #589 ) ;
#849 = AXIS2_PLACEMENT_3D ( 'NONE', #1022, #139, #691 ) ;
#850 = ORIENTED_EDGE ( 'NONE', *, *, #249, .F. ) ;
#851 = CIRCLE ( 'NONE', #623, 1.249999999999999334 ) ;
#852 = CARTESIAN_POINT ( 'NONE',  ( 10.37499999999999645, -11.74999999999999822, 0.000000000000000000 ) ) ;
#853 = VECTOR ( 'NONE', #832, 1000.000000000000000 ) ;
#854 = CARTESIAN_POINT ( 'NONE',  ( -6.299999999999998934, 0.000000000000000000, 0.000000000000000000 ) ) ;
#855 = ORIENTED_EDGE ( 'NONE', *, *, #389, .F. ) ;
#856 = ORIENTED_EDGE ( 'NONE', *, *, #800, .F. ) ;
#857 = DIRECTION ( 'NONE',  ( -0.000000000000000000, -0.000000000000000000, -1.000000000000000000 ) ) ;
#858 = LINE ( 'NONE', #48, #601 ) ;
#859 = CARTESIAN_POINT ( 'NONE',  ( -15.00000000000000000, 14.99999999999999467, -3.000000000000000000 ) ) ;
#860 = ORIENTED_EDGE ( 'NONE', *, *, #8, .F. ) ;
#861 = EDGE_CURVE ( 'NONE', #279, #976, #811, .T. ) ;
#862 = CARTESIAN_POINT ( 'NONE',  ( 13.40000000000000746, -9.700000000000001066, 0.000000000000000000 ) ) ;
#863 = DIRECTION ( 'NONE',  ( 0.000000000000000000, -1.000000000000000000, 0.000000000000000000 ) ) ;
#864 = CARTESIAN_POINT ( 'NONE',  ( -12.87500000000000178, 11.74999999999999822, 2.000000000000000000 ) ) ;
#865 = EDGE_LOOP ( 'NONE', ( #759, #568, #580, #61 ) ) ;
#866 = CARTESIAN_POINT ( 'NONE',  ( -6.299999999999998934, -9.700000000000004619, -1.000000000000000000 ) ) ;
#867 = EDGE_CURVE ( 'NONE', #778, #670, #23, .T. ) ;
#868 = AXIS2_PLACEMENT_3D ( 'NONE', #298, #689, #304 ) ;
#869 = CARTESIAN_POINT ( 'NONE',  ( -11.62500000000000178, 11.74999999999999822, 2.000000000000000000 ) ) ;
#870 = DIRECTION ( 'NONE',  ( -0.000000000000000000, -0.000000000000000000, -1.000000000000000000 ) ) ;
#871 = DIRECTION ( 'NONE',  ( -1.000000000000000000, -1.376764663473656956E-16, -0.000000000000000000 ) ) ;
#872 = EDGE_LOOP ( 'NONE', ( #572, #694 ) ) ;
#873 = DIRECTION ( 'NONE',  ( 1.000000000000000000, 1.294569758191647155E-16, -0.000000000000000000 ) ) ;
#874 = DIRECTION ( 'NONE',  ( 0.000000000000000000, 0.000000000000000000, -1.000000000000000000 ) ) ;
#875 = EDGE_CURVE ( 'NONE', #279, #955, #815, .T. ) ;
#876 = ORIENTED_EDGE ( 'NONE', *, *, #979, .F. ) ;
#877 =( NAMED_UNIT ( * ) PLANE_ANGLE_UNIT ( ) SI_UNIT ( $, .RADIAN. ) );
#878 = EDGE_LOOP ( 'NONE', ( #256, #313, #349, #301 ) ) ;
#879 = PLANE ( 'NONE',  #571 ) ;
#880 = LINE ( 'NONE', #12, #24 ) ;
#881 = EDGE_CURVE ( 'NONE', #82, #55, #280, .T. ) ;
#882 = VERTEX_POINT ( 'NONE', #599 ) ;
#883 = CARTESIAN_POINT ( 'NONE',  ( 13.40000000000000746, -9.700000000000001066, 0.000000000000000000 ) ) ;
#884 = AXIS2_PLACEMENT_3D ( 'NONE', #6, #486, #324 ) ;
#885 =( LENGTH_UNIT ( ) NAMED_UNIT ( * ) SI_UNIT ( .MILLI., .METRE. ) );
#886 = AXIS2_PLACEMENT_3D ( 'NONE', #194, #32, #191 ) ;
#887 = VECTOR ( 'NONE', #420, 1000.000000000000000 ) ;
#888 = ORIENTED_EDGE ( 'NONE', *, *, #498, .F. ) ;
#889 = CARTESIAN_POINT ( 'NONE',  ( -13.75000000000000000, 13.74999999999999467, -3.000000000000000000 ) ) ;
#890 = DIRECTION ( 'NONE',  ( -0.000000000000000000, -1.000000000000000000, -0.000000000000000000 ) ) ;
#891 = ORIENTED_EDGE ( 'NONE', *, *, #1021, .T. ) ;
#892 = FACE_OUTER_BOUND ( 'NONE', #500, .T. ) ;
#893 = ADVANCED_FACE ( 'NONE', ( #375 ), #118, .T. ) ;
#894 = CARTESIAN_POINT ( 'NONE',  ( 13.40000000000000746, 9.499999999999998224, 2.000000000000000000 ) ) ;
#895 = ORIENTED_EDGE ( 'NONE', *, *, #753, .F. ) ;
#896 = DIRECTION ( 'NONE',  ( -1.000000000000000000, -1.376764663473656710E-16, 0.000000000000000000 ) ) ;
#897 = CARTESIAN_POINT ( 'NONE',  ( 13.40000000000000746, 9.499999999999998224, 0.000000000000000000 ) ) ;
#898 = CIRCLE ( 'NONE', #455, 1.249999999999999334 ) ;
#899 = AXIS2_PLACEMENT_3D ( 'NONE', #34, #195, #268 ) ;
#900 = ORIENTED_EDGE ( 'NONE', *, *, #21, .F. ) ;
#901 = CARTESIAN_POINT ( 'NONE',  ( 6.299999999999998046, 9.499999999999996447, 0.000000000000000000 ) ) ;
#902 = DIRECTION ( 'NONE',  ( 0.000000000000000000, 0.000000000000000000, -1.000000000000000000 ) ) ;
#903 = ADVANCED_FACE ( 'NONE', ( #296 ), #436, .F. ) ;
#904 = EDGE_LOOP ( 'NONE', ( #860, #308, #229, #303 ) ) ;
#905 = DIRECTION ( 'NONE',  ( 1.294569758191647155E-16, -1.000000000000000000, 0.000000000000000000 ) ) ;
#906 = DIRECTION ( 'NONE',  ( 1.000000000000000000, 1.294569758191647155E-16, 0.000000000000000000 ) ) ;
#907 = ORIENTED_EDGE ( 'NONE', *, *, #299, .F. ) ;
#908 = ADVANCED_FACE ( 'NONE', ( #447 ), #760, .F. ) ;
#909 = DIRECTION ( 'NONE',  ( -1.000000000000000000, 0.000000000000000000, 0.000000000000000000 ) ) ;
#910 = LINE ( 'NONE', #834, #26 ) ;
#911 = CIRCLE ( 'NONE', #997, 1.249999999999999334 ) ;
#912 = ORIENTED_EDGE ( 'NONE', *, *, #713, .F. ) ;
#913 = CIRCLE ( 'NONE', #949, 1.249999999999999334 ) ;
#914 = DIRECTION ( 'NONE',  ( 0.000000000000000000, 0.000000000000000000, 1.000000000000000000 ) ) ;
#915 = ORIENTED_EDGE ( 'NONE', *, *, #49, .T. ) ;
#916 = EDGE_CURVE ( 'NONE', #771, #137, #751, .T. ) ;
#917 = CARTESIAN_POINT ( 'NONE',  ( 6.299999999999995381, 3.122502256758251192E-15, 0.000000000000000000 ) ) ;
#918 = CARTESIAN_POINT ( 'NONE',  ( 11.62499999999999822, 11.75000000000000355, 2.000000000000000000 ) ) ;
#919 = ORIENTED_EDGE ( 'NONE', *, *, #547, .F. ) ;
#920 = CARTESIAN_POINT ( 'NONE',  ( 15.00000000000000355, 15.00000000000000178, 2.000000000000000000 ) ) ;
#921 = ORIENTED_EDGE ( 'NONE', *, *, #98, .F. ) ;
#922 = PLANE ( 'NONE',  #868 ) ;
#923 = DIRECTION ( 'NONE',  ( -1.000000000000000000, -2.312964634635742957E-16, 0.000000000000000000 ) ) ;
#924 = ORIENTED_EDGE ( 'NONE', *, *, #397, .T. ) ;
#925 = CARTESIAN_POINT ( 'NONE',  ( -6.299999999999998046, 0.000000000000000000, 0.000000000000000000 ) ) ;
#926 = ORIENTED_EDGE ( 'NONE', *, *, #49, .F. ) ;
#927 = DIRECTION ( 'NONE',  ( -1.000000000000000000, 0.000000000000000000, 0.000000000000000000 ) ) ;
#928 = FACE_BOUND ( 'NONE', #872, .T. ) ;
#929 = EDGE_LOOP ( 'NONE', ( #988, #332, #933, #888, #703, #170, #261, #208, #919, #822, #687, #876 ) ) ;
#930 = MECHANICAL_DESIGN_GEOMETRIC_PRESENTATION_REPRESENTATION (  '', ( #585 ), #158 ) ;
#931 = DIRECTION ( 'NONE',  ( 0.000000000000000000, 1.000000000000000000, 0.000000000000000000 ) ) ;
#932 = CIRCLE ( 'NONE', #340, 1.249999999999999334 ) ;
#933 = ORIENTED_EDGE ( 'NONE', *, *, #427, .F. ) ;
#934 = AXIS2_PLACEMENT_3D ( 'NONE', #989, #596, #909 ) ;
#935 = PLANE ( 'NONE',  #688 ) ;
#936 = LINE ( 'NONE', #545, #491 ) ;
#937 = PLANE ( 'NONE',  #817 ) ;
#938 = EDGE_CURVE ( 'NONE', #683, #670, #848, .T. ) ;
#939 = ORIENTED_EDGE ( 'NONE', *, *, #958, .F. ) ;
#940 = FACE_OUTER_BOUND ( 'NONE', #244, .T. ) ;
#941 = CARTESIAN_POINT ( 'NONE',  ( 15.00000000000000355, -14.99999999999999822, -3.000000000000000000 ) ) ;
#942 = CARTESIAN_POINT ( 'NONE',  ( -6.299999999999998934, -9.700000000000004619, 2.000000000000000000 ) ) ;
#943 = EDGE_CURVE ( 'NONE', #620, #153, #607, .T. ) ;
#944 = ORIENTED_EDGE ( 'NONE', *, *, #234, .F. ) ;
#945 = CARTESIAN_POINT ( 'NONE',  ( 13.40000000000000746, -9.700000000000001066, 2.000000000000000000 ) ) ;
#946 = LINE ( 'NONE', #864, #221 ) ;
#947 = ORIENTED_EDGE ( 'NONE', *, *, #625, .F. ) ;
#948 = CARTESIAN_POINT ( 'NONE',  ( 15.00000000000000355, -14.99999999999999822, -3.000000000000000000 ) ) ;
#949 = AXIS2_PLACEMENT_3D ( 'NONE', #102, #821, #430 ) ;
#950 = EDGE_CURVE ( 'NONE', #714, #160, #843, .T. ) ;
#951 = DIRECTION ( 'NONE',  ( -0.000000000000000000, -0.000000000000000000, -1.000000000000000000 ) ) ;
#952 = AXIS2_PLACEMENT_3D ( 'NONE', #920, #679, #542 ) ;
#953 = CARTESIAN_POINT ( 'NONE',  ( 6.299999999999998046, 13.00000000000000000, -1.000000000000000000 ) ) ;
#954 = SHAPE_DEFINITION_REPRESENTATION ( #281, #125 ) ;
#955 = VERTEX_POINT ( 'NONE', #203 ) ;
#956 = CARTESIAN_POINT ( 'NONE',  ( -6.299999999999998046, 12.99999999999999822, 0.000000000000000000 ) ) ;
#957 = FILL_AREA_STYLE_COLOUR ( '', #802 ) ;
#958 = EDGE_CURVE ( 'NONE', #652, #405, #440, .T. ) ;
#959 = LINE ( 'NONE', #708, #106 ) ;
#960 = VERTEX_POINT ( 'NONE', #381 ) ;
#961 = DIRECTION ( 'NONE',  ( -1.376764663473656710E-16, 1.000000000000000000, 0.000000000000000000 ) ) ;
#962 = CARTESIAN_POINT ( 'NONE',  ( 13.75000000000000355, 13.75000000000000178, -3.000000000000000000 ) ) ;
#963 = EDGE_LOOP ( 'NONE', ( #225, #944, #606, #435 ) ) ;
#964 = CARTESIAN_POINT ( 'NONE',  ( 15.00000000000000355, 15.00000000000000178, 2.000000000000000000 ) ) ;
#965 = CLOSED_SHELL ( 'NONE', ( #908, #987, #213, #788, #609, #737, #171, #583, #973, #103, #503, #903, #827, #335, #992, #684, #320, #633, #893, #376, #667, #515, #438, #263, #656, #813, #677, #86, #663, #765, #284 ) ) ;
#966 = DIRECTION ( 'NONE',  ( -1.000000000000000000, 0.000000000000000000, 0.000000000000000000 ) ) ;
#967 = VECTOR ( 'NONE', #857, 1000.000000000000000 ) ;
#968 = ORIENTED_EDGE ( 'NONE', *, *, #916, .T. ) ;
#969 = EDGE_CURVE ( 'NONE', #270, #1015, #531, .T. ) ;
#970 = DIRECTION ( 'NONE',  ( 2.523234146875355505E-16, -1.000000000000000000, 0.000000000000000000 ) ) ;
#971 = PLANE ( 'NONE',  #556 ) ;
#972 = EDGE_LOOP ( 'NONE', ( #592, #921, #464, #991 ) ) ;
#973 = ADVANCED_FACE ( 'NONE', ( #62 ), #755, .F. ) ;
#974 = CARTESIAN_POINT ( 'NONE',  ( 13.75000000000000355, 13.75000000000000178, -3.000000000000000000 ) ) ;
#975 = CARTESIAN_POINT ( 'NONE',  ( 6.299999999999998046, 9.500000000000000000, -1.000000000000000000 ) ) ;
#976 = VERTEX_POINT ( 'NONE', #766 ) ;
#977 = DIRECTION ( 'NONE',  ( 1.000000000000000000, 2.523234146875355505E-16, 0.000000000000000000 ) ) ;
#978 = DIRECTION ( 'NONE',  ( 0.000000000000000000, 0.000000000000000000, 1.000000000000000000 ) ) ;
#979 = EDGE_CURVE ( 'NONE', #55, #618, #460, .T. ) ;
#980 = UNCERTAINTY_MEASURE_WITH_UNIT (LENGTH_MEASURE( 1.000000000000000082E-05 ), #885, 'distance_accuracy_value', 'NONE');
#981 = AXIS2_PLACEMENT_3D ( 'NONE', #89, #786, #84 ) ;
#982 = AXIS2_PLACEMENT_3D ( 'NONE', #443, #150, #467 ) ;
#983 = VECTOR ( 'NONE', #659, 1000.000000000000000 ) ;
#984 = EDGE_LOOP ( 'NONE', ( #91, #632, #193, #535 ) ) ;
#985 = DIRECTION ( 'NONE',  ( -0.000000000000000000, -0.000000000000000000, -1.000000000000000000 ) ) ;
#986 = CARTESIAN_POINT ( 'NONE',  ( 11.62499999999999645, -11.74999999999999822, 2.000000000000000000 ) ) ;
#987 = ADVANCED_FACE ( 'NONE', ( #302 ), #675, .F. ) ;
#988 = ORIENTED_EDGE ( 'NONE', *, *, #881, .F. ) ;
#989 = CARTESIAN_POINT ( 'NONE',  ( 11.62499999999999645, -11.74999999999999822, 2.000000000000000000 ) ) ;
#990 = DIRECTION ( 'NONE',  ( -1.000000000000000000, -1.294569758191647155E-16, 0.000000000000000000 ) ) ;
#991 = ORIENTED_EDGE ( 'NONE', *, *, #3, .F. ) ;
#992 = ADVANCED_FACE ( 'NONE', ( #197 ), #519, .F. ) ;
#993 = CARTESIAN_POINT ( 'NONE',  ( 13.40000000000000746, -9.700000000000001066, 2.000000000000000000 ) ) ;
#994 = VERTEX_POINT ( 'NONE', #130 ) ;
#995 = CARTESIAN_POINT ( 'NONE',  ( -6.299999999999998046, 9.499999999999996447, 2.000000000000000000 ) ) ;
#996 = FACE_OUTER_BOUND ( 'NONE', #232, .T. ) ;
#997 = AXIS2_PLACEMENT_3D ( 'NONE', #495, #43, #513 ) ;
#998 = ORIENTED_EDGE ( 'NONE', *, *, #742, .F. ) ;
#999 = VECTOR ( 'NONE', #164, 1000.000000000000000 ) ;
#1000 = LINE ( 'NONE', #291, #393 ) ;
#1001 = VERTEX_POINT ( 'NONE', #368 ) ;
#1002 = FACE_BOUND ( 'NONE', #283, .T. ) ;
#1003 = DIRECTION ( 'NONE',  ( 0.000000000000000000, -1.000000000000000000, 0.000000000000000000 ) ) ;
#1004 = ORIENTED_EDGE ( 'NONE', *, *, #600, .F. ) ;
#1005 = CARTESIAN_POINT ( 'NONE',  ( -6.299999999999998934, -9.700000000000004619, 2.000000000000000000 ) ) ;
#1006 = VERTEX_POINT ( 'NONE', #685 ) ;
#1007 = DIRECTION ( 'NONE',  ( 0.000000000000000000, -1.000000000000000000, 0.000000000000000000 ) ) ;
#1008 = DIRECTION ( 'NONE',  ( 0.000000000000000000, 0.000000000000000000, 1.000000000000000000 ) ) ;
#1009 = ORIENTED_EDGE ( 'NONE', *, *, #800, .T. ) ;
#1010 = CARTESIAN_POINT ( 'NONE',  ( 6.299999999999998046, 0.000000000000000000, 0.000000000000000000 ) ) ;
#1011 = ORIENTED_EDGE ( 'NONE', *, *, #969, .F. ) ;
#1012 = FACE_BOUND ( 'NONE', #514, .T. ) ;
#1013 = DIRECTION ( 'NONE',  ( 1.000000000000000000, 0.000000000000000000, -0.000000000000000000 ) ) ;
#1014 = EDGE_CURVE ( 'NONE', #451, #327, #1000, .T. ) ;
#1015 = VERTEX_POINT ( 'NONE', #404 ) ;
#1016 = AXIS2_PLACEMENT_3D ( 'NONE', #243, #473, #874 ) ;
#1017 = AXIS2_PLACEMENT_3D ( 'NONE', #866, #247, #230 ) ;
#1018 = EDGE_LOOP ( 'NONE', ( #394, #290, #680, #96 ) ) ;
#1019 = DIRECTION ( 'NONE',  ( -0.000000000000000000, -0.000000000000000000, -1.000000000000000000 ) ) ;
#1020 = LINE ( 'NONE', #780, #172 ) ;
#1021 = EDGE_CURVE ( 'NONE', #131, #470, #399, .T. ) ;
#1022 = CARTESIAN_POINT ( 'NONE',  ( 15.00000000000000355, -14.99999999999999822, 2.000000000000000000 ) ) ;
#1023 = ORIENTED_EDGE ( 'NONE', *, *, #143, .T. ) ;
#1024 = DIRECTION ( 'NONE',  ( 1.000000000000000000, 1.294569758191647155E-16, -0.000000000000000000 ) ) ;
#1025 = DIRECTION ( 'NONE',  ( 0.000000000000000000, 1.000000000000000000, 0.000000000000000000 ) ) ;
ENDSEC;
END-ISO-10303-21;
