ISO-10303-21;
HEADER;
FILE_DESCRIPTION (( 'STEP AP214' ),
    '1' );
FILE_NAME ('Voltage meter backet.STEP',
    '2026-02-08T19:56:51',
    ( '' ),
    ( '' ),
    'SwSTEP 2.0',
    'SolidWorks 2025',
    '' );
FILE_SCHEMA (( 'AUTOMOTIVE_DESIGN' ));
ENDSEC;

DATA;
#1 = ORIENTED_EDGE ( 'NONE', *, *, #77, .T. ) ;
#2 = SURFACE_STYLE_FILL_AREA ( #84 ) ;
#3 = CARTESIAN_POINT ( 'NONE',  ( -1.750000000000000666, 0.5000000000000000000, 11.79289321881344854 ) ) ;
#4 = PRODUCT_DEFINITION_SHAPE ( 'NONE', 'NONE',  #508 ) ;
#5 = DIRECTION ( 'NONE',  ( 1.000000000000000000, -0.000000000000000000, -0.000000000000000000 ) ) ;
#6 = ORIENTED_EDGE ( 'NONE', *, *, #851, .T. ) ;
#7 = EDGE_CURVE ( 'NONE', #738, #471, #584, .T. ) ;
#8 = VECTOR ( 'NONE', #1047, 1000.000000000000000 ) ;
#9 = LINE ( 'NONE', #844, #187 ) ;
#10 = DIRECTION ( 'NONE',  ( 0.000000000000000000, 0.000000000000000000, -1.000000000000000000 ) ) ;
#11 = DIRECTION ( 'NONE',  ( 1.000000000000000000, 1.759864395918499754E-16, -7.326907397125353313E-32 ) ) ;
#12 = ORIENTED_EDGE ( 'NONE', *, *, #516, .F. ) ;
#13 = VECTOR ( 'NONE', #295, 1000.000000000000227 ) ;
#14 = CYLINDRICAL_SURFACE ( 'NONE', #973, 10.00000000000000000 ) ;
#15 = CARTESIAN_POINT ( 'NONE',  ( -6.749999999999995559, -25.75000000000000711, -2.999999999999991562 ) ) ;
#16 = DIRECTION ( 'NONE',  ( 0.000000000000000000, -1.000000000000000000, 0.000000000000000000 ) ) ;
#17 = AXIS2_PLACEMENT_3D ( 'NONE', #848, #521, #928 ) ;
#18 = VERTEX_POINT ( 'NONE', #605 ) ;
#19 = CIRCLE ( 'NONE', #451, 10.00000000000000000 ) ;
#20 = CARTESIAN_POINT ( 'NONE',  ( -10.74999999999999822, -13.75000000000000178, -2.999999999999993339 ) ) ;
#21 = EDGE_CURVE ( 'NONE', #102, #826, #351, .T. ) ;
#22 = FACE_OUTER_BOUND ( 'NONE', #443, .T. ) ;
#23 = AXIS2_PLACEMENT_3D ( 'NONE', #730, #224, #555 ) ;
#24 = CARTESIAN_POINT ( 'NONE',  ( 58.75000000000000711, 1.500000000000000000, 2.000000000000000000 ) ) ;
#25 = ORIENTED_EDGE ( 'NONE', *, *, #461, .T. ) ;
#26 = CYLINDRICAL_SURFACE ( 'NONE', #350, 0.5000000000000004441 ) ;
#27 = DIRECTION ( 'NONE',  ( -1.000000000000000000, 0.000000000000000000, 0.000000000000000000 ) ) ;
#28 = CARTESIAN_POINT ( 'NONE',  ( -2.250000000000001776, 1.000000000000000000, 12.00000000000000000 ) ) ;
#29 = EDGE_CURVE ( 'NONE', #156, #276, #761, .T. ) ;
#30 = DIRECTION ( 'NONE',  ( 0.000000000000000000, 0.000000000000000000, 1.000000000000000000 ) ) ;
#31 = VERTEX_POINT ( 'NONE', #517 ) ;
#32 = DIRECTION ( 'NONE',  ( -0.9950371902099890420, -0.000000000000000000, -0.09950371902099885979 ) ) ;
#33 = DIRECTION ( 'NONE',  ( 0.000000000000000000, -1.000000000000000000, 0.000000000000000000 ) ) ;
#34 = CARTESIAN_POINT ( 'NONE',  ( 58.75000000000000711, 1.500000000000000000, 12.00000000000000000 ) ) ;
#35 = CARTESIAN_POINT ( 'NONE',  ( 43.25000000000000711, -28.00000000000000000, 2.000000000000000000 ) ) ;
#36 = ORIENTED_EDGE ( 'NONE', *, *, #21, .T. ) ;
#37 = CIRCLE ( 'NONE', #549, 2.000000000000001776 ) ;
#38 = EDGE_LOOP ( 'NONE', ( #253, #159 ) ) ;
#39 = DIRECTION ( 'NONE',  ( 1.000000000000000000, 0.000000000000000000, 5.233505283660965088E-32 ) ) ;
#40 = CARTESIAN_POINT ( 'NONE',  ( 58.75000000000000711, 1.500000000000000000, 2.000000000000000000 ) ) ;
#41 = CARTESIAN_POINT ( 'NONE',  ( -10.75000000000000000, -21.00000000000000355, -12.99999999999999467 ) ) ;
#42 = LINE ( 'NONE', #784, #669 ) ;
#43 = ORIENTED_EDGE ( 'NONE', *, *, #918, .T. ) ;
#44 = EDGE_CURVE ( 'NONE', #290, #1075, #310, .T. ) ;
#45 = DIRECTION ( 'NONE',  ( -1.000000000000000000, 0.000000000000000000, 0.000000000000000000 ) ) ;
#46 = CIRCLE ( 'NONE', #921, 2.000000000000001776 ) ;
#47 = DIRECTION ( 'NONE',  ( 1.000000000000000000, 0.000000000000000000, 5.233505283660965088E-32 ) ) ;
#48 = ORIENTED_EDGE ( 'NONE', *, *, #907, .F. ) ;
#49 = CARTESIAN_POINT ( 'NONE',  ( -6.749999999999999112, 0.5000000000000000000, 2.000000000000000000 ) ) ;
#50 = CARTESIAN_POINT ( 'NONE',  ( -6.750000000000002665, -1.187908467244987784E-15, 12.00000000000000000 ) ) ;
#51 = AXIS2_PLACEMENT_3D ( 'NONE', #400, #917, #241 ) ;
#52 = VERTEX_POINT ( 'NONE', #675 ) ;
#53 = AXIS2_PLACEMENT_3D ( 'NONE', #20, #293, #214 ) ;
#54 = PLANE ( 'NONE',  #118 ) ;
#55 = DIRECTION ( 'NONE',  ( -1.000000000000000000, -0.000000000000000000, 0.000000000000000000 ) ) ;
#56 = EDGE_CURVE ( 'NONE', #18, #619, #361, .T. ) ;
#57 = ORIENTED_EDGE ( 'NONE', *, *, #1044, .F. ) ;
#58 = AXIS2_PLACEMENT_3D ( 'NONE', #662, #424, #745 ) ;
#59 = ORIENTED_EDGE ( 'NONE', *, *, #132, .T. ) ;
#60 = FACE_OUTER_BOUND ( 'NONE', #570, .T. ) ;
#61 = AXIS2_PLACEMENT_3D ( 'NONE', #666, #639, #835 ) ;
#62 = LINE ( 'NONE', #567, #982 ) ;
#63 = EDGE_CURVE ( 'NONE', #568, #763, #615, .T. ) ;
#64 = VERTEX_POINT ( 'NONE', #436 ) ;
#65 = ORIENTED_EDGE ( 'NONE', *, *, #44, .F. ) ;
#66 = DIRECTION ( 'NONE',  ( 1.000000000000000000, 1.734723475976806848E-16, -0.000000000000000000 ) ) ;
#67 = DIRECTION ( 'NONE',  ( 1.000000000000000000, -2.434699615406044725E-16, 0.000000000000000000 ) ) ;
#68 = EDGE_LOOP ( 'NONE', ( #480, #983, #503, #219 ) ) ;
#69 = AXIS2_PLACEMENT_3D ( 'NONE', #24, #976, #704 ) ;
#70 = VERTEX_POINT ( 'NONE', #942 ) ;
#71 = EDGE_CURVE ( 'NONE', #906, #264, #687, .T. ) ;
#72 = CARTESIAN_POINT ( 'NONE',  ( -1.004380241850961308, 3.500000000000000000, -2.999999999999997335 ) ) ;
#73 = LINE ( 'NONE', #1063, #529 ) ;
#74 = ORIENTED_EDGE ( 'NONE', *, *, #297, .T. ) ;
#75 = SHAPE_DEFINITION_REPRESENTATION ( #4, #1086 ) ;
#76 = ORIENTED_EDGE ( 'NONE', *, *, #995, .T. ) ;
#77 = EDGE_CURVE ( 'NONE', #70, #52, #1021, .T. ) ;
#78 = LINE ( 'NONE', #179, #559 ) ;
#79 = DIRECTION ( 'NONE',  ( 0.000000000000000000, 0.000000000000000000, -1.000000000000000000 ) ) ;
#80 = AXIS2_PLACEMENT_3D ( 'NONE', #265, #433, #598 ) ;
#81 = ORIENTED_EDGE ( 'NONE', *, *, #918, .F. ) ;
#82 = EDGE_CURVE ( 'NONE', #156, #102, #19, .T. ) ;
#83 = EDGE_LOOP ( 'NONE', ( #880, #1055, #513, #323 ) ) ;
#84 = FILL_AREA_STYLE ('',( #582 ) ) ;
#85 = CARTESIAN_POINT ( 'NONE',  ( -1.750000000000001554, 0.5000000000000000000, 11.50000000000000000 ) ) ;
#86 = CARTESIAN_POINT ( 'NONE',  ( -5.299019387828175276, -30.23790228134518898, -6.847340076791541996 ) ) ;
#87 = ORIENTED_EDGE ( 'NONE', *, *, #585, .F. ) ;
#88 = LINE ( 'NONE', #189, #1039 ) ;
#89 = PLANE ( 'NONE',  #447 ) ;
#90 = EDGE_CURVE ( 'NONE', #290, #273, #176, .T. ) ;
#91 = CARTESIAN_POINT ( 'NONE',  ( -6.750000000000000888, 0.5000000000000000000, -2.999999999999997335 ) ) ;
#92 = ORIENTED_EDGE ( 'NONE', *, *, #334, .T. ) ;
#93 = DIRECTION ( 'NONE',  ( 1.000000000000000000, 1.734723475976806848E-16, -0.000000000000000000 ) ) ;
#94 = FACE_OUTER_BOUND ( 'NONE', #1017, .T. ) ;
#95 = CARTESIAN_POINT ( 'NONE',  ( -1.762034290795146951, -30.99515450946066508, -3.386161505117561088 ) ) ;
#96 = ORIENTED_EDGE ( 'NONE', *, *, #374, .T. ) ;
#97 = VECTOR ( 'NONE', #700, 1000.000000000000000 ) ;
#98 = ADVANCED_FACE ( 'NONE', ( #101 ), #191, .F. ) ;
#99 = DIRECTION ( 'NONE',  ( 1.000000000000000000, 1.734723475976806848E-16, -0.000000000000000000 ) ) ;
#100 = DIRECTION ( 'NONE',  ( -1.000000000000000000, 0.000000000000000000, 0.000000000000000000 ) ) ;
#101 = FACE_OUTER_BOUND ( 'NONE', #818, .T. ) ;
#102 = VERTEX_POINT ( 'NONE', #840 ) ;
#103 = EDGE_CURVE ( 'NONE', #273, #645, #414, .T. ) ;
#104 = AXIS2_PLACEMENT_3D ( 'NONE', #367, #540, #716 ) ;
#105 = CARTESIAN_POINT ( 'NONE',  ( 57.74999999999999289, -28.00000000000000000, 2.000000000000000000 ) ) ;
#106 = CARTESIAN_POINT ( 'NONE',  ( 57.75000000000000000, 0.5000000000000000000, 11.50000000000000000 ) ) ;
#107 = AXIS2_PLACEMENT_3D ( 'NONE', #129, #371, #33 ) ;
#108 = CARTESIAN_POINT ( 'NONE',  ( -10.75000000000000000, -1.750000000000002887, -2.999999999999994227 ) ) ;
#109 = CARTESIAN_POINT ( 'NONE',  ( -6.749999999999999112, -6.500000000000003553, -12.99999999999999822 ) ) ;
#110 = AXIS2_PLACEMENT_3D ( 'NONE', #1068, #909, #147 ) ;
#111 = ORIENTED_EDGE ( 'NONE', *, *, #678, .F. ) ;
#112 = VECTOR ( 'NONE', #346, 1000.000000000000000 ) ;
#113 = AXIS2_PLACEMENT_3D ( 'NONE', #839, #506, #421 ) ;
#114 = EDGE_CURVE ( 'NONE', #464, #156, #954, .T. ) ;
#115 = FACE_BOUND ( 'NONE', #805, .T. ) ;
#116 = LINE ( 'NONE', #1041, #284 ) ;
#117 = CARTESIAN_POINT ( 'NONE',  ( -1.004380241850587385, -31.00000000000000000, -2.999999999999993339 ) ) ;
#118 = AXIS2_PLACEMENT_3D ( 'NONE', #735, #305, #492 ) ;
#119 = LINE ( 'NONE', #1054, #13 ) ;
#120 = VERTEX_POINT ( 'NONE', #980 ) ;
#121 = ORIENTED_EDGE ( 'NONE', *, *, #82, .F. ) ;
#122 = DIRECTION ( 'NONE',  ( -1.000000000000000000, 2.434699615406050641E-16, 0.000000000000000000 ) ) ;
#123 = CARTESIAN_POINT ( 'NONE',  ( 58.25000000000000000, 1.000000000000000000, 12.00000000000000000 ) ) ;
#124 = DIRECTION ( 'NONE',  ( -0.000000000000000000, -0.000000000000000000, 1.000000000000000000 ) ) ;
#125 = DIRECTION ( 'NONE',  ( -1.000000000000000000, 0.000000000000000000, 0.000000000000000000 ) ) ;
#126 = ORIENTED_EDGE ( 'NONE', *, *, #44, .T. ) ;
#127 = ORIENTED_EDGE ( 'NONE', *, *, #774, .T. ) ;
#128 = FACE_BOUND ( 'NONE', #562, .T. ) ;
#129 = CARTESIAN_POINT ( 'NONE',  ( -6.749999999999999112, -3.750000000000002220, -2.999999999999994227 ) ) ;
#130 = CARTESIAN_POINT ( 'NONE',  ( -2.250000000000008438, -28.50000000000000000, 12.00000000000000000 ) ) ;
#131 = CARTESIAN_POINT ( 'NONE',  ( -10.75000000000000000, -6.500000000000004441, -12.99999999999999822 ) ) ;
#132 = EDGE_CURVE ( 'NONE', #554, #888, #620, .T. ) ;
#133 = VERTEX_POINT ( 'NONE', #448 ) ;
#134 = ORIENTED_EDGE ( 'NONE', *, *, #71, .F. ) ;
#135 = DIRECTION ( 'NONE',  ( -2.434699615406045218E-16, -1.000000000000000000, 0.000000000000000000 ) ) ;
#136 = EDGE_CURVE ( 'NONE', #338, #449, #390, .T. ) ;
#137 = CARTESIAN_POINT ( 'NONE',  ( 60.75000000000000000, -31.00000000000000000, 2.000000000000000000 ) ) ;
#138 = DIRECTION ( 'NONE',  ( 0.000000000000000000, 1.000000000000000000, 0.000000000000000000 ) ) ;
#139 = VERTEX_POINT ( 'NONE', #778 ) ;
#140 = EDGE_CURVE ( 'NONE', #64, #523, #532, .T. ) ;
#141 = CARTESIAN_POINT ( 'NONE',  ( -6.244312959644849670, 1.590130612641563523, -8.892241719568419356 ) ) ;
#142 = CARTESIAN_POINT ( 'NONE',  ( -10.74999999999999822, -21.00000000000000355, -12.99999999999999467 ) ) ;
#143 = ORIENTED_EDGE ( 'NONE', *, *, #806, .T. ) ;
#144 = AXIS2_PLACEMENT_3D ( 'NONE', #394, #723, #409 ) ;
#145 = EDGE_CURVE ( 'NONE', #70, #120, #474, .T. ) ;
#146 = DIRECTION ( 'NONE',  ( -1.000000000000000000, -1.759864395918499754E-16, 7.326907397125353313E-32 ) ) ;
#147 = DIRECTION ( 'NONE',  ( 0.9950371902099890420, 0.000000000000000000, 0.09950371902099884591 ) ) ;
#148 = VECTOR ( 'NONE', #882, 1000.000000000000000 ) ;
#149 = EDGE_LOOP ( 'NONE', ( #878, #1049, #852, #717 ) ) ;
#150 = ORIENTED_EDGE ( 'NONE', *, *, #668, .T. ) ;
#151 = AXIS2_PLACEMENT_3D ( 'NONE', #511, #10, #949 ) ;
#152 = ADVANCED_FACE ( 'NONE', ( #456, #1059 ), #710, .F. ) ;
#153 = CARTESIAN_POINT ( 'NONE',  ( -3.767567764507995243, 3.320208317849012047, -4.913474072828395656 ) ) ;
#154 = FACE_OUTER_BOUND ( 'NONE', #486, .T. ) ;
#155 = EDGE_LOOP ( 'NONE', ( #411, #396, #1026, #936, #894, #127 ) ) ;
#156 = VERTEX_POINT ( 'NONE', #109 ) ;
#157 = CARTESIAN_POINT ( 'NONE',  ( -3.458118942051320310, 3.371375222666876947, -4.621633113392188186 ) ) ;
#158 = DIRECTION ( 'NONE',  ( 0.000000000000000000, 0.000000000000000000, -1.000000000000000000 ) ) ;
#159 = ORIENTED_EDGE ( 'NONE', *, *, #995, .F. ) ;
#160 = ORIENTED_EDGE ( 'NONE', *, *, #388, .T. ) ;
#161 = CARTESIAN_POINT ( 'NONE',  ( -10.75000000000000000, 3.500000000000000000, 8.000000000000024869 ) ) ;
#162 = CARTESIAN_POINT ( 'NONE',  ( -10.74999999999999822, -11.75000000000000178, -2.999999999999993339 ) ) ;
#163 = PRODUCT ( 'Voltage meter backet', 'Voltage meter backet', '', ( #1011 ) ) ;
#164 = ORIENTED_EDGE ( 'NONE', *, *, #330, .T. ) ;
#165 = AXIS2_PLACEMENT_3D ( 'NONE', #326, #653, #641 ) ;
#166 = ADVANCED_FACE ( 'NONE', ( #1037 ), #203, .T. ) ;
#167 = VERTEX_POINT ( 'NONE', #877 ) ;
#168 = DIRECTION ( 'NONE',  ( -1.000000000000000000, -1.734723475976806848E-16, 0.000000000000000000 ) ) ;
#169 = VECTOR ( 'NONE', #685, 1000.000000000000000 ) ;
#170 = CARTESIAN_POINT ( 'NONE',  ( -6.749999999999999112, -6.500000000000000888, -2.999999999999997780 ) ) ;
#171 = VERTEX_POINT ( 'NONE', #462 ) ;
#172 = EDGE_CURVE ( 'NONE', #763, #1030, #1018, .T. ) ;
#173 = CARTESIAN_POINT ( 'NONE',  ( -6.750000000000000888, 0.5000000000000000000, -2.999999999999997335 ) ) ;
#174 = CARTESIAN_POINT ( 'NONE',  ( 60.75000000000000000, -29.00000000000000000, 12.00000000000000000 ) ) ;
#175 = AXIS2_PLACEMENT_3D ( 'NONE', #440, #195, #206 ) ;
#176 = LINE ( 'NONE', #595, #899 ) ;
#177 = VERTEX_POINT ( 'NONE', #618 ) ;
#178 = EDGE_CURVE ( 'NONE', #133, #52, #771, .T. ) ;
#179 = CARTESIAN_POINT ( 'NONE',  ( 43.25000000000000711, 0.5000000000000000000, 2.000000000000000000 ) ) ;
#180 = DIRECTION ( 'NONE',  ( 0.000000000000000000, 0.000000000000000000, -1.000000000000000000 ) ) ;
#181 = DIRECTION ( 'NONE',  ( -1.734723475976807094E-16, 1.000000000000000000, 0.000000000000000000 ) ) ;
#182 = ORIENTED_EDGE ( 'NONE', *, *, #610, .T. ) ;
#183 = DIRECTION ( 'NONE',  ( -2.011273595335428326E-16, -1.000000000000000000, 0.000000000000000000 ) ) ;
#184 = DIRECTION ( 'NONE',  ( 0.000000000000000000, 0.000000000000000000, -1.000000000000000000 ) ) ;
#185 = EDGE_CURVE ( 'NONE', #343, #328, #470, .T. ) ;
#186 = CARTESIAN_POINT ( 'NONE',  ( -10.74999999999999645, -23.75000000000000355, -2.999999999999992006 ) ) ;
#187 = VECTOR ( 'NONE', #1023, 1000.000000000000000 ) ;
#188 = ORIENTED_EDGE ( 'NONE', *, *, #246, .T. ) ;
#189 = CARTESIAN_POINT ( 'NONE',  ( 60.75000000000000711, 3.500000000000000000, 2.000000000000000000 ) ) ;
#190 = LINE ( 'NONE', #859, #948 ) ;
#191 = PLANE ( 'NONE',  #637 ) ;
#192 = EDGE_CURVE ( 'NONE', #226, #171, #119, .T. ) ;
#193 = ORIENTED_EDGE ( 'NONE', *, *, #1088, .F. ) ;
#194 = AXIS2_PLACEMENT_3D ( 'NONE', #34, #803, #274 ) ;
#195 = DIRECTION ( 'NONE',  ( 1.000000000000000000, 1.759864395918499754E-16, -7.326907397125353313E-32 ) ) ;
#196 = CYLINDRICAL_SURFACE ( 'NONE', #968, 10.00000000000000000 ) ;
#197 = DIRECTION ( 'NONE',  ( -1.000000000000000000, 0.000000000000000000, 0.000000000000000000 ) ) ;
#198 = ORIENTED_EDGE ( 'NONE', *, *, #571, .T. ) ;
#199 = EDGE_CURVE ( 'NONE', #752, #347, #1048, .T. ) ;
#200 = VECTOR ( 'NONE', #594, 1000.000000000000000 ) ;
#201 = VECTOR ( 'NONE', #220, 1000.000000000000000 ) ;
#202 = DIRECTION ( 'NONE',  ( 1.759864395918500247E-16, -1.000000000000000000, 1.759864395918499138E-17 ) ) ;
#203 = CYLINDRICAL_SURFACE ( 'NONE', #69, 2.000000000000001776 ) ;
#204 = ORIENTED_EDGE ( 'NONE', *, *, #192, .F. ) ;
#205 = AXIS2_PLACEMENT_3D ( 'NONE', #430, #168, #750 ) ;
#206 = DIRECTION ( 'NONE',  ( -1.759864395918499754E-16, 1.000000000000000000, 0.000000000000000000 ) ) ;
#207 = CARTESIAN_POINT ( 'NONE',  ( -6.749999999999999112, -5.750000000000001776, -2.999999999999993783 ) ) ;
#208 = STYLED_ITEM ( 'NONE', ( #927 ), #957 ) ;
#209 = DIRECTION ( 'NONE',  ( 0.000000000000000000, 1.000000000000000000, 0.000000000000000000 ) ) ;
#210 = AXIS2_PLACEMENT_3D ( 'NONE', #228, #404, #808 ) ;
#211 = CYLINDRICAL_SURFACE ( 'NONE', #444, 0.5000000000000004441 ) ;
#212 = ORIENTED_EDGE ( 'NONE', *, *, #172, .T. ) ;
#213 = LINE ( 'NONE', #1051, #1073 ) ;
#214 = DIRECTION ( 'NONE',  ( 0.000000000000000000, -1.000000000000000000, 0.000000000000000000 ) ) ;
#215 = EDGE_CURVE ( 'NONE', #464, #339, #42, .T. ) ;
#216 = FACE_BOUND ( 'NONE', #743, .T. ) ;
#217 = CARTESIAN_POINT ( 'NONE',  ( -1.750000000000008438, -28.00000000000000000, 11.50000000000000000 ) ) ;
#218 = EDGE_LOOP ( 'NONE', ( #541, #92, #1006, #793, #977, #861, #248, #528, #654 ) ) ;
#219 = ORIENTED_EDGE ( 'NONE', *, *, #579, .T. ) ;
#220 = DIRECTION ( 'NONE',  ( -1.759864395918499754E-16, 1.000000000000000000, 0.000000000000000000 ) ) ;
#221 = CARTESIAN_POINT ( 'NONE',  ( 58.75000000000000000, -28.99999999999999645, 12.00000000000000000 ) ) ;
#222 = DIRECTION ( 'NONE',  ( 2.434699615406045218E-16, 1.000000000000000000, -0.000000000000000000 ) ) ;
#223 = EDGE_LOOP ( 'NONE', ( #423, #699, #821, #498 ) ) ;
#224 = DIRECTION ( 'NONE',  ( 1.000000000000000000, 1.759864395918499754E-16, -7.326907397125353313E-32 ) ) ;
#225 = DIRECTION ( 'NONE',  ( -0.000000000000000000, -0.000000000000000000, 1.000000000000000000 ) ) ;
#226 = VERTEX_POINT ( 'NONE', #35 ) ;
#227 = EDGE_CURVE ( 'NONE', #171, #568, #634, .T. ) ;
#228 = CARTESIAN_POINT ( 'NONE',  ( 58.75000000000000000, -28.99999999999999645, 2.000000000000000000 ) ) ;
#229 = AXIS2_PLACEMENT_3D ( 'NONE', #254, #588, #933 ) ;
#230 = CARTESIAN_POINT ( 'NONE',  ( -10.75000000000000000, -3.750000000000003109, -2.999999999999994227 ) ) ;
#231 = ORIENTED_EDGE ( 'NONE', *, *, #381, .T. ) ;
#232 = ORIENTED_EDGE ( 'NONE', *, *, #756, .T. ) ;
#233 = CARTESIAN_POINT ( 'NONE',  ( 60.75000000000000711, 1.499999999999999556, 12.00000000000000000 ) ) ;
#234 = DIRECTION ( 'NONE',  ( 0.000000000000000000, -1.000000000000000000, 0.000000000000000000 ) ) ;
#235 = ORIENTED_EDGE ( 'NONE', *, *, #504, .T. ) ;
#236 = ADVANCED_FACE ( 'NONE', ( #275 ), #211, .T. ) ;
#237 = AXIS2_PLACEMENT_3D ( 'NONE', #770, #979, #889 ) ;
#238 = ORIENTED_EDGE ( 'NONE', *, *, #862, .T. ) ;
#239 = CIRCLE ( 'NONE', #872, 2.000000000000001776 ) ;
#240 = DIRECTION ( 'NONE',  ( -0.000000000000000000, -0.000000000000000000, 1.000000000000000000 ) ) ;
#241 = DIRECTION ( 'NONE',  ( 1.000000000000000000, 1.759864395918500494E-16, 0.000000000000000000 ) ) ;
#242 = ORIENTED_EDGE ( 'NONE', *, *, #940, .T. ) ;
#243 = EDGE_LOOP ( 'NONE', ( #828, #638, #575, #303 ) ) ;
#244 = LINE ( 'NONE', #487, #313 ) ;
#245 = PLANE ( 'NONE',  #865 ) ;
#246 = EDGE_CURVE ( 'NONE', #1030, #171, #632, .T. ) ;
#247 = CIRCLE ( 'NONE', #194, 2.000000000000001776 ) ;
#248 = ORIENTED_EDGE ( 'NONE', *, *, #178, .T. ) ;
#249 = ORIENTED_EDGE ( 'NONE', *, *, #610, .F. ) ;
#250 = CARTESIAN_POINT ( 'NONE',  ( 57.75000000000000000, 0.5000000000000000000, 11.50000000000000000 ) ) ;
#251 = LINE ( 'NONE', #1033, #309 ) ;
#252 = CARTESIAN_POINT ( 'NONE',  ( -5.844395539212177582, -29.74044860118587508, -7.875012990189426354 ) ) ;
#253 = ORIENTED_EDGE ( 'NONE', *, *, #330, .F. ) ;
#254 = CARTESIAN_POINT ( 'NONE',  ( 57.74999999999999289, -28.00000000000000000, 2.000000000000000000 ) ) ;
#255 = VECTOR ( 'NONE', #47, 1000.000000000000000 ) ;
#256 = DIRECTION ( 'NONE',  ( -1.000000000000000000, -1.734723475976806848E-16, 0.000000000000000000 ) ) ;
#257 = CIRCLE ( 'NONE', #205, 2.000000000000001776 ) ;
#258 = CARTESIAN_POINT ( 'NONE',  ( -10.74999999999999645, -31.00000000000000355, 12.00000000000001066 ) ) ;
#259 = ORIENTED_EDGE ( 'NONE', *, *, #192, .T. ) ;
#260 = ADVANCED_FACE ( 'NONE', ( #488 ), #245, .F. ) ;
#261 = CARTESIAN_POINT ( 'NONE',  ( -6.750000000000000888, -31.00000000000000000, -2.999999999999997335 ) ) ;
#262 = CARTESIAN_POINT ( 'NONE',  ( 60.75000000000000000, -29.00000000000000000, 2.000000000000000000 ) ) ;
#263 = DIRECTION ( 'NONE',  ( -0.9950371902099890420, -0.000000000000000000, -0.09950371902099885979 ) ) ;
#264 = VERTEX_POINT ( 'NONE', #405 ) ;
#265 = CARTESIAN_POINT ( 'NONE',  ( -10.75000000000000000, -3.750000000000003109, -2.999999999999994227 ) ) ;
#266 = CARTESIAN_POINT ( 'NONE',  ( 58.24999999999999289, -28.00000000000000000, 12.00000000000000000 ) ) ;
#267 = CARTESIAN_POINT ( 'NONE',  ( -6.451123013324813193, -28.60387617597072563, -9.549511380841281039 ) ) ;
#268 = ORIENTED_EDGE ( 'NONE', *, *, #500, .F. ) ;
#269 = CIRCLE ( 'NONE', #482, 2.000000000000001776 ) ;
#270 = FACE_OUTER_BOUND ( 'NONE', #553, .T. ) ;
#271 = FACE_OUTER_BOUND ( 'NONE', #811, .T. ) ;
#272 = CARTESIAN_POINT ( 'NONE',  ( -6.750000000000000888, 0.5000000000000000000, -2.999999999999997335 ) ) ;
#273 = VERTEX_POINT ( 'NONE', #647 ) ;
#274 = DIRECTION ( 'NONE',  ( -1.000000000000000000, 0.000000000000000000, 0.000000000000000000 ) ) ;
#275 = FACE_OUTER_BOUND ( 'NONE', #243, .T. ) ;
#276 = VERTEX_POINT ( 'NONE', #1084 ) ;
#277 = PLANE ( 'NONE',  #937 ) ;
#278 = FACE_OUTER_BOUND ( 'NONE', #490, .T. ) ;
#279 = CARTESIAN_POINT ( 'NONE',  ( -1.750000000000001554, 0.5000000000000000000, 2.000000000000000000 ) ) ;
#280 = CARTESIAN_POINT ( 'NONE',  ( 0.000000000000000000, 0.000000000000000000, 12.00000000000000000 ) ) ;
#281 = VECTOR ( 'NONE', #1003, 1000.000000000000000 ) ;
#282 = VERTEX_POINT ( 'NONE', #636 ) ;
#283 = EDGE_CURVE ( 'NONE', #1075, #290, #926, .T. ) ;
#284 = VECTOR ( 'NONE', #864, 1000.000000000000000 ) ;
#285 = CARTESIAN_POINT ( 'NONE',  ( 58.25000000000000000, -1.418212525974021551E-14, 11.50000000000000000 ) ) ;
#286 = DIRECTION ( 'NONE',  ( -0.000000000000000000, -1.000000000000000000, -0.000000000000000000 ) ) ;
#287 = ORIENTED_EDGE ( 'NONE', *, *, #140, .F. ) ;
#288 = CIRCLE ( 'NONE', #113, 10.00000000000000000 ) ;
#289 = CARTESIAN_POINT ( 'NONE',  ( 57.75000000000000000, 0.5000000000000000000, 11.50000000000000000 ) ) ;
#290 = VERTEX_POINT ( 'NONE', #312 ) ;
#291 = ADVANCED_FACE ( 'NONE', ( #987 ), #1004, .F. ) ;
#292 = FACE_OUTER_BOUND ( 'NONE', #223, .T. ) ;
#293 = DIRECTION ( 'NONE',  ( -1.000000000000000000, -1.734723475976806848E-16, 0.000000000000000000 ) ) ;
#294 = LINE ( 'NONE', #777, #8 ) ;
#295 = DIRECTION ( 'NONE',  ( -0.9950371902099890420, 0.000000000000000000, -0.09950371902099885979 ) ) ;
#296 = ORIENTED_EDGE ( 'NONE', *, *, #988, .T. ) ;
#297 = EDGE_CURVE ( 'NONE', #920, #554, #73, .T. ) ;
#298 = EDGE_LOOP ( 'NONE', ( #356, #611, #792, #705 ) ) ;
#299 = DIRECTION ( 'NONE',  ( 1.000000000000000000, -2.434699615406045218E-16, 0.000000000000000000 ) ) ;
#300 = CARTESIAN_POINT ( 'NONE',  ( 57.75000000000000000, 0.5000000000000000000, 2.000000000000000000 ) ) ;
#301 = DIRECTION ( 'NONE',  ( -0.000000000000000000, -0.000000000000000000, 1.000000000000000000 ) ) ;
#302 = DIRECTION ( 'NONE',  ( 0.000000000000000000, 0.000000000000000000, 1.000000000000000000 ) ) ;
#303 = ORIENTED_EDGE ( 'NONE', *, *, #862, .F. ) ;
#304 = VECTOR ( 'NONE', #544, 1000.000000000000000 ) ;
#305 = DIRECTION ( 'NONE',  ( 0.7071067811865456854, 1.244412048322734905E-16, -0.7071067811865493491 ) ) ;
#306 = DIRECTION ( 'NONE',  ( -1.000000000000000000, 0.000000000000000000, 0.000000000000000000 ) ) ;
#307 = EDGE_CURVE ( 'NONE', #18, #767, #740, .T. ) ;
#308 = EDGE_LOOP ( 'NONE', ( #164, #1036, #287, #418 ) ) ;
#309 = VECTOR ( 'NONE', #1094, 1000.000000000000000 ) ;
#310 = CIRCLE ( 'NONE', #985, 2.000000000000001776 ) ;
#311 = DIRECTION ( 'NONE',  ( 1.000000000000000000, 0.000000000000000000, 0.000000000000000000 ) ) ;
#312 = CARTESIAN_POINT ( 'NONE',  ( -10.74999999999999645, -21.75000000000000355, -2.999999999999992006 ) ) ;
#313 = VECTOR ( 'NONE', #483, 1000.000000000000000 ) ;
#314 = EDGE_CURVE ( 'NONE', #659, #523, #62, .T. ) ;
#315 = ORIENTED_EDGE ( 'NONE', *, *, #725, .F. ) ;
#316 = PRODUCT_DEFINITION_CONTEXT ( 'detailed design', #788, 'design' ) ;
#317 = ORIENTED_EDGE ( 'NONE', *, *, #762, .T. ) ;
#318 = AXIS2_PLACEMENT_3D ( 'NONE', #353, #93, #336 ) ;
#319 = PRODUCT_RELATED_PRODUCT_CATEGORY ( 'part', '', ( #163 ) ) ;
#320 = DIRECTION ( 'NONE',  ( 0.000000000000000000, 1.000000000000000000, 0.000000000000000000 ) ) ;
#321 = DIRECTION ( 'NONE',  ( -1.759864395918500001E-16, 1.000000000000000000, -1.759864395918498830E-17 ) ) ;
#322 = EDGE_LOOP ( 'NONE', ( #911, #580, #846, #586 ) ) ;
#323 = ORIENTED_EDGE ( 'NONE', *, *, #63, .F. ) ;
#324 = CARTESIAN_POINT ( 'NONE',  ( -10.75000000000000000, -1.750000000000002887, -2.999999999999994227 ) ) ;
#325 = CARTESIAN_POINT ( 'NONE',  ( 57.74999999999999289, -28.00000000000000000, 11.50000000000000000 ) ) ;
#326 = CARTESIAN_POINT ( 'NONE',  ( -10.74999999999999645, -23.75000000000000355, -2.999999999999992006 ) ) ;
#327 = EDGE_LOOP ( 'NONE', ( #1005, #76, #362, #87 ) ) ;
#328 = VERTEX_POINT ( 'NONE', #991 ) ;
#329 =( BOUNDED_CURVE ( )  B_SPLINE_CURVE ( 3, ( #670, #1020, #3, #85 ),
 .UNSPECIFIED., .F., .F. ) 
 B_SPLINE_CURVE_WITH_KNOTS ( ( 4, 4 ),
 ( 1.570796326794896558, 3.141592653589793116 ),
 .UNSPECIFIED. ) 
 CURVE ( )  GEOMETRIC_REPRESENTATION_ITEM ( )  RATIONAL_B_SPLINE_CURVE ( ( 1.000000000000000000, 0.8047378541243649375, 0.8047378541243649375, 1.000000000000000000 ) ) 
 REPRESENTATION_ITEM ( '' )  );
#330 = EDGE_CURVE ( 'NONE', #660, #659, #833, .T. ) ;
#331 = CARTESIAN_POINT ( 'NONE',  ( -4.338276791885184558, 3.181395582314108683, -5.523579602882832340 ) ) ;
#332 = CARTESIAN_POINT ( 'NONE',  ( -1.750000000000001554, 0.5000000000000000000, 11.50000000000000000 ) ) ;
#333 = VERTEX_POINT ( 'NONE', #913 ) ;
#334 = EDGE_CURVE ( 'NONE', #946, #752, #905, .T. ) ;
#335 = EDGE_LOOP ( 'NONE', ( #1081, #397, #6, #535, #121, #557 ) ) ;
#336 = DIRECTION ( 'NONE',  ( 0.000000000000000000, 1.000000000000000000, 0.000000000000000000 ) ) ;
#337 = FACE_OUTER_BOUND ( 'NONE', #218, .T. ) ;
#338 = VERTEX_POINT ( 'NONE', #493 ) ;
#339 = VERTEX_POINT ( 'NONE', #142 ) ;
#340 = ADVANCED_FACE ( 'NONE', ( #724 ), #1008, .T. ) ;
#341 = DIRECTION ( 'NONE',  ( 3.469446951953616161E-16, 0.000000000000000000, 1.000000000000000000 ) ) ;
#342 = VECTOR ( 'NONE', #599, 1000.000000000000000 ) ;
#343 = VERTEX_POINT ( 'NONE', #721 ) ;
#344 = VECTOR ( 'NONE', #124, 1000.000000000000000 ) ;
#345 = FACE_OUTER_BOUND ( 'NONE', #401, .T. ) ;
#346 = DIRECTION ( 'NONE',  ( 3.469446951953616161E-16, 0.000000000000000000, 1.000000000000000000 ) ) ;
#347 = VERTEX_POINT ( 'NONE', #484 ) ;
#348 = FACE_OUTER_BOUND ( 'NONE', #994, .T. ) ;
#349 = DIRECTION ( 'NONE',  ( -0.000000000000000000, -1.000000000000000000, -0.000000000000000000 ) ) ;
#350 = AXIS2_PLACEMENT_3D ( 'NONE', #285, #1040, #122 ) ;
#351 = LINE ( 'NONE', #91, #779 ) ;
#352 = ORIENTED_EDGE ( 'NONE', *, *, #71, .T. ) ;
#353 = CARTESIAN_POINT ( 'NONE',  ( -10.75000000000000000, -3.750000000000003109, -2.999999999999994227 ) ) ;
#354 = CARTESIAN_POINT ( 'NONE',  ( -6.749999999999999112, 3.500000000000000000, 2.000000000000000000 ) ) ;
#355 = VERTEX_POINT ( 'NONE', #162 ) ;
#356 = ORIENTED_EDGE ( 'NONE', *, *, #981, .F. ) ;
#357 = VECTOR ( 'NONE', #923, 1000.000000000000000 ) ;
#358 = ADVANCED_FACE ( 'NONE', ( #497 ), #479, .T. ) ;
#359 = CARTESIAN_POINT ( 'NONE',  ( -1.750000000000001554, 0.5000000000000000000, 2.000000000000000000 ) ) ;
#360 = DIRECTION ( 'NONE',  ( -2.434699615406045218E-16, -1.000000000000000000, 0.000000000000000000 ) ) ;
#361 = LINE ( 'NONE', #422, #837 ) ;
#362 = ORIENTED_EDGE ( 'NONE', *, *, #744, .T. ) ;
#363 = ADVANCED_FACE ( 'NONE', ( #154 ), #578, .F. ) ;
#364 = FACE_OUTER_BOUND ( 'NONE', #472, .T. ) ;
#365 = LINE ( 'NONE', #300, #1099 ) ;
#366 = PLANE ( 'NONE',  #437 ) ;
#367 = CARTESIAN_POINT ( 'NONE',  ( 3.249999999999999556, 0.5000000000000000000, -12.04987562112088817 ) ) ;
#368 = PRODUCT_DEFINITION_FORMATION_WITH_SPECIFIED_SOURCE ( 'ANY', '', #163, .NOT_KNOWN. ) ;
#369 = ORIENTED_EDGE ( 'NONE', *, *, #712, .F. ) ;
#370 = DIRECTION ( 'NONE',  ( 1.000000000000000000, 0.000000000000000000, 5.233505283660965088E-32 ) ) ;
#371 = DIRECTION ( 'NONE',  ( -1.000000000000000000, -1.734723475976806848E-16, 0.000000000000000000 ) ) ;
#372 = DIRECTION ( 'NONE',  ( -1.000000000000000000, 0.000000000000000000, 0.000000000000000000 ) ) ;
#373 = CARTESIAN_POINT ( 'NONE',  ( 3.250000000000004885, -28.00000000000000000, -12.04987562112088639 ) ) ;
#374 = EDGE_CURVE ( 'NONE', #888, #596, #410, .T. ) ;
#375 = ORIENTED_EDGE ( 'NONE', *, *, #1061, .T. ) ;
#376 = DIRECTION ( 'NONE',  ( 0.000000000000000000, 0.000000000000000000, -1.000000000000000000 ) ) ;
#377 = CARTESIAN_POINT ( 'NONE',  ( -2.250000000000008438, -28.50000000000000000, 12.00000000000000000 ) ) ;
#378 = DIRECTION ( 'NONE',  ( 1.000000000000000000, 1.759864395918499754E-16, -7.326907397125353313E-32 ) ) ;
#379 = DIRECTION ( 'NONE',  ( 0.000000000000000000, 0.000000000000000000, -1.000000000000000000 ) ) ;
#380 = ORIENTED_EDGE ( 'NONE', *, *, #565, .F. ) ;
#381 = EDGE_CURVE ( 'NONE', #31, #355, #37, .T. ) ;
#382 = LINE ( 'NONE', #781, #457 ) ;
#383 = PLANE ( 'NONE',  #672 ) ;
#384 = VECTOR ( 'NONE', #1072, 1000.000000000000000 ) ;
#385 = DIRECTION ( 'NONE',  ( 1.759864395918499261E-16, -1.000000000000000000, 3.016910393003141873E-16 ) ) ;
#386 = ORIENTED_EDGE ( 'NONE', *, *, #1088, .T. ) ;
#387 = ORIENTED_EDGE ( 'NONE', *, *, #227, .T. ) ;
#388 = EDGE_CURVE ( 'NONE', #767, #264, #736, .T. ) ;
#389 = DIRECTION ( 'NONE',  ( -1.759864395918499754E-16, 1.000000000000000000, 0.000000000000000000 ) ) ;
#390 = LINE ( 'NONE', #527, #871 ) ;
#391 = ORIENTED_EDGE ( 'NONE', *, *, #536, .F. ) ;
#392 = APPLICATION_PROTOCOL_DEFINITION ( 'draft international standard', 'automotive_design', 1998, #788 ) ;
#393 = VECTOR ( 'NONE', #966, 1000.000000000000000 ) ;
#394 = CARTESIAN_POINT ( 'NONE',  ( -6.749999999999995559, -23.75000000000000355, -2.999999999999992006 ) ) ;
#395 = DIRECTION ( 'NONE',  ( -2.434699615406045218E-16, -1.000000000000000000, 0.000000000000000000 ) ) ;
#396 = ORIENTED_EDGE ( 'NONE', *, *, #307, .T. ) ;
#397 = ORIENTED_EDGE ( 'NONE', *, *, #461, .F. ) ;
#398 = ADVANCED_FACE ( 'NONE', ( #271 ), #765, .F. ) ;
#399 = LINE ( 'NONE', #325, #612 ) ;
#400 = CARTESIAN_POINT ( 'NONE',  ( 3.250000000000000444, 3.598944578649427360E-16, -12.04987562112088639 ) ) ;
#401 = EDGE_LOOP ( 'NONE', ( #1016, #193, #1012, #887, #758, #242, #649, #893, #296, #930 ) ) ;
#402 = ORIENTED_EDGE ( 'NONE', *, *, #664, .T. ) ;
#403 = VECTOR ( 'NONE', #32, 1000.000000000000227 ) ;
#404 = DIRECTION ( 'NONE',  ( 0.000000000000000000, -0.000000000000000000, 1.000000000000000000 ) ) ;
#405 = CARTESIAN_POINT ( 'NONE',  ( -10.74999999999999645, -31.00000000000000355, 8.000000000000024869 ) ) ;
#406 = ORIENTED_EDGE ( 'NONE', *, *, #7, .T. ) ;
#407 = ADVANCED_FACE ( 'NONE', ( #94 ), #1101, .T. ) ;
#408 = ORIENTED_EDGE ( 'NONE', *, *, #103, .T. ) ;
#409 = DIRECTION ( 'NONE',  ( 0.000000000000000000, -1.000000000000000000, 0.000000000000000000 ) ) ;
#410 = LINE ( 'NONE', #815, #412 ) ;
#411 = ORIENTED_EDGE ( 'NONE', *, *, #56, .F. ) ;
#412 = VECTOR ( 'NONE', #55, 1000.000000000000000 ) ;
#413 = VERTEX_POINT ( 'NONE', #434 ) ;
#414 = CIRCLE ( 'NONE', #726, 2.000000000000001776 ) ;
#415 = CARTESIAN_POINT ( 'NONE',  ( -5.700971761244450597, 2.451178980774561644, -7.529940465805247563 ) ) ;
#416 = CARTESIAN_POINT ( 'NONE',  ( -1.750000000000001554, 0.5000000000000000000, 2.000000000000000000 ) ) ;
#417 = ORIENTED_EDGE ( 'NONE', *, *, #63, .T. ) ;
#418 = ORIENTED_EDGE ( 'NONE', *, *, #744, .F. ) ;
#419 = ADVANCED_FACE ( 'NONE', ( #345 ), #755, .T. ) ;
#420 = DIRECTION ( 'NONE',  ( 0.000000000000000000, 1.000000000000000000, 0.000000000000000000 ) ) ;
#421 = DIRECTION ( 'NONE',  ( -1.734723475976807094E-16, 1.000000000000000000, 0.000000000000000000 ) ) ;
#422 = CARTESIAN_POINT ( 'NONE',  ( 60.75000000000000711, 3.500000000000000000, 12.00000000000000000 ) ) ;
#423 = ORIENTED_EDGE ( 'NONE', *, *, #698, .T. ) ;
#424 = DIRECTION ( 'NONE',  ( 1.000000000000000000, 0.000000000000000000, 0.000000000000000000 ) ) ;
#425 = LINE ( 'NONE', #262, #200 ) ;
#426 = DIRECTION ( 'NONE',  ( -1.000000000000000000, -1.734723475976806848E-16, 0.000000000000000000 ) ) ;
#427 = ORIENTED_EDGE ( 'NONE', *, *, #140, .T. ) ;
#428 = EDGE_CURVE ( 'NONE', #471, #826, #515, .T. ) ;
#429 = DIRECTION ( 'NONE',  ( 0.000000000000000000, 1.000000000000000000, 0.000000000000000000 ) ) ;
#430 = CARTESIAN_POINT ( 'NONE',  ( -6.749999999999997335, -13.75000000000000178, -2.999999999999993339 ) ) ;
#431 = ORIENTED_EDGE ( 'NONE', *, *, #388, .F. ) ;
#432 = ORIENTED_EDGE ( 'NONE', *, *, #29, .T. ) ;
#433 = DIRECTION ( 'NONE',  ( -1.000000000000000000, -1.734723475976806848E-16, 0.000000000000000000 ) ) ;
#434 = CARTESIAN_POINT ( 'NONE',  ( 43.25000000000000711, 3.500000000000000000, 2.000000000000000000 ) ) ;
#435 =( BOUNDED_CURVE ( )  B_SPLINE_CURVE ( 3, ( #885, #1057, #1053, #130 ),
 .UNSPECIFIED., .F., .T. ) 
 B_SPLINE_CURVE_WITH_KNOTS ( ( 4, 4 ),
 ( 0.000000000000000000, 1.570796326794896558 ),
 .UNSPECIFIED. ) 
 CURVE ( )  GEOMETRIC_REPRESENTATION_ITEM ( )  RATIONAL_B_SPLINE_CURVE ( ( 1.000000000000000000, 0.8047378541243649375, 0.8047378541243649375, 1.000000000000000000 ) ) 
 REPRESENTATION_ITEM ( '' )  );
#436 = CARTESIAN_POINT ( 'NONE',  ( -6.749999999999999112, -1.750000000000001998, -2.999999999999994227 ) ) ;
#437 = AXIS2_PLACEMENT_3D ( 'NONE', #703, #378, #389 ) ;
#438 = ORIENTED_EDGE ( 'NONE', *, *, #185, .T. ) ;
#439 = EDGE_CURVE ( 'NONE', #596, #677, #190, .T. ) ;
#440 = CARTESIAN_POINT ( 'NONE',  ( -10.75000000000000000, -1.881797857635710030E-15, 4.945662493059613541E-31 ) ) ;
#441 = CARTESIAN_POINT ( 'NONE',  ( 57.74999999999999289, -28.00000000000000000, 11.50000000000000000 ) ) ;
#442 = DIRECTION ( 'NONE',  ( -5.233505283660965088E-32, 3.016910393003141873E-16, 1.000000000000000000 ) ) ;
#443 = EDGE_LOOP ( 'NONE', ( #1092, #36, #955, #816, #592, #475 ) ) ;
#444 = AXIS2_PLACEMENT_3D ( 'NONE', #886, #125, #302 ) ;
#445 = CARTESIAN_POINT ( 'NONE',  ( -6.749999999999997335, -11.75000000000000178, -2.999999999999993339 ) ) ;
#446 = CARTESIAN_POINT ( 'NONE',  ( 57.75000000000000000, 0.5000000000000000000, 2.000000000000000000 ) ) ;
#447 = AXIS2_PLACEMENT_3D ( 'NONE', #663, #583, #79 ) ;
#448 = CARTESIAN_POINT ( 'NONE',  ( -6.566202387539746610, 0.5000000000000015543, -10.14142842854284687 ) ) ;
#449 = VERTEX_POINT ( 'NONE', #416 ) ;
#450 = MECHANICAL_DESIGN_GEOMETRIC_PRESENTATION_REPRESENTATION (  '', ( #208 ), #453 ) ;
#451 = AXIS2_PLACEMENT_3D ( 'NONE', #170, #11, #181 ) ;
#452 = APPLICATION_PROTOCOL_DEFINITION ( 'draft international standard', 'automotive_design', 1998, #895 ) ;
#453 =( GEOMETRIC_REPRESENTATION_CONTEXT ( 3 ) GLOBAL_UNCERTAINTY_ASSIGNED_CONTEXT ( ( #817 ) ) GLOBAL_UNIT_ASSIGNED_CONTEXT ( ( #1093, #519, #847 ) ) REPRESENTATION_CONTEXT ( 'NONE', 'WORKASPACE' ) );
#454 = EDGE_CURVE ( 'NONE', #619, #727, #251, .T. ) ;
#455 = LINE ( 'NONE', #446, #622 ) ;
#456 = FACE_BOUND ( 'NONE', #919, .T. ) ;
#457 = VECTOR ( 'NONE', #978, 1000.000000000000000 ) ;
#458 = EDGE_LOOP ( 'NONE', ( #924, #268, #369, #902 ) ) ;
#459 = LINE ( 'NONE', #105, #97 ) ;
#460 = LINE ( 'NONE', #108, #1058 ) ;
#461 = EDGE_CURVE ( 'NONE', #992, #328, #746, .T. ) ;
#462 = CARTESIAN_POINT ( 'NONE',  ( 2.254962809790013623, -28.00000000000000000, -2.099503719020996417 ) ) ;
#463 = ADVANCED_FACE ( 'NONE', ( #337 ), #89, .T. ) ;
#464 = VERTEX_POINT ( 'NONE', #674 ) ;
#465 = ORIENTED_EDGE ( 'NONE', *, *, #630, .F. ) ;
#466 =( NAMED_UNIT ( * ) PLANE_ANGLE_UNIT ( ) SI_UNIT ( $, .RADIAN. ) );
#467 = EDGE_CURVE ( 'NONE', #328, #464, #288, .T. ) ;
#468 = DIRECTION ( 'NONE',  ( -0.000000000000000000, 0.000000000000000000, -1.000000000000000000 ) ) ;
#469 = DIRECTION ( 'NONE',  ( 0.000000000000000000, -0.000000000000000000, 1.000000000000000000 ) ) ;
#470 = LINE ( 'NONE', #798, #393 ) ;
#471 = VERTEX_POINT ( 'NONE', #934 ) ;
#472 = EDGE_LOOP ( 'NONE', ( #317, #742, #943, #800 ) ) ;
#473 = DIRECTION ( 'NONE',  ( 1.000000000000000000, 1.734723475976806848E-16, -0.000000000000000000 ) ) ;
#474 = LINE ( 'NONE', #614, #853 ) ;
#475 = ORIENTED_EDGE ( 'NONE', *, *, #29, .F. ) ;
#476 = EDGE_CURVE ( 'NONE', #167, #601, #257, .T. ) ;
#477 = AXIS2_PLACEMENT_3D ( 'NONE', #965, #697, #209 ) ;
#478 = DIRECTION ( 'NONE',  ( 1.000000000000000000, -0.000000000000000000, -0.000000000000000000 ) ) ;
#479 = CYLINDRICAL_SURFACE ( 'NONE', #1002, 0.5000000000000000000 ) ;
#480 = ORIENTED_EDGE ( 'NONE', *, *, #136, .F. ) ;
#481 = EDGE_CURVE ( 'NONE', #677, #752, #329, .T. ) ;
#482 = AXIS2_PLACEMENT_3D ( 'NONE', #40, #538, #27 ) ;
#483 = DIRECTION ( 'NONE',  ( 0.000000000000000000, 0.000000000000000000, 1.000000000000000000 ) ) ;
#484 = CARTESIAN_POINT ( 'NONE',  ( -1.750000000000008438, -28.00000000000000000, 11.50000000000000000 ) ) ;
#485 = ORIENTED_EDGE ( 'NONE', *, *, #283, .F. ) ;
#486 = EDGE_LOOP ( 'NONE', ( #581, #188, #204, #386 ) ) ;
#487 = CARTESIAN_POINT ( 'NONE',  ( 60.75000000000000711, 1.499999999999999556, 2.000000000000000000 ) ) ;
#488 = FACE_OUTER_BOUND ( 'NONE', #1098, .T. ) ;
#489 = EDGE_CURVE ( 'NONE', #601, #167, #239, .T. ) ;
#490 = EDGE_LOOP ( 'NONE', ( #74, #402, #606, #967 ) ) ;
#491 = ORIENTED_EDGE ( 'NONE', *, *, #215, .T. ) ;
#492 = DIRECTION ( 'NONE',  ( -1.759864395918499754E-16, 1.000000000000000000, 0.000000000000000000 ) ) ;
#493 = CARTESIAN_POINT ( 'NONE',  ( -1.750000000000008438, -28.00000000000000000, 2.000000000000000000 ) ) ;
#494 = ORIENTED_EDGE ( 'NONE', *, *, #843, .F. ) ;
#495 = VERTEX_POINT ( 'NONE', #174 ) ;
#496 = CARTESIAN_POINT ( 'NONE',  ( -10.74999999999999645, -20.99999999999999645, -2.999999999999993339 ) ) ;
#497 = FACE_OUTER_BOUND ( 'NONE', #733, .T. ) ;
#498 = ORIENTED_EDGE ( 'NONE', *, *, #843, .T. ) ;
#499 = ORIENTED_EDGE ( 'NONE', *, *, #940, .F. ) ;
#500 = EDGE_CURVE ( 'NONE', #495, #509, #425, .T. ) ;
#501 = DIRECTION ( 'NONE',  ( -1.000000000000000000, -0.000000000000000000, -5.233505283660965088E-32 ) ) ;
#502 = DIRECTION ( 'NONE',  ( 0.000000000000000000, -1.000000000000000000, 3.016910393003141873E-16 ) ) ;
#503 = ORIENTED_EDGE ( 'NONE', *, *, #428, .T. ) ;
#504 = EDGE_CURVE ( 'NONE', #999, #992, #984, .T. ) ;
#505 = PLANE ( 'NONE',  #229 ) ;
#506 = DIRECTION ( 'NONE',  ( -1.000000000000000000, -1.759864395918499754E-16, 7.326907397125353313E-32 ) ) ;
#507 = DIRECTION ( 'NONE',  ( -0.000000000000000000, 4.163336342344337027E-16, 1.000000000000000000 ) ) ;
#508 = PRODUCT_DEFINITION ( 'UNKNOWN', '', #368, #316 ) ;
#509 = VERTEX_POINT ( 'NONE', #681 ) ;
#510 = LINE ( 'NONE', #1013, #679 ) ;
#511 = CARTESIAN_POINT ( 'NONE',  ( 0.000000000000000000, 0.000000000000000000, 2.000000000000000000 ) ) ;
#512 = CARTESIAN_POINT ( 'NONE',  ( -10.75000000000000000, 3.499999999999997780, -13.00000000000000178 ) ) ;
#513 = ORIENTED_EDGE ( 'NONE', *, *, #172, .F. ) ;
#514 = AXIS2_PLACEMENT_3D ( 'NONE', #280, #379, #197 ) ;
#515 = LINE ( 'NONE', #354, #169 ) ;
#516 = EDGE_CURVE ( 'NONE', #282, #888, #1028, .T. ) ;
#517 = CARTESIAN_POINT ( 'NONE',  ( -10.74999999999999822, -15.75000000000000355, -2.999999999999992895 ) ) ;
#518 = ORIENTED_EDGE ( 'NONE', *, *, #597, .F. ) ;
#519 =( NAMED_UNIT ( * ) PLANE_ANGLE_UNIT ( ) SI_UNIT ( $, .RADIAN. ) );
#520 = EDGE_CURVE ( 'NONE', #509, #842, #1034, .T. ) ;
#521 = DIRECTION ( 'NONE',  ( 1.000000000000000000, 1.734723475976806848E-16, -0.000000000000000000 ) ) ;
#522 = CARTESIAN_POINT ( 'NONE',  ( -6.750000000000000888, 3.499999999999998668, -13.00000000000000178 ) ) ;
#523 = VERTEX_POINT ( 'NONE', #207 ) ;
#524 = CYLINDRICAL_SURFACE ( 'NONE', #822, 2.000000000000000000 ) ;
#525 = LINE ( 'NONE', #714, #651 ) ;
#526 = CARTESIAN_POINT ( 'NONE',  ( 3.249999999999999556, 0.5000000000000016653, -12.04987562112088817 ) ) ;
#527 = CARTESIAN_POINT ( 'NONE',  ( -1.750000000000001554, 0.5000000000000000000, 2.000000000000000000 ) ) ;
#528 = ORIENTED_EDGE ( 'NONE', *, *, #77, .F. ) ;
#529 = VECTOR ( 'NONE', #225, 1000.000000000000000 ) ;
#530 = EDGE_CURVE ( 'NONE', #52, #999, #525, .T. ) ;
#531 = DIRECTION ( 'NONE',  ( -1.759864395918500001E-16, 1.000000000000000000, -1.759864395918499138E-17 ) ) ;
#532 = CIRCLE ( 'NONE', #569, 1.999999999999999556 ) ;
#533 = FACE_BOUND ( 'NONE', #799, .T. ) ;
#534 = CARTESIAN_POINT ( 'NONE',  ( 57.74999999999999289, -28.00000000000000000, 11.50000000000000000 ) ) ;
#535 = ORIENTED_EDGE ( 'NONE', *, *, #1069, .F. ) ;
#536 = EDGE_CURVE ( 'NONE', #727, #333, #269, .T. ) ;
#537 = DIRECTION ( 'NONE',  ( -1.000000000000000000, 2.011273595335428079E-16, 0.000000000000000000 ) ) ;
#538 = DIRECTION ( 'NONE',  ( -0.000000000000000000, 0.000000000000000000, -1.000000000000000000 ) ) ;
#539 = CARTESIAN_POINT ( 'NONE',  ( -6.750000000000005329, -28.00000000000000000, -10.14142842854284154 ) ) ;
#540 = DIRECTION ( 'NONE',  ( 0.000000000000000000, 1.000000000000000000, 0.000000000000000000 ) ) ;
#541 = ORIENTED_EDGE ( 'NONE', *, *, #796, .T. ) ;
#542 =( LENGTH_UNIT ( ) NAMED_UNIT ( * ) SI_UNIT ( .MILLI., .METRE. ) );
#543 = FACE_OUTER_BOUND ( 'NONE', #627, .T. ) ;
#544 = DIRECTION ( 'NONE',  ( -2.434699615406045218E-16, -1.000000000000000000, 0.000000000000000000 ) ) ;
#545 = ORIENTED_EDGE ( 'NONE', *, *, #439, .T. ) ;
#546 = CARTESIAN_POINT ( 'NONE',  ( 57.75000000000000000, 0.5000000000000000000, 2.000000000000000000 ) ) ;
#547 = DIRECTION ( 'NONE',  ( 0.000000000000000000, 1.000000000000000000, 0.000000000000000000 ) ) ;
#548 = CARTESIAN_POINT ( 'NONE',  ( 60.75000000000000000, -31.00000000000000000, -2.999999999999993339 ) ) ;
#549 = AXIS2_PLACEMENT_3D ( 'NONE', #1074, #997, #234 ) ;
#550 = CARTESIAN_POINT ( 'NONE',  ( 58.75000000000000711, 3.500000000000000000, 2.000000000000000000 ) ) ;
#551 = DIRECTION ( 'NONE',  ( 0.000000000000000000, -1.000000000000000000, 0.000000000000000000 ) ) ;
#552 = EDGE_CURVE ( 'NONE', #120, #920, #365, .T. ) ;
#553 = EDGE_LOOP ( 'NONE', ( #126, #633, #914, #1022 ) ) ;
#554 = VERTEX_POINT ( 'NONE', #441 ) ;
#555 = DIRECTION ( 'NONE',  ( -1.734723475976807094E-16, 1.000000000000000000, 0.000000000000000000 ) ) ;
#556 = DIRECTION ( 'NONE',  ( -1.000000000000000000, -1.734723475976806848E-16, 0.000000000000000000 ) ) ;
#557 = ORIENTED_EDGE ( 'NONE', *, *, #114, .F. ) ;
#558 = AXIS2_PLACEMENT_3D ( 'NONE', #971, #537, #786 ) ;
#559 = VECTOR ( 'NONE', #420, 1000.000000000000000 ) ;
#560 = CARTESIAN_POINT ( 'NONE',  ( -6.566202387539746610, 0.5000000000000015543, -10.14142842854284687 ) ) ;
#561 = DIRECTION ( 'NONE',  ( -1.000000000000000000, -0.000000000000000000, -0.000000000000000000 ) ) ;
#562 = EDGE_LOOP ( 'NONE', ( #465, #574 ) ) ;
#563 = VECTOR ( 'NONE', #996, 1000.000000000000000 ) ;
#564 = ORIENTED_EDGE ( 'NONE', *, *, #597, .T. ) ;
#565 = EDGE_CURVE ( 'NONE', #738, #568, #701, .T. ) ;
#566 = FACE_OUTER_BOUND ( 'NONE', #962, .T. ) ;
#567 = CARTESIAN_POINT ( 'NONE',  ( -10.75000000000000000, -5.750000000000003553, -2.999999999999993783 ) ) ;
#568 = VERTEX_POINT ( 'NONE', #875 ) ;
#569 = AXIS2_PLACEMENT_3D ( 'NONE', #626, #960, #551 ) ;
#570 = EDGE_LOOP ( 'NONE', ( #431, #772, #81, #518 ) ) ;
#571 = EDGE_CURVE ( 'NONE', #282, #946, #807, .T. ) ;
#572 = CARTESIAN_POINT ( 'NONE',  ( -1.775200701521678193, 3.500000000000000888, -3.362365569531593046 ) ) ;
#573 = DIRECTION ( 'NONE',  ( 0.000000000000000000, -1.000000000000000000, 0.000000000000000000 ) ) ;
#574 = ORIENTED_EDGE ( 'NONE', *, *, #381, .F. ) ;
#575 = ORIENTED_EDGE ( 'NONE', *, *, #571, .F. ) ;
#576 = VECTOR ( 'NONE', #953, 1000.000000000000000 ) ;
#577 = CARTESIAN_POINT ( 'NONE',  ( -5.326984106743361203, 2.758798590390245664, -6.842914957458240188 ) ) ;
#578 = PLANE ( 'NONE',  #110 ) ;
#579 = EDGE_CURVE ( 'NONE', #826, #449, #116, .T. ) ;
#580 = ORIENTED_EDGE ( 'NONE', *, *, #374, .F. ) ;
#581 = ORIENTED_EDGE ( 'NONE', *, *, #974, .T. ) ;
#582 = FILL_AREA_STYLE_COLOUR ( '', #676 ) ;
#583 = DIRECTION ( 'NONE',  ( 0.000000000000000000, -1.000000000000000000, -0.000000000000000000 ) ) ;
#584 = LINE ( 'NONE', #1102, #112 ) ;
#585 = EDGE_CURVE ( 'NONE', #523, #64, #1066, .T. ) ;
#586 = ORIENTED_EDGE ( 'NONE', *, *, #874, .F. ) ;
#587 = CLOSED_SHELL ( 'NONE', ( #1001, #938, #891, #419, #340, #718, #152, #1095, #644, #260, #650, #963, #1082, #463, #827, #166, #1031, #98, #398, #732, #1015, #407, #1076, #931, #363, #868, #358, #236, #950, #1050, #791, #291 ) ) ;
#588 = DIRECTION ( 'NONE',  ( 0.000000000000000000, 1.000000000000000000, 0.000000000000000000 ) ) ;
#589 = DIRECTION ( 'NONE',  ( 0.000000000000000000, -1.000000000000000000, 0.000000000000000000 ) ) ;
#590 = DIRECTION ( 'NONE',  ( -1.000000000000000000, -1.734723475976806848E-16, 0.000000000000000000 ) ) ;
#591 = VECTOR ( 'NONE', #311, 1000.000000000000000 ) ;
#592 = ORIENTED_EDGE ( 'NONE', *, *, #832, .T. ) ;
#593 = DIRECTION ( 'NONE',  ( -0.9950371902099890420, 0.000000000000000000, -0.09950371902099885979 ) ) ;
#594 = DIRECTION ( 'NONE',  ( -0.000000000000000000, -0.000000000000000000, -1.000000000000000000 ) ) ;
#595 = CARTESIAN_POINT ( 'NONE',  ( -10.74999999999999645, -21.75000000000000355, -2.999999999999992006 ) ) ;
#596 = VERTEX_POINT ( 'NONE', #377 ) ;
#597 = EDGE_CURVE ( 'NONE', #264, #343, #624, .T. ) ;
#598 = DIRECTION ( 'NONE',  ( 0.000000000000000000, -1.000000000000000000, 0.000000000000000000 ) ) ;
#599 = DIRECTION ( 'NONE',  ( -2.434699615406045218E-16, -1.000000000000000000, 0.000000000000000000 ) ) ;
#600 = DIRECTION ( 'NONE',  ( 0.000000000000000000, -1.000000000000000000, 0.000000000000000000 ) ) ;
#601 = VERTEX_POINT ( 'NONE', #445 ) ;
#602 = CYLINDRICAL_SURFACE ( 'NONE', #318, 2.000000000000000000 ) ;
#603 = CARTESIAN_POINT ( 'NONE',  ( 60.75000000000000000, -20.99999999999999645, -2.999999999999993339 ) ) ;
#604 = VECTOR ( 'NONE', #501, 1000.000000000000000 ) ;
#605 = CARTESIAN_POINT ( 'NONE',  ( -6.749999999999999112, 3.500000000000000000, 12.00000000000000000 ) ) ;
#606 = ORIENTED_EDGE ( 'NONE', *, *, #796, .F. ) ;
#607 = CARTESIAN_POINT ( 'NONE',  ( -6.750000000000005329, -28.00000000000000000, -10.14142842854284154 ) ) ;
#608 = CYLINDRICAL_SURFACE ( 'NONE', #477, 2.000000000000001776 ) ;
#609 = CARTESIAN_POINT ( 'NONE',  ( 57.74999999999997868, -27.99999999999999289, 11.79289321881344854 ) ) ;
#610 = EDGE_CURVE ( 'NONE', #906, #763, #1052, .T. ) ;
#611 = ORIENTED_EDGE ( 'NONE', *, *, #283, .T. ) ;
#612 = VECTOR ( 'NONE', #478, 1000.000000000000000 ) ;
#613 = FACE_OUTER_BOUND ( 'NONE', #149, .T. ) ;
#614 = CARTESIAN_POINT ( 'NONE',  ( 57.75000000000000000, 0.5000000000000000000, 2.000000000000000000 ) ) ;
#615 = B_SPLINE_CURVE_WITH_KNOTS ( 'NONE', 3,
 ( #671, #267, #935, #252, #766, #86, #751, #849, #1035, #682, #856, #757, #692, #860, #951, #95, #929, #1096 ),
 .UNSPECIFIED., .F., .F.,
 ( 4, 2, 2, 2, 2, 2, 2, 2, 4 ),
 ( -0.005389539201253549031, -0.002869630869141153763, -0.001609676703084955696, -0.0003497225370287576282, 0.0002802545459993418392, 0.0009102316290274404392, 0.002170185795083637639, 0.003430139961139834839, 0.004690094127196032039 ),
 .UNSPECIFIED. ) ;
#616 = LINE ( 'NONE', #898, #643 ) ;
#617 = CARTESIAN_POINT ( 'NONE',  ( -10.74999999999999822, -15.75000000000000355, -2.999999999999992895 ) ) ;
#618 = CARTESIAN_POINT ( 'NONE',  ( 43.25000000000000711, -31.00000000000000000, 2.000000000000000000 ) ) ;
#619 = VERTEX_POINT ( 'NONE', #972 ) ;
#620 =( BOUNDED_CURVE ( )  B_SPLINE_CURVE ( 3, ( #534, #609, #892, #1043 ),
 .UNSPECIFIED., .F., .T. ) 
 B_SPLINE_CURVE_WITH_KNOTS ( ( 4, 4 ),
 ( 0.000000000000000000, 1.570796326794896558 ),
 .UNSPECIFIED. ) 
 CURVE ( )  GEOMETRIC_REPRESENTATION_ITEM ( )  RATIONAL_B_SPLINE_CURVE ( ( 1.000000000000000000, 0.8047378541243649375, 0.8047378541243649375, 1.000000000000000000 ) ) 
 REPRESENTATION_ITEM ( '' )  );
#621 = DIRECTION ( 'NONE',  ( 2.434699615406045218E-16, 1.000000000000000000, -0.000000000000000000 ) ) ;
#622 = VECTOR ( 'NONE', #240, 1000.000000000000000 ) ;
#623 = DIRECTION ( 'NONE',  ( -1.000000000000000000, 0.000000000000000000, 0.000000000000000000 ) ) ;
#624 = LINE ( 'NONE', #708, #201 ) ;
#625 = FACE_BOUND ( 'NONE', #1038, .T. ) ;
#626 = CARTESIAN_POINT ( 'NONE',  ( -6.749999999999999112, -3.750000000000002220, -2.999999999999994227 ) ) ;
#627 = EDGE_LOOP ( 'NONE', ( #748, #160, #134, #182, #212, #722, #111, #998 ) ) ;
#628 = DIRECTION ( 'NONE',  ( 2.434699615406045218E-16, 1.000000000000000000, 0.000000000000000000 ) ) ;
#629 = CARTESIAN_POINT ( 'NONE',  ( 57.95710678118655323, 0.7071067811865474617, 12.00000000000000000 ) ) ;
#630 = EDGE_CURVE ( 'NONE', #355, #31, #1019, .T. ) ;
#631 = CARTESIAN_POINT ( 'NONE',  ( -1.750000000000008438, -28.00000000000000000, 2.000000000000000000 ) ) ;
#632 = LINE ( 'NONE', #804, #829 ) ;
#633 = ORIENTED_EDGE ( 'NONE', *, *, #981, .T. ) ;
#634 = CIRCLE ( 'NONE', #1064, 10.00000000000000000 ) ;
#635 = FACE_OUTER_BOUND ( 'NONE', #1060, .T. ) ;
#636 = CARTESIAN_POINT ( 'NONE',  ( 58.25000000000000000, 1.000000000000000000, 12.00000000000000000 ) ) ;
#637 = AXIS2_PLACEMENT_3D ( 'NONE', #512, #442, #502 ) ;
#638 = ORIENTED_EDGE ( 'NONE', *, *, #334, .F. ) ;
#639 = DIRECTION ( 'NONE',  ( 0.000000000000000000, 0.000000000000000000, 1.000000000000000000 ) ) ;
#640 = CARTESIAN_POINT ( 'NONE',  ( -2.484838112878102301, 3.481565029830631097, -3.814451054262061103 ) ) ;
#641 = DIRECTION ( 'NONE',  ( 0.000000000000000000, -1.000000000000000000, 0.000000000000000000 ) ) ;
#642 = ORIENTED_EDGE ( 'NONE', *, *, #565, .T. ) ;
#643 = VECTOR ( 'NONE', #370, 1000.000000000000000 ) ;
#644 = ADVANCED_FACE ( 'NONE', ( #543 ), #696, .F. ) ;
#645 = VERTEX_POINT ( 'NONE', #15 ) ;
#646 = DIRECTION ( 'NONE',  ( -1.734723475976807094E-16, 1.000000000000000000, 0.000000000000000000 ) ) ;
#647 = CARTESIAN_POINT ( 'NONE',  ( -6.749999999999995559, -21.75000000000000355, -2.999999999999992006 ) ) ;
#648 = ORIENTED_EDGE ( 'NONE', *, *, #756, .F. ) ;
#649 = ORIENTED_EDGE ( 'NONE', *, *, #970, .T. ) ;
#650 = ADVANCED_FACE ( 'NONE', ( #278 ), #383, .T. ) ;
#651 = VECTOR ( 'NONE', #531, 1000.000000000000000 ) ;
#652 = LINE ( 'NONE', #824, #281 ) ;
#653 = DIRECTION ( 'NONE',  ( -1.000000000000000000, -1.734723475976806848E-16, 0.000000000000000000 ) ) ;
#654 = ORIENTED_EDGE ( 'NONE', *, *, #145, .T. ) ;
#655 = ORIENTED_EDGE ( 'NONE', *, *, #454, .F. ) ;
#656 = AXIS2_PLACEMENT_3D ( 'NONE', #603, #855, #184 ) ;
#657 = CARTESIAN_POINT ( 'NONE',  ( 58.75000000000000000, -31.00000000000000000, 2.000000000000000000 ) ) ;
#658 = CARTESIAN_POINT ( 'NONE',  ( 0.000000000000000000, 0.000000000000000000, 2.000000000000000000 ) ) ;
#659 = VERTEX_POINT ( 'NONE', #802 ) ;
#660 = VERTEX_POINT ( 'NONE', #324 ) ;
#661 = VECTOR ( 'NONE', #473, 1000.000000000000000 ) ;
#662 = CARTESIAN_POINT ( 'NONE',  ( 0.000000000000000000, -28.50000000000000000, 11.50000000000000000 ) ) ;
#663 = CARTESIAN_POINT ( 'NONE',  ( 57.75000000000000000, 0.5000000000000000000, 2.000000000000000000 ) ) ;
#664 = EDGE_CURVE ( 'NONE', #554, #946, #879, .T. ) ;
#665 = ORIENTED_EDGE ( 'NONE', *, *, #874, .T. ) ;
#666 = CARTESIAN_POINT ( 'NONE',  ( 0.000000000000000000, 0.000000000000000000, 0.000000000000000000 ) ) ;
#667 = ORIENTED_EDGE ( 'NONE', *, *, #476, .T. ) ;
#668 = EDGE_CURVE ( 'NONE', #338, #347, #969, .T. ) ;
#669 = VECTOR ( 'NONE', #385, 1000.000000000000000 ) ;
#670 = CARTESIAN_POINT ( 'NONE',  ( -2.250000000000001776, 1.000000000000000000, 12.00000000000000000 ) ) ;
#671 = CARTESIAN_POINT ( 'NONE',  ( -6.566202387539740393, -28.00000000000000000, -10.14142842854284154 ) ) ;
#672 = AXIS2_PLACEMENT_3D ( 'NONE', #546, #897, #135 ) ;
#673 = ORIENTED_EDGE ( 'NONE', *, *, #903, .T. ) ;
#674 = CARTESIAN_POINT ( 'NONE',  ( -10.75000000000000000, -6.500000000000004441, -12.99999999999999822 ) ) ;
#675 = CARTESIAN_POINT ( 'NONE',  ( 2.254962809790006961, 0.5000000000000000000, -2.099503719020997305 ) ) ;
#676 = COLOUR_RGB ( '',0.7921568627450980005, 0.8196078431372548767, 0.9333333333333333481 ) ;
#677 = VERTEX_POINT ( 'NONE', #28 ) ;
#678 = EDGE_CURVE ( 'NONE', #842, #177, #975, .T. ) ;
#679 = VECTOR ( 'NONE', #1089, 1000.000000000000000 ) ;
#680 = PLANE ( 'NONE',  #702 ) ;
#681 = CARTESIAN_POINT ( 'NONE',  ( 60.75000000000000000, -29.00000000000000000, 2.000000000000000000 ) ) ;
#682 = CARTESIAN_POINT ( 'NONE',  ( -4.333517131893839469, -30.67658212379758709, -5.528118312477065643 ) ) ;
#683 = ORIENTED_EDGE ( 'NONE', *, *, #454, .T. ) ;
#684 = SURFACE_SIDE_STYLE ('',( #2 ) ) ;
#685 = DIRECTION ( 'NONE',  ( 2.011273595335428326E-16, 1.000000000000000000, -0.000000000000000000 ) ) ;
#686 = AXIS2_PLACEMENT_3D ( 'NONE', #901, #138, #30 ) ;
#687 = LINE ( 'NONE', #258, #932 ) ;
#688 = ORIENTED_EDGE ( 'NONE', *, *, #691, .T. ) ;
#689 = VECTOR ( 'NONE', #263, 1000.000000000000227 ) ;
#690 = PLANE ( 'NONE',  #558 ) ;
#691 = EDGE_CURVE ( 'NONE', #31, #167, #709, .T. ) ;
#692 = CARTESIAN_POINT ( 'NONE',  ( -3.468115825072323410, -30.86985038997895714, -4.630778453769496927 ) ) ;
#693 = VECTOR ( 'NONE', #1025, 1000.000000000000000 ) ;
#694 = ORIENTED_EDGE ( 'NONE', *, *, #1044, .T. ) ;
#695 = CARTESIAN_POINT ( 'NONE',  ( -6.750000000000000888, 3.500000000000000000, -2.999999999999997335 ) ) ;
#696 = PLANE ( 'NONE',  #237 ) ;
#697 = DIRECTION ( 'NONE',  ( 1.000000000000000000, 1.734723475976806848E-16, -0.000000000000000000 ) ) ;
#698 = EDGE_CURVE ( 'NONE', #857, #495, #294, .T. ) ;
#699 = ORIENTED_EDGE ( 'NONE', *, *, #500, .T. ) ;
#700 = DIRECTION ( 'NONE',  ( -1.000000000000000000, 0.000000000000000000, 0.000000000000000000 ) ) ;
#701 = LINE ( 'NONE', #607, #148 ) ;
#702 = AXIS2_PLACEMENT_3D ( 'NONE', #173, #858, #1032 ) ;
#703 = CARTESIAN_POINT ( 'NONE',  ( -6.750000000000000000, -1.187908467244987390E-15, 4.945662493059613541E-31 ) ) ;
#704 = DIRECTION ( 'NONE',  ( 1.000000000000000000, 0.000000000000000000, 0.000000000000000000 ) ) ;
#705 = ORIENTED_EDGE ( 'NONE', *, *, #903, .F. ) ;
#706 = VECTOR ( 'NONE', #561, 1000.000000000000000 ) ;
#707 = CARTESIAN_POINT ( 'NONE',  ( -10.74999999999999645, -25.75000000000000711, -2.999999999999991562 ) ) ;
#708 = CARTESIAN_POINT ( 'NONE',  ( -10.75000000000000000, -1.881797857635710030E-15, 8.000000000000024869 ) ) ;
#709 = LINE ( 'NONE', #617, #961 ) ;
#710 = PLANE ( 'NONE',  #514 ) ;
#711 = EDGE_LOOP ( 'NONE', ( #352, #564, #438, #1080, #491, #1071 ) ) ;
#712 = EDGE_CURVE ( 'NONE', #139, #495, #46, .T. ) ;
#713 = LINE ( 'NONE', #695, #403 ) ;
#714 = CARTESIAN_POINT ( 'NONE',  ( 2.254962809790010958, 3.500000000000000888, -2.099503719020996861 ) ) ;
#715 = LINE ( 'NONE', #279, #719 ) ;
#716 = DIRECTION ( 'NONE',  ( 0.000000000000000000, 0.000000000000000000, -1.000000000000000000 ) ) ;
#717 = ORIENTED_EDGE ( 'NONE', *, *, #530, .F. ) ;
#718 = ADVANCED_FACE ( 'NONE', ( #625, #216, #533, #22 ), #366, .T. ) ;
#719 = VECTOR ( 'NONE', #301, 1000.000000000000000 ) ;
#720 = LINE ( 'NONE', #789, #661 ) ;
#721 = CARTESIAN_POINT ( 'NONE',  ( -10.75000000000000000, 3.500000000000000888, 8.000000000000024869 ) ) ;
#722 = ORIENTED_EDGE ( 'NONE', *, *, #974, .F. ) ;
#723 = DIRECTION ( 'NONE',  ( -1.000000000000000000, -1.734723475976806848E-16, 0.000000000000000000 ) ) ;
#724 = FACE_OUTER_BOUND ( 'NONE', #68, .T. ) ;
#725 = EDGE_CURVE ( 'NONE', #347, #596, #435, .T. ) ;
#726 = AXIS2_PLACEMENT_3D ( 'NONE', #845, #426, #600 ) ;
#727 = VERTEX_POINT ( 'NONE', #550 ) ;
#728 = ORIENTED_EDGE ( 'NONE', *, *, #185, .F. ) ;
#729 = PRESENTATION_LAYER_ASSIGNMENT (  '', '', ( #208 ) ) ;
#730 = CARTESIAN_POINT ( 'NONE',  ( -6.750000000000006217, -20.99999999999999645, -2.999999999999993339 ) ) ;
#731 = CARTESIAN_POINT ( 'NONE',  ( -2.250000000000001776, 5.478074134663606177E-16, 11.50000000000000000 ) ) ;
#732 = ADVANCED_FACE ( 'NONE', ( #890 ), #608, .F. ) ;
#733 = EDGE_LOOP ( 'NONE', ( #315, #1077, #925, #834 ) ) ;
#734 = ORIENTED_EDGE ( 'NONE', *, *, #530, .T. ) ;
#735 = CARTESIAN_POINT ( 'NONE',  ( -10.75000000000000000, -1.881797857635710030E-15, 8.000000000000024869 ) ) ;
#736 = LINE ( 'NONE', #1079, #794 ) ;
#737 = ORIENTED_EDGE ( 'NONE', *, *, #297, .F. ) ;
#738 = VERTEX_POINT ( 'NONE', #539 ) ;
#739 = CARTESIAN_POINT ( 'NONE',  ( -6.749999999999999112, -28.00000000000000000, 2.000000000000000000 ) ) ;
#740 = LINE ( 'NONE', #50, #357 ) ;
#741 = AXIS2_PLACEMENT_3D ( 'NONE', #230, #556, #573 ) ;
#742 = ORIENTED_EDGE ( 'NONE', *, *, #199, .T. ) ;
#743 = EDGE_LOOP ( 'NONE', ( #836, #667 ) ) ;
#744 = EDGE_CURVE ( 'NONE', #660, #64, #460, .T. ) ;
#745 = DIRECTION ( 'NONE',  ( 0.000000000000000000, 0.000000000000000000, -1.000000000000000000 ) ) ;
#746 = LINE ( 'NONE', #1090, #604 ) ;
#747 = ORIENTED_EDGE ( 'NONE', *, *, #832, .F. ) ;
#748 = ORIENTED_EDGE ( 'NONE', *, *, #1097, .T. ) ;
#749 = SURFACE_STYLE_USAGE ( .BOTH. , #684 ) ;
#750 = DIRECTION ( 'NONE',  ( 0.000000000000000000, -1.000000000000000000, 0.000000000000000000 ) ) ;
#751 = CARTESIAN_POINT ( 'NONE',  ( -5.085224001290542972, -30.37031227361855912, -6.509886285130998651 ) ) ;
#752 = VERTEX_POINT ( 'NONE', #900 ) ;
#753 = CIRCLE ( 'NONE', #1045, 10.00000000000000000 ) ;
#754 = LINE ( 'NONE', #261, #782 ) ;
#755 = PLANE ( 'NONE',  #151 ) ;
#756 = EDGE_CURVE ( 'NONE', #276, #339, #1042, .T. ) ;
#757 = CARTESIAN_POINT ( 'NONE',  ( -3.771177986149345518, -30.81943277302003992, -4.917168268246359553 ) ) ;
#758 = ORIENTED_EDGE ( 'NONE', *, *, #145, .F. ) ;
#759 = CYLINDRICAL_SURFACE ( 'NONE', #58, 0.5000000000000004441 ) ;
#760 = DIRECTION ( 'NONE',  ( -0.7071067811865493491, 0.000000000000000000, -0.7071067811865456854 ) ) ;
#761 = LINE ( 'NONE', #522, #693 ) ;
#762 = EDGE_CURVE ( 'NONE', #449, #752, #715, .T. ) ;
#763 = VERTEX_POINT ( 'NONE', #117 ) ;
#764 = FACE_OUTER_BOUND ( 'NONE', #327, .T. ) ;
#765 = CYLINDRICAL_SURFACE ( 'NONE', #17, 2.000000000000000000 ) ;
#766 = CARTESIAN_POINT ( 'NONE',  ( -5.678244192273139035, -29.92352349215433449, -7.528972588914467856 ) ) ;
#767 = VERTEX_POINT ( 'NONE', #866 ) ;
#768 = EDGE_CURVE ( 'NONE', #355, #601, #720, .T. ) ;
#769 = FACE_OUTER_BOUND ( 'NONE', #711, .T. ) ;
#770 = CARTESIAN_POINT ( 'NONE',  ( 60.75000000000000000, -31.00000000000000000, 2.000000000000000000 ) ) ;
#771 = CIRCLE ( 'NONE', #104, 9.999999999999998224 ) ;
#772 = ORIENTED_EDGE ( 'NONE', *, *, #307, .F. ) ;
#773 = ORIENTED_EDGE ( 'NONE', *, *, #664, .F. ) ;
#774 = EDGE_CURVE ( 'NONE', #857, #619, #247, .T. ) ;
#775 =( NAMED_UNIT ( * ) SI_UNIT ( $, .STERADIAN. ) SOLID_ANGLE_UNIT ( ) );
#776 = DIRECTION ( 'NONE',  ( 1.000000000000000000, -0.000000000000000000, 5.233505283660965088E-32 ) ) ;
#777 = CARTESIAN_POINT ( 'NONE',  ( 60.75000000000000711, 3.500000000000000000, 12.00000000000000000 ) ) ;
#778 = CARTESIAN_POINT ( 'NONE',  ( 58.75000000000000000, -31.00000000000000000, 12.00000000000000000 ) ) ;
#779 = VECTOR ( 'NONE', #341, 1000.000000000000000 ) ;
#780 = ORIENTED_EDGE ( 'NONE', *, *, #56, .T. ) ;
#781 = CARTESIAN_POINT ( 'NONE',  ( 43.25000000000000711, -28.00000000000000000, 2.000000000000000000 ) ) ;
#782 = VECTOR ( 'NONE', #593, 1000.000000000000227 ) ;
#783 = DIRECTION ( 'NONE',  ( 1.000000000000000000, 1.734723475976806848E-16, -0.000000000000000000 ) ) ;
#784 = CARTESIAN_POINT ( 'NONE',  ( -10.75000000000000000, 3.499999999999997780, -13.00000000000000178 ) ) ;
#785 = ORIENTED_EDGE ( 'NONE', *, *, #970, .F. ) ;
#786 = DIRECTION ( 'NONE',  ( -2.011273595335428079E-16, -1.000000000000000000, 0.000000000000000000 ) ) ;
#787 = CARTESIAN_POINT ( 'NONE',  ( 57.74999999999999289, 0.5000000000000000000, 11.79289321881344854 ) ) ;
#788 = APPLICATION_CONTEXT ( 'automotive_design' ) ;
#789 = CARTESIAN_POINT ( 'NONE',  ( -10.74999999999999822, -11.75000000000000178, -2.999999999999993339 ) ) ;
#790 = DIRECTION ( 'NONE',  ( 0.000000000000000000, 0.000000000000000000, 1.000000000000000000 ) ) ;
#791 = ADVANCED_FACE ( 'NONE', ( #613 ), #196, .F. ) ;
#792 = ORIENTED_EDGE ( 'NONE', *, *, #90, .T. ) ;
#793 = ORIENTED_EDGE ( 'NONE', *, *, #579, .F. ) ;
#794 = VECTOR ( 'NONE', #760, 1000.000000000000000 ) ;
#795 = CARTESIAN_POINT ( 'NONE',  ( -10.75000000000000000, -3.750000000000003109, -2.999999999999994227 ) ) ;
#796 = EDGE_CURVE ( 'NONE', #120, #946, #455, .T. ) ;
#797 = DIRECTION ( 'NONE',  ( 1.000000000000000000, 1.734723475976806848E-16, -0.000000000000000000 ) ) ;
#798 = CARTESIAN_POINT ( 'NONE',  ( -10.75000000000000000, 3.500000000000001332, 12.00000000000000000 ) ) ;
#799 = EDGE_LOOP ( 'NONE', ( #408, #673 ) ) ;
#800 = ORIENTED_EDGE ( 'NONE', *, *, #136, .T. ) ;
#801 = CIRCLE ( 'NONE', #23, 10.00000000000000000 ) ;
#802 = CARTESIAN_POINT ( 'NONE',  ( -10.75000000000000000, -5.750000000000003553, -2.999999999999993783 ) ) ;
#803 = DIRECTION ( 'NONE',  ( 0.000000000000000000, -0.000000000000000000, 1.000000000000000000 ) ) ;
#804 = CARTESIAN_POINT ( 'NONE',  ( 2.254962809790020728, -28.00000000000000000, -2.099503719020995973 ) ) ;
#805 = EDGE_LOOP ( 'NONE', ( #65, #485 ) ) ;
#806 = EDGE_CURVE ( 'NONE', #471, #338, #904, .T. ) ;
#807 =( BOUNDED_CURVE ( )  B_SPLINE_CURVE ( 3, ( #123, #629, #787, #106 ),
 .UNSPECIFIED., .F., .T. ) 
 B_SPLINE_CURVE_WITH_KNOTS ( ( 4, 4 ),
 ( 1.570796326794896558, 3.141592653589793116 ),
 .UNSPECIFIED. ) 
 CURVE ( )  GEOMETRIC_REPRESENTATION_ITEM ( )  RATIONAL_B_SPLINE_CURVE ( ( 1.000000000000000000, 0.8047378541243649375, 0.8047378541243649375, 1.000000000000000000 ) ) 
 REPRESENTATION_ITEM ( '' )  );
#808 = DIRECTION ( 'NONE',  ( 1.000000000000000000, 0.000000000000000000, 0.000000000000000000 ) ) ;
#809 = AXIS2_PLACEMENT_3D ( 'NONE', #1007, #66, #320 ) ;
#810 = DIRECTION ( 'NONE',  ( 1.000000000000000000, 1.734723475976806848E-16, -0.000000000000000000 ) ) ;
#811 = EDGE_LOOP ( 'NONE', ( #915, #231, #952, #1085 ) ) ;
#812 = AXIS2_PLACEMENT_3D ( 'NONE', #941, #349, #180 ) ;
#813 = VECTOR ( 'NONE', #621, 1000.000000000000000 ) ;
#814 = LINE ( 'NONE', #1078, #591 ) ;
#815 = CARTESIAN_POINT ( 'NONE',  ( -1.750000000000008438, -28.50000000000000000, 12.00000000000000000 ) ) ;
#816 = ORIENTED_EDGE ( 'NONE', *, *, #7, .F. ) ;
#817 = UNCERTAINTY_MEASURE_WITH_UNIT (LENGTH_MEASURE( 1.000000000000000082E-05 ), #1093, 'distance_accuracy_value', 'NONE');
#818 = EDGE_LOOP ( 'NONE', ( #432, #232, #1065, #870 ) ) ;
#819 = CARTESIAN_POINT ( 'NONE',  ( -6.508713893193806221, 0.8016694552327544576, -9.845733217457446784 ) ) ;
#820 = CARTESIAN_POINT ( 'NONE',  ( 60.75000000000000711, 3.500000000000000000, 2.000000000000000000 ) ) ;
#821 = ORIENTED_EDGE ( 'NONE', *, *, #988, .F. ) ;
#822 = AXIS2_PLACEMENT_3D ( 'NONE', #795, #881, #547 ) ;
#823 = EDGE_LOOP ( 'NONE', ( #391, #655, #947, #494 ) ) ;
#824 = CARTESIAN_POINT ( 'NONE',  ( 58.75000000000000000, -31.00000000000000000, 2.000000000000000000 ) ) ;
#825 = DIRECTION ( 'NONE',  ( 0.000000000000000000, 0.000000000000000000, -1.000000000000000000 ) ) ;
#826 = VERTEX_POINT ( 'NONE', #49 ) ;
#827 = ADVANCED_FACE ( 'NONE', ( #1083 ), #912, .T. ) ;
#828 = ORIENTED_EDGE ( 'NONE', *, *, #481, .T. ) ;
#829 = VECTOR ( 'NONE', #321, 1000.000000000000000 ) ;
#830 = CARTESIAN_POINT ( 'NONE',  ( 57.74999999999999289, -28.00000000000000000, 2.000000000000000000 ) ) ;
#831 = DIRECTION ( 'NONE',  ( 0.000000000000000000, -1.000000000000000000, -0.000000000000000000 ) ) ;
#832 = EDGE_CURVE ( 'NONE', #738, #276, #801, .T. ) ;
#833 = CIRCLE ( 'NONE', #741, 2.000000000000000444 ) ;
#834 = ORIENTED_EDGE ( 'NONE', *, *, #439, .F. ) ;
#835 = DIRECTION ( 'NONE',  ( 1.000000000000000000, 0.000000000000000000, 0.000000000000000000 ) ) ;
#836 = ORIENTED_EDGE ( 'NONE', *, *, #489, .T. ) ;
#837 = VECTOR ( 'NONE', #5, 1000.000000000000000 ) ;
#838 = FACE_OUTER_BOUND ( 'NONE', #322, .T. ) ;
#839 = CARTESIAN_POINT ( 'NONE',  ( -10.74999999999999822, -6.500000000000000888, -2.999999999999997780 ) ) ;
#840 = CARTESIAN_POINT ( 'NONE',  ( -6.750000000000000000, 0.5000000000000004441, -10.14142842854284865 ) ) ;
#841 = UNCERTAINTY_MEASURE_WITH_UNIT (LENGTH_MEASURE( 1.000000000000000082E-05 ), #542, 'distance_accuracy_value', 'NONE');
#842 = VERTEX_POINT ( 'NONE', #657 ) ;
#843 = EDGE_CURVE ( 'NONE', #333, #857, #244, .T. ) ;
#844 = CARTESIAN_POINT ( 'NONE',  ( 60.75000000000000711, 3.500000000000000000, 2.000000000000000000 ) ) ;
#845 = CARTESIAN_POINT ( 'NONE',  ( -6.749999999999995559, -23.75000000000000355, -2.999999999999992006 ) ) ;
#846 = ORIENTED_EDGE ( 'NONE', *, *, #132, .F. ) ;
#847 =( NAMED_UNIT ( * ) SI_UNIT ( $, .STERADIAN. ) SOLID_ANGLE_UNIT ( ) );
#848 = CARTESIAN_POINT ( 'NONE',  ( -10.74999999999999822, -13.75000000000000178, -2.999999999999993339 ) ) ;
#849 = CARTESIAN_POINT ( 'NONE',  ( -4.724851695435227761, -30.53688688247384064, -6.013022079377744689 ) ) ;
#850 = VECTOR ( 'NONE', #45, 1000.000000000000000 ) ;
#851 = EDGE_CURVE ( 'NONE', #992, #133, #1000, .T. ) ;
#852 = ORIENTED_EDGE ( 'NONE', *, *, #504, .F. ) ;
#853 = VECTOR ( 'NONE', #867, 1000.000000000000000 ) ;
#854 = FACE_OUTER_BOUND ( 'NONE', #308, .T. ) ;
#855 = DIRECTION ( 'NONE',  ( 1.000000000000000000, -0.000000000000000000, 5.233505283660965088E-32 ) ) ;
#856 = CARTESIAN_POINT ( 'NONE',  ( -4.196588604054824145, -30.71580640748349822, -5.372194003546161944 ) ) ;
#857 = VERTEX_POINT ( 'NONE', #233 ) ;
#858 = DIRECTION ( 'NONE',  ( 0.09950371902099885979, 0.000000000000000000, -0.9950371902099891530 ) ) ;
#859 = CARTESIAN_POINT ( 'NONE',  ( -2.250000000000001776, 0.5000000000000001110, 12.00000000000000000 ) ) ;
#860 = CARTESIAN_POINT ( 'NONE',  ( -2.822948955868677778, -30.94366476357823714, -4.094036633490349075 ) ) ;
#861 = ORIENTED_EDGE ( 'NONE', *, *, #1069, .T. ) ;
#862 = EDGE_CURVE ( 'NONE', #677, #282, #814, .T. ) ;
#863 = FACE_OUTER_BOUND ( 'NONE', #1070, .T. ) ;
#864 = DIRECTION ( 'NONE',  ( 1.000000000000000000, 0.000000000000000000, 0.000000000000000000 ) ) ;
#865 = AXIS2_PLACEMENT_3D ( 'NONE', #820, #831, #158 ) ;
#866 = CARTESIAN_POINT ( 'NONE',  ( -6.749999999999992006, -31.00000000000000000, 12.00000000000000000 ) ) ;
#867 = DIRECTION ( 'NONE',  ( 1.000000000000000000, -0.000000000000000000, -0.000000000000000000 ) ) ;
#868 = ADVANCED_FACE ( 'NONE', ( #60 ), #54, .F. ) ;
#869 = VECTOR ( 'NONE', #776, 1000.000000000000000 ) ;
#870 = ORIENTED_EDGE ( 'NONE', *, *, #114, .T. ) ;
#871 = VECTOR ( 'NONE', #222, 1000.000000000000000 ) ;
#872 = AXIS2_PLACEMENT_3D ( 'NONE', #1024, #256, #589 ) ;
#873 = CARTESIAN_POINT ( 'NONE',  ( 2.254962809790013623, -31.00000000000000000, -2.099503719020996417 ) ) ;
#874 = EDGE_CURVE ( 'NONE', #347, #554, #399, .T. ) ;
#875 = CARTESIAN_POINT ( 'NONE',  ( -6.566202387539740393, -28.00000000000000000, -10.14142842854284154 ) ) ;
#876 = DIRECTION ( 'NONE',  ( 1.000000000000000000, 1.734723475976807094E-16, 0.000000000000000000 ) ) ;
#877 = CARTESIAN_POINT ( 'NONE',  ( -6.749999999999997335, -15.75000000000000355, -2.999999999999992895 ) ) ;
#878 = ORIENTED_EDGE ( 'NONE', *, *, #178, .F. ) ;
#879 = LINE ( 'NONE', #289, #813 ) ;
#880 = ORIENTED_EDGE ( 'NONE', *, *, #227, .F. ) ;
#881 = DIRECTION ( 'NONE',  ( 1.000000000000000000, 1.734723475976806848E-16, -0.000000000000000000 ) ) ;
#882 = DIRECTION ( 'NONE',  ( 1.000000000000000000, -0.000000000000000000, 5.233505283660965088E-32 ) ) ;
#883 = CIRCLE ( 'NONE', #80, 2.000000000000000444 ) ;
#884 = EDGE_CURVE ( 'NONE', #842, #139, #652, .T. ) ;
#885 = CARTESIAN_POINT ( 'NONE',  ( -1.750000000000008438, -28.00000000000000000, 11.50000000000000000 ) ) ;
#886 = CARTESIAN_POINT ( 'NONE',  ( 0.000000000000000000, 1.000000000000000000, 11.50000000000000000 ) ) ;
#887 = ORIENTED_EDGE ( 'NONE', *, *, #552, .F. ) ;
#888 = VERTEX_POINT ( 'NONE', #916 ) ;
#889 = DIRECTION ( 'NONE',  ( 0.000000000000000000, -0.000000000000000000, 1.000000000000000000 ) ) ;
#890 = FACE_OUTER_BOUND ( 'NONE', #298, .T. ) ;
#891 = ADVANCED_FACE ( 'NONE', ( #635 ), #986, .F. ) ;
#892 = CARTESIAN_POINT ( 'NONE',  ( 57.95710678118655323, -28.20710678118655323, 12.00000000000000000 ) ) ;
#893 = ORIENTED_EDGE ( 'NONE', *, *, #536, .T. ) ;
#894 = ORIENTED_EDGE ( 'NONE', *, *, #698, .F. ) ;
#895 = APPLICATION_CONTEXT ( 'automotive_design' ) ;
#896 = AXIS2_PLACEMENT_3D ( 'NONE', #658, #825, #306 ) ;
#897 = DIRECTION ( 'NONE',  ( -1.000000000000000000, 2.434699615406045218E-16, 0.000000000000000000 ) ) ;
#898 = CARTESIAN_POINT ( 'NONE',  ( -6.566202387539746610, 0.5000000000000015543, -10.14142842854284687 ) ) ;
#899 = VECTOR ( 'NONE', #1029, 1000.000000000000000 ) ;
#900 = CARTESIAN_POINT ( 'NONE',  ( -1.750000000000001554, 0.5000000000000000000, 11.50000000000000000 ) ) ;
#901 = CARTESIAN_POINT ( 'NONE',  ( 3.250000000000005773, -31.00000000000000000, -12.04987562112088639 ) ) ;
#902 = ORIENTED_EDGE ( 'NONE', *, *, #884, .F. ) ;
#903 = EDGE_CURVE ( 'NONE', #645, #273, #956, .T. ) ;
#904 = LINE ( 'NONE', #739, #384 ) ;
#905 = LINE ( 'NONE', #332, #706 ) ;
#906 = VERTEX_POINT ( 'NONE', #1067 ) ;
#907 = EDGE_CURVE ( 'NONE', #339, #906, #753, .T. ) ;
#908 = CARTESIAN_POINT ( 'NONE',  ( -6.434654883118697377, 1.079629323839436772, -9.535896658042879892 ) ) ;
#909 = DIRECTION ( 'NONE',  ( -0.09950371902099885979, 0.000000000000000000, 0.9950371902099891530 ) ) ;
#910 = ORIENTED_EDGE ( 'NONE', *, *, #516, .T. ) ;
#911 = ORIENTED_EDGE ( 'NONE', *, *, #725, .T. ) ;
#912 = CYLINDRICAL_SURFACE ( 'NONE', #210, 2.000000000000001776 ) ;
#913 = CARTESIAN_POINT ( 'NONE',  ( 60.75000000000000711, 1.499999999999999556, 2.000000000000000000 ) ) ;
#914 = ORIENTED_EDGE ( 'NONE', *, *, #103, .F. ) ;
#915 = ORIENTED_EDGE ( 'NONE', *, *, #691, .F. ) ;
#916 = CARTESIAN_POINT ( 'NONE',  ( 58.24999999999999289, -28.50000000000000000, 12.00000000000000000 ) ) ;
#917 = DIRECTION ( 'NONE',  ( 1.759864395918500247E-16, -1.000000000000000000, 1.759864395918499138E-17 ) ) ;
#918 = EDGE_CURVE ( 'NONE', #343, #18, #922, .T. ) ;
#919 = EDGE_LOOP ( 'NONE', ( #238, #910, #96, #545 ) ) ;
#920 = VERTEX_POINT ( 'NONE', #830 ) ;
#921 = AXIS2_PLACEMENT_3D ( 'NONE', #221, #469, #372 ) ;
#922 = LINE ( 'NONE', #161, #563 ) ;
#923 = DIRECTION ( 'NONE',  ( 1.759864395918499754E-16, -1.000000000000000000, 0.000000000000000000 ) ) ;
#924 = ORIENTED_EDGE ( 'NONE', *, *, #520, .F. ) ;
#925 = ORIENTED_EDGE ( 'NONE', *, *, #481, .F. ) ;
#926 = CIRCLE ( 'NONE', #165, 2.000000000000001776 ) ;
#927 = PRESENTATION_STYLE_ASSIGNMENT (( #749 ) ) ;
#928 = DIRECTION ( 'NONE',  ( 0.000000000000000000, 1.000000000000000000, 0.000000000000000000 ) ) ;
#929 = CARTESIAN_POINT ( 'NONE',  ( -1.390061107137541274, -30.99999999999998934, -3.181310011500117163 ) ) ;
#930 = ORIENTED_EDGE ( 'NONE', *, *, #520, .T. ) ;
#931 = ADVANCED_FACE ( 'NONE', ( #566 ), #680, .T. ) ;
#932 = VECTOR ( 'NONE', #507, 1000.000000000000000 ) ;
#933 = DIRECTION ( 'NONE',  ( 0.000000000000000000, -0.000000000000000000, 1.000000000000000000 ) ) ;
#934 = CARTESIAN_POINT ( 'NONE',  ( -6.749999999999999112, -28.00000000000000000, 2.000000000000000000 ) ) ;
#935 = CARTESIAN_POINT ( 'NONE',  ( -6.270730686824196987, -29.11201531008336474, -8.902540235095781185 ) ) ;
#936 = ORIENTED_EDGE ( 'NONE', *, *, #712, .T. ) ;
#937 = AXIS2_PLACEMENT_3D ( 'NONE', #359, #299, #628 ) ;
#938 = ADVANCED_FACE ( 'NONE', ( #270 ), #1100, .F. ) ;
#939 = CARTESIAN_POINT ( 'NONE',  ( -10.74999999999999645, -23.75000000000000355, -2.999999999999992006 ) ) ;
#940 = EDGE_CURVE ( 'NONE', #70, #413, #78, .T. ) ;
#941 = CARTESIAN_POINT ( 'NONE',  ( 3.249999999999999112, 3.500000000000000000, -12.04987562112088817 ) ) ;
#942 = CARTESIAN_POINT ( 'NONE',  ( 43.25000000000000711, 0.5000000000000000000, 2.000000000000000000 ) ) ;
#943 = ORIENTED_EDGE ( 'NONE', *, *, #668, .F. ) ;
#944 = CARTESIAN_POINT ( 'NONE',  ( 2.254962809790006961, 3.500000000000000000, -2.099503719020997305 ) ) ;
#945 = CARTESIAN_POINT ( 'NONE',  ( 58.75000000000000000, -28.99999999999999645, 2.000000000000000000 ) ) ;
#946 = VERTEX_POINT ( 'NONE', #250 ) ;
#947 = ORIENTED_EDGE ( 'NONE', *, *, #774, .F. ) ;
#948 = VECTOR ( 'NONE', #1014, 1000.000000000000000 ) ;
#949 = DIRECTION ( 'NONE',  ( -1.000000000000000000, 0.000000000000000000, 0.000000000000000000 ) ) ;
#950 = ADVANCED_FACE ( 'NONE', ( #838 ), #759, .T. ) ;
#951 = CARTESIAN_POINT ( 'NONE',  ( -2.478672944460103000, -30.96707604323805896, -3.842395111771351512 ) ) ;
#952 = ORIENTED_EDGE ( 'NONE', *, *, #768, .T. ) ;
#953 = DIRECTION ( 'NONE',  ( -1.000000000000000000, -0.000000000000000000, -5.233505283660965088E-32 ) ) ;
#954 = LINE ( 'NONE', #131, #255 ) ;
#955 = ORIENTED_EDGE ( 'NONE', *, *, #428, .F. ) ;
#956 = CIRCLE ( 'NONE', #144, 2.000000000000001776 ) ;
#957 = MANIFOLD_SOLID_BREP ( 'Fillet4', #587 ) ;
#958 = PLANE ( 'NONE',  #175 ) ;
#959 = AXIS2_PLACEMENT_3D ( 'NONE', #945, #468, #100 ) ;
#960 = DIRECTION ( 'NONE',  ( -1.000000000000000000, -1.734723475976806848E-16, 0.000000000000000000 ) ) ;
#961 = VECTOR ( 'NONE', #783, 1000.000000000000000 ) ;
#962 = EDGE_LOOP ( 'NONE', ( #1, #734, #57, #499 ) ) ;
#963 = ADVANCED_FACE ( 'NONE', ( #348 ), #505, .T. ) ;
#964 = FACE_BOUND ( 'NONE', #38, .T. ) ;
#965 = CARTESIAN_POINT ( 'NONE',  ( -10.74999999999999645, -23.75000000000000355, -2.999999999999992006 ) ) ;
#966 = DIRECTION ( 'NONE',  ( 0.000000000000000000, -1.387778780781445676E-16, -1.000000000000000000 ) ) ;
#967 = ORIENTED_EDGE ( 'NONE', *, *, #552, .T. ) ;
#968 = AXIS2_PLACEMENT_3D ( 'NONE', #526, #202, #876 ) ;
#969 = LINE ( 'NONE', #631, #344 ) ;
#970 = EDGE_CURVE ( 'NONE', #413, #727, #9, .T. ) ;
#971 = CARTESIAN_POINT ( 'NONE',  ( 60.75000000000000711, 3.500000000000000000, 2.000000000000000000 ) ) ;
#972 = CARTESIAN_POINT ( 'NONE',  ( 58.75000000000000711, 3.500000000000000000, 12.00000000000000000 ) ) ;
#973 = AXIS2_PLACEMENT_3D ( 'NONE', #1056, #39, #376 ) ;
#974 = EDGE_CURVE ( 'NONE', #177, #1030, #754, .T. ) ;
#975 = LINE ( 'NONE', #137, #850 ) ;
#976 = DIRECTION ( 'NONE',  ( 0.000000000000000000, 0.000000000000000000, 1.000000000000000000 ) ) ;
#977 = ORIENTED_EDGE ( 'NONE', *, *, #21, .F. ) ;
#978 = DIRECTION ( 'NONE',  ( 0.000000000000000000, -1.000000000000000000, 0.000000000000000000 ) ) ;
#979 = DIRECTION ( 'NONE',  ( 0.000000000000000000, 1.000000000000000000, 0.000000000000000000 ) ) ;
#980 = CARTESIAN_POINT ( 'NONE',  ( 57.75000000000000000, 0.5000000000000000000, 2.000000000000000000 ) ) ;
#981 = EDGE_CURVE ( 'NONE', #1075, #645, #510, .T. ) ;
#982 = VECTOR ( 'NONE', #810, 1000.000000000000000 ) ;
#983 = ORIENTED_EDGE ( 'NONE', *, *, #806, .F. ) ;
#984 = CIRCLE ( 'NONE', #812, 9.999999999999998224 ) ;
#985 = AXIS2_PLACEMENT_3D ( 'NONE', #186, #590, #16 ) ;
#986 = CYLINDRICAL_SURFACE ( 'NONE', #809, 2.000000000000000000 ) ;
#987 = FACE_OUTER_BOUND ( 'NONE', #83, .T. ) ;
#988 = EDGE_CURVE ( 'NONE', #333, #509, #88, .T. ) ;
#989 = ORIENTED_EDGE ( 'NONE', *, *, #630, .T. ) ;
#990 = CARTESIAN_POINT ( 'NONE',  ( -6.127498756726544649, 1.823482890253711242, -8.557033742749299066 ) ) ;
#991 = CARTESIAN_POINT ( 'NONE',  ( -10.75000000000000000, 3.499999999999999112, -2.999999999999997335 ) ) ;
#992 = VERTEX_POINT ( 'NONE', #1027 ) ;
#993 = AXIS2_PLACEMENT_3D ( 'NONE', #939, #99, #429 ) ;
#994 = EDGE_LOOP ( 'NONE', ( #150, #665, #737, #375, #259, #387, #380, #406, #143 ) ) ;
#995 = EDGE_CURVE ( 'NONE', #659, #660, #883, .T. ) ;
#996 = DIRECTION ( 'NONE',  ( 0.7071067811865493491, -0.000000000000000000, 0.7071067811865456854 ) ) ;
#997 = DIRECTION ( 'NONE',  ( -1.000000000000000000, -1.734723475976806848E-16, 0.000000000000000000 ) ) ;
#998 = ORIENTED_EDGE ( 'NONE', *, *, #884, .T. ) ;
#999 = VERTEX_POINT ( 'NONE', #944 ) ;
#1000 = B_SPLINE_CURVE_WITH_KNOTS ( 'NONE', 3,
 ( #72, #572, #640, #157, #153, #331, #1062, #577, #415, #990, #141, #908, #819, #560 ),
 .UNSPECIFIED., .F., .F.,
 ( 4, 2, 2, 2, 2, 2, 4 ),
 ( -0.005013318002461512879, -0.002492096064184085632, -0.001231485095045372225, 2.912587409334074784E-05, 0.002550347812370764092, 0.003810958781509471427, 0.005071569750648180497 ),
 .UNSPECIFIED. ) ;
#1001 = ADVANCED_FACE ( 'NONE', ( #854 ), #602, .F. ) ;
#1002 = AXIS2_PLACEMENT_3D ( 'NONE', #731, #395, #67 ) ;
#1003 = DIRECTION ( 'NONE',  ( 0.000000000000000000, -0.000000000000000000, 1.000000000000000000 ) ) ;
#1004 = CYLINDRICAL_SURFACE ( 'NONE', #51, 10.00000000000000178 ) ;
#1005 = ORIENTED_EDGE ( 'NONE', *, *, #314, .F. ) ;
#1006 = ORIENTED_EDGE ( 'NONE', *, *, #762, .F. ) ;
#1007 = CARTESIAN_POINT ( 'NONE',  ( -10.74999999999999822, -13.75000000000000178, -2.999999999999993339 ) ) ;
#1008 = PLANE ( 'NONE',  #896 ) ;
#1009 = ORIENTED_EDGE ( 'NONE', *, *, #489, .F. ) ;
#1010 =( GEOMETRIC_REPRESENTATION_CONTEXT ( 3 ) GLOBAL_UNCERTAINTY_ASSIGNED_CONTEXT ( ( #841 ) ) GLOBAL_UNIT_ASSIGNED_CONTEXT ( ( #542, #466, #775 ) ) REPRESENTATION_CONTEXT ( 'NONE', 'WORKASPACE' ) );
#1011 = PRODUCT_CONTEXT ( 'NONE', #895, 'mechanical' ) ;
#1012 = ORIENTED_EDGE ( 'NONE', *, *, #1061, .F. ) ;
#1013 = CARTESIAN_POINT ( 'NONE',  ( -10.74999999999999645, -25.75000000000000711, -2.999999999999991562 ) ) ;
#1014 = DIRECTION ( 'NONE',  ( 2.434699615406045218E-16, 1.000000000000000000, 0.000000000000000000 ) ) ;
#1015 = ADVANCED_FACE ( 'NONE', ( #764 ), #524, .F. ) ;
#1016 = ORIENTED_EDGE ( 'NONE', *, *, #678, .T. ) ;
#1017 = EDGE_LOOP ( 'NONE', ( #48, #648, #747, #642, #417, #249 ) ) ;
#1018 = CIRCLE ( 'NONE', #686, 10.00000000000000000 ) ;
#1019 = CIRCLE ( 'NONE', #53, 2.000000000000001776 ) ;
#1020 = CARTESIAN_POINT ( 'NONE',  ( -1.957106781186549016, 0.7071067811865474617, 12.00000000000000000 ) ) ;
#1021 = LINE ( 'NONE', #272, #689 ) ;
#1022 = ORIENTED_EDGE ( 'NONE', *, *, #90, .F. ) ;
#1023 = DIRECTION ( 'NONE',  ( 1.000000000000000000, -0.000000000000000000, -0.000000000000000000 ) ) ;
#1024 = CARTESIAN_POINT ( 'NONE',  ( -6.749999999999997335, -13.75000000000000178, -2.999999999999993339 ) ) ;
#1025 = DIRECTION ( 'NONE',  ( 1.759864395918499261E-16, -1.000000000000000000, 3.016910393003141873E-16 ) ) ;
#1026 = ORIENTED_EDGE ( 'NONE', *, *, #1097, .F. ) ;
#1027 = CARTESIAN_POINT ( 'NONE',  ( -1.004380241850961308, 3.500000000000000000, -2.999999999999997335 ) ) ;
#1028 = LINE ( 'NONE', #266, #342 ) ;
#1029 = DIRECTION ( 'NONE',  ( 1.000000000000000000, 1.734723475976806848E-16, -0.000000000000000000 ) ) ;
#1030 = VERTEX_POINT ( 'NONE', #873 ) ;
#1031 = ADVANCED_FACE ( 'NONE', ( #769, #128, #115, #964 ), #958, .F. ) ;
#1032 = DIRECTION ( 'NONE',  ( -0.9950371902099890420, 0.000000000000000000, -0.09950371902099884591 ) ) ;
#1033 = CARTESIAN_POINT ( 'NONE',  ( 58.75000000000000711, 3.500000000000000000, 2.000000000000000000 ) ) ;
#1034 = CIRCLE ( 'NONE', #959, 2.000000000000001776 ) ;
#1035 = CARTESIAN_POINT ( 'NONE',  ( -4.597508801363008324, -30.58722400627729954, -5.848290654750868178 ) ) ;
#1036 = ORIENTED_EDGE ( 'NONE', *, *, #314, .T. ) ;
#1037 = FACE_OUTER_BOUND ( 'NONE', #823, .T. ) ;
#1038 = EDGE_LOOP ( 'NONE', ( #427, #1091 ) ) ;
#1039 = VECTOR ( 'NONE', #183, 1000.000000000000000 ) ;
#1040 = DIRECTION ( 'NONE',  ( 2.434699615406045218E-16, 1.000000000000000000, 0.000000000000000000 ) ) ;
#1041 = CARTESIAN_POINT ( 'NONE',  ( -6.749999999999999112, 0.5000000000000000000, 2.000000000000000000 ) ) ;
#1042 = LINE ( 'NONE', #41, #576 ) ;
#1043 = CARTESIAN_POINT ( 'NONE',  ( 58.24999999999999289, -28.50000000000000000, 12.00000000000000000 ) ) ;
#1044 = EDGE_CURVE ( 'NONE', #413, #999, #713, .T. ) ;
#1045 = AXIS2_PLACEMENT_3D ( 'NONE', #496, #146, #646 ) ;
#1046 = FACE_OUTER_BOUND ( 'NONE', #335, .T. ) ;
#1047 = DIRECTION ( 'NONE',  ( -2.011273595335428326E-16, -1.000000000000000000, 0.000000000000000000 ) ) ;
#1048 = LINE ( 'NONE', #217, #304 ) ;
#1049 = ORIENTED_EDGE ( 'NONE', *, *, #851, .F. ) ;
#1050 = ADVANCED_FACE ( 'NONE', ( #863 ), #26, .T. ) ;
#1051 = CARTESIAN_POINT ( 'NONE',  ( 60.75000000000000000, -31.00000000000000000, 12.00000000000000000 ) ) ;
#1052 = LINE ( 'NONE', #548, #869 ) ;
#1053 = CARTESIAN_POINT ( 'NONE',  ( -1.957106781186556121, -28.20710678118655323, 12.00000000000000000 ) ) ;
#1054 = CARTESIAN_POINT ( 'NONE',  ( -6.750000000000000888, -28.00000000000000000, -2.999999999999997335 ) ) ;
#1055 = ORIENTED_EDGE ( 'NONE', *, *, #246, .F. ) ;
#1056 = CARTESIAN_POINT ( 'NONE',  ( -10.75000000000000000, -6.500000000000000888, -2.999999999999997780 ) ) ;
#1057 = CARTESIAN_POINT ( 'NONE',  ( -1.750000000000008438, -27.99999999999999289, 11.79289321881344854 ) ) ;
#1058 = VECTOR ( 'NONE', #797, 1000.000000000000000 ) ;
#1059 = FACE_OUTER_BOUND ( 'NONE', #155, .T. ) ;
#1060 = EDGE_LOOP ( 'NONE', ( #989, #688, #1009, #1087 ) ) ;
#1061 = EDGE_CURVE ( 'NONE', #920, #226, #459, .T. ) ;
#1062 = CARTESIAN_POINT ( 'NONE',  ( -4.602092140019941269, 3.093512027666719622, -5.843916955878132313 ) ) ;
#1063 = CARTESIAN_POINT ( 'NONE',  ( 57.74999999999999289, -28.00000000000000000, 2.000000000000000000 ) ) ;
#1064 = AXIS2_PLACEMENT_3D ( 'NONE', #373, #286, #790 ) ;
#1065 = ORIENTED_EDGE ( 'NONE', *, *, #215, .F. ) ;
#1066 = CIRCLE ( 'NONE', #107, 1.999999999999999556 ) ;
#1067 = CARTESIAN_POINT ( 'NONE',  ( -10.74999999999999645, -31.00000000000001066, -2.999999999999992450 ) ) ;
#1068 = CARTESIAN_POINT ( 'NONE',  ( -6.750000000000000888, -28.00000000000000000, -2.999999999999997335 ) ) ;
#1069 = EDGE_CURVE ( 'NONE', #102, #133, #616, .T. ) ;
#1070 = EDGE_LOOP ( 'NONE', ( #198, #773, #59, #12 ) ) ;
#1071 = ORIENTED_EDGE ( 'NONE', *, *, #907, .T. ) ;
#1072 = DIRECTION ( 'NONE',  ( 1.000000000000000000, 0.000000000000000000, 0.000000000000000000 ) ) ;
#1073 = VECTOR ( 'NONE', #623, 1000.000000000000000 ) ;
#1074 = CARTESIAN_POINT ( 'NONE',  ( -10.74999999999999822, -13.75000000000000178, -2.999999999999993339 ) ) ;
#1075 = VERTEX_POINT ( 'NONE', #707 ) ;
#1076 = ADVANCED_FACE ( 'NONE', ( #1046 ), #14, .T. ) ;
#1077 = ORIENTED_EDGE ( 'NONE', *, *, #199, .F. ) ;
#1078 = CARTESIAN_POINT ( 'NONE',  ( 57.75000000000000000, 1.000000000000000000, 12.00000000000000000 ) ) ;
#1079 = CARTESIAN_POINT ( 'NONE',  ( -10.74999999999999645, -31.00000000000000000, 8.000000000000021316 ) ) ;
#1080 = ORIENTED_EDGE ( 'NONE', *, *, #467, .T. ) ;
#1081 = ORIENTED_EDGE ( 'NONE', *, *, #467, .F. ) ;
#1082 = ADVANCED_FACE ( 'NONE', ( #364 ), #277, .T. ) ;
#1083 = FACE_OUTER_BOUND ( 'NONE', #458, .T. ) ;
#1084 = CARTESIAN_POINT ( 'NONE',  ( -6.749999999999996447, -21.00000000000000000, -12.99999999999999467 ) ) ;
#1085 = ORIENTED_EDGE ( 'NONE', *, *, #476, .F. ) ;
#1086 = ADVANCED_BREP_SHAPE_REPRESENTATION ( 'Voltage meter backet', ( #957, #61 ), #1010 ) ;
#1087 = ORIENTED_EDGE ( 'NONE', *, *, #768, .F. ) ;
#1088 = EDGE_CURVE ( 'NONE', #226, #177, #382, .T. ) ;
#1089 = DIRECTION ( 'NONE',  ( 1.000000000000000000, 1.734723475976806848E-16, -0.000000000000000000 ) ) ;
#1090 = CARTESIAN_POINT ( 'NONE',  ( 60.75000000000000711, 3.500000000000000000, -2.999999999999997335 ) ) ;
#1091 = ORIENTED_EDGE ( 'NONE', *, *, #585, .T. ) ;
#1092 = ORIENTED_EDGE ( 'NONE', *, *, #82, .T. ) ;
#1093 =( LENGTH_UNIT ( ) NAMED_UNIT ( * ) SI_UNIT ( .MILLI., .METRE. ) );
#1094 = DIRECTION ( 'NONE',  ( -0.000000000000000000, -0.000000000000000000, -1.000000000000000000 ) ) ;
#1095 = ADVANCED_FACE ( 'NONE', ( #292 ), #690, .F. ) ;
#1096 = CARTESIAN_POINT ( 'NONE',  ( -1.004380241850587385, -31.00000000000000000, -2.999999999999993339 ) ) ;
#1097 = EDGE_CURVE ( 'NONE', #139, #767, #213, .T. ) ;
#1098 = EDGE_LOOP ( 'NONE', ( #728, #43, #780, #683, #785, #694, #235, #25 ) ) ;
#1099 = VECTOR ( 'NONE', #360, 1000.000000000000000 ) ;
#1100 = CYLINDRICAL_SURFACE ( 'NONE', #993, 2.000000000000001776 ) ;
#1101 = CYLINDRICAL_SURFACE ( 'NONE', #656, 10.00000000000000178 ) ;
#1102 = CARTESIAN_POINT ( 'NONE',  ( -6.750000000000000888, -28.00000000000000000, -2.999999999999997335 ) ) ;
ENDSEC;
END-ISO-10303-21;
