  0
SECTION
  2
HEADER
  9
$ACADVER
  1
AC1015
  9
$ACADMAINTVER
 70
     6
  9
$DWGCODEPAGE
  3
ANSI_1252
  9
$INSBASE
 10
0.0
 20
0.0
 30
0.0
  9
$EXTMIN
 10
-66.6762700257
 20
299.0
 30
0.0
  9
$EXTMAX
 10
66.6762700257
 20
515.0
 30
0.0
  9
$LIMMIN
 10
0.0
 20
0.0
  9
$LIMMAX
 10
420.0
 20
297.0
  9
$ORTHOMODE
 70
     0
  9
$REGENMODE
 70
     1
  9
$FILLMODE
 70
     1
  9
$QTEXTMODE
 70
     0
  9
$MIRRTEXT
 70
     1
  9
$LTSCALE
 40
1.0
  9
$ATTMODE
 70
     1
  9
$TEXTSIZE
 40
3.5
  9
$TRACEWID
 40
1.0
  9
$TEXTSTYLE
  7
Standard
  9
$CLAYER
  8
0
  9
$CELTYPE
  6
ByLayer
  9
$CECOLOR
 62
   256
  9
$CELTSCALE
 40
1.0
  9
$DISPSILH
 70
     0
  9
$DIMSCALE
 40
1.0
  9
$DIMASZ
 40
3.302
  9
$DIMEXO
 40
0.0
  9
$DIMDLI
 40
3.75
  9
$DIMRND
 40
0.0
  9
$DIMDLE
 40
0.0
  9
$DIMEXE
 40
1.0
  9
$DIMTP
 40
0.0
  9
$DIMTM
 40
0.0
  9
$DIMTXT
 40
3.5
  9
$DIMCEN
 40
2.5
  9
$DIMTSZ
 40
0.0
  9
$DIMTOL
 70
     0
  9
$DIMLIM
 70
     0
  9
$DIMTIH
 70
     1
  9
$DIMTOH
 70
     1
  9
$DIMSE1
 70
     0
  9
$DIMSE2
 70
     0
  9
$DIMTAD
 70
     1
  9
$DIMZIN
 70
     1
  9
$DIMBLK
  1

  9
$DIMASO
 70
     1
  9
$DIMSHO
 70
     1
  9
$DIMPOST
  1

  9
$DIMAPOST
  1

  9
$DIMALT
 70
     0
  9
$DIMALTD
 70
     3
  9
$DIMALTF
 40
0.0393700787
  9
$DIMLFAC
 40
1.0
  9
$DIMTOFL
 70
     1
  9
$DIMTVP
 40
0.0
  9
$DIMTIX
 70
     0
  9
$DIMSOXD
 70
     0
  9
$DIMSAH
 70
     0
  9
$DIMBLK1
  1

  9
$DIMBLK2
  1

  9
$DIMSTYLE
  2
ISO-25
  9
$DIMCLRD
 70
     0
  9
$DIMCLRE
 70
     0
  9
$DIMCLRT
 70
     0
  9
$DIMTFAC
 40
1.0
  9
$DIMGAP
 40
1.524
  9
$DIMJUST
 70
     0
  9
$DIMSD1
 70
     0
  9
$DIMSD2
 70
     0
  9
$DIMTOLJ
 70
     0
  9
$DIMTZIN
 70
     1
  9
$DIMALTZ
 70
     0
  9
$DIMALTTZ
 70
     0
  9
$DIMUPT
 70
     0
  9
$DIMDEC
 70
     2
  9
$DIMTDEC
 70
     2
  9
$DIMALTU
 70
     2
  9
$DIMALTTD
 70
     3
  9
$DIMTXSTY
  7
Standard
  9
$DIMAUNIT
 70
     0
  9
$DIMADEC
 70
     2
  9
$DIMALTRND
 40
0.0
  9
$DIMAZIN
 70
     0
  9
$DIMDSEP
 70
    44
  9
$DIMATFIT
 70
     3
  9
$DIMFRAC
 70
     0
  9
$DIMLDRBLK
  1

  9
$DIMLUNIT
 70
     2
  9
$DIMLWD
 70
    -2
  9
$DIMLWE
 70
    -2
  9
$DIMTMOVE
 70
     0
  9
$LUNITS
 70
     2
  9
$LUPREC
 70
     2
  9
$SKETCHINC
 40
1.0
  9
$FILLETRAD
 40
0.0
  9
$AUNITS
 70
     0
  9
$AUPREC
 70
     2
  9
$MENU
  1
.
  9
$ELEVATION
 40
0.0
  9
$PELEVATION
 40
0.0
  9
$THICKNESS
 40
0.0
  9
$LIMCHECK
 70
     0
  9
$CHAMFERA
 40
0.0
  9
$CHAMFERB
 40
0.0
  9
$CHAMFERC
 40
0.0
  9
$CHAMFERD
 40
0.0
  9
$SKPOLY
 70
     0
  9
$TDCREATE
 40
2461140.375546227
  9
$TDUCREATE
 40
2461140.33387956
  9
$TDUPDATE
 40
2461140.375592824
  9
$TDUUPDATE
 40
2461140.333926158
  9
$TDINDWG
 40
0.0000000116
  9
$TDUSRTIMER
 40
0.0000000116
  9
$USRTIMER
 70
     1
  9
$ANGBASE
 50
0.0
  9
$ANGDIR
 70
     0
  9
$PDMODE
 70
     0
  9
$PDSIZE
 40
-1.0
  9
$PLINEWID
 40
0.0
  9
$SPLFRAME
 70
     0
  9
$SPLINETYPE
 70
     6
  9
$SPLINESEGS
 70
     8
  9
$HANDSEED
  5
91
  9
$SURFTAB1
 70
     6
  9
$SURFTAB2
 70
     6
  9
$SURFTYPE
 70
     6
  9
$SURFU
 70
     6
  9
$SURFV
 70
     6
  9
$UCSBASE
  2

  9
$UCSNAME
  2

  9
$UCSORG
 10
0.0
 20
0.0
 30
0.0
  9
$UCSXDIR
 10
1.0
 20
0.0
 30
0.0
  9
$UCSYDIR
 10
0.0
 20
1.0
 30
0.0
  9
$UCSORTHOREF
  2

  9
$UCSORTHOVIEW
 70
     0
  9
$UCSORGTOP
 10
0.0
 20
0.0
 30
0.0
  9
$UCSORGBOTTOM
 10
0.0
 20
0.0
 30
0.0
  9
$UCSORGLEFT
 10
0.0
 20
0.0
 30
0.0
  9
$UCSORGRIGHT
 10
0.0
 20
0.0
 30
0.0
  9
$UCSORGFRONT
 10
0.0
 20
0.0
 30
0.0
  9
$UCSORGBACK
 10
0.0
 20
0.0
 30
0.0
  9
$PUCSBASE
  2

  9
$PUCSNAME
  2

  9
$PUCSORG
 10
0.0
 20
0.0
 30
0.0
  9
$PUCSXDIR
 10
1.0
 20
0.0
 30
0.0
  9
$PUCSYDIR
 10
0.0
 20
1.0
 30
0.0
  9
$PUCSORTHOREF
  2

  9
$PUCSORTHOVIEW
 70
     0
  9
$PUCSORGTOP
 10
0.0
 20
0.0
 30
0.0
  9
$PUCSORGBOTTOM
 10
0.0
 20
0.0
 30
0.0
  9
$PUCSORGLEFT
 10
0.0
 20
0.0
 30
0.0
  9
$PUCSORGRIGHT
 10
0.0
 20
0.0
 30
0.0
  9
$PUCSORGFRONT
 10
0.0
 20
0.0
 30
0.0
  9
$PUCSORGBACK
 10
0.0
 20
0.0
 30
0.0
  9
$USERI1
 70
     0
  9
$USERI2
 70
     0
  9
$USERI3
 70
     0
  9
$USERI4
 70
     0
  9
$USERI5
 70
     0
  9
$USERR1
 40
0.0
  9
$USERR2
 40
0.0
  9
$USERR3
 40
0.0
  9
$USERR4
 40
0.0
  9
$USERR5
 40
0.0
  9
$WORLDVIEW
 70
     1
  9
$SHADEDGE
 70
     3
  9
$SHADEDIF
 70
    70
  9
$TILEMODE
 70
     1
  9
$MAXACTVP
 70
    64
  9
$PINSBASE
 10
0.0
 20
0.0
 30
0.0
  9
$PLIMCHECK
 70
     0
  9
$PEXTMIN
 10
1.0000000000E+20
 20
1.0000000000E+20
 30
1.0000000000E+20
  9
$PEXTMAX
 10
-1.0000000000E+20
 20
-1.0000000000E+20
 30
-1.0000000000E+20
  9
$PLIMMIN
 10
0.0
 20
0.0
  9
$PLIMMAX
 10
420.0
 20
297.0
  9
$UNITMODE
 70
     0
  9
$VISRETAIN
 70
     1
  9
$PLINEGEN
 70
     0
  9
$PSLTSCALE
 70
     1
  9
$TREEDEPTH
 70
  3020
  9
$CMLSTYLE
  2
Standard
  9
$CMLJUST
 70
     0
  9
$CMLSCALE
 40
20.0
  9
$PROXYGRAPHICS
 70
     1
  9
$MEASUREMENT
 70
     1
  9
$CELWEIGHT
370
    -1
  9
$ENDCAPS
280
     0
  9
$JOINSTYLE
280
     0
  9
$LWDISPLAY
290
     1
  9
$INSUNITS
 70
     4
  9
$HYPERLINKBASE
  1

  9
$STYLESHEET
  1

  9
$XEDIT
290
     1
  9
$CEPSNTYPE
380
     0
  9
$PSTYLEMODE
290
     1
  9
$FINGERPRINTGUID
  2
{efb793cb-302d-4525-8e57-0c9b1c190265}
  9
$VERSIONGUID
  2
{FAEB1C32-E019-11D5-929B-00C0DF256EC4}
  9
$EXTNAMES
290
     1
  9
$PSVPSCALE
 40
0.0
  9
$OLESTARTUP
290
     0
  0
ENDSEC
  0
SECTION
  2
CLASSES
  0
CLASS
  1
ACDBDICTIONARYWDFLT
  2
AcDbDictionaryWithDefault
  3
ObjectDBX Classes
 90
        0
280
     0
281
     0
  0
CLASS
  1
VISUALSTYLE
  2
AcDbVisualStyle
  3
ObjectDBX Classes
 90
     4095
280
     0
281
     0
  0
CLASS
  1
MATERIAL
  2
AcDbMaterial
  3
ObjectDBX Classes
 90
     1153
280
     0
281
     0
  0
CLASS
  1
SCALE
  2
AcDbScale
  3
ObjectDBX Classes
 90
     1153
280
     0
281
     0
  0
CLASS
  1
TABLESTYLE
  2
AcDbTableStyle
  3
ObjectDBX Classes
 90
     4095
280
     0
281
     0
  0
CLASS
  1
MLEADERSTYLE
  2
AcDbMLeaderStyle
  3
ACDB_MLEADERSTYLE_CLASS
 90
     4095
280
     0
281
     0
  0
CLASS
  1
SUN
  2
AcDbSun
  3
SCENEOE
 90
     1153
280
     0
281
     0
  0
CLASS
  1
ACDBPLACEHOLDER
  2
AcDbPlaceHolder
  3
ObjectDBX Classes
 90
        0
280
     0
281
     0
  0
CLASS
  1
LAYOUT
  2
AcDbLayout
  3
ObjectDBX Classes
 90
        0
280
     0
281
     0
  0
ENDSEC
  0
SECTION
  2
TABLES
  0
TABLE
  2
VPORT
  5
8
330
0
100
AcDbSymbolTable
 70
     1
  0
VPORT
  5
29
330
8
100
AcDbSymbolTableRecord
100
AcDbViewportTableRecord
  2
*Active
 70
     0
 10
0.0
 20
0.0
 11
1.0
 21
1.0
 12
0.0
 22
407.0
 13
0.0
 23
0.0
 14
10.0
 24
10.0
 15
10.0
 25
10.0
 16
0.0
 26
0.0
 36
1.0
 17
0.0
 27
0.0
 37
0.0
 40
220.32
 41
0.6173728706
 42
50.0
 43
0.0
 44
0.0
 50
0.0
 51
0.0
 71
     0
 72
   100
 73
     1
 74
     3
 75
     0
 76
     0
 77
     0
 78
     0
281
     0
 65
     1
110
0.0
120
0.0
130
0.0
111
1.0
121
0.0
131
0.0
112
0.0
122
1.0
132
0.0
 79
     0
146
0.0
  0
ENDTAB
  0
TABLE
  2
LTYPE
  5
5
330
0
100
AcDbSymbolTable
 70
     6
  0
LTYPE
  5
14
330
5
100
AcDbSymbolTableRecord
100
AcDbLinetypeTableRecord
  2
ByBlock
 70
     0
  3

 72
    65
 73
     0
 40
0.0
  0
LTYPE
  5
15
330
5
100
AcDbSymbolTableRecord
100
AcDbLinetypeTableRecord
  2
ByLayer
 70
     0
  3

 72
    65
 73
     0
 40
0.0
  0
LTYPE
  5
16
330
5
100
AcDbSymbolTableRecord
100
AcDbLinetypeTableRecord
  2
Continuous
 70
     0
  3
Solid line
 72
    65
 73
     0
 40
0.0
  0
LTYPE
  5
5E
330
5
100
AcDbSymbolTableRecord
100
AcDbLinetypeTableRecord
  2
HIDDEN
 70
     0
  3
Hidden __ __ __ __ __ __ __ __ __ __ __ __ __ __
 72
    65
 73
     2
 40
1.905
 49
1.27
 74
     0
 49
-0.635
 74
     0
  0
LTYPE
  5
5F
330
5
100
AcDbSymbolTableRecord
100
AcDbLinetypeTableRecord
  2
PHANTOM
 70
     0
  3
Phantom ______  __  __  ______  __  __  ______
 72
    65
 73
     6
 40
12.7
 49
6.35
 74
     0
 49
-1.27
 74
     0
 49
1.27
 74
     0
 49
-1.27
 74
     0
 49
1.27
 74
     0
 49
-1.27
 74
     0
  0
LTYPE
  5
60
330
5
100
AcDbSymbolTableRecord
100
AcDbLinetypeTableRecord
  2
CENTER
 70
     0
  3
Center ____ _ ____ _ ____ _ ____ _ ____ _ ____
 72
    65
 73
     4
 40
10.16
 49
6.35
 74
     0
 49
-1.27
 74
     0
 49
1.27
 74
     0
 49
-1.27
 74
     0
  0
LTYPE
  5
61
330
5
100
AcDbSymbolTableRecord
100
AcDbLinetypeTableRecord
  2
CENTERX2
 70
     0
  3
Center (2x) ________  __  ________  __  _____
 72
    65
 73
     4
 40
20.32
 49
12.7
 74
     0
 49
-2.54
 74
     0
 49
2.54
 74
     0
 49
-2.54
 74
     0
  0
LTYPE
  5
62
330
5
100
AcDbSymbolTableRecord
100
AcDbLinetypeTableRecord
  2
DOT2
 70
     0
  3
Dot (.5x) ........................................
 72
    65
 73
     2
 40
0.635
 49
0.0
 74
     0
 49
-0.635
 74
     0
  0
ENDTAB
  0
TABLE
  2
LAYER
  5
2
330
0
100
AcDbSymbolTable
 70
     1
  0
LAYER
  5
10
330
2
100
AcDbSymbolTableRecord
100
AcDbLayerTableRecord
  2
0
 70
     0
 62
     7
  6
Continuous
370
    -3
390
F
  0
ENDTAB
  0
TABLE
  2
STYLE
  5
3
330
0
100
AcDbSymbolTable
 70
     2
  0
STYLE
  5
11
330
3
100
AcDbSymbolTableRecord
100
AcDbTextStyleTableRecord
  2
Standard
 70
     0
 40
0.0
 41
1.0
 50
0.0
 71
     0
 42
3.5
  3
txt
  4

  0
STYLE
  5
8D
330
3
100
AcDbSymbolTableRecord
100
AcDbTextStyleTableRecord
  2
SLDTEXTSTYLE0
 70
     0
 40
0.0
 41
0.7
 50
0.0
 71
     0
 42
3.5
  3
TXT
  4

  0
ENDTAB
  0
TABLE
  2
VIEW
  5
6
330
0
100
AcDbSymbolTable
 70
     0
  0
ENDTAB
  0
TABLE
  2
UCS
  5
7
330
0
100
AcDbSymbolTable
 70
     0
  0
ENDTAB
  0
TABLE
  2
APPID
  5
9
330
0
100
AcDbSymbolTable
 70
     1
  0
APPID
  5
12
330
9
100
AcDbSymbolTableRecord
100
AcDbRegAppTableRecord
  2
ACAD
 70
     0
  0
ENDTAB
  0
TABLE
  2
DIMSTYLE
  5
A
330
0
100
AcDbSymbolTable
 70
     1
100
AcDbDimStyleTable
  0
DIMSTYLE
105
27
330
A
100
AcDbSymbolTableRecord
100
AcDbDimStyleTableRecord
  2
ISO-25
 70
     0
 41
2.5
 42
0.625
 43
3.75
 44
1.25
 73
     0
 74
     0
 77
     1
 78
     8
140
2.5
141
2.5
143
0.0393700787
147
0.625
171
     3
172
     1
178
     0
271
     2
272
     2
274
     3
278
    44
283
     0
284
     8
340
11
  0
ENDTAB
  0
TABLE
  2
BLOCK_RECORD
  5
1
330
0
100
AcDbSymbolTable
 70
     1
  0
BLOCK_RECORD
  5
1F
330
1
100
AcDbSymbolTableRecord
100
AcDbBlockTableRecord
  2
*Model_Space
340
22
  0
BLOCK_RECORD
  5
1B
330
1
100
AcDbSymbolTableRecord
100
AcDbBlockTableRecord
  2
*Paper_Space
340
1E
  0
BLOCK_RECORD
  5
23
330
1
100
AcDbSymbolTableRecord
100
AcDbBlockTableRecord
  2
*Paper_Space0
340
26
  0
ENDTAB
  0
ENDSEC
  0
SECTION
  2
BLOCKS
  0
BLOCK
  5
20
330
1F
100
AcDbEntity
  8
0
100
AcDbBlockBegin
  2
*Model_Space
 70
     0
 10
0.0
 20
0.0
 30
0.0
  3
*Model_Space
  1

  0
ENDBLK
  5
21
330
1F
100
AcDbEntity
  8
0
100
AcDbBlockEnd
  0
BLOCK
  5
1C
330
1B
100
AcDbEntity
 67
     1
  8
0
100
AcDbBlockBegin
  2
*Paper_Space
 70
     0
 10
0.0
 20
0.0
 30
0.0
  3
*Paper_Space
  1

  0
ENDBLK
  5
1D
330
1B
100
AcDbEntity
 67
     1
  8
0
100
AcDbBlockEnd
  0
BLOCK
  5
24
330
23
100
AcDbEntity
  8
0
100
AcDbBlockBegin
  2
*Paper_Space0
 70
     0
 10
0.0
 20
0.0
 30
0.0
  3
*Paper_Space0
  1

  0
ENDBLK
  5
25
330
23
100
AcDbEntity
  8
0
100
AcDbBlockEnd
  0
ENDSEC
  0
SECTION
  2
ENTITIES
  0
ARC
  5
63
330
1F
100
AcDbEntity
  8
0
  6
Continuous
 62
     7
100
AcDbCircle
 10
56.6762700257
 20
309.0
 30
0.0
 40
10.0
100
AcDbArc
 50
270.0
 51
3.9432771334
  0
ARC
  5
64
330
1F
100
AcDbEntity
  8
0
  6
Continuous
 62
     7
100
AcDbCircle
 10
43.165590414
 20
505.0
 30
0.0
 40
10.0
100
AcDbArc
 50
3.9432771334
 51
90.0
  0
ARC
  5
65
330
1F
100
AcDbEntity
  8
0
  6
Continuous
 62
     7
100
AcDbCircle
 10
-43.165590414
 20
505.0
 30
0.0
 40
10.0
100
AcDbArc
 50
90.0
 51
176.0567228666
  0
ARC
  5
66
330
1F
100
AcDbEntity
  8
0
  6
Continuous
 62
     7
100
AcDbCircle
 10
-56.6762700257
 20
309.0
 30
0.0
 40
10.0
100
AcDbArc
 50
176.0567228666
 51
270.0
  0
CIRCLE
  5
67
330
1F
100
AcDbEntity
  8
0
  6
Continuous
 62
     7
100
AcDbCircle
 10
-59.4327957686
 20
309.0
 30
0.0
 40
2.500000000000012
  0
CIRCLE
  5
68
330
1F
100
AcDbEntity
  8
0
  6
Continuous
 62
     7
100
AcDbCircle
 10
59.4327957686
 20
309.0
 30
0.0
 40
2.500000000000005
  0
CIRCLE
  5
69
330
1F
100
AcDbEntity
  8
0
  6
Continuous
 62
     7
100
AcDbCircle
 10
46.1289122735
 20
502.0
 30
0.0
 40
2.500000000000005
  0
CIRCLE
  5
6A
330
1F
100
AcDbEntity
  8
0
  6
Continuous
 62
     7
100
AcDbCircle
 10
-46.1289122735
 20
502.0
 30
0.0
 40
2.500000000000012
  0
LINE
  5
6B
330
1F
100
AcDbEntity
  8
0
  6
Continuous
 62
     7
100
AcDbLine
 10
-56.6762700257
 20
299.0
 30
0.0
 11
56.6762700257
 21
299.0
 31
0.0
  0
LINE
  5
6C
330
1F
100
AcDbEntity
  8
0
  6
Continuous
 62
     7
100
AcDbLine
 10
66.6525962292
 20
309.6876885053
 30
0.0
 11
53.1419166176
 21
505.6876885053
 31
0.0
  0
LINE
  5
6D
330
1F
100
AcDbEntity
  8
0
  6
Continuous
 62
     7
100
AcDbLine
 10
43.165590414
 20
515.0
 30
0.0
 11
-43.165590414
 21
515.0
 31
0.0
  0
LINE
  5
6E
330
1F
100
AcDbEntity
  8
0
  6
Continuous
 62
     7
100
AcDbLine
 10
-53.1419166176
 20
505.6876885053
 30
0.0
 11
-66.6525962292
 21
309.6876885053
 31
0.0
  0
LWPOLYLINE
  5
6F
330
1F
100
AcDbEntity
  8
0
  6
Continuous
 62
     7
100
AcDbPolyline
 90
      208
 70
   128
 43
0.0
 10
-11.1349225044
 20
452.8378378378
 10
-9.9788851351
 20
452.8378378378
 10
-9.9788851351
 20
452.8378378378
 10
-9.5259712838
 20
452.8188344595
 10
-9.1300675676
 20
452.7618243243
 10
-8.7975084459
 20
452.6699746622
 10
-8.5251266892
 20
452.5369510135
 10
-8.3129222973
 20
452.3690878378
 10
-8.1608952703
 20
452.1632179054
 10
-8.0722128378
 20
451.9193412162
 10
-8.0405405405
 20
451.6374577703
 10
-8.0405405405
 20
451.6374577703
 10
-8.081714527
 20
451.2953969595
 10
-8.2020692568
 20
450.9850084459
 10
-8.4047719595
 20
450.7062922297
 10
-8.6866554054
 20
450.4592483108
 10
-9.0382179054
 20
450.2597128378
 10
-9.453125
 20
450.1140202703
 10
-9.9313766892
 20
450.0285050676
 10
-10.4698057432
 20
450.0
 10
-10.4698057432
 20
450.0
 10
-12.2054476351
 20
450.0
 10
-12.2054476351
 20
450.0
 10
-12.9370777027
 20
448.207347973
 10
-12.9370777027
 20
448.207347973
 10
-13.2569679054
 20
447.4503800676
 10
-13.5800253378
 20
446.7504222973
 10
-13.9125844595
 20
446.1043074324
 10
-14.2514780405
 20
445.512035473
 10
-14.5998733108
 20
444.9736064189
 10
-14.9514358108
 20
444.4890202703
 10
-15.3125
 20
444.058277027
 10
-15.6798986486
 20
443.6845439189
 10
-16.0631334459
 20
443.3583192568
 10
-16.4717060811
 20
443.0764358108
 10
-16.9056165541
 20
442.8388935811
 10
-17.3648648649
 20
442.6456925676
 10
-17.8494510135
 20
442.4936655405
 10
-18.3625422297
 20
442.3828125
 10
-18.8978040541
 20
442.3194679054
 10
-19.4584037162
 20
442.2972972973
 10
-19.4584037162
 20
442.2972972973
 10
-19.9588260135
 20
442.3194679054
 10
-20.4402449324
 20
442.3828125
 10
-20.8994932432
 20
442.4873310811
 10
-21.3397381757
 20
442.6330236486
 10
-21.7578125
 20
442.8230574324
 10
-22.1537162162
 20
443.0542652027
 10
-22.5274493243
 20
443.3266469595
 10
-22.8821790541
 20
443.6402027027
 10
-23.2052364865
 20
443.9854307432
 10
-23.4839527027
 20
444.3528293919
 10
-23.7183277027
 20
444.7392314189
 10
-23.9115287162
 20
445.1478040541
 10
-24.0635557432
 20
445.5753800676
 10
-24.1712415541
 20
446.0219594595
 10
-24.2345861486
 20
446.4907094595
 10
-24.2567567568
 20
446.9816300676
 10
-24.2567567568
 20
446.9816300676
 10
-24.2440878378
 20
447.3553631757
 10
-24.2060810811
 20
447.7195945946
 10
-24.1427364865
 20
448.0743243243
 10
-24.0572212838
 20
448.4258868243
 10
-23.9432010135
 20
448.7679476351
 10
-23.8070101351
 20
449.1005067568
 10
-23.6423141892
 20
449.4267314189
 10
-23.4554476351
 20
449.7466216216
 10
-23.2432432432
 20
450.0538429054
 10
-23.012035473
 20
450.3483952703
 10
-22.7618243243
 20
450.6271114865
 10
-22.4894425676
 20
450.8931587838
 10
-22.1948902027
 20
451.1433699324
 10
-21.8813344595
 20
451.3777449324
 10
-21.5456081081
 20
451.5994510135
 10
-21.1908783784
 20
451.8084881757
 10
-21.1908783784
 20
451.8084881757
 10
-20.7094594595
 20
452.0460304054
 10
-20.1836993243
 20
452.2487331081
 10
-19.613597973
 20
452.4229307432
 10
-19.0023226351
 20
452.5622888514
 10
-18.3498733108
 20
452.6731418919
 10
-17.6530827703
 20
452.7523226351
 10
-16.9151182432
 20
452.7966638514
 10
-16.1328125
 20
452.8125
 10
-16.1328125
 20
452.8125
 10
-14.5998733108
 20
452.8315033784
 10
-14.5998733108
 20
452.8315033784
 10
-12.2846283784
 20
458.8302364865
 10
-12.2846283784
 20
458.8302364865
 10
-12.1452702703
 20
459.2039695946
 10
-12.0249155405
 20
459.5460304054
 10
-11.9203969595
 20
459.8564189189
 10
-11.8380489865
 20
460.1351351351
 10
-11.7715371622
 20
460.3821790541
 10
-11.7271959459
 20
460.6007179054
 10
-11.6986908784
 20
460.7844172297
 10
-11.6891891892
 20
460.9364442568
 10
-11.6891891892
 20
460.9364442568
 10
-11.7113597973
 20
461.1328125
 10
-11.7810388514
 20
461.3165118243
 10
-11.8950591216
 20
461.4875422297
 10
-12.0565878378
 20
461.6490709459
 10
-12.2466216216
 20
461.7852618243
 10
-12.4588260135
 20
461.8834459459
 10
-12.6868665541
 20
461.9404560811
 10
-12.933910473
 20
461.9594594595
 10
-12.933910473
 20
461.9594594595
 10
-13.120777027
 20
461.9467905405
 10
-13.3076435811
 20
461.9087837838
 10
-13.4945101351
 20
461.8422719595
 10
-13.6782094595
 20
461.753589527
 10
-13.8619087838
 20
461.636402027
 10
-14.0456081081
 20
461.4970439189
 10
-14.2293074324
 20
461.3291807432
 10
-14.409839527
 20
461.1359797297
 10
-14.5808699324
 20
460.9269425676
 10
-14.7265625
 20
460.7084037162
 10
-14.8532516892
 20
460.4803631757
 10
-14.9546030405
 20
460.2428209459
 10
-15.0337837838
 20
459.9989442568
 10
-15.0907939189
 20
459.7455658784
 10
-15.1224662162
 20
459.4826858108
 10
-15.1351351351
 20
459.2103040541
 10
-15.1351351351
 20
459.2103040541
 10
-15.1192989865
 20
458.9315878378
 10
-15.0749577703
 20
458.6908783784
 10
-14.9989442568
 20
458.4818412162
 10
-14.8912584459
 20
458.3108108108
 10
-14.7487331081
 20
458.1651182432
 10
-14.574535473
 20
458.0320945946
 10
-14.3623310811
 20
457.9117398649
 10
-14.1152871622
 20
457.8040540541
 10
-14.1152871622
 20
457.8040540541
 10
-13.8777449324
 20
457.6963682432
 10
-13.6750422297
 20
457.5791807432
 10
-13.5008445946
 20
457.4524915541
 10
-13.3583192568
 20
457.3131334459
 10
-13.2506334459
 20
457.1642736486
 10
-13.1714527027
 20
457.0059121622
 10
-13.1239442568
 20
456.8380489865
 10
-13.1081081081
 20
456.6575168919
 10
-13.1081081081
 20
456.6575168919
 10
-13.1429476351
 20
456.3534628378
 10
-13.2474662162
 20
456.0684121622
 10
-13.4248310811
 20
455.7991976351
 10
-13.6687077703
 20
455.5489864865
 10
-13.9664273649
 20
455.3399493243
 10
-14.3084881757
 20
455.1879222973
 10
-14.6885557432
 20
455.0992398649
 10
-15.112964527
 20
455.0675675676
 10
-15.112964527
 20
455.0675675676
 10
-15.4676942568
 20
455.0865709459
 10
-15.8097550676
 20
455.1404138514
 10
-16.1391469595
 20
455.2322635135
 10
-16.4527027027
 20
455.3621199324
 10
-16.753589527
 20
455.5268158784
 10
-17.0418074324
 20
455.7263513514
 10
-17.3141891892
 20
455.9638935811
 10
-17.573902027
 20
456.2394425676
 10
-17.8114442568
 20
456.5403293919
 10
-18.0141469595
 20
456.8570523649
 10
-18.1883445946
 20
457.1896114865
 10
-18.3277027027
 20
457.534839527
 10
-18.4385557432
 20
457.8959037162
 10
-18.5177364865
 20
458.2728040541
 10
-18.5652449324
 20
458.6655405405
 10
-18.5810810811
 20
459.0709459459
 10
-18.5810810811
 20
459.0709459459
 10
-18.5525760135
 20
459.6600506757
 10
-18.4702280405
 20
460.2269847973
 10
-18.3308699324
 20
460.7780827703
 10
-18.1376689189
 20
461.3070101351
 10
-17.8874577703
 20
461.8169341216
 10
-17.5802364865
 20
462.3078547297
 10
-17.2191722973
 20
462.7766047297
 10
-16.8042652027
 20
463.2295185811
 10
-16.3481841216
 20
463.6444256757
 10
-15.8762668919
 20
464.0054898649
 10
-15.3821790541
 20
464.3095439189
 10
-14.8690878378
 20
464.5565878378
 10
-14.3369932432
 20
464.7497888514
 10
-13.7858952703
 20
464.8891469595
 10
-13.2126266892
 20
464.9714949324
 10
-12.6235219595
 20
465.0
 10
-12.6235219595
 20
465.0
 10
-12.1547719595
 20
464.9809966216
 10
-11.7081925676
 20
464.9303209459
 10
-11.2837837838
 20
464.8416385135
 10
-10.8815456081
 20
464.7212837838
 10
-10.4983108108
 20
464.5629222973
 10
-10.1372466216
 20
464.3697212838
 10
-9.7983530405
 20
464.1416807432
 10
-9.4784628378
 20
463.8788006757
 10
-9.1902449324
 20
463.5905827703
 10
-8.9368665541
 20
463.2896959459
 10
-8.7246621622
 20
462.972972973
 10
-8.550464527
 20
462.6404138514
 10
-8.4174408784
 20
462.2951858108
 10
-8.3192567568
 20
461.9341216216
 10
-8.2622466216
 20
461.5572212838
 10
-8.2432432432
 20
461.167652027
 10
-8.2432432432
 20
461.167652027
 10
-8.2780827703
 20
460.6482263514
 10
-8.3826013514
 20
460.0654560811
 10
-8.5599662162
 20
459.4225084459
 10
-8.8038429054
 20
458.7162162162
 10
-8.8038429054
 20
458.7162162162
 10
-11.1349239865
 20
452.8378378378
  0
LWPOLYLINE
  5
70
330
1F
100
AcDbEntity
  8
0
  6
Continuous
 62
     7
100
AcDbPolyline
 90
       46
 70
   128
 43
0.0
 10
-15.5943781137
 20
450.0
 10
-16.0663006757
 20
449.9936655405
 10
-16.5128800676
 20
449.9746621622
 10
-16.9372888514
 20
449.9429898649
 10
-17.3363597973
 20
449.8986486486
 10
-17.7132601351
 20
449.8416385135
 10
-18.0648226351
 20
449.7687922297
 10
-18.394214527
 20
449.6864442568
 10
-18.6982685811
 20
449.5914273649
 10
-18.6982685811
 20
449.5914273649
 10
-19.144847973
 20
449.4077280405
 10
-19.5470861486
 20
449.1828547297
 10
-19.9081503378
 20
448.9136402027
 10
-20.2248733108
 20
448.6000844595
 10
-20.4814189189
 20
448.2548564189
 10
-20.6651182432
 20
447.8874577703
 10
-20.7728040541
 20
447.4915540541
 10
-20.8108108108
 20
447.0734797297
 10
-20.8108108108
 20
447.0734797297
 10
-20.7823057432
 20
446.6997466216
 10
-20.6967905405
 20
446.3640202703
 10
-20.5542652027
 20
446.0663006757
 10
-20.3547297297
 20
445.8097550676
 10
-20.1203547297
 20
445.6038851351
 10
-19.8733108108
 20
445.4550253378
 10
-19.6167652027
 20
445.3663429054
 10
-19.3507179054
 20
445.3378378378
 10
-19.3507179054
 20
445.3378378378
 10
-19.1258445946
 20
445.3505067568
 10
-18.9073057432
 20
445.3885135135
 10
-18.6919341216
 20
445.4518581081
 10
-18.4828969595
 20
445.5373733108
 10
-18.277027027
 20
445.6513935811
 10
-18.0774915541
 20
445.7875844595
 10
-17.8842905405
 20
445.9522804054
 10
-17.6942567568
 20
446.1391469595
 10
-17.5073902027
 20
446.3576858108
 10
-17.3173564189
 20
446.6078969595
 10
-17.1304898649
 20
446.8897804054
 10
-16.9436233108
 20
447.2033361486
 10
-16.753589527
 20
447.5517314189
 10
-16.566722973
 20
447.9317989865
 10
-16.3766891892
 20
448.3435388514
 10
-16.1898226351
 20
448.7869510135
 10
-16.1898226351
 20
448.7869510135
 10
-15.5943834459
 20
450.0
  0
LWPOLYLINE
  5
71
330
1F
100
AcDbEntity
  8
0
  6
Continuous
 62
     7
100
AcDbPolyline
 90
      102
 70
   128
 43
0.0
 10
-3.9294734597
 20
453.0405405405
 10
-3.9168074324
 20
452.9930320946
 10
-3.8819679054
 20
452.9518581081
 10
-3.8186233108
 20
452.9170185811
 10
-3.7331081081
 20
452.8885135135
 10
-3.6254222973
 20
452.8663429054
 10
-3.4892314189
 20
452.8505067568
 10
-3.3308699324
 20
452.8410050676
 10
-3.1471706081
 20
452.8378378378
 10
-3.1471706081
 20
452.8378378378
 10
-0.0306165541
 20
452.8378378378
 10
-0.0306165541
 20
452.8378378378
 10
0.3716216216
 20
452.8188344595
 10
0.7231841216
 20
452.7618243243
 10
1.0177364865
 20
452.6699746622
 10
1.2584459459
 20
452.5401182432
 10
1.4484797297
 20
452.3690878378
 10
1.5815033784
 20
452.1632179054
 10
1.6638513514
 20
451.9225084459
 10
1.6891891892
 20
451.640625
 10
1.6891891892
 20
451.640625
 10
1.6543496622
 20
451.2985641892
 10
1.5466638514
 20
450.9913429054
 10
1.3692989865
 20
450.7094594595
 10
1.1190878378
 20
450.4624155405
 10
0.8055320946
 20
450.2597128378
 10
0.4349662162
 20
450.1171875
 10
0.004222973
 20
450.0285050676
 10
-0.4835304054
 20
450.0
 10
-0.4835304054
 20
450.0
 10
-3.4512246622
 20
450.0
 10
-3.4512246622
 20
450.0
 10
-3.8724662162
 20
450.0126689189
 10
-4.2652027027
 20
450.0538429054
 10
-4.6357685811
 20
450.1235219595
 10
-4.9809966216
 20
450.2185388514
 10
-5.3008868243
 20
450.3388935811
 10
-5.5922719595
 20
450.4877533784
 10
-5.8614864865
 20
450.6651182432
 10
-6.1053631757
 20
450.8678209459
 10
-6.3207347973
 20
451.0990287162
 10
-6.5076013514
 20
451.3524070946
 10
-6.6659628378
 20
451.6311233108
 10
-6.7958192568
 20
451.9351773649
 10
-6.8971706081
 20
452.261402027
 10
-6.9700168919
 20
452.612964527
 10
-7.0111908784
 20
452.9898648649
 10
-7.027027027
 20
453.3889358108
 10
-7.027027027
 20
453.3889358108
 10
-7.0048564189
 20
453.902027027
 10
-6.9383445946
 20
454.3961148649
 10
-6.8243243243
 20
454.8743665541
 10
-6.6691300676
 20
455.3336148649
 10
-6.4664273649
 20
455.7738597973
 10
-6.2225506757
 20
456.1982685811
 10
-5.9311655405
 20
456.6036739865
 10
-5.5954391892
 20
456.9932432432
 10
-5.2280405405
 20
457.3511402027
 10
-4.8448057432
 20
457.6583614865
 10
-4.4425675676
 20
457.9212415541
 10
-4.0244932432
 20
458.1334459459
 10
-3.5874155405
 20
458.3013091216
 10
-3.1345016892
 20
458.4184966216
 10
-2.6657516892
 20
458.4913429054
 10
-2.1779983108
 20
458.5135135135
 10
-2.1779983108
 20
458.5135135135
 10
-1.7915962838
 20
458.5008445946
 10
-1.4273648649
 20
458.4628378378
 10
-1.0821368243
 20
458.3994932432
 10
-0.7559121622
 20
458.3139780405
 10
-0.4518581081
 20
458.1999577703
 10
-0.1668074324
 20
458.0637668919
 10
0.0992398649
 20
457.8990709459
 10
0.3431165541
 20
457.7122043919
 10
0.5648226351
 20
457.5063344595
 10
0.7548564189
 20
457.2877956081
 10
0.9163851351
 20
457.0565878378
 10
1.0494087838
 20
456.8127111486
 10
1.1507601351
 20
456.5561655405
 10
1.2236064189
 20
456.2869510135
 10
1.2679476351
 20
456.0082347973
 10
1.2837837838
 20
455.7136824324
 10
1.2837837838
 20
455.7136824324
 10
1.2616131757
 20
455.3589527027
 10
1.1982685811
 20
455.0232263514
 10
1.0905827703
 20
454.7096706081
 10
0.941722973
 20
454.4151182432
 10
0.7453547297
 20
454.1427364865
 10
0.5109797297
 20
453.8925253378
 10
0.2322635135
 20
453.6613175676
 10
-0.0907939189
 20
453.4522804054
 10
-0.0907939189
 20
453.4522804054
 10
-0.2744932432
 20
453.3572635135
 10
-0.4835304054
 20
453.2717483108
 10
-0.7179054054
 20
453.2020692568
 10
-0.9744510135
 20
453.1450591216
 10
-1.2531672297
 20
453.0975506757
 10
-1.5572212838
 20
453.0658783784
 10
-1.8834459459
 20
453.046875
 10
-2.2350084459
 20
453.0405405405
 10
-2.2350084459
 20
453.0405405405
 10
-3.9294763514
 20
453.0405405405
  0
LWPOLYLINE
  5
72
330
1F
100
AcDbEntity
  8
0
  6
Continuous
 62
     7
100
AcDbPolyline
 90
       21
 70
   128
 43
0.0
 10
-3.4258849919
 20
455.2702702703
 10
-2.6752533784
 20
455.2702702703
 10
-2.6752533784
 20
455.2702702703
 10
-2.4535472973
 20
455.2734375
 10
-2.2603462838
 20
455.2861064189
 10
-2.1019847973
 20
455.3051097973
 10
-1.9689611486
 20
455.3336148649
 10
-1.870777027
 20
455.3716216216
 10
-1.801097973
 20
455.4159628378
 10
-1.7630912162
 20
455.4666385135
 10
-1.7567567568
 20
455.5268158784
 10
-1.7567567568
 20
455.5268158784
 10
-1.7979307432
 20
455.6820101351
 10
-1.8992820946
 20
455.7896959459
 10
-2.0639780405
 20
455.8562077703
 10
-2.2888513514
 20
455.8783783784
 10
-2.2888513514
 20
455.8783783784
 10
-2.6182432432
 20
455.8403716216
 10
-2.9159628378
 20
455.7263513514
 10
-3.1851773649
 20
455.5363175676
 10
-3.4258868243
 20
455.2702702703
  0
LWPOLYLINE
  5
73
330
1F
100
AcDbEntity
  8
0
  6
Continuous
 62
     7
100
AcDbPolyline
 90
      146
 70
   128
 43
0.0
 10
5.0052776933
 20
455.6756756757
 10
4.691722973
 20
454.9282094595
 10
4.691722973
 20
454.9282094595
 10
4.5460304054
 20
454.6273226351
 10
4.3813344595
 20
454.3676097973
 10
4.2008023649
 20
454.1490709459
 10
4.0012668919
 20
453.9685388514
 10
3.7827280405
 20
453.8291807432
 10
3.5483530405
 20
453.7278293919
 10
3.2949746622
 20
453.667652027
 10
3.0257601351
 20
453.6486486486
 10
3.0257601351
 20
453.6486486486
 10
2.7565456081
 20
453.6708192568
 10
2.5063344595
 20
453.7341638514
 10
2.2814611486
 20
453.8418496622
 10
2.0755912162
 20
453.9907094595
 10
1.9077280405
 20
454.1744087838
 10
1.7873733108
 20
454.3802787162
 10
1.714527027
 20
454.605152027
 10
1.6891891892
 20
454.8521959459
 10
1.6891891892
 20
454.8521959459
 10
1.7050253378
 20
455.0168918919
 10
1.7525337838
 20
455.2195945946
 10
1.8285472973
 20
455.4666385135
 10
1.9362331081
 20
455.7548564189
 10
1.9362331081
 20
455.7548564189
 10
3.1429476351
 20
458.7288851351
 10
3.1429476351
 20
458.7288851351
 10
3.2728040541
 20
459.0107685811
 10
3.4153293919
 20
459.2546452703
 10
3.5736908784
 20
459.4636824324
 10
3.7447212838
 20
459.6315456081
 10
3.9315878378
 20
459.7645692568
 10
4.1311233108
 20
459.8564189189
 10
4.3433277027
 20
459.9134290541
 10
4.5713682432
 20
459.9324324324
 10
4.5713682432
 20
459.9324324324
 10
4.84375
 20
459.9197635135
 10
5.0876266892
 20
459.878589527
 10
5.2998310811
 20
459.808910473
 10
5.4866976351
 20
459.7138935811
 10
5.6418918919
 20
459.5872043919
 10
5.7685810811
 20
459.4383445946
 10
5.863597973
 20
459.2578125
 10
5.933277027
 20
459.0519425676
 10
5.933277027
 20
459.0519425676
 10
6.015625
 20
458.7352195946
 10
6.015625
 20
458.7352195946
 10
6.0409628378
 20
458.6402027027
 10
6.0599662162
 20
458.5705236486
 10
6.0694679054
 20
458.5293496622
 10
6.0758023649
 20
458.5135135135
 10
6.1011402027
 20
458.5135135135
 10
6.1708192568
 20
458.5135135135
 10
6.2880067568
 20
458.5135135135
 10
6.4527027027
 20
458.5135135135
 10
6.4527027027
 20
458.5135135135
 10
8.9073057432
 20
458.5135135135
 10
8.9073057432
 20
458.5135135135
 10
9.3063766892
 20
458.4945101351
 10
9.6516047297
 20
458.4375
 10
9.9429898649
 20
458.3424831081
 10
10.1836993243
 20
458.2062922297
 10
10.3673986486
 20
458.0352618243
 10
10.5004222973
 20
457.8230574324
 10
10.5827702703
 20
457.5760135135
 10
10.6081081081
 20
457.2877956081
 10
10.6081081081
 20
457.2877956081
 10
10.5796030405
 20
456.9108952703
 10
10.4909206081
 20
456.5815033784
 10
10.3452280405
 20
456.3059543919
 10
10.1425253378
 20
456.0779138514
 10
9.8796452703
 20
455.9037162162
 10
9.5597550676
 20
455.777027027
 10
9.1828547297
 20
455.7010135135
 10
8.745777027
 20
455.6756756757
 10
8.745777027
 20
455.6756756757
 10
8.7711148649
 20
455.7010135135
 10
8.7711148649
 20
455.7010135135
 10
8.394214527
 20
455.3494510135
 10
8.0679898649
 20
455.0168918919
 10
7.7892736486
 20
454.7065033784
 10
7.5644003378
 20
454.4151182432
 10
7.387035473
 20
454.1427364865
 10
7.2635135135
 20
453.8925253378
 10
7.1875
 20
453.6644847973
 10
7.1621621622
 20
453.4554476351
 10
7.1621621622
 20
453.4554476351
 10
7.1716638514
 20
453.3097550676
 10
7.1970016892
 20
453.1862331081
 10
7.2413429054
 20
453.0785472973
 10
7.3015202703
 20
452.9930320946
 10
7.3807010135
 20
452.9233530405
 10
7.4788851351
 20
452.8758445946
 10
7.5929054054
 20
452.847339527
 10
7.7227618243
 20
452.8378378378
 10
7.7227618243
 20
452.8378378378
 10
9.0434966216
 20
452.8378378378
 10
9.0434966216
 20
452.8378378378
 10
9.4584037162
 20
452.8188344595
 10
9.8163006757
 20
452.7649915541
 10
10.1203547297
 20
452.6699746622
 10
10.3705658784
 20
452.543285473
 10
10.5637668919
 20
452.3754222973
 10
10.6999577703
 20
452.1727195946
 10
10.7823057432
 20
451.9320101351
 10
10.8108108108
 20
451.6532939189
 10
10.8108108108
 20
451.6532939189
 10
10.7759712838
 20
451.3080658784
 10
10.6651182432
 20
450.9945101351
 10
10.4845861486
 20
450.7157939189
 10
10.2280405405
 20
450.4655827703
 10
9.9081503378
 20
450.2628800676
 10
9.53125
 20
450.1171875
 10
9.0941722973
 20
450.0285050676
 10
8.6032516892
 20
450.0
 10
8.6032516892
 20
450.0
 10
6.5477195946
 20
450.0
 10
6.5477195946
 20
450.0
 10
6.2658361486
 20
450.0126689189
 10
5.9934543919
 20
450.0475084459
 10
5.7369087838
 20
450.1076858108
 10
5.4961993243
 20
450.1932010135
 10
5.2649915541
 20
450.3040540541
 10
5.0464527027
 20
450.4370777027
 10
4.84375
 20
450.5954391892
 10
4.6537162162
 20
450.7759712838
 10
4.4826858108
 20
450.9755067568
 10
4.3338260135
 20
451.1908783784
 10
4.2071368243
 20
451.4220861486
 10
4.1026182432
 20
451.6659628378
 10
4.0234375
 20
451.9225084459
 10
3.9664273649
 20
452.1948902027
 10
3.9315878378
 20
452.4799408784
 10
3.9189189189
 20
452.7808277027
 10
3.9189189189
 20
452.7808277027
 10
3.9442567568
 20
453.1672297297
 10
4.0139358108
 20
453.5472972973
 10
4.1342905405
 20
453.9146959459
 10
4.2989864865
 20
454.2757601351
 10
4.5238597973
 20
454.6304898649
 10
4.8120777027
 20
454.9852195946
 10
5.1636402027
 20
455.3304476351
 10
5.5785472973
 20
455.6756756757
 10
5.5785472973
 20
455.6756756757
 10
5.0052787162
 20
455.6756756757
  0
LWPOLYLINE
  5
74
330
1F
100
AcDbEntity
  8
0
  6
Continuous
 62
     7
100
AcDbPolyline
 90
      102
 70
   128
 43
0.0
 10
14.1110569239
 20
453.0405405405
 10
14.1237331081
 20
452.9930320946
 10
14.1585726351
 20
452.9518581081
 10
14.2219172297
 20
452.9170185811
 10
14.3074324324
 20
452.8885135135
 10
14.4151182432
 20
452.8663429054
 10
14.5513091216
 20
452.8505067568
 10
14.7096706081
 20
452.8410050676
 10
14.8933699324
 20
452.8378378378
 10
14.8933699324
 20
452.8378378378
 10
18.0099239865
 20
452.8378378378
 10
18.0099239865
 20
452.8378378378
 10
18.4121621622
 20
452.8188344595
 10
18.7637246622
 20
452.7618243243
 10
19.058277027
 20
452.6699746622
 10
19.2989864865
 20
452.5401182432
 10
19.4890202703
 20
452.3690878378
 10
19.6220439189
 20
452.1632179054
 10
19.7043918919
 20
451.9225084459
 10
19.7297297297
 20
451.640625
 10
19.7297297297
 20
451.640625
 10
19.6948902027
 20
451.2985641892
 10
19.5872043919
 20
450.9913429054
 10
19.409839527
 20
450.7094594595
 10
19.1596283784
 20
450.4624155405
 10
18.8460726351
 20
450.2597128378
 10
18.4755067568
 20
450.1171875
 10
18.0447635135
 20
450.0285050676
 10
17.5570101351
 20
450.0
 10
17.5570101351
 20
450.0
 10
14.5893158784
 20
450.0
 10
14.5893158784
 20
450.0
 10
14.1680743243
 20
450.0126689189
 10
13.7753378378
 20
450.0538429054
 10
13.4047719595
 20
450.1235219595
 10
13.0595439189
 20
450.2185388514
 10
12.7396537162
 20
450.3388935811
 10
12.4482685811
 20
450.4877533784
 10
12.1790540541
 20
450.6651182432
 10
11.9351773649
 20
450.8678209459
 10
11.7198057432
 20
451.0990287162
 10
11.5329391892
 20
451.3524070946
 10
11.3745777027
 20
451.6311233108
 10
11.2447212838
 20
451.9351773649
 10
11.1433699324
 20
452.261402027
 10
11.0705236486
 20
452.612964527
 10
11.0293496622
 20
452.9898648649
 10
11.0135135135
 20
453.3889358108
 10
11.0135135135
 20
453.3889358108
 10
11.0356841216
 20
453.902027027
 10
11.1021959459
 20
454.3961148649
 10
11.2162162162
 20
454.8743665541
 10
11.371410473
 20
455.3336148649
 10
11.5741131757
 20
455.7738597973
 10
11.8179898649
 20
456.1982685811
 10
12.109375
 20
456.6036739865
 10
12.4451013514
 20
456.9932432432
 10
12.8125
 20
457.3511402027
 10
13.1957347973
 20
457.6583614865
 10
13.597972973
 20
457.9212415541
 10
14.0160472973
 20
458.1334459459
 10
14.453125
 20
458.3013091216
 10
14.9060388514
 20
458.4184966216
 10
15.3747888514
 20
458.4913429054
 10
15.8625422297
 20
458.5135135135
 10
15.8625422297
 20
458.5135135135
 10
16.2489442568
 20
458.5008445946
 10
16.6131756757
 20
458.4628378378
 10
16.9584037162
 20
458.3994932432
 10
17.2846283784
 20
458.3139780405
 10
17.5886824324
 20
458.1999577703
 10
17.8737331081
 20
458.0637668919
 10
18.1397804054
 20
457.8990709459
 10
18.3836570946
 20
457.7122043919
 10
18.6053631757
 20
457.5063344595
 10
18.7953969595
 20
457.2877956081
 10
18.9569256757
 20
457.0565878378
 10
19.0899493243
 20
456.8127111486
 10
19.1913006757
 20
456.5561655405
 10
19.2641469595
 20
456.2869510135
 10
19.3084881757
 20
456.0082347973
 10
19.3243243243
 20
455.7136824324
 10
19.3243243243
 20
455.7136824324
 10
19.3021537162
 20
455.3589527027
 10
19.2388091216
 20
455.0232263514
 10
19.1311233108
 20
454.7096706081
 10
18.9822635135
 20
454.4151182432
 10
18.7858952703
 20
454.1427364865
 10
18.5515202703
 20
453.8925253378
 10
18.2728040541
 20
453.6613175676
 10
17.9497466216
 20
453.4522804054
 10
17.9497466216
 20
453.4522804054
 10
17.7660472973
 20
453.3572635135
 10
17.5570101351
 20
453.2717483108
 10
17.3226351351
 20
453.2020692568
 10
17.066089527
 20
453.1450591216
 10
16.7873733108
 20
453.0975506757
 10
16.4833192568
 20
453.0658783784
 10
16.1570945946
 20
453.046875
 10
15.8055320946
 20
453.0405405405
 10
15.8055320946
 20
453.0405405405
 10
14.1110641892
 20
453.0405405405
  0
LWPOLYLINE
  5
75
330
1F
100
AcDbEntity
  8
0
  6
Continuous
 62
     7
100
AcDbPolyline
 90
       21
 70
   128
 43
0.0
 10
14.614649117
 20
455.2702702703
 10
15.3652871622
 20
455.2702702703
 10
15.3652871622
 20
455.2702702703
 10
15.5869932432
 20
455.2734375
 10
15.7801942568
 20
455.2861064189
 10
15.9385557432
 20
455.3051097973
 10
16.0715793919
 20
455.3336148649
 10
16.1697635135
 20
455.3716216216
 10
16.2394425676
 20
455.4159628378
 10
16.2774493243
 20
455.4666385135
 10
16.2837837838
 20
455.5268158784
 10
16.2837837838
 20
455.5268158784
 10
16.2426097973
 20
455.6820101351
 10
16.1412584459
 20
455.7896959459
 10
15.9765625
 20
455.8562077703
 10
15.7516891892
 20
455.8783783784
 10
15.7516891892
 20
455.8783783784
 10
15.4222972973
 20
455.8403716216
 10
15.1245777027
 20
455.7263513514
 10
14.8553631757
 20
455.5363175676
 10
14.6146537162
 20
455.2702702703
  0
LWPOLYLINE
  5
76
330
1F
100
AcDbEntity
  8
0
  6
Continuous
 62
     7
100
AcDbPolyline
 90
      201
 70
   128
 43
0.0
 10
33.1334173679
 20
452.8378378378
 10
33.9790962838
 20
452.8378378378
 10
33.9790962838
 20
452.8378378378
 10
34.3940033784
 20
452.8188344595
 10
34.7519003378
 20
452.7618243243
 10
35.0527871622
 20
452.6699746622
 10
35.3029983108
 20
452.5401182432
 10
35.4961993243
 20
452.3690878378
 10
35.6323902027
 20
452.1632179054
 10
35.7147381757
 20
451.9225084459
 10
35.7432432432
 20
451.640625
 10
35.7432432432
 20
451.640625
 10
35.7084037162
 20
451.2985641892
 10
35.5975506757
 20
450.9913429054
 10
35.4170185811
 20
450.7094594595
 10
35.160472973
 20
450.4624155405
 10
34.8405827703
 20
450.2597128378
 10
34.4636824324
 20
450.1171875
 10
34.0266047297
 20
450.0285050676
 10
33.5356841216
 20
450.0
 10
33.5356841216
 20
450.0
 10
31.4073057432
 20
450.0
 10
31.4073057432
 20
450.0
 10
31.0430743243
 20
450.0253378378
 10
30.7136824324
 20
450.1013513514
 10
30.4159628378
 20
450.2248733108
 10
30.1530827703
 20
450.4022381757
 10
29.9377111486
 20
450.620777027
 10
29.7856841216
 20
450.8741554054
 10
29.6938344595
 20
451.1623733108
 10
29.6621621622
 20
451.4822635135
 10
29.6621621622
 20
451.4822635135
 10
29.6811655405
 20
451.7166385135
 10
29.7413429054
 20
451.9858530405
 10
29.839527027
 20
452.2867398649
 10
29.9757179054
 20
452.6256334459
 10
29.9757179054
 20
452.6256334459
 10
31.0082347973
 20
454.9313766892
 10
31.0082347973
 20
454.9313766892
 10
31.0620777027
 20
455.0865709459
 10
31.0810810811
 20
455.2227618243
 10
31.0810810811
 20
455.2227618243
 10
31.0494087838
 20
455.4222972973
 10
30.9575591216
 20
455.5616554054
 10
30.8055320946
 20
455.6471706081
 10
30.590160473
 20
455.6756756757
 10
30.590160473
 20
455.6756756757
 10
30.4191300676
 20
455.6535050676
 10
30.2322635135
 20
455.5806587838
 10
30.0327280405
 20
455.4634712838
 10
29.8205236486
 20
455.2987753378
 10
29.6083192568
 20
455.0865709459
 10
29.4119510135
 20
454.8236908784
 10
29.2282516892
 20
454.5101351351
 10
29.0572212838
 20
454.1459037162
 10
29.0572212838
 20
454.1459037162
 10
27.8821790541
 20
451.4347550676
 10
27.8821790541
 20
451.4347550676
 10
27.7111486486
 20
451.0990287162
 10
27.5179476351
 20
450.8076435811
 10
27.2994087838
 20
450.5605996622
 10
27.0555320946
 20
450.3578969595
 10
26.7863175676
 20
450.2027027027
 10
26.4949324324
 20
450.0886824324
 10
26.1782094595
 20
450.0221706081
 10
25.8361486486
 20
450.0
 10
25.8361486486
 20
450.0
 10
25.5891047297
 20
450.0190033784
 10
25.3610641892
 20
450.0791807432
 10
25.152027027
 20
450.1773648649
 10
24.9588260135
 20
450.316722973
 10
24.800464527
 20
450.4845861486
 10
24.6864442568
 20
450.6714527027
 10
24.6167652027
 20
450.8741554054
 10
24.5945945946
 20
451.0958614865
 10
24.5945945946
 20
451.0958614865
 10
24.6040962838
 20
451.2668918919
 10
24.6389358108
 20
451.4474239865
 10
24.6896114865
 20
451.6374577703
 10
24.765625
 20
451.840160473
 10
24.765625
 20
451.840160473
 10
24.8828125
 20
452.109375
 10
24.8828125
 20
452.109375
 10
26.0736908784
 20
454.8490287162
 10
26.0736908784
 20
454.8490287162
 10
26.137035473
 20
455.0010557432
 10
26.1813766892
 20
455.1340793919
 10
26.206714527
 20
455.2449324324
 10
26.2162162162
 20
455.3367820946
 10
26.2162162162
 20
455.3367820946
 10
26.1813766892
 20
455.4539695946
 10
26.0705236486
 20
455.5648226351
 10
25.9089949324
 20
455.6471706081
 10
25.7126266892
 20
455.6756756757
 10
25.7126266892
 20
455.6756756757
 10
25.5099239865
 20
455.6535050676
 10
25.3135557432
 20
455.5869932432
 10
25.1235219595
 20
455.4761402027
 10
24.9398226351
 20
455.3241131757
 10
24.7624577703
 20
455.1245777027
 10
24.5914273649
 20
454.8807010135
 10
24.4298986486
 20
454.5956503378
 10
24.2715371622
 20
454.2630912162
 10
24.2715371622
 20
454.2630912162
 10
23.0363175676
 20
451.4474239865
 10
23.0363175676
 20
451.4474239865
 10
22.8652871622
 20
451.1085304054
 10
22.6689189189
 20
450.8139780405
 10
22.4503800676
 20
450.5669341216
 10
22.2065033784
 20
450.3610641892
 10
21.9372888514
 20
450.2027027027
 10
21.6459037162
 20
450.0918496622
 10
21.3291807432
 20
450.0221706081
 10
20.9902871622
 20
450.0
 10
20.9902871622
 20
450.0
 10
20.7432432432
 20
450.0221706081
 10
20.512035473
 20
450.082347973
 10
20.2998310811
 20
450.1868665541
 10
20.1034628378
 20
450.3293918919
 10
19.9387668919
 20
450.5067567568
 10
19.8247466216
 20
450.6999577703
 10
19.7519003378
 20
450.9153293919
 10
19.7297297297
 20
451.1497043919
 10
19.7297297297
 20
451.1497043919
 10
19.7392314189
 20
451.3302364865
 10
19.7709037162
 20
451.5234375
 10
19.8247466216
 20
451.722972973
 10
19.8975929054
 20
451.9320101351
 10
19.8975929054
 20
451.9320101351
 10
20.0021114865
 20
451.9921875
 10
20.0021114865
 20
451.9921875
 10
22.0861486486
 20
457.3163006757
 10
22.0861486486
 20
457.3163006757
 10
22.2160050676
 20
457.5981841216
 10
22.3616976351
 20
457.8388935811
 10
22.5263935811
 20
458.0447635135
 10
22.7069256757
 20
458.2157939189
 10
22.9032939189
 20
458.3456503378
 10
23.1154983108
 20
458.4375
 10
23.3435388514
 20
458.4945101351
 10
23.5905827703
 20
458.5135135135
 10
23.5905827703
 20
458.5135135135
 10
23.8851351351
 20
458.5008445946
 10
24.1480152027
 20
458.4596706081
 10
24.3760557432
 20
458.3931587838
 10
24.5692567568
 20
458.3013091216
 10
24.7276182432
 20
458.1809543919
 10
24.8511402027
 20
458.0352618243
 10
24.9398226351
 20
457.8610641892
 10
24.9968327703
 20
457.6615287162
 10
24.9968327703
 20
457.6615287162
 10
25.1710304054
 20
457.886402027
 10
25.3642314189
 20
458.0764358108
 10
25.5732685811
 20
458.2221283784
 10
25.8044763514
 20
458.3329814189
 10
26.0578547297
 20
458.4121621622
 10
26.3365709459
 20
458.4691722973
 10
26.640625
 20
458.5008445946
 10
26.9700168919
 20
458.5135135135
 10
26.9700168919
 20
458.5135135135
 10
27.3722550676
 20
458.4976773649
 10
27.7428209459
 20
458.4470016892
 10
28.0753800676
 20
458.3646537162
 10
28.3730996622
 20
458.2474662162
 10
28.6391469595
 20
458.0954391892
 10
28.8671875
 20
457.9117398649
 10
29.0635557432
 20
457.6963682432
 10
29.2219172297
 20
457.4461570946
 10
29.2219172297
 20
457.4461570946
 10
29.4721283784
 20
457.6963682432
 10
29.7413429054
 20
457.9117398649
 10
30.0295608108
 20
458.0954391892
 10
30.3367820946
 20
458.2474662162
 10
30.659839527
 20
458.3646537162
 10
31.0019003378
 20
458.4470016892
 10
31.362964527
 20
458.4976773649
 10
31.7430320946
 20
458.5135135135
 10
31.7430320946
 20
458.5135135135
 10
32.0375844595
 20
458.5040118243
 10
32.3226351351
 20
458.472339527
 10
32.5918496622
 20
458.4216638514
 10
32.8483952703
 20
458.3519847973
 10
33.0891047297
 20
458.2601351351
 10
33.3203125
 20
458.1492820946
 10
33.5356841216
 20
458.0162584459
 10
33.7383868243
 20
457.8642314189
 10
33.9220861486
 20
457.699535473
 10
34.0836148649
 20
457.5285050676
 10
34.2198057432
 20
457.3511402027
 10
34.3306587838
 20
457.1674408784
 10
34.4161739865
 20
456.9774070946
 10
34.4763513514
 20
456.7810388514
 10
34.5143581081
 20
456.5783361486
 10
34.527027027
 20
456.3692989865
 10
34.527027027
 20
456.3692989865
 10
34.5111908784
 20
456.1064189189
 10
34.457347973
 20
455.8277027027
 10
34.3718327703
 20
455.5331503378
 10
34.2514780405
 20
455.2227618243
 10
34.2514780405
 20
455.2227618243
 10
33.1334459459
 20
452.8378378378
  0
LWPOLYLINE
  5
77
330
1F
100
AcDbEntity
  8
0
  6
Continuous
 62
     7
100
AcDbPolyline
 90
      193
 70
   128
 43
0.0
 10
42.5179302692
 20
450.2027027027
 10
43.3287584459
 20
450.2027027027
 10
43.3287584459
 20
450.2027027027
 10
43.7373310811
 20
450.1836993243
 10
44.0888935811
 20
450.1266891892
 10
44.3897804054
 20
450.034839527
 10
44.6336570946
 20
449.9049831081
 10
44.8236908784
 20
449.7339527027
 10
44.9598817568
 20
449.5280827703
 10
45.0390625
 20
449.2873733108
 10
45.0675675676
 20
449.0054898649
 10
45.0675675676
 20
449.0054898649
 10
45.0327280405
 20
448.6634290541
 10
44.9250422297
 20
448.3562077703
 10
44.7476773649
 20
448.0743243243
 10
44.4974662162
 20
447.8272804054
 10
44.183910473
 20
447.6245777027
 10
43.8101773649
 20
447.4820523649
 10
43.3794341216
 20
447.3933699324
 10
42.8885135135
 20
447.3648648649
 10
42.8885135135
 20
447.3648648649
 10
41.5234375
 20
447.3648648649
 10
41.5234375
 20
447.3648648649
 10
41.4537584459
 20
447.1716638514
 10
41.3650760135
 20
446.9499577703
 10
41.2573902027
 20
446.7029138514
 10
41.1307010135
 20
446.4273648649
 10
40.9881756757
 20
446.1233108108
 10
40.8234797297
 20
445.7939189189
 10
40.6429476351
 20
445.4391891892
 10
40.4434121622
 20
445.0559543919
 10
40.4434121622
 20
445.0559543919
 10
40.2565456081
 20
444.7233952703
 10
40.0601773649
 20
444.409839527
 10
39.8511402027
 20
444.1184543919
 10
39.6326013514
 20
443.8492398649
 10
39.3982263514
 20
443.6021959459
 10
39.1543496622
 20
443.3741554054
 10
38.8978040541
 20
443.1714527027
 10
38.6317567568
 20
442.9877533784
 10
38.3530405405
 20
442.8262246622
 10
38.0616554054
 20
442.6836993243
 10
37.7607685811
 20
442.5665118243
 10
37.4472128378
 20
442.4683277027
 10
37.1209881757
 20
442.3954814189
 10
36.7820945946
 20
442.3416385135
 10
36.4336993243
 20
442.3067989865
 10
36.0726351351
 20
442.2972972973
 10
36.0726351351
 20
442.2972972973
 10
35.6608952703
 20
442.3131334459
 10
35.2649915541
 20
442.3669763514
 10
34.8849239865
 20
442.4493243243
 10
34.5238597973
 20
442.5696790541
 10
34.175464527
 20
442.7217060811
 10
33.8492398649
 20
442.9117398649
 10
33.5356841216
 20
443.1302787162
 10
33.2411317568
 20
443.3868243243
 10
32.9719172297
 20
443.6687077703
 10
32.7407094595
 20
443.9664273649
 10
32.5411739865
 20
444.2799831081
 10
32.3828125
 20
444.609375
 10
32.2561233108
 20
444.9577702703
 10
32.1674408784
 20
445.3220016892
 10
32.113597973
 20
445.7020692568
 10
32.0945945946
 20
446.097972973
 10
32.0945945946
 20
446.097972973
 10
32.1326013514
 20
446.6490709459
 10
32.2497888514
 20
447.1843327703
 10
32.4429898649
 20
447.6974239865
 10
32.7153716216
 20
448.1915118243
 10
33.051097973
 20
448.6475929054
 10
33.4375
 20
449.0434966216
 10
33.8682432432
 20
449.3760557432
 10
34.3496621622
 20
449.6516047297
 10
34.3496621622
 20
449.6516047297
 10
34.6537162162
 20
449.7814611486
 10
34.9926097973
 20
449.8923141892
 10
35.3631756757
 20
449.9873310811
 10
35.7654138514
 20
450.0665118243
 10
36.2024915541
 20
450.1266891892
 10
36.6712415541
 20
450.1678631757
 10
37.1716638514
 20
450.1932010135
 10
37.7069256757
 20
450.2027027027
 10
37.7069256757
 20
450.2027027027
 10
39.3000422297
 20
450.2027027027
 10
39.3000422297
 20
450.2027027027
 10
39.5185810811
 20
450.3293918919
 10
39.5185810811
 20
450.3293918919
 10
39.2683699324
 20
450.1868665541
 10
38.9769847973
 20
450.082347973
 10
38.6507601351
 20
450.0221706081
 10
38.2833614865
 20
450.0
 10
38.2833614865
 20
450.0
 10
37.9888091216
 20
450.0095016892
 10
37.7069256757
 20
450.0380067568
 10
37.4377111486
 20
450.0886824324
 10
37.1843327703
 20
450.1583614865
 10
36.9436233108
 20
450.2470439189
 10
36.71875
 20
450.3547297297
 10
36.5065456081
 20
450.4814189189
 10
36.3070101351
 20
450.6302787162
 10
36.1264780405
 20
450.7949746622
 10
35.9712837838
 20
450.9691722973
 10
35.8414273649
 20
451.1592060811
 10
35.7337415541
 20
451.3587415541
 10
35.6482263514
 20
451.5709459459
 10
35.5880489865
 20
451.7958192568
 10
35.5532094595
 20
452.0301942568
 10
35.5405405405
 20
452.2804054054
 10
35.5405405405
 20
452.2804054054
 10
35.5690456081
 20
452.6161317568
 10
35.6608952703
 20
453.0247043919
 10
35.8065878378
 20
453.4966216216
 10
36.015625
 20
454.0413851351
 10
36.015625
 20
454.0413851351
 10
37.1875
 20
456.8887246622
 10
37.1875
 20
456.8887246622
 10
37.3046875
 20
457.1896114865
 10
37.3046875
 20
457.1896114865
 10
37.456714527
 20
457.5
 10
37.6309121622
 20
457.769214527
 10
37.8241131757
 20
457.9972550676
 10
38.0394847973
 20
458.1841216216
 10
38.2738597973
 20
458.3266469595
 10
38.5272381757
 20
458.4311655405
 10
38.8027871622
 20
458.4913429054
 10
39.097339527
 20
458.5135135135
 10
39.097339527
 20
458.5135135135
 10
39.4235641892
 20
458.4881756757
 10
39.7149493243
 20
458.4184966216
 10
39.9714949324
 20
458.2949746622
 10
40.1932010135
 20
458.1271114865
 10
40.3737331081
 20
457.9275760135
 10
40.503589527
 20
457.7185388514
 10
40.5827702703
 20
457.4968327703
 10
40.6081081081
 20
457.265625
 10
40.6081081081
 20
457.265625
 10
40.5891047297
 20
457.0819256757
 10
40.5289273649
 20
456.8412162162
 10
40.4275760135
 20
456.5434966216
 10
40.2882179054
 20
456.1887668919
 10
40.2882179054
 20
456.1887668919
 10
39.214527027
 20
453.6613175676
 10
39.214527027
 20
453.6613175676
 10
39.1163429054
 20
453.4079391892
 10
39.0434966216
 20
453.2052364865
 10
38.9991554054
 20
453.046875
 10
38.980152027
 20
452.9391891892
 10
38.980152027
 20
452.9391891892
 10
38.9864864865
 20
452.8061655405
 10
39.0308277027
 20
452.7111486486
 10
39.1163429054
 20
452.6541385135
 10
39.2366976351
 20
452.6351351351
 10
39.2366976351
 20
452.6351351351
 10
39.4552364865
 20
452.6509712838
 10
39.6769425676
 20
452.6984797297
 10
39.8986486486
 20
452.777660473
 10
40.1235219595
 20
452.8885135135
 10
40.3325591216
 20
453.0247043919
 10
40.5004222973
 20
453.1767314189
 10
40.6334459459
 20
453.3477618243
 10
40.7252956081
 20
453.5346283784
 10
40.7252956081
 20
453.5346283784
 10
42.1030405405
 20
456.8887246622
 10
42.1030405405
 20
456.8887246622
 10
42.2107263514
 20
457.1927787162
 10
42.2107263514
 20
457.1927787162
 10
42.3595861486
 20
457.5031672297
 10
42.5274493243
 20
457.769214527
 10
42.7174831081
 20
457.9972550676
 10
42.9296875
 20
458.1841216216
 10
43.1608952703
 20
458.3266469595
 10
43.4111064189
 20
458.4311655405
 10
43.6834881757
 20
458.4913429054
 10
43.9780405405
 20
458.5135135135
 10
43.9780405405
 20
458.5135135135
 10
44.301097973
 20
458.4881756757
 10
44.5893158784
 20
458.4184966216
 10
44.8426942568
 20
458.2949746622
 10
45.0644003378
 20
458.1271114865
 10
45.2417652027
 20
457.9307432432
 10
45.3716216216
 20
457.7248733108
 10
45.4476351351
 20
457.5126689189
 10
45.472972973
 20
457.2909628378
 10
45.472972973
 20
457.2909628378
 10
45.4603040541
 20
457.1294341216
 10
45.425464527
 20
456.9457347973
 10
45.3621199324
 20
456.7430320946
 10
45.2766047297
 20
456.5181587838
 10
45.2766047297
 20
456.5181587838
 10
45.1055743243
 20
456.1444256757
 10
45.1055743243
 20
456.1444256757
 10
42.5179476351
 20
450.2027027027
  0
LWPOLYLINE
  5
78
330
1F
100
AcDbEntity
  8
0
  6
Continuous
 62
     7
100
AcDbPolyline
 90
       29
 70
   128
 43
0.0
 10
38.4797155857
 20
447.3648648649
 10
37.2128378378
 20
447.3648648649
 10
37.2128378378
 20
447.3648648649
 10
36.7250844595
 20
447.3458614865
 10
36.3038429054
 20
447.2856841216
 10
35.9459459459
 20
447.1843327703
 10
35.6545608108
 20
447.0481418919
 10
35.4265202703
 20
446.8676097973
 10
35.2649915541
 20
446.6490709459
 10
35.1668074324
 20
446.3893581081
 10
35.1351351351
 20
446.0916385135
 10
35.1351351351
 20
446.0916385135
 10
35.1509712838
 20
445.8604307432
 10
35.1953125
 20
445.6608952703
 10
35.2713260135
 20
445.4961993243
 10
35.3758445946
 20
445.3631756757
 10
35.5025337838
 20
445.2649915541
 10
35.6450591216
 20
445.1921452703
 10
35.8002533784
 20
445.1509712838
 10
35.9681165541
 20
445.1351351351
 10
35.9681165541
 20
445.1351351351
 10
36.3070101351
 20
445.1699746622
 10
36.6300675676
 20
445.2713260135
 10
36.9372888514
 20
445.4391891892
 10
37.2255067568
 20
445.6767314189
 10
37.5168918919
 20
445.9871199324
 10
37.8209459459
 20
446.3703547297
 10
38.1440033784
 20
446.8296030405
 10
38.4797297297
 20
447.3648648649
  0
CIRCLE
  5
7F
330
1F
100
AcDbEntity
  8
0
  6
Continuous
 62
     7
370
    25
100
AcDbCircle
 10
-46.1289122735
 20
502.0
 30
0.0
 40
2.500000000000007
  0
CIRCLE
  5
80
330
1F
100
AcDbEntity
  8
0
  6
Continuous
 62
     7
370
    25
100
AcDbCircle
 10
46.1289122735
 20
502.0
 30
0.0
 40
2.500000000000071
  0
CIRCLE
  5
81
330
1F
100
AcDbEntity
  8
0
  6
Continuous
 62
     7
370
    25
100
AcDbCircle
 10
-59.4327957686
 20
309.0
 30
0.0
 40
2.5
  0
CIRCLE
  5
82
330
1F
100
AcDbEntity
  8
0
  6
Continuous
 62
     7
370
    25
100
AcDbCircle
 10
59.4327957686
 20
309.0
 30
0.0
 40
2.500000000000007
  0
LINE
  5
85
330
1F
100
AcDbEntity
  8
0
  6
Continuous
 62
     7
370
    25
100
AcDbLine
 10
43.165590414
 20
515.0
 30
0.0
 11
-43.165590414
 21
515.0
 31
0.0
  0
LINE
  5
86
330
1F
100
AcDbEntity
  8
0
  6
Continuous
 62
     7
370
    25
100
AcDbLine
 10
-56.6762700257
 20
299.0
 30
0.0
 11
56.6762700257
 21
299.0
 31
0.0
  0
LINE
  5
87
330
1F
100
AcDbEntity
  8
0
  6
Continuous
 62
     7
370
    25
100
AcDbLine
 10
53.1419166176
 20
505.6876885053
 30
0.0
 11
66.6525962292
 21
309.6876885053
 31
0.0
  0
LINE
  5
88
330
1F
100
AcDbEntity
  8
0
  6
Continuous
 62
     7
370
    25
100
AcDbLine
 10
-53.1419166176
 20
505.6876885053
 30
0.0
 11
-66.6525962292
 21
309.6876885053
 31
0.0
  0
ARC
  5
89
330
1F
100
AcDbEntity
  8
0
  6
Continuous
 62
     7
370
    25
100
AcDbCircle
 10
-56.6762700257
 20
309.0
 30
0.0
 40
10.0
100
AcDbArc
 50
176.0567228666
 51
270.0
  0
ARC
  5
8A
330
1F
100
AcDbEntity
  8
0
  6
Continuous
 62
     7
370
    25
100
AcDbCircle
 10
-43.165590414
 20
505.0
 30
0.0
 40
10.0
100
AcDbArc
 50
90.0
 51
176.0567228666
  0
ARC
  5
8B
330
1F
100
AcDbEntity
  8
0
  6
Continuous
 62
     7
370
    25
100
AcDbCircle
 10
43.165590414
 20
505.0
 30
0.0
 40
10.0
100
AcDbArc
 50
3.9432771334
 51
90.0
  0
ARC
  5
8C
330
1F
100
AcDbEntity
  8
0
  6
Continuous
 62
     7
370
    25
100
AcDbCircle
 10
56.6762700257
 20
309.0
 30
0.0
 40
10.0
100
AcDbArc
 50
270.0
 51
3.9432771334
  0
MTEXT
  5
8E
330
1F
100
AcDbEntity
  8
0
  6
Continuous
 62
     7
100
AcDbMText
 10
-66.6762700257
 20
297.9804336083
 30
0.0
 40
4.83362
 41
0.0
 71
     1
 72
     1
  1
SOLIDWORKS Educational Product.
  7
SLDTEXTSTYLE0
 73
     1
 44
1.0
  0
MTEXT
  5
8F
330
1F
100
AcDbEntity
  8
0
  6
Continuous
 62
     7
100
AcDbMText
 10
-66.6762700257
 20
290.7300036083
 30
0.0
 40
4.83362
 41
0.0
 71
     1
 72
     1
  1
For Instructional Use Only.
  7
SLDTEXTSTYLE0
 73
     1
 44
1.0
  0
ENDSEC
  0
SECTION
  2
OBJECTS
  0
DICTIONARY
  5
C
330
0
100
AcDbDictionary
281
     1
  3
ACAD_GROUP
350
D
  3
ACAD_LAYOUT
350
1A
  3
ACAD_MLINESTYLE
350
17
  3
ACAD_PLOTSETTINGS
350
19
  3
ACAD_PLOTSTYLENAME
350
E
  3
ACAD_SCALELIST
350
47
  3
DWGPROPS
350
90
  0
DICTIONARY
  5
D
102
{ACAD_REACTORS
330
C
102
}
330
C
100
AcDbDictionary
281
     1
  0
DICTIONARY
  5
1A
102
{ACAD_REACTORS
330
C
102
}
330
C
100
AcDbDictionary
281
     1
  3
Layout1
350
1E
  3
Layout2
350
26
  3
Model
350
22
  0
DICTIONARY
  5
17
102
{ACAD_REACTORS
330
C
102
}
330
C
100
AcDbDictionary
281
     1
  3
Standard
350
18
  0
DICTIONARY
  5
19
102
{ACAD_REACTORS
330
C
102
}
330
C
100
AcDbDictionary
281
     1
  0
ACDBDICTIONARYWDFLT
  5
E
102
{ACAD_REACTORS
330
C
102
}
330
C
100
AcDbDictionary
281
     1
  3
Normal
350
F
100
AcDbDictionaryWithDefault
340
F
  0
DICTIONARY
  5
47
102
{ACAD_REACTORS
330
C
102
}
330
C
100
AcDbDictionary
281
     1
  3
A0
350
48
  3
A1
350
49
  3
A2
350
4A
  3
A3
350
4B
  3
A4
350
4C
  3
A5
350
4D
  3
A6
350
4E
  3
A7
350
4F
  3
A8
350
50
  3
A9
350
51
  3
B0
350
52
  3
B1
350
53
  3
B2
350
54
  3
B3
350
55
  3
B4
350
56
  3
B5
350
57
  3
B6
350
58
  0
XRECORD
  5
90
102
{ACAD_REACTORS
330
C
102
}
330
C
100
AcDbXrecord
280
     1
  1
DWGPROPS COOKIE
  2

  3

  4

  6

  7

  8
2002o
  9

300
=
301
=
302
=
303
=
304
=
305
=
306
=
307
=
308
=
309
=
 40
0.0
 41
2461140.33387956
 42
2461140.333926158
  1

 90
        0
  0
LAYOUT
  5
1E
102
{ACAD_REACTORS
330
1A
102
}
330
1A
100
AcDbPlotSettings
  1

  2
none_device
  4

  6

 40
0.0
 41
0.0
 42
0.0
 43
0.0
 44
0.0
 45
0.0
 46
0.0
 47
0.0
 48
0.0
 49
0.0
140
0.0
141
0.0
142
1.0
143
1.0
 70
   688
 72
     1
 73
     0
 74
     5
  7

 75
    16
147
1.0
148
0.0
149
0.0
100
AcDbLayout
  1
Layout1
 70
     1
 71
     1
 10
0.0
 20
0.0
 11
420.0
 21
297.0
 12
0.0
 22
0.0
 32
0.0
 14
1.0000000000E+20
 24
1.0000000000E+20
 34
1.0000000000E+20
 15
-1.0000000000E+20
 25
-1.0000000000E+20
 35
-1.0000000000E+20
146
0.0
 13
0.0
 23
0.0
 33
0.0
 16
1.0
 26
0.0
 36
0.0
 17
0.0
 27
1.0
 37
0.0
 76
     0
330
1B
  0
LAYOUT
  5
26
102
{ACAD_REACTORS
330
1A
102
}
330
1A
100
AcDbPlotSettings
  1

  2
none_device
  4

  6

 40
0.0
 41
0.0
 42
0.0
 43
0.0
 44
0.0
 45
0.0
 46
0.0
 47
0.0
 48
0.0
 49
0.0
140
0.0
141
0.0
142
1.0
143
1.0
 70
   688
 72
     1
 73
     0
 74
     5
  7

 75
    16
147
1.0
148
0.0
149
0.0
100
AcDbLayout
  1
Layout2
 70
     1
 71
     2
 10
0.0
 20
0.0
 11
0.0
 21
0.0
 12
0.0
 22
0.0
 32
0.0
 14
0.0
 24
0.0
 34
0.0
 15
0.0
 25
0.0
 35
0.0
146
0.0
 13
0.0
 23
0.0
 33
0.0
 16
1.0
 26
0.0
 36
0.0
 17
0.0
 27
1.0
 37
0.0
 76
     0
330
23
  0
LAYOUT
  5
22
102
{ACAD_REACTORS
330
1A
102
}
330
1A
100
AcDbPlotSettings
  1

  2
none_device
  4
ANSI_A_(11.00_x_8.50_Inches)
  6

 40
6.35
 41
19.05
 42
6.35000508
 43
19.05000254
 44
279.4
 45
215.9
 46
133.34999746
 47
-313.8434596033
 48
0.0
 49
0.0
140
0.0
141
0.0
142
0.0389583333
143
1.0
 70
  1696
 72
     0
 73
     0
 74
     0
  7

 75
     0
147
0.0179189148
148
-1300.4909072572
149
0.0
100
AcDbLayout
  1
Model
 70
     1
 71
     0
 10
0.0
 20
0.0
 11
420.0
 21
297.0
 12
0.0
 22
0.0
 32
0.0
 14
-66.6762700257
 24
299.0
 34
0.0
 15
66.6762700257
 25
515.0
 35
0.0
146
0.0
 13
0.0
 23
0.0
 33
0.0
 16
1.0
 26
0.0
 36
0.0
 17
0.0
 27
1.0
 37
0.0
 76
     0
330
1F
331
29
  0
MLINESTYLE
  5
18
102
{ACAD_REACTORS
330
17
102
}
330
17
100
AcDbMlineStyle
  2
Standard
 70
     0
  3

 62
   256
 51
90.0
 52
90.0
 71
     2
 49
0.5
 62
   256
  6
BYLAYER
 49
-0.5
 62
   256
  6
BYLAYER
  0
ACDBPLACEHOLDER
  5
F
102
{ACAD_REACTORS
330
E
102
}
330
E
  0
SCALE
  5
48
102
{ACAD_REACTORS
330
47
102
}
330
47
100
AcDbScale
 70
     0
300
1:1
140
1.0
141
1.0
290
     1
  0
SCALE
  5
49
102
{ACAD_REACTORS
330
47
102
}
330
47
100
AcDbScale
 70
     0
300
1:2
140
1.0
141
2.0
290
     0
  0
SCALE
  5
4A
102
{ACAD_REACTORS
330
47
102
}
330
47
100
AcDbScale
 70
     0
300
1:4
140
1.0
141
4.0
290
     0
  0
SCALE
  5
4B
102
{ACAD_REACTORS
330
47
102
}
330
47
100
AcDbScale
 70
     0
300
1:5
140
1.0
141
5.0
290
     0
  0
SCALE
  5
4C
102
{ACAD_REACTORS
330
47
102
}
330
47
100
AcDbScale
 70
     0
300
1:8
140
1.0
141
8.0
290
     0
  0
SCALE
  5
4D
102
{ACAD_REACTORS
330
47
102
}
330
47
100
AcDbScale
 70
     0
300
1:10
140
1.0
141
10.0
290
     0
  0
SCALE
  5
4E
102
{ACAD_REACTORS
330
47
102
}
330
47
100
AcDbScale
 70
     0
300
1:16
140
1.0
141
16.0
290
     0
  0
SCALE
  5
4F
102
{ACAD_REACTORS
330
47
102
}
330
47
100
AcDbScale
 70
     0
300
1:20
140
1.0
141
20.0
290
     0
  0
SCALE
  5
50
102
{ACAD_REACTORS
330
47
102
}
330
47
100
AcDbScale
 70
     0
300
1:30
140
1.0
141
30.0
290
     0
  0
SCALE
  5
51
102
{ACAD_REACTORS
330
47
102
}
330
47
100
AcDbScale
 70
     0
300
1:40
140
1.0
141
40.0
290
     0
  0
SCALE
  5
52
102
{ACAD_REACTORS
330
47
102
}
330
47
100
AcDbScale
 70
     0
300
1:50
140
1.0
141
50.0
290
     0
  0
SCALE
  5
53
102
{ACAD_REACTORS
330
47
102
}
330
47
100
AcDbScale
 70
     0
300
1:100
140
1.0
141
100.0
290
     0
  0
SCALE
  5
54
102
{ACAD_REACTORS
330
47
102
}
330
47
100
AcDbScale
 70
     0
300
2:1
140
2.0
141
1.0
290
     0
  0
SCALE
  5
55
102
{ACAD_REACTORS
330
47
102
}
330
47
100
AcDbScale
 70
     0
300
4:1
140
4.0
141
1.0
290
     0
  0
SCALE
  5
56
102
{ACAD_REACTORS
330
47
102
}
330
47
100
AcDbScale
 70
     0
300
8:1
140
8.0
141
1.0
290
     0
  0
SCALE
  5
57
102
{ACAD_REACTORS
330
47
102
}
330
47
100
AcDbScale
 70
     0
300
10:1
140
10.0
141
1.0
290
     0
  0
SCALE
  5
58
102
{ACAD_REACTORS
330
47
102
}
330
47
100
AcDbScale
 70
     0
300
100:1
140
100.0
141
1.0
290
     0
  0
ENDSEC
  0
EOF
