  0
SECTION
  2
HEADER
  9
$ACADVER
  1
AC1015
  9
$ACADMAINTVER
 70
     6
  9
$DWGCODEPAGE
  3
ANSI_1252
  9
$INSBASE
 10
0.0
 20
0.0
 30
0.0
  9
$EXTMIN
 10
-66.6762700257
 20
299.0
 30
0.0
  9
$EXTMAX
 10
66.6762700257
 20
515.0
 30
0.0
  9
$LIMMIN
 10
0.0
 20
0.0
  9
$LIMMAX
 10
420.0
 20
297.0
  9
$ORTHOMODE
 70
     0
  9
$REGENMODE
 70
     1
  9
$FILLMODE
 70
     1
  9
$QTEXTMODE
 70
     0
  9
$MIRRTEXT
 70
     1
  9
$LTSCALE
 40
1.0
  9
$ATTMODE
 70
     1
  9
$TEXTSIZE
 40
3.5
  9
$TRACEWID
 40
1.0
  9
$TEXTSTYLE
  7
Standard
  9
$CLAYER
  8
0
  9
$CELTYPE
  6
ByLayer
  9
$CECOLOR
 62
   256
  9
$CELTSCALE
 40
1.0
  9
$DISPSILH
 70
     0
  9
$DIMSCALE
 40
1.0
  9
$DIMASZ
 40
3.302
  9
$DIMEXO
 40
0.0
  9
$DIMDLI
 40
3.75
  9
$DIMRND
 40
0.0
  9
$DIMDLE
 40
0.0
  9
$DIMEXE
 40
1.0
  9
$DIMTP
 40
0.0
  9
$DIMTM
 40
0.0
  9
$DIMTXT
 40
3.5
  9
$DIMCEN
 40
2.5
  9
$DIMTSZ
 40
0.0
  9
$DIMTOL
 70
     0
  9
$DIMLIM
 70
     0
  9
$DIMTIH
 70
     1
  9
$DIMTOH
 70
     1
  9
$DIMSE1
 70
     0
  9
$DIMSE2
 70
     0
  9
$DIMTAD
 70
     1
  9
$DIMZIN
 70
     1
  9
$DIMBLK
  1

  9
$DIMASO
 70
     1
  9
$DIMSHO
 70
     1
  9
$DIMPOST
  1

  9
$DIMAPOST
  1

  9
$DIMALT
 70
     0
  9
$DIMALTD
 70
     3
  9
$DIMALTF
 40
0.0393700787
  9
$DIMLFAC
 40
1.0
  9
$DIMTOFL
 70
     1
  9
$DIMTVP
 40
0.0
  9
$DIMTIX
 70
     0
  9
$DIMSOXD
 70
     0
  9
$DIMSAH
 70
     0
  9
$DIMBLK1
  1

  9
$DIMBLK2
  1

  9
$DIMSTYLE
  2
ISO-25
  9
$DIMCLRD
 70
     0
  9
$DIMCLRE
 70
     0
  9
$DIMCLRT
 70
     0
  9
$DIMTFAC
 40
1.0
  9
$DIMGAP
 40
1.524
  9
$DIMJUST
 70
     0
  9
$DIMSD1
 70
     0
  9
$DIMSD2
 70
     0
  9
$DIMTOLJ
 70
     0
  9
$DIMTZIN
 70
     1
  9
$DIMALTZ
 70
     0
  9
$DIMALTTZ
 70
     0
  9
$DIMUPT
 70
     0
  9
$DIMDEC
 70
     2
  9
$DIMTDEC
 70
     2
  9
$DIMALTU
 70
     2
  9
$DIMALTTD
 70
     3
  9
$DIMTXSTY
  7
Standard
  9
$DIMAUNIT
 70
     0
  9
$DIMADEC
 70
     2
  9
$DIMALTRND
 40
0.0
  9
$DIMAZIN
 70
     0
  9
$DIMDSEP
 70
    44
  9
$DIMATFIT
 70
     3
  9
$DIMFRAC
 70
     0
  9
$DIMLDRBLK
  1

  9
$DIMLUNIT
 70
     2
  9
$DIMLWD
 70
    -2
  9
$DIMLWE
 70
    -2
  9
$DIMTMOVE
 70
     0
  9
$LUNITS
 70
     2
  9
$LUPREC
 70
     2
  9
$SKETCHINC
 40
1.0
  9
$FILLETRAD
 40
0.0
  9
$AUNITS
 70
     0
  9
$AUPREC
 70
     2
  9
$MENU
  1
.
  9
$ELEVATION
 40
0.0
  9
$PELEVATION
 40
0.0
  9
$THICKNESS
 40
0.0
  9
$LIMCHECK
 70
     0
  9
$CHAMFERA
 40
0.0
  9
$CHAMFERB
 40
0.0
  9
$CHAMFERC
 40
0.0
  9
$CHAMFERD
 40
0.0
  9
$SKPOLY
 70
     0
  9
$TDCREATE
 40
2461059.927521019
  9
$TDUCREATE
 40
2461060.260854352
  9
$TDUPDATE
 40
2461059.927614121
  9
$TDUUPDATE
 40
2461060.260947454
  9
$TDINDWG
 40
0.0000000116
  9
$TDUSRTIMER
 40
0.0000000116
  9
$USRTIMER
 70
     1
  9
$ANGBASE
 50
0.0
  9
$ANGDIR
 70
     0
  9
$PDMODE
 70
     0
  9
$PDSIZE
 40
-1.0
  9
$PLINEWID
 40
0.0
  9
$SPLFRAME
 70
     0
  9
$SPLINETYPE
 70
     6
  9
$SPLINESEGS
 70
     8
  9
$HANDSEED
  5
BB
  9
$SURFTAB1
 70
     6
  9
$SURFTAB2
 70
     6
  9
$SURFTYPE
 70
     6
  9
$SURFU
 70
     6
  9
$SURFV
 70
     6
  9
$UCSBASE
  2

  9
$UCSNAME
  2

  9
$UCSORG
 10
0.0
 20
0.0
 30
0.0
  9
$UCSXDIR
 10
1.0
 20
0.0
 30
0.0
  9
$UCSYDIR
 10
0.0
 20
1.0
 30
0.0
  9
$UCSORTHOREF
  2

  9
$UCSORTHOVIEW
 70
     0
  9
$UCSORGTOP
 10
0.0
 20
0.0
 30
0.0
  9
$UCSORGBOTTOM
 10
0.0
 20
0.0
 30
0.0
  9
$UCSORGLEFT
 10
0.0
 20
0.0
 30
0.0
  9
$UCSORGRIGHT
 10
0.0
 20
0.0
 30
0.0
  9
$UCSORGFRONT
 10
0.0
 20
0.0
 30
0.0
  9
$UCSORGBACK
 10
0.0
 20
0.0
 30
0.0
  9
$PUCSBASE
  2

  9
$PUCSNAME
  2

  9
$PUCSORG
 10
0.0
 20
0.0
 30
0.0
  9
$PUCSXDIR
 10
1.0
 20
0.0
 30
0.0
  9
$PUCSYDIR
 10
0.0
 20
1.0
 30
0.0
  9
$PUCSORTHOREF
  2

  9
$PUCSORTHOVIEW
 70
     0
  9
$PUCSORGTOP
 10
0.0
 20
0.0
 30
0.0
  9
$PUCSORGBOTTOM
 10
0.0
 20
0.0
 30
0.0
  9
$PUCSORGLEFT
 10
0.0
 20
0.0
 30
0.0
  9
$PUCSORGRIGHT
 10
0.0
 20
0.0
 30
0.0
  9
$PUCSORGFRONT
 10
0.0
 20
0.0
 30
0.0
  9
$PUCSORGBACK
 10
0.0
 20
0.0
 30
0.0
  9
$USERI1
 70
     0
  9
$USERI2
 70
     0
  9
$USERI3
 70
     0
  9
$USERI4
 70
     0
  9
$USERI5
 70
     0
  9
$USERR1
 40
0.0
  9
$USERR2
 40
0.0
  9
$USERR3
 40
0.0
  9
$USERR4
 40
0.0
  9
$USERR5
 40
0.0
  9
$WORLDVIEW
 70
     1
  9
$SHADEDGE
 70
     3
  9
$SHADEDIF
 70
    70
  9
$TILEMODE
 70
     1
  9
$MAXACTVP
 70
    64
  9
$PINSBASE
 10
0.0
 20
0.0
 30
0.0
  9
$PLIMCHECK
 70
     0
  9
$PEXTMIN
 10
1.0000000000E+20
 20
1.0000000000E+20
 30
1.0000000000E+20
  9
$PEXTMAX
 10
-1.0000000000E+20
 20
-1.0000000000E+20
 30
-1.0000000000E+20
  9
$PLIMMIN
 10
0.0
 20
0.0
  9
$PLIMMAX
 10
420.0
 20
297.0
  9
$UNITMODE
 70
     0
  9
$VISRETAIN
 70
     1
  9
$PLINEGEN
 70
     0
  9
$PSLTSCALE
 70
     1
  9
$TREEDEPTH
 70
  3020
  9
$CMLSTYLE
  2
Standard
  9
$CMLJUST
 70
     0
  9
$CMLSCALE
 40
20.0
  9
$PROXYGRAPHICS
 70
     1
  9
$MEASUREMENT
 70
     1
  9
$CELWEIGHT
370
    -1
  9
$ENDCAPS
280
     0
  9
$JOINSTYLE
280
     0
  9
$LWDISPLAY
290
     1
  9
$INSUNITS
 70
     4
  9
$HYPERLINKBASE
  1

  9
$STYLESHEET
  1

  9
$XEDIT
290
     1
  9
$CEPSNTYPE
380
     0
  9
$PSTYLEMODE
290
     1
  9
$FINGERPRINTGUID
  2
{ebceed58-1e5a-4f40-8dfa-d280281af701}
  9
$VERSIONGUID
  2
{FAEB1C32-E019-11D5-929B-00C0DF256EC4}
  9
$EXTNAMES
290
     1
  9
$PSVPSCALE
 40
0.0
  9
$OLESTARTUP
290
     0
  0
ENDSEC
  0
SECTION
  2
CLASSES
  0
CLASS
  1
ACDBDICTIONARYWDFLT
  2
AcDbDictionaryWithDefault
  3
ObjectDBX Classes
 90
        0
280
     0
281
     0
  0
CLASS
  1
VISUALSTYLE
  2
AcDbVisualStyle
  3
ObjectDBX Classes
 90
     4095
280
     0
281
     0
  0
CLASS
  1
MATERIAL
  2
AcDbMaterial
  3
ObjectDBX Classes
 90
     1153
280
     0
281
     0
  0
CLASS
  1
SCALE
  2
AcDbScale
  3
ObjectDBX Classes
 90
     1153
280
     0
281
     0
  0
CLASS
  1
TABLESTYLE
  2
AcDbTableStyle
  3
ObjectDBX Classes
 90
     4095
280
     0
281
     0
  0
CLASS
  1
MLEADERSTYLE
  2
AcDbMLeaderStyle
  3
ACDB_MLEADERSTYLE_CLASS
 90
     4095
280
     0
281
     0
  0
CLASS
  1
SUN
  2
AcDbSun
  3
SCENEOE
 90
     1153
280
     0
281
     0
  0
CLASS
  1
ACDBPLACEHOLDER
  2
AcDbPlaceHolder
  3
ObjectDBX Classes
 90
        0
280
     0
281
     0
  0
CLASS
  1
LAYOUT
  2
AcDbLayout
  3
ObjectDBX Classes
 90
        0
280
     0
281
     0
  0
ENDSEC
  0
SECTION
  2
TABLES
  0
TABLE
  2
VPORT
  5
8
330
0
100
AcDbSymbolTable
 70
     1
  0
VPORT
  5
29
330
8
100
AcDbSymbolTableRecord
100
AcDbViewportTableRecord
  2
*Active
 70
     0
 10
0.0
 20
0.0
 11
1.0
 21
1.0
 12
0.0
 22
407.0
 13
0.0
 23
0.0
 14
10.0
 24
10.0
 15
10.0
 25
10.0
 16
0.0
 26
0.0
 36
1.0
 17
0.0
 27
0.0
 37
0.0
 40
220.32
 41
0.6173728706
 42
50.0
 43
0.0
 44
0.0
 50
0.0
 51
0.0
 71
     0
 72
   100
 73
     1
 74
     3
 75
     0
 76
     0
 77
     0
 78
     0
281
     0
 65
     1
110
0.0
120
0.0
130
0.0
111
1.0
121
0.0
131
0.0
112
0.0
122
1.0
132
0.0
 79
     0
146
0.0
  0
ENDTAB
  0
TABLE
  2
LTYPE
  5
5
330
0
100
AcDbSymbolTable
 70
     6
  0
LTYPE
  5
14
330
5
100
AcDbSymbolTableRecord
100
AcDbLinetypeTableRecord
  2
ByBlock
 70
     0
  3

 72
    65
 73
     0
 40
0.0
  0
LTYPE
  5
15
330
5
100
AcDbSymbolTableRecord
100
AcDbLinetypeTableRecord
  2
ByLayer
 70
     0
  3

 72
    65
 73
     0
 40
0.0
  0
LTYPE
  5
16
330
5
100
AcDbSymbolTableRecord
100
AcDbLinetypeTableRecord
  2
Continuous
 70
     0
  3
Solid line
 72
    65
 73
     0
 40
0.0
  0
LTYPE
  5
5E
330
5
100
AcDbSymbolTableRecord
100
AcDbLinetypeTableRecord
  2
HIDDEN
 70
     0
  3
Hidden __ __ __ __ __ __ __ __ __ __ __ __ __ __
 72
    65
 73
     2
 40
1.905
 49
1.27
 74
     0
 49
-0.635
 74
     0
  0
LTYPE
  5
5F
330
5
100
AcDbSymbolTableRecord
100
AcDbLinetypeTableRecord
  2
PHANTOM
 70
     0
  3
Phantom ______  __  __  ______  __  __  ______
 72
    65
 73
     6
 40
12.7
 49
6.35
 74
     0
 49
-1.27
 74
     0
 49
1.27
 74
     0
 49
-1.27
 74
     0
 49
1.27
 74
     0
 49
-1.27
 74
     0
  0
LTYPE
  5
60
330
5
100
AcDbSymbolTableRecord
100
AcDbLinetypeTableRecord
  2
CENTER
 70
     0
  3
Center ____ _ ____ _ ____ _ ____ _ ____ _ ____
 72
    65
 73
     4
 40
10.16
 49
6.35
 74
     0
 49
-1.27
 74
     0
 49
1.27
 74
     0
 49
-1.27
 74
     0
  0
LTYPE
  5
61
330
5
100
AcDbSymbolTableRecord
100
AcDbLinetypeTableRecord
  2
CENTERX2
 70
     0
  3
Center (2x) ________  __  ________  __  _____
 72
    65
 73
     4
 40
20.32
 49
12.7
 74
     0
 49
-2.54
 74
     0
 49
2.54
 74
     0
 49
-2.54
 74
     0
  0
LTYPE
  5
62
330
5
100
AcDbSymbolTableRecord
100
AcDbLinetypeTableRecord
  2
DOT2
 70
     0
  3
Dot (.5x) ........................................
 72
    65
 73
     2
 40
0.635
 49
0.0
 74
     0
 49
-0.635
 74
     0
  0
ENDTAB
  0
TABLE
  2
LAYER
  5
2
330
0
100
AcDbSymbolTable
 70
     1
  0
LAYER
  5
10
330
2
100
AcDbSymbolTableRecord
100
AcDbLayerTableRecord
  2
0
 70
     0
 62
     7
  6
Continuous
370
    -3
390
F
  0
ENDTAB
  0
TABLE
  2
STYLE
  5
3
330
0
100
AcDbSymbolTable
 70
     2
  0
STYLE
  5
11
330
3
100
AcDbSymbolTableRecord
100
AcDbTextStyleTableRecord
  2
Standard
 70
     0
 40
0.0
 41
1.0
 50
0.0
 71
     0
 42
3.5
  3
txt
  4

  0
STYLE
  5
B7
330
3
100
AcDbSymbolTableRecord
100
AcDbTextStyleTableRecord
  2
SLDTEXTSTYLE0
 70
     0
 40
0.0
 41
0.7
 50
0.0
 71
     0
 42
3.5
  3
TXT
  4

  0
ENDTAB
  0
TABLE
  2
VIEW
  5
6
330
0
100
AcDbSymbolTable
 70
     0
  0
ENDTAB
  0
TABLE
  2
UCS
  5
7
330
0
100
AcDbSymbolTable
 70
     0
  0
ENDTAB
  0
TABLE
  2
APPID
  5
9
330
0
100
AcDbSymbolTable
 70
     1
  0
APPID
  5
12
330
9
100
AcDbSymbolTableRecord
100
AcDbRegAppTableRecord
  2
ACAD
 70
     0
  0
ENDTAB
  0
TABLE
  2
DIMSTYLE
  5
A
330
0
100
AcDbSymbolTable
 70
     1
100
AcDbDimStyleTable
  0
DIMSTYLE
105
27
330
A
100
AcDbSymbolTableRecord
100
AcDbDimStyleTableRecord
  2
ISO-25
 70
     0
 41
2.5
 42
0.625
 43
3.75
 44
1.25
 73
     0
 74
     0
 77
     1
 78
     8
140
2.5
141
2.5
143
0.0393700787
147
0.625
171
     3
172
     1
178
     0
271
     2
272
     2
274
     3
278
    44
283
     0
284
     8
340
11
  0
ENDTAB
  0
TABLE
  2
BLOCK_RECORD
  5
1
330
0
100
AcDbSymbolTable
 70
     1
  0
BLOCK_RECORD
  5
1F
330
1
100
AcDbSymbolTableRecord
100
AcDbBlockTableRecord
  2
*Model_Space
340
22
  0
BLOCK_RECORD
  5
1B
330
1
100
AcDbSymbolTableRecord
100
AcDbBlockTableRecord
  2
*Paper_Space
340
1E
  0
BLOCK_RECORD
  5
23
330
1
100
AcDbSymbolTableRecord
100
AcDbBlockTableRecord
  2
*Paper_Space0
340
26
  0
ENDTAB
  0
ENDSEC
  0
SECTION
  2
BLOCKS
  0
BLOCK
  5
20
330
1F
100
AcDbEntity
  8
0
100
AcDbBlockBegin
  2
*Model_Space
 70
     0
 10
0.0
 20
0.0
 30
0.0
  3
*Model_Space
  1

  0
ENDBLK
  5
21
330
1F
100
AcDbEntity
  8
0
100
AcDbBlockEnd
  0
BLOCK
  5
1C
330
1B
100
AcDbEntity
 67
     1
  8
0
100
AcDbBlockBegin
  2
*Paper_Space
 70
     0
 10
0.0
 20
0.0
 30
0.0
  3
*Paper_Space
  1

  0
ENDBLK
  5
1D
330
1B
100
AcDbEntity
 67
     1
  8
0
100
AcDbBlockEnd
  0
BLOCK
  5
24
330
23
100
AcDbEntity
  8
0
100
AcDbBlockBegin
  2
*Paper_Space0
 70
     0
 10
0.0
 20
0.0
 30
0.0
  3
*Paper_Space0
  1

  0
ENDBLK
  5
25
330
23
100
AcDbEntity
  8
0
100
AcDbBlockEnd
  0
ENDSEC
  0
SECTION
  2
ENTITIES
  0
CIRCLE
  5
6B
330
1F
100
AcDbEntity
  8
0
  6
Continuous
 62
     7
370
    25
100
AcDbCircle
 10
59.4327957686
 20
309.0
 30
0.0
 40
2.5
  0
CIRCLE
  5
6C
330
1F
100
AcDbEntity
  8
0
  6
Continuous
 62
     7
370
    25
100
AcDbCircle
 10
-46.1289122735
 20
502.0
 30
0.0
 40
2.500000000000071
  0
CIRCLE
  5
6D
330
1F
100
AcDbEntity
  8
0
  6
Continuous
 62
     7
370
    25
100
AcDbCircle
 10
46.1289122735
 20
502.0
 30
0.0
 40
2.500000000000007
  0
CIRCLE
  5
6E
330
1F
100
AcDbEntity
  8
0
  6
Continuous
 62
     7
370
    25
100
AcDbCircle
 10
-59.4327957686
 20
309.0
 30
0.0
 40
2.500000000000007
  0
SPLINE
  5
6F
330
1F
100
AcDbEntity
  8
0
  6
Continuous
 62
     7
370
    25
100
AcDbSpline
210
0.0
220
0.0
230
1.0
 70
     8
 71
     3
 72
    23
 73
    19
 74
     0
 42
0.00000001
 43
0.00000001
 40
0.0
 40
0.0
 40
0.0
 40
0.0
 40
0.0828364287839055
 40
0.1608241618111543
 40
0.2341392678798937
 40
0.303604063512566
 40
0.3688582738854297
 40
0.4310424929299054
 40
0.4902554098466426
 40
0.5473689029208444
 40
0.6029752974297261
 40
0.657291884006742
 40
0.7110197388079383
 40
0.7655241264001691
 40
0.8209141796606825
 40
0.8778664234325708
 40
0.9374063196341809
 40
1.0
 40
1.0
 40
1.0
 40
1.0
 10
35.78041296101669
 20
493.1743215031312
 30
0.0
 10
35.86089893172084
 20
493.1687872292445
 30
0.0
 10
36.01715975761687
 20
493.1580426212004
 30
0.0
 10
36.24284139445142
 20
493.1246739940534
 30
0.0
 10
36.45379350945338
 20
493.082893603771
 30
0.0
 10
36.64898363383668
 20
493.0278678046954
 30
0.0
 10
36.82870672650577
 20
492.960691923695
 30
0.0
 10
36.99353368166604
 20
492.8833718526526
 30
0.0
 10
37.14132452612614
 20
492.7913416702264
 30
0.0
 10
37.27522370904894
 20
492.690386358953
 30
0.0
 10
37.39233684211814
 20
492.5769879156228
 30
0.0
 10
37.4943875696887
 20
492.4542549859568
 30
0.0
 10
37.58121469536616
 20
492.3214539651343
 30
0.0
 10
37.65087240861079
 20
492.177781761184
 30
0.0
 10
37.705545310152
 20
492.0244494623982
 30
0.0
 10
37.74356255975255
 20
491.8612472883726
 30
0.0
 10
37.7687450124421
 20
491.6883271441602
 30
0.0
 10
37.77093821170978
 20
491.5693346173398
 30
0.0
 10
37.77206223032776
 20
491.5083507306886
 30
0.0
  0
SPLINE
  5
70
330
1F
100
AcDbEntity
  8
0
  6
Continuous
 62
     7
370
    25
100
AcDbSpline
210
0.0
220
0.0
230
1.0
 70
     8
 71
     3
 72
    15
 73
    11
 74
     0
 42
0.00000001
 43
0.00000001
 40
0.0
 40
0.0
 40
0.0
 40
0.0
 40
0.1309630660488802
 40
0.2661349312314552
 40
0.4024166655580079
 40
0.5398149663343583
 40
0.6719599116705587
 40
0.7948920815035548
 40
0.905241572294522
 40
1.0
 40
1.0
 40
1.0
 40
1.0
 10
35.85974490256158
 20
494.1774530271396
 30
0.0
 10
35.85701343601003
 20
494.1336082594115
 30
0.0
 10
35.85146272095128
 20
494.0445096715713
 30
0.0
 10
35.84209343928917
 20
493.909849977053
 30
0.0
 10
35.83184736881445
 20
493.7730871414817
 30
0.0
 10
35.8197984297773
 20
493.6374910624561
 30
0.0
 10
35.81059172758538
 20
493.506151346387
 30
0.0
 10
35.79809566978261
 20
493.3842006220378
 30
0.0
 10
35.78937386254995
 20
493.2745074989011
 30
0.0
 10
35.78324462569287
 20
493.2059804990722
 30
0.0
 10
35.78041296101669
 20
493.1743215031312
 30
0.0
  0
SPLINE
  5
74
330
1F
100
AcDbEntity
  8
0
  6
Continuous
 62
     7
370
    25
100
AcDbSpline
210
0.0
220
0.0
230
1.0
 70
     8
 71
     3
 72
    13
 73
     9
 74
     0
 42
0.00000001
 43
0.00000001
 40
0.0
 40
0.0
 40
0.0
 40
0.0
 40
0.1728006076166077
 40
0.343937295415111
 40
0.5132624575109604
 40
0.6792824447353871
 40
0.8419266136098525
 40
1.0
 40
1.0
 40
1.0
 40
1.0
 10
34.82842966247807
 20
492.4175365344464
 30
0.0
 10
34.84668755481619
 20
492.5656693201767
 30
0.0
 10
34.88302753184153
 20
492.8605085015263
 30
0.0
 10
34.9219959278606
 20
493.3021449736801
 30
0.0
 10
34.95572803369671
 20
493.7382657569148
 30
0.0
 10
34.98790518333132
 20
494.1671645344891
 30
0.0
 10
35.01337857603725
 20
494.5868029192529
 30
0.0
 10
35.02443943104641
 20
494.8635825030972
 30
0.0
 10
35.02989104034864
 20
494.9999999999997
 30
0.0
  0
SPLINE
  5
75
330
1F
100
AcDbEntity
  8
0
  6
Continuous
 62
     7
370
    25
100
AcDbSpline
210
0.0
220
0.0
230
1.0
 70
     8
 71
     3
 72
    27
 73
    23
 74
     0
 42
0.00000001
 43
0.00000001
 40
0.0
 40
0.0
 40
0.0
 40
0.0
 40
0.0422699558197408
 40
0.0831664534291974
 40
0.1226770072073988
 40
0.1615238691998196
 40
0.2004638520497538
 40
0.2413240012484241
 40
0.284928430826255
 40
0.3319216487780078
 40
0.3841700949517319
 40
0.4433932109364148
 40
0.5107620891994603
 40
0.5860729206643625
 40
0.6270963840891041
 40
0.6714671770864004
 40
0.7186812068099997
 40
0.7688588244697698
 40
0.8219535685887306
 40
0.8780207335543693
 40
0.9375082642109497
 40
1.0
 40
1.0
 40
1.0
 40
1.0
 10
36.75431692761377
 20
491.4718162839245
 30
0.0
 10
36.75360385349714
 20
491.5059567922463
 30
0.0
 10
36.75220087485278
 20
491.5731284970735
 30
0.0
 10
36.73850468329537
 20
491.6714978103722
 30
0.0
 10
36.71499522405945
 20
491.7649705371284
 30
0.0
 10
36.68446909891329
 20
491.8548193245207
 30
0.0
 10
36.64012814227692
 20
491.9402846541171
 30
0.0
 10
36.57845356907823
 20
492.0192276573079
 30
0.0
 10
36.50000264277335
 20
492.0912548896537
 30
0.0
 10
36.40548833138665
 20
492.1578456059523
 30
0.0
 10
36.29206693006651
 20
492.2178230665564
 30
0.0
 10
36.15684305878634
 20
492.2691575198663
 30
0.0
 10
36.00022220508396
 20
492.3148425158756
 30
0.0
 10
35.85483009343668
 20
492.3449703617926
 30
0.0
 10
35.72662627327137
 20
492.3648968151501
 30
0.0
 10
35.62062227837092
 20
492.3801205871403
 30
0.0
 10
35.50662684680919
 20
492.3905935153624
 30
0.0
 10
35.38564421192381
 20
492.4018561365742
 30
0.0
 10
35.25714678766926
 20
492.4085349167098
 30
0.0
 10
35.12109104165495
 20
492.4138513476355
 30
0.0
 10
34.97736527471528
 20
492.4169615168066
 30
0.0
 10
34.87888336423477
 20
492.4173417404137
 30
0.0
 10
34.82842966247807
 20
492.4175365344464
 30
0.0
  0
SPLINE
  5
76
330
1F
100
AcDbEntity
  8
0
  6
Continuous
 62
     7
370
    25
100
AcDbSpline
210
0.0
220
0.0
230
1.0
 70
     8
 71
     3
 72
    19
 73
    15
 74
     0
 42
0.00000001
 43
0.00000001
 40
0.0
 40
0.0
 40
0.0
 40
0.0
 40
0.1352029685400276
 40
0.253931225280796
 40
0.357932211857185
 40
0.4483501851881505
 40
0.5303011646457406
 40
0.6054051667045675
 40
0.6754971223773301
 40
0.7432070546363185
 40
0.8099335426226358
 40
0.8744322164577465
 40
0.9372297233571102
 40
1.0
 40
1.0
 40
1.0
 40
1.0
 10
35.78041296101669
 20
490.7432150313149
 30
0.0
 10
35.8427769995859
 20
490.7440098045617
 30
0.0
 10
35.95990591249618
 20
490.7455025065826
 30
0.0
 10
36.12379079101619
 20
490.766892193413
 30
0.0
 10
36.26502231904902
 20
490.7983840451884
 30
0.0
 10
36.38383595535812
 20
490.8460868706767
 30
0.0
 10
36.48169539745974
 20
490.9054065297861
 30
0.0
 10
36.56363036637747
 20
490.971211089839
 30
0.0
 10
36.62867658472829
 20
491.0454113354116
 30
0.0
 10
36.67718813511244
 20
491.1268759612958
 30
0.0
 10
36.71016041794623
 20
491.2126742653006
 30
0.0
 10
36.73604020350304
 20
491.2983689382815
 30
0.0
 10
36.75102148178799
 20
491.385004176415
 30
0.0
 10
36.75321860449235
 20
491.4428830985717
 30
0.0
 10
36.75431692761377
 20
491.4718162839245
 30
0.0
  0
SPLINE
  5
77
330
1F
100
AcDbEntity
  8
0
  6
Continuous
 62
     7
370
    25
100
AcDbSpline
210
0.0
220
0.0
230
1.0
 70
     8
 71
     3
 72
    15
 73
    11
 74
     0
 42
0.00000001
 43
0.00000001
 40
0.0
 40
0.0
 40
0.0
 40
0.0
 40
0.0895081800336156
 40
0.1873821267727677
 40
0.2952951391113802
 40
0.4111420634391502
 40
0.5385682885129752
 40
0.6786982274710194
 40
0.8319840830150605
 40
1.0
 40
1.0
 40
1.0
 40
1.0
 10
34.64053822197702
 20
490.9812108559495
 30
0.0
 10
34.67237606995776
 20
490.9665315238932
 30
0.0
 10
34.73902744935413
 20
490.9358008749259
 30
0.0
 10
34.84765364631344
 20
490.8959400457641
 30
0.0
 10
34.96684325386865
 20
490.8553454408904
 30
0.0
 10
35.0985085378646
 20
490.8153863709838
 30
0.0
 10
35.24532384247656
 20
490.7833520144258
 30
0.0
 10
35.40847085367557
 20
490.7592784033159
 30
0.0
 10
35.58883914146895
 20
490.7464880306787
 30
0.0
 10
35.71463268850376
 20
490.7443388737616
 30
0.0
 10
35.78041296101669
 20
490.7432150313149
 30
0.0
  0
SPLINE
  5
79
330
1F
100
AcDbEntity
  8
0
  6
Continuous
 62
     7
370
    25
100
AcDbSpline
210
0.0
220
0.0
230
1.0
 70
     8
 71
     3
 72
    15
 73
    11
 74
     0
 42
0.00000001
 43
0.00000001
 40
0.0
 40
0.0
 40
0.0
 40
0.0
 40
0.1861477712805537
 40
0.3803660519004168
 40
0.5703272496669879
 40
0.743984092561293
 40
0.8219807212107324
 40
0.8908540254400917
 40
0.9501564387218782
 40
1.0
 40
1.0
 40
1.0
 40
1.0
 10
35.78771985036951
 20
489.8914405010435
 30
0.0
 10
35.70202286631242
 20
489.8934248014685
 30
0.0
 10
35.52691347197839
 20
489.8974794324384
 30
0.0
 10
35.26626711845392
 20
489.931640638276
 30
0.0
 10
35.01379366352236
 20
489.9783617663328
 30
0.0
 10
34.81620039106947
 20
490.0265956307435
 30
0.0
 10
34.6747949858805
 20
490.0686177540822
 30
0.0
 10
34.58403559952205
 20
490.0962624405761
 30
0.0
 10
34.50650187655499
 20
490.1228997110998
 30
0.0
 10
34.46021473672823
 20
490.142435574453
 30
0.0
 10
34.43907684410647
 20
490.1513569937366
 30
0.0
  0
SPLINE
  5
7A
330
1F
100
AcDbEntity
  8
0
  6
Continuous
 62
     7
370
    25
100
AcDbSpline
210
0.0
220
0.0
230
1.0
 70
     8
 71
     3
 72
    31
 73
    27
 74
     0
 42
0.00000001
 43
0.00000001
 40
0.0
 40
0.0
 40
0.0
 40
0.0
 40
0.039397686283484
 40
0.0782263085527849
 40
0.1159447024985514
 40
0.153019036076662
 40
0.1899451846298588
 40
0.2267810728656504
 40
0.2631461499952574
 40
0.2998542340700597
 40
0.3366316005294008
 40
0.3734231626339599
 40
0.4105115781928517
 40
0.4483371121549026
 40
0.4865967364889093
 40
0.5257867809435885
 40
0.5663115091624903
 40
0.6078432856267879
 40
0.6508755758621662
 40
0.694987941525994
 40
0.7408458328874946
 40
0.788618044600633
 40
0.8380383105130566
 40
0.8896689684349911
 40
0.9436252434011893
 40
1.0
 40
1.0
 40
1.0
 40
1.0
 10
37.77206223032776
 20
491.5083507306886
 30
0.0
 10
37.77153313798892
 20
491.4704019267178
 30
0.0
 10
37.77048259557245
 20
491.3950524549931
 30
0.0
 10
37.75990192870523
 20
491.2837673461206
 30
0.0
 10
37.74198586368995
 20
491.1757463677283
 30
0.0
 10
37.71769002401842
 20
491.0708925267238
 30
0.0
 10
37.68810131009275
 20
490.9682260699369
 30
0.0
 10
37.64911062931533
 20
490.8694472874899
 30
0.0
 10
37.60368181414152
 20
490.7737981879275
 30
0.0
 10
37.55303476988822
 20
490.6808318580189
 30
0.0
 10
37.49464350519564
 20
490.5919423253389
 30
0.0
 10
37.42825988933444
 20
490.5084527609353
 30
0.0
 10
37.35610550242873
 20
490.4285489175116
 30
0.0
 10
37.27676474237213
 20
490.3536749718928
 30
0.0
 10
37.19085367094219
 20
490.283196764127
 30
0.0
 10
37.09728519056657
 20
490.2185778955573
 30
0.0
 10
36.9973265943575
 20
490.1580920455309
 30
0.0
 10
36.89029481677002
 20
490.1026477079012
 30
0.0
 10
36.7769218240786
 20
490.0523716885651
 30
0.0
 10
36.65603177362301
 20
490.0097067648131
 30
0.0
 10
36.52842197261549
 20
489.973262780101
 30
0.0
 10
36.3939557921263
 20
489.9429206102104
 30
0.0
 10
36.25235553630446
 20
489.9202666969883
 30
0.0
 10
36.10396243690769
 20
489.9037821079039
 30
0.0
 10
35.94828699454852
 20
489.892851243274
 30
0.0
 10
35.84201870687929
 20
489.8919175705606
 30
0.0
 10
35.78771985036951
 20
489.8914405010435
 30
0.0
  0
SPLINE
  5
83
330
1F
100
AcDbEntity
  8
0
  6
Continuous
 62
     7
370
    25
100
AcDbSpline
210
0.0
220
0.0
230
1.0
 70
     8
 71
     3
 72
    17
 73
    13
 74
     0
 42
0.00000001
 43
0.00000001
 40
0.0
 40
0.0
 40
0.0
 40
0.0
 40
0.0746051233027832
 40
0.1538102213983643
 40
0.236029943255856
 40
0.3232611348249777
 40
0.5011129871334917
 40
0.6781632504502116
 40
0.7647016791286866
 40
0.8469196743884314
 40
0.9257745004588969
 40
1.0
 40
1.0
 40
1.0
 40
1.0
 10
30.53824177103757
 20
493.9613778705632
 30
0.0
 10
30.58361042109937
 20
493.9791427424843
 30
0.0
 10
30.67714504448213
 20
494.015767826156
 30
0.0
 10
30.81802698470558
 20
494.0783965078134
 30
0.0
 10
30.96437186585744
 20
494.1487998187953
 30
0.0
 10
31.16507575622985
 20
494.2544860733605
 30
0.0
 10
31.41515694157704
 20
494.3990065269283
 30
0.0
 10
31.65699245150977
 20
494.55622957823
 30
0.0
 10
31.83955893687186
 20
494.6892546392117
 30
0.0
 10
31.96535058425362
 20
494.7909235274845
 30
0.0
 10
32.08016378369916
 20
494.8932273999932
 30
0.0
 10
32.14964547470284
 20
494.9651339794413
 30
0.0
 10
32.18333571675782
 20
494.9999999999995
 30
0.0
  0
SPLINE
  5
85
330
1F
100
AcDbEntity
  8
0
  6
Continuous
 62
     7
370
    25
100
AcDbSpline
210
0.0
220
0.0
230
1.0
 70
     8
 71
     3
 72
    15
 73
    11
 74
     0
 42
0.00000001
 43
0.00000001
 40
0.0
 40
0.0
 40
0.0
 40
0.0
 40
0.1239657950342636
 40
0.25225830752654
 40
0.3865103514531849
 40
0.5254000560432449
 40
0.6615711555578148
 40
0.78530338481982
 40
0.8988534689769017
 40
1.0
 40
1.0
 40
1.0
 40
1.0
 10
31.8733148399311
 20
493.6221294363252
 30
0.0
 10
31.83499858375997
 20
493.5959018012979
 30
0.0
 10
31.75702873788588
 20
493.5425311209372
 30
0.0
 10
31.63174137461085
 20
493.4698841337016
 30
0.0
 10
31.49878721772704
 20
493.3996318441534
 30
0.0
 10
31.35885951299679
 20
493.3369049612398
 30
0.0
 10
31.22097623763256
 20
493.2796138387233
 30
0.0
 10
31.09218478391314
 20
493.2250990304147
 30
0.0
 10
30.97375612619484
 20
493.1799623429476
 30
0.0
 10
30.89838486521348
 20
493.1520029517827
 30
0.0
 10
30.86287642656993
 20
493.1388308977031
 30
0.0
  0
SPLINE
  5
8A
330
1F
100
AcDbEntity
  8
0
  6
Continuous
 62
     7
370
    25
100
AcDbSpline
210
0.0
220
0.0
230
1.0
 70
     8
 71
     3
 72
    19
 73
    15
 74
     0
 42
0.00000001
 43
0.00000001
 40
0.0
 40
0.0
 40
0.0
 40
0.0
 40
0.1104340028025564
 40
0.2124900541411181
 40
0.3065847291676402
 40
0.3943227648119866
 40
0.4776449860096436
 40
0.5570736544713668
 40
0.6330657574440371
 40
0.7079285122678347
 40
0.7815845652278121
 40
0.8543885854616702
 40
0.926750598430738
 40
1.0
 40
1.0
 40
1.0
 40
1.0
 10
29.05494323241544
 20
492.6764091858034
 30
0.0
 10
29.10902859727366
 20
492.6559780596671
 30
0.0
 10
29.21309620159218
 20
492.6166657918087
 30
0.0
 10
29.35521012316169
 20
492.541650957396
 30
0.0
 10
29.48015636237213
 20
492.4608299391538
 30
0.0
 10
29.58529336955779
 20
492.3697593903831
 30
0.0
 10
29.67443081010848
 20
492.2734039159998
 30
0.0
 10
29.7488934710927
 20
492.1728846980326
 30
0.0
 10
29.80987396833655
 20
492.0685996342592
 30
0.0
 10
29.85395871144144
 20
491.9594078426246
 30
0.0
 10
29.88710866678005
 20
491.8483964277913
 30
0.0
 10
29.91164122735859
 20
491.7364542110659
 30
0.0
 10
29.92511259788646
 20
491.6228061058682
 30
0.0
 10
29.92745838786902
 20
491.5466572118915
 30
0.0
 10
29.92863843074529
 20
491.5083507306886
 30
0.0
  0
SPLINE
  5
8B
330
1F
100
AcDbEntity
  8
0
  6
Continuous
 62
     7
370
    25
100
AcDbSpline
210
0.0
220
0.0
230
1.0
 70
     8
 71
     3
 72
    19
 73
    15
 74
     0
 42
0.00000001
 43
0.00000001
 40
0.0
 40
0.0
 40
0.0
 40
0.0
 40
0.0869611057112338
 40
0.1721735890234062
 40
0.2564604942884701
 40
0.3403849060313945
 40
0.4238958291069971
 40
0.5059489391530788
 40
0.5868522159642301
 40
0.6688937138994578
 40
0.7506094027834327
 40
0.8325579445963446
 40
0.9159394700011543
 40
1.0
 40
1.0
 40
1.0
 40
1.0
 10
29.69794949546346
 20
493.744258872651
 30
0.0
 10
29.69686901555317
 20
493.7062902165653
 30
0.0
 10
29.69472978212807
 20
493.6311163818354
 30
0.0
 10
29.67999515600452
 20
493.5198845748825
 30
0.0
 10
29.65463600525968
 20
493.4120394697152
 30
0.0
 10
29.62029583873355
 20
493.3074939522988
 30
0.0
 10
29.57664121467218
 20
493.2074997955855
 30
0.0
 10
29.5240954249794
 20
493.1134495677318
 30
0.0
 10
29.46435492486299
 20
493.0245136310101
 30
0.0
 10
29.39527261063149
 20
492.9428216287266
 30
0.0
 10
29.31998332201605
 20
492.8662786446332
 30
0.0
 10
29.23810976229434
 20
492.7958635565674
 30
0.0
 10
29.14950845720599
 20
492.7322876826814
 30
0.0
 10
29.0865500761488
 20
492.6950856381968
 30
0.0
 10
29.05494323241544
 20
492.6764091858035
 30
0.0
  0
SPLINE
  5
8C
330
1F
100
AcDbEntity
  8
0
  6
Continuous
 62
     7
370
    25
100
AcDbSpline
210
0.0
220
0.0
230
1.0
 70
     8
 71
     3
 72
    23
 73
    19
 74
     0
 42
0.00000001
 43
0.00000001
 40
0.0
 40
0.0
 40
0.0
 40
0.0
 40
0.1049763284457938
 40
0.2009064416357051
 40
0.2869635000332956
 40
0.3651068392216866
 40
0.4360283008349366
 40
0.5006830409215631
 40
0.5601530857433918
 40
0.6152047267775621
 40
0.6672262706501499
 40
0.7174508934598078
 40
0.7655179466888686
 40
0.8135138421391057
 40
0.860682824735301
 40
0.9073686295970138
 40
0.9534071378741442
 40
0.9999999999999999
 40
0.9999999999999999
 40
0.9999999999999999
 40
0.9999999999999999
 10
27.87227099859498
 20
495.0574112734861
 30
0.0
 10
27.96174823639339
 20
495.0561722357896
 30
0.0
 10
28.13299211317606
 20
495.0538009330554
 30
0.0
 10
28.37672671585933
 20
495.031633483848
 30
0.0
 10
28.59604815249024
 20
494.9977157681558
 30
0.0
 10
28.79009149608029
 20
494.946254464719
 30
0.0
 10
28.96112473364814
 20
494.8831533716516
 30
0.0
 10
29.11213086670228
 20
494.8130073774016
 30
0.0
 10
29.24179152514017
 20
494.7314927898462
 30
0.0
 10
29.35069280912002
 20
494.6397135956452
 30
0.0
 10
29.44063436773392
 20
494.5400009726994
 30
0.0
 10
29.51782990823116
 20
494.4374262928217
 30
0.0
 10
29.57804138867702
 20
494.3278174205525
 30
0.0
 10
29.62359216213585
 20
494.2142940597551
 30
0.0
 10
29.65636209258966
 20
494.0977925620156
 30
0.0
 10
29.68088013358941
 20
493.9810192134798
 30
0.0
 10
29.69443181296326
 20
493.8628782852333
 30
0.0
 10
29.69677226580482
 20
493.7839561138245
 30
0.0
 10
29.69794949546346
 20
493.744258872651
 30
0.0
  0
SPLINE
  5
8D
330
1F
100
AcDbEntity
  8
0
  6
Continuous
 62
     7
370
    25
100
AcDbSpline
210
0.0
220
0.0
230
1.0
 70
     8
 71
     3
 72
    13
 73
     9
 74
     0
 42
0.00000001
 43
0.00000001
 40
0.0
 40
0.0
 40
0.0
 40
0.0
 40
0.1548247544244117
 40
0.3176475431474171
 40
0.4873324493006149
 40
0.6598858512994359
 40
0.8320833045202175
 40
1.0
 40
1.0
 40
1.0
 40
1.0
 10
26.57373237646555
 20
494.9352818371604
 30
0.0
 10
26.64010098777459
 20
494.9470078609356
 30
0.0
 10
26.77626672175427
 20
494.9710656587791
 30
0.0
 10
26.98690097332088
 20
494.9965112515573
 30
0.0
 10
27.20536881413327
 20
495.0208027838096
 30
0.0
 10
27.42840853432379
 20
495.0404588041745
 30
0.0
 10
27.65113021321602
 20
495.0552602694522
 30
0.0
 10
27.79917852725784
 20
495.0567003137216
 30
0.0
 10
27.87227099859498
 20
495.0574112734861
 30
0.0
  0
SPLINE
  5
8F
330
1F
100
AcDbEntity
  8
0
  6
Continuous
 62
     7
370
    25
100
AcDbSpline
210
0.0
220
0.0
230
1.0
 70
     8
 71
     3
 72
    13
 73
     9
 74
     0
 42
0.00000001
 43
0.00000001
 40
0.0
 40
0.0
 40
0.0
 40
0.0
 40
0.1578923947856595
 40
0.3227429490947005
 40
0.491015772222873
 40
0.6612412072800918
 40
0.8314242908126711
 40
1.0
 40
1.0
 40
1.0
 40
1.0
 10
27.96621671884551
 20
489.9352818371605
 30
0.0
 10
27.89243283165222
 20
489.9360523033191
 30
0.0
 10
27.74161347533832
 20
489.9376271893075
 30
0.0
 10
27.51252363359976
 20
489.9518718201801
 30
0.0
 10
27.27837738157464
 20
489.974215276372
 30
0.0
 10
27.04225788542335
 20
490.0017770324087
 30
0.0
 10
26.80706756388251
 20
490.0374404927317
 30
0.0
 10
26.65126434905819
 20
490.0654123664595
 30
0.0
 10
26.57373237646555
 20
490.0793319415446
 30
0.0
  0
SPLINE
  5
90
330
1F
100
AcDbEntity
  8
0
  6
Continuous
 62
     7
370
    25
100
AcDbSpline
210
0.0
220
0.0
230
1.0
 70
     8
 71
     3
 72
    27
 73
    23
 74
     0
 42
0.00000001
 43
0.00000001
 40
0.0
 40
0.0
 40
0.0
 40
0.0
 40
0.0508783849982478
 40
0.0990276045741722
 40
0.1446550904877113
 40
0.1882745822950887
 40
0.2299746119538794
 40
0.2698515326244783
 40
0.3088754618479236
 40
0.3467618020890201
 40
0.38415732048893
 40
0.4211501430276033
 40
0.4579552062214512
 40
0.4950815612212833
 40
0.5329731258433901
 40
0.5708385613522043
 40
0.6098624905756508
 40
0.6499621660272429
 40
0.7324497829068661
 40
0.8178063547831628
 40
0.9069457364875682
 40
1.0
 40
1.0
 40
1.0
 40
1.0
 10
29.92863843074529
 20
491.5083507306886
 30
0.0
 10
29.92787076252555
 20
491.4596128070833
 30
0.0
 10
29.92637660454647
 20
491.3647513088908
 30
0.0
 10
29.91383273826678
 20
491.2266023588878
 30
0.0
 10
29.89259762508475
 20
491.0966743173186
 30
0.0
 10
29.86547067695911
 20
490.9740467440142
 30
0.0
 10
29.82720302451089
 20
490.8602340017555
 30
0.0
 10
29.78271545958661
 20
490.7534547644306
 30
0.0
 10
29.72811566184448
 20
490.6555798191041
 30
0.0
 10
29.66630179775005
 20
490.5650141322387
 30
0.0
 10
29.59681357562372
 20
490.4827515296993
 30
0.0
 10
29.52260436835381
 20
490.406261841596
 30
0.0
 10
29.44295933539546
 20
490.3357324189814
 30
0.0
 10
29.3566779074449
 20
490.272101915247
 30
0.0
 10
29.26555444830152
 20
490.2136989478552
 30
0.0
 10
29.16818730712123
 20
490.1624653137989
 30
0.0
 10
29.06613577354813
 20
490.1158966270447
 30
0.0
 10
28.91971270723971
 20
490.0652460158342
 30
0.0
 10
28.7273312901654
 20
490.0127742448923
 30
0.0
 10
28.48501100194463
 20
489.9682341674315
 30
0.0
 10
28.22990378813085
 20
489.9406153557139
 30
0.0
 10
28.05536255883892
 20
489.9370849630888
 30
0.0
 10
27.96621671884551
 20
489.9352818371604
 30
0.0
  0
SPLINE
  5
91
330
1F
100
AcDbEntity
  8
0
  6
Continuous
 62
     7
370
    25
100
AcDbSpline
210
0.0
220
0.0
230
1.0
 70
     8
 71
     3
 72
    31
 73
    27
 74
     0
 42
0.00000001
 43
0.00000001
 40
0.0
 40
0.0
 40
0.0
 40
0.0
 40
0.0397973368187419
 40
0.0783408558241558
 40
0.1157667722551064
 40
0.1520360199768592
 40
0.187390606460915
 40
0.2226221619315238
 40
0.2573135164543176
 40
0.2920243086335051
 40
0.3269421649877958
 40
0.3622669289557998
 40
0.398051738094546
 40
0.4345226699348695
 40
0.4723819953772679
 40
0.5113605565915024
 40
0.5516369843652593
 40
0.5936440794640722
 40
0.6372621127830547
 40
0.6829006851115149
 40
0.730396900415949
 40
0.7798515699711647
 40
0.8313187966679778
 40
0.8852373631526693
 40
0.9413392419939614
 40
0.9999999999999999
 40
0.9999999999999999
 40
0.9999999999999999
 40
0.9999999999999999
 10
24.15202047667431
 20
495.1158663883085
 30
0.0
 10
24.19973524709869
 20
495.115292425255
 30
0.0
 10
24.29366153084788
 20
495.1141625818933
 30
0.0
 10
24.43166889767443
 20
495.0984439554543
 30
0.0
 10
24.56439470639583
 20
495.0762310010984
 30
0.0
 10
24.69116434737114
 20
495.0438091031434
 30
0.0
 10
24.81223440402965
 20
495.0016630848806
 30
0.0
 10
24.92767846783515
 20
494.9505406119361
 30
0.0
 10
25.03843061275649
 20
494.8913225357672
 30
0.0
 10
25.14155883393198
 20
494.8203662686576
 30
0.0
 10
25.24036443273708
 20
494.7423578727342
 30
0.0
 10
25.33210557726082
 20
494.6541873112313
 30
0.0
 10
25.41789405031278
 20
494.5578270837908
 30
0.0
 10
25.49803288392873
 20
494.4527946351337
 30
0.0
 10
25.57050318524175
 20
494.3378026285766
 30
0.0
 10
25.63740782311075
 20
494.2143409925557
 30
0.0
 10
25.6981591100912
 20
494.0822187735801
 30
0.0
 10
25.75210089621571
 20
493.9412281796556
 30
0.0
 10
25.80025638313037
 20
493.7914082186806
 30
0.0
 10
25.84172037633903
 20
493.6327890960321
 30
0.0
 10
25.87701481175344
 20
493.4655623334083
 30
0.0
 10
25.90656004340493
 20
493.2901076321806
 30
0.0
 10
25.92761237356357
 20
493.1057110164949
 30
0.0
 10
25.94488903965987
 20
492.9129436650991
 30
0.0
 10
25.95397756268266
 20
492.7109445058067
 30
0.0
 10
25.95516920117168
 20
492.5734246182361
 30
0.0
 10
25.95577830548433
 20
492.5031315240079
 30
0.0
  0
SPLINE
  5
92
330
1F
100
AcDbEntity
  8
0
  6
Continuous
 62
     7
370
    25
100
AcDbSpline
210
0.0
220
0.0
230
1.0
 70
     8
 71
     3
 72
    31
 73
    27
 74
     0
 42
0.00000001
 43
0.00000001
 40
0.0
 40
0.0
 40
0.0
 40
0.0
 40
0.0588828615519676
 40
0.1152114848486715
 40
0.1693341998172
 40
0.2210685966191882
 40
0.2707592619168336
 40
0.3184967445222047
 40
0.3644599254841386
 40
0.4085187341710845
 40
0.451007010704162
 40
0.4916831317212926
 40
0.5310905282139603
 40
0.5694093173151236
 40
0.6061954305999911
 40
0.6423103186345691
 40
0.6777688305390657
 40
0.7128188941810933
 40
0.7476611096539273
 40
0.7822279366520813
 40
0.817060397865078
 40
0.8519987904290028
 40
0.8875589799821054
 40
0.9239783834234794
 40
0.961508672616472
 40
1.0
 40
1.0
 40
1.0
 40
1.0
 10
22.34826264786429
 20
492.5031315240079
 30
0.0
 10
22.3487272855926
 20
492.573433001853
 30
0.0
 10
22.34963640585586
 20
492.7109863991595
 30
0.0
 10
22.36074981678969
 20
492.9128852274425
 30
0.0
 10
22.37668980193756
 20
493.1058854152013
 30
0.0
 10
22.40102471045276
 20
493.2900421007554
 30
0.0
 10
22.43113218554436
 20
493.4655869400394
 30
0.0
 10
22.46735865042506
 20
493.6329555282553
 30
0.0
 10
22.5108928232343
 20
493.7916491420239
 30
0.0
 10
22.56233863516888
 20
493.9413399941143
 30
0.0
 10
22.61961292925338
 20
494.0820779564083
 30
0.0
 10
22.6822486887189
 20
494.2144218386255
 30
0.0
 10
22.75125007327534
 20
494.3379060430049
 30
0.0
 10
22.82594318424729
 20
494.4525373143229
 30
0.0
 10
22.9069466710796
 20
494.5579309471662
 30
0.0
 10
22.99386391013486
 20
494.6538674286497
 30
0.0
 10
23.0855548743142
 20
494.7423931827456
 30
0.0
 10
23.18440008307698
 20
494.8203802482677
 30
0.0
 10
23.28733118660498
 20
494.891059150475
 30
0.0
 10
23.39696827764699
 20
494.9503105639301
 30
0.0
 10
23.51055040137695
 20
495.0016912848478
 30
0.0
 10
23.62925282263307
 20
495.0436329343975
 30
0.0
 10
23.75285499581326
 20
495.076131081701
 30
0.0
 10
23.88174459918083
 20
495.0984635658137
 30
0.0
 10
24.0152413502579
 20
495.1141232032254
 30
0.0
 10
24.10604479958435
 20
495.1152804501132
 30
0.0
 10
24.15202047667431
 20
495.1158663883085
 30
0.0
  0
SPLINE
  5
93
330
1F
100
AcDbEntity
  8
0
  6
Continuous
 62
     7
370
    25
100
AcDbSpline
210
0.0
220
0.0
230
1.0
 70
     8
 71
     3
 72
    31
 73
    27
 74
     0
 42
0.00000001
 43
0.00000001
 40
0.0
 40
0.0
 40
0.0
 40
0.0
 40
0.0395057152150019
 40
0.0774704624276214
 40
0.1146090093485358
 40
0.150595790474727
 40
0.1862235129712473
 40
0.2210712687344976
 40
0.2561553158688454
 40
0.2909449597143494
 40
0.3260890309253177
 40
0.3614125623902085
 40
0.3976060818901266
 40
0.4344826452982903
 40
0.4724973249770567
 40
0.5116137907003853
 40
0.5522742288998882
 40
0.5946555048045103
 40
0.6386377392211486
 40
0.6842747191912701
 40
0.731830478818387
 40
0.7812834228692445
 40
0.8327840618001083
 40
0.8860977096641537
 40
0.9419219393117663
 40
0.9999999999999999
 40
0.9999999999999999
 40
0.9999999999999999
 40
0.9999999999999999
 10
24.15932736602712
 20
489.8914405010434
 30
0.0
 10
24.1119582298136
 20
489.8919966023163
 30
0.0
 10
24.01906764759563
 20
489.8930871134625
 30
0.0
 10
23.8824710997835
 20
489.9089630484714
 30
0.0
 10
23.75110576608935
 20
489.9310208578241
 30
0.0
 10
23.62479747035547
 20
489.9638268301714
 30
0.0
 10
23.50409425110334
 20
490.0054678544957
 30
0.0
 10
23.38784343046023
 20
490.0557460909441
 30
0.0
 10
23.27775499509363
 20
490.1163459241418
 30
0.0
 10
23.17259985365047
 20
490.1856885991327
 30
0.0
 10
23.07320409240582
 20
490.2636616401541
 30
0.0
 10
22.98101841992625
 20
490.3524539478617
 30
0.0
 10
22.89446665525836
 20
490.4494521191774
 30
0.0
 10
22.81361851219318
 20
490.5553939542701
 30
0.0
 10
22.73978926776454
 20
490.670496596317
 30
0.0
 10
22.67160770141298
 20
490.7942095530453
 30
0.0
 10
22.61006852253552
 20
490.9271673204447
 30
0.0
 10
22.55513224139002
 20
491.0692039743888
 30
0.0
 10
22.50569973156646
 20
491.2195718316456
 30
0.0
 10
22.46482143300823
 20
491.3788592333562
 30
0.0
 10
22.42756895931882
 20
491.5457475096567
 30
0.0
 10
22.39909135517299
 20
491.7214926510737
 30
0.0
 10
22.37569117882027
 20
491.9049257362973
 30
0.0
 10
22.36099921522611
 20
492.0969046389321
 30
0.0
 10
22.3495821437504
 20
492.2970105032878
 30
0.0
 10
22.34870824389717
 20
492.4335241003736
 30
0.0
 10
22.34826264786428
 20
492.5031315240079
 30
0.0
  0
SPLINE
  5
94
330
1F
100
AcDbEntity
  8
0
  6
Continuous
 62
     7
370
    25
100
AcDbSpline
210
0.0
220
0.0
230
1.0
 70
     8
 71
     3
 72
    31
 73
    27
 74
     0
 42
0.00000001
 43
0.00000001
 40
0.0
 40
0.0
 40
0.0
 40
0.0
 40
0.058337515447749
 40
0.1144111312130577
 40
0.1679875643319202
 40
0.2197182744072121
 40
0.2694409218492829
 40
0.3172091294822633
 40
0.363125076091443
 40
0.4073951572314625
 40
0.4500725321296232
 40
0.4909146145522607
 40
0.5302058270403235
 40
0.5682329563309457
 40
0.6050981651442561
 40
0.6412598281127072
 40
0.6767411619947734
 40
0.7115862789716164
 40
0.7462882942474305
 40
0.7807640591197388
 40
0.8155003746167059
 40
0.8504612543964937
 40
0.8863264907713869
 40
0.9230564690986603
 40
0.9609008527505346
 40
1.0
 40
1.0
 40
1.0
 40
1.0
 10
25.95577830548433
 20
492.5031315240079
 30
0.0
 10
25.95529389161078
 20
492.4335276576306
 30
0.0
 10
25.95434386247732
 20
492.2970210370123
 30
0.0
 10
25.94347099989401
 20
492.0968358228869
 30
0.0
 10
25.92682946094398
 20
491.9050060680021
 30
0.0
 10
25.9044032503031
 20
491.7213549429439
 30
0.0
 10
25.87393334346755
 20
491.5458884748729
 30
0.0
 10
25.83750713675056
 20
491.3786791014576
 30
0.0
 10
25.79510215234215
 20
491.2195679630989
 30
0.0
 10
25.74484338107095
 20
491.0691312505253
 30
0.0
 10
25.68853154918857
 20
490.9273977763965
 30
0.0
 10
25.62734291347076
 20
490.7941432488893
 30
0.0
 10
25.55888035735529
 20
490.6708099740135
 30
0.0
 10
25.48633409770594
 20
490.555376756105
 30
0.0
 10
25.40637901355113
 20
490.4495575334068
 30
0.0
 10
25.32101287368555
 20
490.3520440424851
 30
0.0
 10
25.22881992123621
 20
490.2644304811056
 30
0.0
 10
25.13148342012488
 20
490.1852266113721
 30
0.0
 10
25.02762503515183
 20
490.1170824307558
 30
0.0
 10
24.92005708593776
 20
490.0550974566015
 30
0.0
 10
24.8056519585515
 20
490.0060511123195
 30
0.0
 10
24.68707802732152
 20
489.963363089368
 30
0.0
 10
24.56263255974739
 20
489.9312396974481
 30
0.0
 10
24.43273706981076
 20
489.9088271525083
 30
0.0
 10
24.29784307218405
 20
489.8931499255203
 30
0.0
 10
24.20599852251625
 20
489.8920164705092
 30
0.0
 10
24.15932736602713
 20
489.8914405010435
 30
0.0
  0
LINE
  5
99
330
1F
100
AcDbEntity
  8
0
  6
Continuous
 62
     7
370
    25
100
AcDbLine
 10
-43.165590414
 20
515.0
 30
0.0
 11
43.165590414
 21
515.0
 31
0.0
  0
LINE
  5
9A
330
1F
100
AcDbEntity
  8
0
  6
Continuous
 62
     7
370
    25
100
AcDbLine
 10
53.1419166176
 20
505.6876885053
 30
0.0
 11
66.6525962292
 21
309.6876885053
 31
0.0
  0
LINE
  5
9B
330
1F
100
AcDbEntity
  8
0
  6
Continuous
 62
     7
370
    25
100
AcDbLine
 10
-56.6762700257
 20
299.0
 30
0.0
 11
56.6762700257
 21
299.0
 31
0.0
  0
LINE
  5
9C
330
1F
100
AcDbEntity
  8
0
  6
Continuous
 62
     7
370
    25
100
AcDbLine
 10
-53.1419166176
 20
505.6876885053
 30
0.0
 11
-66.6525962292
 21
309.6876885053
 31
0.0
  0
LINE
  5
9D
330
1F
100
AcDbEntity
  8
0
  6
Continuous
 62
     7
370
    25
100
AcDbLine
 10
35.8597449026
 20
494.1774530271
 30
0.0
 11
37.5841707898
 21
494.1774530271
 31
0.0
  0
LINE
  5
9E
330
1F
100
AcDbEntity
  8
0
  6
Continuous
 62
     7
370
    25
100
AcDbLine
 10
37.5841707898
 20
494.1774530271
 30
0.0
 11
37.5841707898
 21
495.0
 31
0.0
  0
LINE
  5
9F
330
1F
100
AcDbEntity
  8
0
  6
Continuous
 62
     7
370
    25
100
AcDbLine
 10
37.5841707898
 20
495.0
 30
0.0
 11
35.0298910403
 21
495.0
 31
0.0
  0
LINE
  5
A0
330
1F
100
AcDbEntity
  8
0
  6
Continuous
 62
     7
370
    25
100
AcDbLine
 10
34.640538222
 20
490.9812108559
 30
0.0
 11
34.4390768441
 21
490.1513569937
 31
0.0
  0
LINE
  5
A1
330
1F
100
AcDbEntity
  8
0
  6
Continuous
 62
     7
370
    25
100
AcDbLine
 10
8.165590414
 20
486.0
 30
0.0
 11
38.165590414
 21
486.0
 31
0.0
  0
LINE
  5
A2
330
1F
100
AcDbEntity
  8
0
  6
Continuous
 62
     7
370
    25
100
AcDbLine
 10
38.165590414
 20
486.0
 30
0.0
 11
37.0108898757
 21
488.0
 31
0.0
  0
LINE
  5
A3
330
1F
100
AcDbEntity
  8
0
  6
Continuous
 62
     7
370
    25
100
AcDbLine
 10
37.0108898757
 20
488.0
 30
0.0
 11
7.0108898757
 21
488.0
 31
0.0
  0
LINE
  5
A4
330
1F
100
AcDbEntity
  8
0
  6
Continuous
 62
     7
370
    25
100
AcDbLine
 10
7.0108898757
 20
488.0
 30
0.0
 11
8.165590414
 21
486.0
 31
0.0
  0
LINE
  5
A5
330
1F
100
AcDbEntity
  8
0
  6
Continuous
 62
     7
370
    25
100
AcDbLine
 10
33.8576572199
 20
490.0
 30
0.0
 11
33.8576572199
 21
490.8225469729
 31
0.0
  0
LINE
  5
A6
330
1F
100
AcDbEntity
  8
0
  6
Continuous
 62
     7
370
    25
100
AcDbLine
 10
33.8576572199
 20
490.8225469729
 30
0.0
 11
32.8618325852
 21
490.8225469729
 31
0.0
  0
LINE
  5
A7
330
1F
100
AcDbEntity
  8
0
  6
Continuous
 62
     7
370
    25
100
AcDbLine
 10
32.8618325852
 20
490.8225469729
 30
0.0
 11
32.8618325852
 21
495.0
 31
0.0
  0
LINE
  5
A8
330
1F
100
AcDbEntity
  8
0
  6
Continuous
 62
     7
370
    25
100
AcDbLine
 10
32.8618325852
 20
495.0
 30
0.0
 11
32.1833357168
 21
495.0
 31
0.0
  0
LINE
  5
A9
330
1F
100
AcDbEntity
  8
0
  6
Continuous
 62
     7
370
    25
100
AcDbLine
 10
30.538241771
 20
493.9613778706
 30
0.0
 11
30.8628764266
 21
493.1388308977
 31
0.0
  0
LINE
  5
AA
330
1F
100
AcDbEntity
  8
0
  6
Continuous
 62
     7
370
    25
100
AcDbLine
 10
31.8733148399
 20
493.6221294363
 30
0.0
 11
31.8733148399
 21
490.8225469729
 31
0.0
  0
LINE
  5
AB
330
1F
100
AcDbEntity
  8
0
  6
Continuous
 62
     7
370
    25
100
AcDbLine
 10
31.8733148399
 20
490.8225469729
 30
0.0
 11
30.8200789318
 21
490.8225469729
 31
0.0
  0
LINE
  5
AC
330
1F
100
AcDbEntity
  8
0
  6
Continuous
 62
     7
370
    25
100
AcDbLine
 10
30.8200789318
 20
490.8225469729
 30
0.0
 11
30.8200789318
 21
490.0
 31
0.0
  0
LINE
  5
AD
330
1F
100
AcDbEntity
  8
0
  6
Continuous
 62
     7
370
    25
100
AcDbLine
 10
30.8200789318
 20
490.0
 30
0.0
 11
33.8576572199
 21
490.0
 31
0.0
  0
LINE
  5
AE
330
1F
100
AcDbEntity
  8
0
  6
Continuous
 62
     7
370
    25
100
AcDbLine
 10
26.5737323765
 20
494.9352818372
 30
0.0
 11
26.5737323765
 21
490.0793319415
 31
0.0
  0
LINE
  5
AF
330
1F
100
AcDbEntity
  8
0
  6
Continuous
 62
     7
370
    25
100
AcDbLine
 10
14.165590414
 20
482.0
 30
0.0
 11
38.165590414
 21
482.0
 31
0.0
  0
LINE
  5
B0
330
1F
100
AcDbEntity
  8
0
  6
Continuous
 62
     7
370
    25
100
AcDbLine
 10
38.165590414
 20
482.0
 30
0.0
 11
37.0108898757
 21
484.0
 31
0.0
  0
LINE
  5
B1
330
1F
100
AcDbEntity
  8
0
  6
Continuous
 62
     7
370
    25
100
AcDbLine
 10
37.0108898757
 20
484.0
 30
0.0
 11
13.0108898757
 21
484.0
 31
0.0
  0
LINE
  5
B2
330
1F
100
AcDbEntity
  8
0
  6
Continuous
 62
     7
370
    25
100
AcDbLine
 10
13.0108898757
 20
484.0
 30
0.0
 11
14.165590414
 21
482.0
 31
0.0
  0
ARC
  5
B3
330
1F
100
AcDbEntity
  8
0
  6
Continuous
 62
     7
370
    25
100
AcDbCircle
 10
-43.165590414
 20
505.0
 30
0.0
 40
10.0
100
AcDbArc
 50
90.0
 51
176.0567228666
  0
ARC
  5
B4
330
1F
100
AcDbEntity
  8
0
  6
Continuous
 62
     7
370
    25
100
AcDbCircle
 10
43.165590414
 20
505.0
 30
0.0
 40
10.0
100
AcDbArc
 50
3.9432771334
 51
90.0
  0
ARC
  5
B5
330
1F
100
AcDbEntity
  8
0
  6
Continuous
 62
     7
370
    25
100
AcDbCircle
 10
56.6762700257
 20
309.0
 30
0.0
 40
9.999999999999954
100
AcDbArc
 50
270.0
 51
3.9432771334
  0
ARC
  5
B6
330
1F
100
AcDbEntity
  8
0
  6
Continuous
 62
     7
370
    25
100
AcDbCircle
 10
-56.6762700257
 20
309.0
 30
0.0
 40
10.00000000000001
100
AcDbArc
 50
176.0567228666
 51
270.0
  0
MTEXT
  5
B8
330
1F
100
AcDbEntity
  8
0
  6
Continuous
 62
     7
100
AcDbMText
 10
-66.6762700257
 20
297.9804336083
 30
0.0
 40
4.83362
 41
0.0
 71
     1
 72
     1
  1
SOLIDWORKS Educational Product.
  7
SLDTEXTSTYLE0
 73
     1
 44
1.0
  0
MTEXT
  5
B9
330
1F
100
AcDbEntity
  8
0
  6
Continuous
 62
     7
100
AcDbMText
 10
-66.6762700257
 20
290.7300036083
 30
0.0
 40
4.83362
 41
0.0
 71
     1
 72
     1
  1
For Instructional Use Only.
  7
SLDTEXTSTYLE0
 73
     1
 44
1.0
  0
ENDSEC
  0
SECTION
  2
OBJECTS
  0
DICTIONARY
  5
C
330
0
100
AcDbDictionary
281
     1
  3
ACAD_GROUP
350
D
  3
ACAD_LAYOUT
350
1A
  3
ACAD_MLINESTYLE
350
17
  3
ACAD_PLOTSETTINGS
350
19
  3
ACAD_PLOTSTYLENAME
350
E
  3
ACAD_SCALELIST
350
47
  3
DWGPROPS
350
BA
  0
DICTIONARY
  5
D
102
{ACAD_REACTORS
330
C
102
}
330
C
100
AcDbDictionary
281
     1
  0
DICTIONARY
  5
1A
102
{ACAD_REACTORS
330
C
102
}
330
C
100
AcDbDictionary
281
     1
  3
Layout1
350
1E
  3
Layout2
350
26
  3
Model
350
22
  0
DICTIONARY
  5
17
102
{ACAD_REACTORS
330
C
102
}
330
C
100
AcDbDictionary
281
     1
  3
Standard
350
18
  0
DICTIONARY
  5
19
102
{ACAD_REACTORS
330
C
102
}
330
C
100
AcDbDictionary
281
     1
  0
ACDBDICTIONARYWDFLT
  5
E
102
{ACAD_REACTORS
330
C
102
}
330
C
100
AcDbDictionary
281
     1
  3
Normal
350
F
100
AcDbDictionaryWithDefault
340
F
  0
DICTIONARY
  5
47
102
{ACAD_REACTORS
330
C
102
}
330
C
100
AcDbDictionary
281
     1
  3
A0
350
48
  3
A1
350
49
  3
A2
350
4A
  3
A3
350
4B
  3
A4
350
4C
  3
A5
350
4D
  3
A6
350
4E
  3
A7
350
4F
  3
A8
350
50
  3
A9
350
51
  3
B0
350
52
  3
B1
350
53
  3
B2
350
54
  3
B3
350
55
  3
B4
350
56
  3
B5
350
57
  3
B6
350
58
  0
XRECORD
  5
BA
102
{ACAD_REACTORS
330
C
102
}
330
C
100
AcDbXrecord
280
     1
  1
DWGPROPS COOKIE
  2

  3

  4

  6

  7

  8
2002o
  9

300
=
301
=
302
=
303
=
304
=
305
=
306
=
307
=
308
=
309
=
 40
0.0
 41
2461060.260854352
 42
2461060.260947454
  1

 90
        0
  0
LAYOUT
  5
1E
102
{ACAD_REACTORS
330
1A
102
}
330
1A
100
AcDbPlotSettings
  1

  2
none_device
  4

  6

 40
0.0
 41
0.0
 42
0.0
 43
0.0
 44
0.0
 45
0.0
 46
0.0
 47
0.0
 48
0.0
 49
0.0
140
0.0
141
0.0
142
1.0
143
1.0
 70
   688
 72
     1
 73
     0
 74
     5
  7

 75
    16
147
1.0
148
0.0
149
0.0
100
AcDbLayout
  1
Layout1
 70
     1
 71
     1
 10
0.0
 20
0.0
 11
420.0
 21
297.0
 12
0.0
 22
0.0
 32
0.0
 14
1.0000000000E+20
 24
1.0000000000E+20
 34
1.0000000000E+20
 15
-1.0000000000E+20
 25
-1.0000000000E+20
 35
-1.0000000000E+20
146
0.0
 13
0.0
 23
0.0
 33
0.0
 16
1.0
 26
0.0
 36
0.0
 17
0.0
 27
1.0
 37
0.0
 76
     0
330
1B
  0
LAYOUT
  5
26
102
{ACAD_REACTORS
330
1A
102
}
330
1A
100
AcDbPlotSettings
  1

  2
none_device
  4

  6

 40
0.0
 41
0.0
 42
0.0
 43
0.0
 44
0.0
 45
0.0
 46
0.0
 47
0.0
 48
0.0
 49
0.0
140
0.0
141
0.0
142
1.0
143
1.0
 70
   688
 72
     1
 73
     0
 74
     5
  7

 75
    16
147
1.0
148
0.0
149
0.0
100
AcDbLayout
  1
Layout2
 70
     1
 71
     2
 10
0.0
 20
0.0
 11
0.0
 21
0.0
 12
0.0
 22
0.0
 32
0.0
 14
0.0
 24
0.0
 34
0.0
 15
0.0
 25
0.0
 35
0.0
146
0.0
 13
0.0
 23
0.0
 33
0.0
 16
1.0
 26
0.0
 36
0.0
 17
0.0
 27
1.0
 37
0.0
 76
     0
330
23
  0
LAYOUT
  5
22
102
{ACAD_REACTORS
330
1A
102
}
330
1A
100
AcDbPlotSettings
  1

  2
none_device
  4
ANSI_A_(11.00_x_8.50_Inches)
  6

 40
6.35
 41
19.05
 42
6.35000508
 43
19.05000254
 44
279.4
 45
215.9
 46
133.34999746
 47
-313.8434596033
 48
0.0
 49
0.0
140
0.0
141
0.0
142
0.0389583333
143
1.0
 70
  1696
 72
     0
 73
     0
 74
     0
  7

 75
     0
147
0.0179189148
148
-1300.4909072572
149
0.0
100
AcDbLayout
  1
Model
 70
     1
 71
     0
 10
0.0
 20
0.0
 11
420.0
 21
297.0
 12
0.0
 22
0.0
 32
0.0
 14
-66.6762700257
 24
299.0
 34
0.0
 15
66.6762700257
 25
515.0
 35
0.0
146
0.0
 13
0.0
 23
0.0
 33
0.0
 16
1.0
 26
0.0
 36
0.0
 17
0.0
 27
1.0
 37
0.0
 76
     0
330
1F
331
29
  0
MLINESTYLE
  5
18
102
{ACAD_REACTORS
330
17
102
}
330
17
100
AcDbMlineStyle
  2
Standard
 70
     0
  3

 62
   256
 51
90.0
 52
90.0
 71
     2
 49
0.5
 62
   256
  6
BYLAYER
 49
-0.5
 62
   256
  6
BYLAYER
  0
ACDBPLACEHOLDER
  5
F
102
{ACAD_REACTORS
330
E
102
}
330
E
  0
SCALE
  5
48
102
{ACAD_REACTORS
330
47
102
}
330
47
100
AcDbScale
 70
     0
300
1:1
140
1.0
141
1.0
290
     1
  0
SCALE
  5
49
102
{ACAD_REACTORS
330
47
102
}
330
47
100
AcDbScale
 70
     0
300
1:2
140
1.0
141
2.0
290
     0
  0
SCALE
  5
4A
102
{ACAD_REACTORS
330
47
102
}
330
47
100
AcDbScale
 70
     0
300
1:4
140
1.0
141
4.0
290
     0
  0
SCALE
  5
4B
102
{ACAD_REACTORS
330
47
102
}
330
47
100
AcDbScale
 70
     0
300
1:5
140
1.0
141
5.0
290
     0
  0
SCALE
  5
4C
102
{ACAD_REACTORS
330
47
102
}
330
47
100
AcDbScale
 70
     0
300
1:8
140
1.0
141
8.0
290
     0
  0
SCALE
  5
4D
102
{ACAD_REACTORS
330
47
102
}
330
47
100
AcDbScale
 70
     0
300
1:10
140
1.0
141
10.0
290
     0
  0
SCALE
  5
4E
102
{ACAD_REACTORS
330
47
102
}
330
47
100
AcDbScale
 70
     0
300
1:16
140
1.0
141
16.0
290
     0
  0
SCALE
  5
4F
102
{ACAD_REACTORS
330
47
102
}
330
47
100
AcDbScale
 70
     0
300
1:20
140
1.0
141
20.0
290
     0
  0
SCALE
  5
50
102
{ACAD_REACTORS
330
47
102
}
330
47
100
AcDbScale
 70
     0
300
1:30
140
1.0
141
30.0
290
     0
  0
SCALE
  5
51
102
{ACAD_REACTORS
330
47
102
}
330
47
100
AcDbScale
 70
     0
300
1:40
140
1.0
141
40.0
290
     0
  0
SCALE
  5
52
102
{ACAD_REACTORS
330
47
102
}
330
47
100
AcDbScale
 70
     0
300
1:50
140
1.0
141
50.0
290
     0
  0
SCALE
  5
53
102
{ACAD_REACTORS
330
47
102
}
330
47
100
AcDbScale
 70
     0
300
1:100
140
1.0
141
100.0
290
     0
  0
SCALE
  5
54
102
{ACAD_REACTORS
330
47
102
}
330
47
100
AcDbScale
 70
     0
300
2:1
140
2.0
141
1.0
290
     0
  0
SCALE
  5
55
102
{ACAD_REACTORS
330
47
102
}
330
47
100
AcDbScale
 70
     0
300
4:1
140
4.0
141
1.0
290
     0
  0
SCALE
  5
56
102
{ACAD_REACTORS
330
47
102
}
330
47
100
AcDbScale
 70
     0
300
8:1
140
8.0
141
1.0
290
     0
  0
SCALE
  5
57
102
{ACAD_REACTORS
330
47
102
}
330
47
100
AcDbScale
 70
     0
300
10:1
140
10.0
141
1.0
290
     0
  0
SCALE
  5
58
102
{ACAD_REACTORS
330
47
102
}
330
47
100
AcDbScale
 70
     0
300
100:1
140
100.0
141
1.0
290
     0
  0
ENDSEC
  0
EOF
